<?xml version="1.0" encoding="UTF-8"?>
<!DOCTYPE svg PUBLIC "-//W3C//DTD SVG 1.1//EN" "http://www.w3.org/Graphics/SVG/1.1/DTD/svg11.dtd">
<svg xmlns="http://www.w3.org/2000/svg" version="1.1" width="131px" height="136px" style="shape-rendering:geometricPrecision; text-rendering:geometricPrecision; image-rendering:optimizeQuality; fill-rule:evenodd; clip-rule:evenodd" xmlns:xlink="http://www.w3.org/1999/xlink">
<g><path style="opacity:0.957" fill="#020202" d="M 88.5,88.5 C 72.5741,87.3498 56.5741,87.1831 40.5,88C 39.6634,89.0113 39.33,90.1779 39.5,91.5C 55.5035,91.6666 71.5035,91.4999 87.5,91C 88.056,90.6174 88.3893,90.1174 88.5,89.5C 89.8024,92.1066 89.6357,94.7732 88,97.5C 84.8629,99.9856 81.3629,101.819 77.5,103C 86.8761,103.184 96.2094,103.85 105.5,105C 108.941,106.776 112.108,108.943 115,111.5C 116.042,114.804 114.875,116.971 111.5,118C 97.2398,116.897 82.9064,116.231 68.5,116C 66.8988,115.727 65.3988,115.227 64,114.5C 62.6012,115.227 61.1012,115.727 59.5,116C 46.255,115.991 33.0883,116.825 20,118.5C 12.1684,117.788 10.6684,114.455 15.5,108.5C 17.3359,107.081 19.3359,105.914 21.5,105C 31.124,103.842 40.7907,103.176 50.5,103C 45.9866,101.948 42.1532,99.7817 39,96.5C 37.6428,89.9093 39.1428,84.076 43.5,79C 35.9353,72.4643 33.4353,64.2976 36,54.5C 39.3437,43.8229 46.177,36.3229 56.5,32C 51.6434,24.782 52.9768,19.1153 60.5,15C 72.724,14.7306 76.3906,20.2306 71.5,31.5C 80.2474,36.414 86.7474,43.414 91,52.5C 94.451,62.6969 92.2843,71.3636 84.5,78.5C 86.8126,81.4369 88.1459,84.7702 88.5,88.5 Z"/></g>
<g><path style="opacity:1" fill="#e4e4e4" d="M 62.5,44.5 C 63.8221,44.33 64.9887,44.6634 66,45.5C 66.4955,47.4727 66.6621,49.4727 66.5,51.5C 68.5273,51.3379 70.5273,51.5045 72.5,52C 73.8333,53.3333 73.8333,54.6667 72.5,56C 70.5273,56.4955 68.5273,56.6621 66.5,56.5C 66.6621,58.5273 66.4955,60.5273 66,62.5C 64.6667,63.8333 63.3333,63.8333 62,62.5C 61.5045,60.5273 61.3379,58.5273 61.5,56.5C 59.4727,56.6621 57.4727,56.4955 55.5,56C 54.1667,54.6667 54.1667,53.3333 55.5,52C 57.4727,51.5045 59.4727,51.3379 61.5,51.5C 61.298,49.0504 61.6314,46.717 62.5,44.5 Z"/></g>
<g><path style="opacity:1" fill="#e4e4e4" d="M 47.5,75.5 C 58.1719,75.3335 68.8385,75.5002 79.5,76C 80.8333,77.3333 80.8333,78.6667 79.5,80C 68.8333,80.6667 58.1667,80.6667 47.5,80C 46.2721,78.5098 46.2721,77.0098 47.5,75.5 Z"/></g>
<g><path style="opacity:1" fill="#fdfdfd" d="M 88.5,88.5 C 88.5,88.8333 88.5,89.1667 88.5,89.5C 88.3893,90.1174 88.056,90.6174 87.5,91C 71.5035,91.4999 55.5035,91.6666 39.5,91.5C 39.33,90.1779 39.6634,89.0113 40.5,88C 56.5741,87.1831 72.5741,87.3498 88.5,88.5 Z"/></g>
</svg>
