<?xml version="1.0" encoding="UTF-8"?>
<svg version="1.1" xmlns="http://www.w3.org/2000/svg" width="1024" height="1024">
<path d="M0 0 C337.92 0 675.84 0 1024 0 C1024 337.92 1024 675.84 1024 1024 C686.08 1024 348.16 1024 0 1024 C0 686.08 0 348.16 0 0 Z " fill="#FAFAFA" transform="translate(0,0)"/>
<path d="M0 0 C39.27 0 78.54 0 119 0 C119.66 17.82 120.32 35.64 121 54 C121.99 62.25 122.98 70.5 124 79 C124.51953125 85.99609375 124.51953125 85.99609375 124.71728516 88.92529297 C125.33886313 95.68535599 126.54841595 102.37385892 127.6875 109.0625 C127.81905487 109.84424591 127.95060974 110.62599182 128.08615112 111.431427 C130.43560458 125.354461 133.16559018 139.16467314 136.30175781 152.93408203 C136.96064844 155.82721088 137.60243954 158.72368452 138.2421875 161.62109375 C140.90971062 173.47240935 144.38179995 184.96942718 148.19482422 196.49902344 C148.9823618 198.94521355 149.70724924 201.40274574 150.421875 203.87109375 C152.19159792 209.81962001 154.38803579 215.5887481 156.625 221.375 C157.06086426 222.50462158 157.49672852 223.63424316 157.94580078 224.7980957 C160.75675839 232.00428572 163.7045262 239.13202279 166.875 246.1875 C167.23158691 246.98140137 167.58817383 247.77530273 167.95556641 248.59326172 C169.57977092 252.13774572 171.2843554 255.56189454 173.2578125 258.92578125 C175 262 175 262 175 264 C98.11 264 21.22 264 -58 264 C-56.66869531 260.67173826 -55.34459247 257.57740427 -53.75 254.39453125 C-47.02099752 240.7697834 -41.2685437 226.94931969 -35.9987793 212.69921875 C-35.13259505 210.35834046 -34.25072387 208.02427278 -33.36328125 205.69140625 C-28.3414553 192.09362539 -24.67287921 178.00873803 -21 164 C-20.75636719 163.08766602 -20.51273437 162.17533203 -20.26171875 161.23535156 C-14.75279858 140.42960358 -11.38960914 119.23254542 -8 98 C-7.81808105 96.87432617 -7.63616211 95.74865234 -7.44873047 94.58886719 C-2.48225163 63.3541621 -1.57487439 31.4974879 0 0 Z " fill="#010101" transform="translate(453,456)"/>
<path d="M0 0 C80.52 0 161.04 0 244 0 C244.66 4.29 245.32 8.58 246 13 C252.54455491 33.05589407 269.64317194 46.99132998 284.31201172 61.35961914 C292.18812179 69.09623408 297.01906734 74.76253432 297.375 86.125 C297.30259646 94.17989421 294.99026742 99.59873987 289.71543026 105.59856892 C284.86265887 109.52614735 278.81416469 108.6912561 272.87342834 108.64164734 C271.52029258 108.64812735 270.16716579 108.65678264 268.81405634 108.66742164 C265.1012086 108.6902257 261.38898787 108.681855 257.67611897 108.66828239 C253.66986508 108.65902923 249.66373583 108.67851706 245.65751648 108.69425964 C237.81123196 108.72035497 229.9651765 108.71925646 222.11886508 108.70822146 C215.74175754 108.69966467 209.3647163 108.70049252 202.98760796 108.70801735 C202.08012347 108.70907224 201.17263898 108.71012713 200.23765497 108.71121398 C198.39412827 108.7133849 196.55060159 108.71557167 194.70707493 108.71777413 C177.417511 108.73720718 160.12807561 108.72520314 142.83852219 108.70298818 C128.00399158 108.68473866 113.16970987 108.69563845 98.33520508 108.72729492 C81.10923358 108.76405263 63.88341755 108.78108091 46.65740675 108.76788265 C44.82034046 108.76654154 42.98327414 108.76523256 41.14620781 108.76395607 C40.24233455 108.7633254 39.3384613 108.76269474 38.40719794 108.76204496 C32.0384118 108.75901709 25.66974288 108.77028079 19.30098152 108.78720665 C11.53844412 108.80752577 3.77625796 108.80667113 -3.98626106 108.77857425 C-7.94677806 108.76479548 -11.90668179 108.76062992 -15.86717606 108.78252411 C-19.49392619 108.80230845 -23.11952269 108.79432291 -26.746193 108.76432977 C-28.67734791 108.75548905 -30.60856855 108.77609824 -32.53962177 108.79779834 C-41.94131857 108.67522148 -41.94131857 108.67522148 -46.2309351 105.08170795 C-51.75124202 99.40916754 -53.23583418 93.79406412 -53.4375 85.9375 C-53.08868854 75.78926669 -50.24187355 70.0624289 -43 63 C-41.76619901 61.91545475 -40.52734117 60.83665126 -39.28515625 59.76171875 C-24.81618877 47.1996827 -9.89994143 33.24852932 -3 15 C-2.38125 13.453125 -2.38125 13.453125 -1.75 11.875 C-0.74003855 8.00348112 -0.44184591 3.97661323 0 0 Z " fill="#000000" transform="translate(390,756)"/>
<path d="M0 0 C1.29722046 -0.01104769 2.59444092 -0.02209538 3.93097109 -0.03347784 C5.3738821 -0.0255202 6.81679105 -0.0171825 8.25969791 -0.00850582 C9.78989443 -0.01382892 11.32008572 -0.02089323 12.85026699 -0.02955288 C17.06167217 -0.04823884 21.27272713 -0.0418549 25.48414719 -0.03139985 C30.02344206 -0.02442463 34.56266376 -0.04039299 39.10193729 -0.05339718 C47.99722868 -0.07507077 56.8923923 -0.07490168 65.78770142 -0.06677163 C73.01583741 -0.06047884 80.24393606 -0.06160204 87.47207165 -0.06804371 C89.01358182 -0.06939619 89.01358182 -0.06939619 90.5862336 -0.070776 C92.67376582 -0.07262715 94.76129803 -0.07448971 96.84883023 -0.07636356 C116.43740497 -0.09295379 136.02590775 -0.08421249 155.61447818 -0.06737798 C173.54582022 -0.05268054 191.47699471 -0.06730789 209.40831517 -0.09614814 C227.80847619 -0.12552267 246.20855981 -0.13652006 264.60874325 -0.12696594 C266.68902018 -0.12594336 268.76929713 -0.12494875 270.84957409 -0.12398243 C272.38497619 -0.12326784 272.38497619 -0.12326784 273.95139651 -0.12253882 C281.1721788 -0.12037209 288.39288805 -0.13019257 295.61365414 -0.14475346 C304.41159988 -0.16224682 313.20933196 -0.16220264 322.0072692 -0.1394018 C326.49806324 -0.12823216 330.98848044 -0.12515834 335.47925854 -0.14370251 C339.58816736 -0.16045175 343.69636904 -0.15423255 347.80523158 -0.12948572 C349.29374788 -0.12458361 350.78232061 -0.12816917 352.27078991 -0.14097316 C354.29034752 -0.15709555 356.31009062 -0.13955451 358.32962036 -0.12025452 C360.01403493 -0.11984998 360.01403493 -0.11984998 361.73247808 -0.11943728 C365.70817259 0.71093514 367.2166905 2.38167667 369.72773075 5.50615788 C370.37470341 8.74834538 370.37470341 8.74834538 370.39179325 12.38115788 C370.39823856 13.69600163 370.40468388 15.01084538 370.4113245 16.36553288 C370.40085087 17.04551334 370.39037724 17.72549381 370.37958622 18.42607975 C370.35279083 20.50150468 370.37935962 22.57152463 370.4113245 24.64678288 C370.40487919 25.96162663 370.39843388 27.27647038 370.39179325 28.63115788 C370.3861536 29.829986 370.38051395 31.02881413 370.37470341 32.26397038 C369.53168044 36.48862888 368.03627098 37.80267949 364.72773075 40.50615788 C361.73247808 41.13175303 361.73247808 41.13175303 358.32962036 41.13257027 C357.02979216 41.1449923 355.72996395 41.15741434 354.39074701 41.17021281 C352.95008762 41.15871183 351.50943194 41.14673962 350.06877995 41.13434696 C348.53700605 41.13939153 347.00523804 41.14661966 345.47348362 41.15584511 C341.26232108 41.17480724 337.05173775 41.16251163 332.84058964 41.14512217 C328.29996817 41.13177232 323.75943279 41.14717662 319.21881962 41.15894413 C310.32329374 41.17734248 301.42798722 41.16879398 292.53246813 41.15085591 C285.304821 41.13684252 278.0772335 41.13293439 270.84957409 41.13629818 C269.82174741 41.13677562 268.79392073 41.13725306 267.73494779 41.13774497 C265.64709137 41.13877128 263.55923496 41.13982664 261.47137857 41.14091074 C243.00152818 41.14948213 224.53178385 41.13278807 206.06195927 41.1030817 C188.12897124 41.07423906 170.196136 41.06716218 152.26313114 41.08257389 C132.74605034 41.09932393 113.2290421 41.10338281 93.71195942 41.08586353 C91.63199684 41.08401909 89.55203425 41.08218437 87.47207165 41.08035946 C86.44862453 41.07944737 85.4251774 41.07853528 84.37071673 41.07759555 C77.14896942 41.07198303 69.92725745 41.07530396 62.70551205 41.08190441 C53.90867362 41.0896251 45.11198575 41.08293062 36.31517773 41.05772937 C31.82455633 41.04520535 27.33416967 41.03912283 22.84353924 41.05027103 C18.73603189 41.06027582 14.62899375 41.05193485 10.52154375 41.02868985 C9.03240697 41.02350959 7.5432285 41.02512994 6.05410963 41.03408451 C4.03609073 41.04521386 2.01797641 41.02950171 0 41.01231575 C-1.68417104 41.01052853 -1.68417104 41.01052853 -3.40236574 41.0087052 C-6.94591557 40.38819601 -8.12830878 39.3507394 -10.27226925 36.50615788 C-10.78984737 33.17803288 -10.78984737 33.17803288 -10.80351925 29.25615788 C-10.80734615 28.56103092 -10.81117306 27.86590397 -10.81511593 27.14971256 C-10.81783105 25.68387747 -10.8104976 24.2179936 -10.79375362 22.75225163 C-10.77233343 20.51286813 -10.79356367 18.27669201 -10.81914425 16.03740788 C-10.8165009 14.61031749 -10.81137575 13.18322909 -10.80351925 11.75615788 C-10.79900753 10.46193913 -10.79449581 9.16772038 -10.78984737 7.83428288 C-9.7761068 1.31573971 -6.1601109 0.00653704 0 0 Z " fill="#000000" transform="translate(332.2722692489624,874.493842124939)"/>
<path d="M0 0 C28.16333906 4.02333415 50.92131925 15.41442005 73 33 C74.46566406 34.15822266 74.46566406 34.15822266 75.9609375 35.33984375 C101.508294 56.016588 101.508294 56.016588 106 65 C105.62818116 72.00824774 103.89769618 77.79946993 101.37890625 84.3125 C101.00704193 85.29978088 100.63517761 86.28706177 100.25204468 87.30426025 C99.44943478 89.43165748 98.64211272 91.5572818 97.83053589 93.68127441 C96.54711369 97.04026931 95.27585043 100.40363234 94.00805664 103.76855469 C92.68760152 107.27314428 91.36651296 110.77747619 90.04179382 114.28045654 C85.67163054 125.83941118 81.38299633 137.42774314 77.12203979 149.02734375 C75.95530857 152.20155005 74.78459045 155.37426548 73.61352539 158.546875 C72.89706596 160.49470627 72.18082679 162.44261857 71.46484375 164.390625 C71.14172211 165.26446838 70.81860046 166.13831177 70.48568726 167.03863525 C70.18611115 167.85636414 69.88653503 168.67409302 69.57788086 169.51660156 C69.19085243 170.56826508 69.19085243 170.56826508 68.79600525 171.64117432 C67.75496825 174.72610978 66.89445186 177.86941847 66 181 C44.22 181 22.44 181 0 181 C0 121.27 0 61.54 0 0 Z " fill="#020202" transform="translate(517,169)"/>
<path d="M0 0 C0 59.07 0 118.14 0 179 C-21.45 179 -42.9 179 -65 179 C-67.33260929 173.7516291 -69.55865467 168.71534934 -71.53125 163.36328125 C-71.75986221 162.74571457 -71.98847443 162.12814789 -72.22401428 161.49186707 C-72.98542217 159.43308068 -73.74268583 157.37279538 -74.5 155.3125 C-75.0491015 153.8254114 -75.5985098 152.33843605 -76.14819336 150.8515625 C-77.3863978 147.50129455 -78.62302087 144.15044769 -79.85888672 140.79931641 C-82.28586887 134.22177251 -84.72295824 127.6479828 -87.16015625 121.07421875 C-88.06120833 118.64347717 -88.96224996 116.21273171 -89.86328125 113.78198242 C-90.31010254 112.57657806 -90.75692383 111.37117371 -91.21728516 110.12924194 C-93.37603436 104.30517362 -95.53426575 98.48091437 -97.69140625 92.65625 C-98.06701187 91.64282028 -98.44261749 90.62939056 -98.8296051 89.58525085 C-99.88885733 86.72439972 -100.94487319 83.86237489 -102 81 C-102.56060623 79.48672119 -102.56060623 79.48672119 -103.13253784 77.94287109 C-103.49348541 76.96205566 -103.85443298 75.98124023 -104.22631836 74.97070312 C-104.55071396 74.09192505 -104.87510956 73.21314697 -105.20933533 72.30773926 C-106.28620485 69.1646444 -106.79964351 67.27126891 -106 64 C-91.14635225 44.41576719 -70.97416083 28.52722916 -50 16 C-49.14752686 15.48445557 -49.14752686 15.48445557 -48.27783203 14.95849609 C-33.6618146 6.23147644 -17.09713548 0 0 0 Z " fill="#010101" transform="translate(507,170)"/>
<path d="M0 0 C1.25803086 -0.00551503 1.25803086 -0.00551503 2.54147649 -0.01114148 C5.36809084 -0.02220554 8.19466847 -0.02602676 11.02130127 -0.02983093 C13.04139321 -0.03609352 15.06148398 -0.04274014 17.08157349 -0.04974365 C22.5816785 -0.06717229 28.0817748 -0.07771047 33.5819006 -0.08594918 C37.01624389 -0.09109533 40.45058447 -0.09717124 43.88492584 -0.10346031 C54.62451733 -0.12251749 65.36410192 -0.13674757 76.10370708 -0.14507228 C88.51125877 -0.15484796 100.91863222 -0.181174 113.32612109 -0.22157317 C122.9091923 -0.25170788 132.49221234 -0.26653864 142.07533002 -0.26985329 C147.80220007 -0.27220678 153.52887982 -0.28120611 159.25569916 -0.30631447 C164.64340993 -0.32955387 170.03080454 -0.33384499 175.4185524 -0.32355309 C177.3962649 -0.32305661 179.37399275 -0.32940981 181.35165787 -0.34310913 C184.05171377 -0.36076619 186.75062744 -0.35375251 189.45068359 -0.34057617 C190.23337765 -0.35154542 191.01607172 -0.36251466 191.82248378 -0.37381631 C197.02376925 -0.31253368 199.9915643 0.82859145 203.97930908 4.14717102 C206.957926 8.6150964 206.7124043 12.91077658 205.97930908 18.14717102 C204.37794115 21.50872023 202.13946919 23.53694569 198.82025051 25.28280067 C195.10230557 26.41400363 191.55988285 26.43005089 187.71174622 26.41459656 C186.88274636 26.41912767 186.0537465 26.42365878 185.19962543 26.4283272 C182.4237373 26.44098044 179.64804512 26.43935025 176.87213135 26.43769836 C174.88115181 26.44368296 172.8901746 26.45048835 170.89920044 26.45805359 C165.4922289 26.47572592 160.08532066 26.48040944 154.67832303 26.48168516 C150.16527479 26.4835842 145.65224129 26.49094163 141.13919872 26.49802935 C130.49303976 26.51431494 119.84691462 26.51919808 109.20074463 26.51777649 C98.21540568 26.5165744 87.23026299 26.53768926 76.24497372 26.56926382 C66.81469916 26.59540383 57.3844888 26.60614477 47.95417827 26.60486567 C42.32126049 26.60435545 36.68851718 26.61007218 31.05563545 26.63122177 C25.75897417 26.65056623 20.46265452 26.65075453 15.16598129 26.63618851 C13.22213556 26.63409473 11.27826866 26.63883504 9.3344593 26.65090942 C6.68052176 26.66632726 4.02776733 26.65707704 1.37385559 26.64164734 C0.60488073 26.65193447 -0.16409412 26.66222159 -0.95637125 26.67282045 C-6.11783842 26.60651655 -9.05515586 25.42200214 -13.02069092 22.14717102 C-15.61692907 18.33935507 -16.66896706 14.83341172 -16.51678467 10.17842102 C-15.58191514 6.35060878 -12.8978195 3.71869786 -10.02069092 1.14717102 C-6.86193718 -0.43220585 -3.46877976 -0.00080786 0 0 Z " fill="#020202" transform="translate(417.02069091796875,419.8528289794922)"/>
<path d="M0 0 C0.93843071 -0.00843994 1.87686143 -0.01687988 2.84372944 -0.02557558 C4.3852977 -0.01656051 4.3852977 -0.01656051 5.95800877 -0.00736332 C7.59943162 -0.01544163 7.59943162 -0.01544163 9.27401453 -0.02368313 C12.95366901 -0.03803079 16.6329672 -0.03084205 20.31263828 -0.023736 C22.94547917 -0.02943599 25.57831759 -0.03639879 28.21115208 -0.04453373 C34.6278965 -0.06174247 41.04454309 -0.06255746 47.4613046 -0.05732083 C52.67618455 -0.05328172 57.89103555 -0.05471958 63.10591412 -0.06006908 C63.84772535 -0.06081751 64.58953659 -0.06156593 65.35382696 -0.06233703 C66.86074817 -0.06386848 68.36766938 -0.06540683 69.87459058 -0.066952 C84.01084104 -0.08068456 98.14703618 -0.07523406 112.28328539 -0.06376678 C125.21922773 -0.0538337 138.15502705 -0.06677498 151.09094732 -0.09070098 C164.36988872 -0.11507659 177.64876347 -0.12470364 190.92772681 -0.11804825 C198.38433463 -0.11455258 205.84083243 -0.11681091 213.29742336 -0.13429928 C219.64513594 -0.14900209 225.99266105 -0.14968205 232.34036987 -0.13222837 C235.57955505 -0.12369986 238.81833507 -0.12377081 242.05751514 -0.13687992 C245.56787866 -0.15000439 249.0773241 -0.13861711 252.58764744 -0.12088871 C253.6131289 -0.13049372 254.63861035 -0.14009872 255.69516701 -0.14999479 C260.04908717 -0.10458683 262.64687426 -0.01809491 266.4729557 2.19289207 C268.33631992 4.38031673 268.33631992 4.38031673 268.89881992 7.88031673 C268.33631992 11.38031673 268.33631992 11.38031673 266.97018528 13.56690025 C262.78345232 16.44946619 258.59960422 15.93448827 253.63197422 15.89498043 C252.52881965 15.90192596 251.42566507 15.90887149 250.28908157 15.91602749 C246.57936376 15.93437606 242.87027977 15.9240109 239.16053867 15.913764 C236.50635371 15.92081846 233.85221435 15.92942407 231.19804478 15.93987179 C224.72947485 15.96153083 218.26108071 15.96138016 211.79248643 15.95324624 C206.53611472 15.94695055 201.27979435 15.9480793 196.02342319 15.95451832 C195.27577251 15.95541997 194.52812183 15.95632163 193.75781506 15.95725061 C192.23905411 15.95910177 190.72029317 15.96096433 189.20153224 15.96283817 C174.95465679 15.97942309 160.70788033 15.97069138 146.46101081 15.95385259 C133.42089684 15.93915306 120.38101322 15.95378627 107.34092891 15.98262275 C93.95689091 16.01199986 80.57295929 16.0229941 67.18889046 16.01344055 C65.67566587 16.01241798 64.16244127 16.01142337 62.64921665 16.01045704 C61.53236619 16.00974245 61.53236619 16.00974245 60.3929531 16.00901343 C55.14188723 16.00684717 49.89092185 16.01666454 44.63987827 16.03122807 C38.24196002 16.04872462 31.84433558 16.04867286 25.44642901 16.02587641 C22.1809659 16.01470963 18.91612962 16.01431518 15.65067005 16.03017712 C12.11350128 16.04600379 8.57776545 16.03125291 5.04066563 16.00850582 C3.48640133 16.02625941 3.48640133 16.02625941 1.90073776 16.04437166 C-5.00191586 15.95373347 -5.00191586 15.95373347 -8.33270168 13.06761742 C-10.16187029 9.37445 -9.8221614 7.2901912 -8.66368008 3.38031673 C-5.82826983 0.67915434 -3.87364642 0.00492225 0 0 Z " fill="#080808" transform="translate(382.6636800765991,729.619683265686)"/>
<path d="M0 0 C0.65255268 -0.00382555 1.30510536 -0.00765109 1.97743237 -0.01159257 C4.16221194 -0.02190445 6.34672781 -0.01793394 8.53152466 -0.01396179 C10.09871667 -0.01830931 11.66590655 -0.0234926 13.23309326 -0.02944946 C17.48934579 -0.04284737 21.74550957 -0.04341719 26.00177908 -0.04088616 C29.55544091 -0.03981685 33.10908475 -0.04469888 36.66274273 -0.04949158 C45.04740246 -0.06058981 53.43201739 -0.0610226 61.81668091 -0.05497742 C70.4645073 -0.0489383 79.11217096 -0.06124631 87.75996959 -0.08254749 C95.18599544 -0.10016617 102.61196951 -0.10616437 110.03801548 -0.10290974 C114.47261231 -0.10109695 118.90709309 -0.10373258 123.34167099 -0.11762428 C127.51301125 -0.13020212 131.68409804 -0.128259 135.85543442 -0.11521339 C137.38484788 -0.11284785 138.91427917 -0.11558155 140.44367218 -0.12383652 C142.53484434 -0.13430818 144.62516665 -0.126201 146.71630859 -0.11352539 C147.88547758 -0.11369313 149.05464657 -0.11386087 150.25924492 -0.1140337 C155.08627676 0.44668985 158.3559062 2.19089792 161.86013794 5.51069641 C163.48513794 8.26069641 163.48513794 8.26069641 163.48513794 15.26069641 C104.41513794 15.26069641 45.34513794 15.26069641 -15.51486206 15.26069641 C-15.51486206 7.35406991 -15.51486206 7.35406991 -13.26486206 4.94819641 C-8.86748612 0.65076083 -6.12893901 0.01076836 0 0 Z " fill="#080808" transform="translate(438.5148620605469,393.7393035888672)"/>
<path d="M0 0 C5.69104385 5.63611099 8.28496003 11.68622123 8.5 19.6875 C8.40200418 26.87134707 6.56220138 31.49947352 2 37 C-4.68286671 43.36463496 -10.59712226 43.50543687 -19.42236328 43.49755859 C-25.26473205 43.35020072 -29.7395392 42.92367778 -34.30078125 38.9453125 C-40.57052916 31.76753213 -42.99249237 26.10647771 -42.5078125 16.40234375 C-41.38083703 8.85160808 -38.44243769 3.83704334 -32.5625 -1 C-21.56379532 -8.68823929 -10.89008413 -7.42220432 0 0 Z " fill="#030303" transform="translate(529,116)"/>
<path d="M0 0 C1.68769831 0.00081715 1.68769831 0.00081715 3.40949154 0.00165081 C4.69816128 -0.00254368 5.98683102 -0.00673817 7.31455135 -0.01105976 C8.75081614 -0.00557587 10.18708018 0.00010712 11.62334347 0.00596905 C13.12938679 0.00489662 14.6354297 0.00295854 16.14147091 0.00021648 C20.23843695 -0.00464096 24.33529448 0.00303468 28.4322474 0.01316953 C32.71192288 0.02193401 36.9915948 0.0201929 41.27127743 0.01980877 C48.45815002 0.02074605 55.64498045 0.02943915 62.83183956 0.04307842 C71.15248156 0.05881059 79.47307738 0.06407636 87.79373318 0.06334287 C95.78462624 0.06273347 103.77550418 0.06783044 111.76639271 0.07613468 C115.17348441 0.07967407 118.58057077 0.08149886 121.98766422 0.08202839 C125.99555953 0.08302964 130.00341575 0.08910834 134.01129818 0.09919453 C135.48636734 0.10212634 136.96144099 0.10334353 138.43651295 0.10276699 C140.44167017 0.10227966 142.44682575 0.10852541 144.45197201 0.1151762 C145.57672719 0.11685205 146.70148237 0.11852789 147.86032104 0.12025452 C150.36723995 0.24888897 150.36723995 0.24888897 151.36723995 1.24888897 C151.61723995 4.68638897 151.61723995 4.68638897 151.36723995 8.24888897 C147.86488539 10.58379201 146.47318006 10.50185349 142.3320837 10.50958538 C140.43921627 10.52021259 140.43921627 10.52021259 138.50810909 10.5310545 C137.10698569 10.52876061 135.70586262 10.5262509 134.30473995 10.52354717 C132.83134865 10.52789363 131.35795961 10.53307656 129.88457394 10.53903484 C125.88052021 10.55244216 121.87656078 10.55300168 117.87248898 10.55047154 C114.53233229 10.54940317 111.19219478 10.55428169 107.8520422 10.55907696 C99.97428107 10.57017779 92.09656762 10.57060609 84.21880245 10.5645628 C76.08500699 10.55851919 67.95138434 10.57084247 59.81761837 10.59213287 C52.83921357 10.60972911 45.86086388 10.61575343 38.88243771 10.61249512 C34.71228494 10.61067921 30.5422555 10.6133491 26.37212276 10.62720966 C22.4519568 10.63975161 18.53206102 10.63787868 14.61189938 10.62479877 C13.17152981 10.6224256 11.73114144 10.62519408 10.29079342 10.6334219 C8.32801892 10.64382739 6.36516796 10.6340208 4.4023962 10.62311077 C3.30290646 10.62327851 2.20341671 10.62344625 1.07060909 10.62361908 C-1.63276005 10.24888897 -1.63276005 10.24888897 -3.49042606 8.88565636 C-5.10133868 6.57749668 -4.98510183 4.99715484 -4.63276005 2.24888897 C-2.63276005 0.24888897 -2.63276005 0.24888897 0 0 Z " fill="#0D0D0D" transform="translate(438.6327600479126,357.7511110305786)"/>
<path d="M0 0 C43.56 0 87.12 0 132 0 C132.33 2.97 132.66 5.94 133 9 C88.78 9 44.56 9 -1 9 C-0.67 6.03 -0.34 3.06 0 0 Z " fill="#0B0A0A" transform="translate(446,375)"/>
<path d="M0 0 C0.495 1.98 0.495 1.98 1 4 C0.34 4 -0.32 4 -1 4 C-1.26941406 4.74121094 -1.53882813 5.48242188 -1.81640625 6.24609375 C-8.14799402 20.97800588 -24.18736567 33.29527695 -35.47094727 44.43432617 C-36.86204712 45.81261597 -36.86204712 45.81261597 -38.28125 47.21875 C-39.53518555 48.4552832 -39.53518555 48.4552832 -40.81445312 49.71679688 C-42.7342304 51.72235508 -44.397525 53.73783513 -46 56 C-46 49.49342879 -40.11450465 44.88140657 -35.8046875 40.5390625 C-34 39 -34 39 -32 39 C-31.773125 38.443125 -31.54625 37.88625 -31.3125 37.3125 C-29.62449964 34.33840412 -27.53323483 32.27991135 -25 30 C-24.34 30 -23.68 30 -23 30 C-22.67 29.01 -22.34 28.02 -22 27 C-21.34 27 -20.68 27 -20 27 C-19.74347656 26.41476562 -19.48695313 25.82953125 -19.22265625 25.2265625 C-17.89437838 22.80765392 -16.43475199 21.26801128 -14.4375 19.375 C-11.85984611 16.95478041 -11.85984611 16.95478041 -10 14 C-9.34 14 -8.68 14 -8 14 C-8 13.01 -8 12.02 -8 11 C-6.66666667 9.66666667 -5.33333333 8.33333333 -4 7 C-2.54483044 4.71892339 -1.2843899 2.38529553 0 0 Z " fill="#C2C3C4" transform="translate(376,768)"/>
<path d="M0 0 C1.21123123 3.63369368 0.70332787 4.39125701 -0.73828125 7.83984375 C-1.14167725 8.81139404 -1.54507324 9.78294434 -1.96069336 10.78393555 C-2.40678955 11.82461182 -2.85288574 12.86528809 -3.3125 13.9375 C-3.98841187 15.53621948 -3.98841187 15.53621948 -4.67797852 17.16723633 C-15.85397266 43.24972378 -15.85397266 43.24972378 -22 52 C-24.6875 52.3125 -24.6875 52.3125 -27 52 C-27 51.34 -27 50.68 -27 50 C-26.39414062 49.75765625 -25.78828125 49.5153125 -25.1640625 49.265625 C-19.93388827 46.20682274 -17.5694624 38.5644576 -16 33 C-15.34 33 -14.68 33 -14 33 C-13.73832031 32.15695312 -13.47664063 31.31390625 -13.20703125 30.4453125 C-11.92855939 26.79608214 -10.36138763 23.3530018 -8.6875 19.875 C-5.58198186 13.3321323 -2.71397737 6.71615599 0 0 Z " fill="#B5B7B7" transform="translate(405,668)"/>
<path d="M0 0 C11.55 0 23.1 0 35 0 C31.73825106 2.1744993 30.89742639 2.23359167 27.140625 2.16015625 C25.71363281 2.1437207 25.71363281 2.1437207 24.2578125 2.12695312 C23.26523437 2.10568359 22.27265625 2.08441406 21.25 2.0625 C15.04501762 1.9519891 9.1204847 1.89728697 3 3 C2.67 4.98 2.34 6.96 2 9 C1.34 9 0.68 9 0 9 C0 6.03 0 3.06 0 0 Z " fill="#BCBDBD" transform="translate(582,456)"/>
<path d="M0 0 C0 3 0 3 -1.625 4.69921875 C-2.40875 5.35535156 -3.1925 6.01148438 -4 6.6875 C-9.02643564 11.05047499 -13.74709509 15.65329036 -18.4375 20.375 C-19.48454102 21.42820435 -19.48454102 21.42820435 -20.55273438 22.50268555 C-21.81927693 23.7786316 -23.08493958 25.05545222 -24.34936523 26.33349609 C-25.89482481 27.89381366 -27.44576799 29.44842581 -29 31 C-27.75105502 23.20728695 -19.45697613 17.37506709 -13.734375 12.55078125 C-11.83471364 10.94456572 -11.83471364 10.94456572 -10 8.4375 C-7.15523184 4.97043881 -3.64624496 2.57538176 0 0 Z " fill="#CFD0CF" transform="translate(421,197)"/>
<path d="M0 0 C0.66 0.66 1.32 1.32 2 2 C0.38113585 3.67262717 -1.2452729 5.33795537 -2.875 7 C-4.23238281 8.3921875 -4.23238281 8.3921875 -5.6171875 9.8125 C-8 12 -8 12 -10 12 C-10 11.34 -10 10.68 -10 10 C-9.34 10 -8.68 10 -8 10 C-7.67 9.01 -7.34 8.02 -7 7 C-6.34 7 -5.68 7 -5 7 C-4.731875 6.401875 -4.46375 5.80375 -4.1875 5.1875 C-3.01506533 3.02775192 -1.80630718 1.64209744 0 0 Z " fill="#C2C3C3" transform="translate(361,788)"/>
<path d="M0 0 C0.66 0.66 1.32 1.32 2 2 C0.68 4.31 -0.64 6.62 -2 9 C-3.65 9 -5.3 9 -7 9 C-7 8.34 -7 7.68 -7 7 C-6.401875 6.773125 -5.80375 6.54625 -5.1875 6.3125 C-2.43648112 4.66188867 -1.47515363 2.8027919 0 0 Z " fill="#BEBFBE" transform="translate(385,711)"/>
<path d="M0 0 C0.99 0.66 1.98 1.32 3 2 C3 2.66 3 3.32 3 4 C0.03 4 -2.94 4 -6 4 C-5.34 3.34 -4.68 2.68 -4 2 C-2.68 2 -1.36 2 0 2 C0 1.34 0 0.68 0 0 Z " fill="#B2B4B3" transform="translate(330,861)"/>
<path d="M0 0 C0.66 0.33 1.32 0.66 2 1 C0.73046875 2.49739583 -0.5390625 3.99479167 -1.80859375 5.4921875 C-3.0878152 7.00594079 -3.0878152 7.00594079 -4 9 C-4.66 8.67 -5.32 8.34 -6 8 C-3.375 2.25 -3.375 2.25 0 0 Z " fill="#BFC0BF" transform="translate(419,388)"/>
<path d="M0 0 C0.66 0 1.32 0 2 0 C0.4169423 4.2742558 -2.50568404 6.26531794 -6 9 C-4.4722133 5.56247993 -2.49818944 2.81046312 0 0 Z " fill="#E9E9E8" transform="translate(422,386)"/>
</svg>
