<?xml version="1.0" standalone="no"?>
<!DOCTYPE svg PUBLIC "-//W3C//DTD SVG 20010904//EN"
 "http://www.w3.org/TR/2001/REC-SVG-20010904/DTD/svg10.dtd">
<svg version="1.0" xmlns="http://www.w3.org/2000/svg"
 width="1024.000000pt" height="1024.000000pt" viewBox="0 0 1024.000000 1024.000000"
 preserveAspectRatio="xMidYMid meet">

<g transform="translate(0.000000,1024.000000) scale(0.100000,-0.100000)"
fill="#000000" stroke="none">
<path d="M4920 9158 c0 -7 20 -85 45 -172 25 -88 44 -160 43 -162 -2 -1 -75
15 -163 37 -88 21 -166 39 -172 39 -10 0 -13 -44 -13 -186 l0 -185 23 7 c51
17 322 83 325 79 2 -2 -14 -66 -36 -142 -22 -76 -39 -139 -38 -140 1 -1 24 4
51 12 61 19 208 19 268 1 26 -8 47 -10 47 -6 0 4 -16 65 -35 136 -19 70 -35
131 -35 135 0 4 78 -13 172 -37 95 -24 174 -44 175 -44 2 0 3 83 3 185 0 170
-1 185 -17 185 -10 0 -88 -18 -173 -40 -85 -21 -156 -37 -158 -36 -1 2 18 76
43 165 25 88 45 165 45 171 0 6 -72 10 -200 10 -153 0 -200 -3 -200 -12z"/>
<path d="M5046 8249 c-94 -14 -199 -69 -226 -119 -7 -13 29 -15 300 -15 340 0
334 -2 252 61 -78 59 -214 90 -326 73z"/>
<path d="M4775 7999 c-307 -28 -614 -120 -639 -190 -7 -21 23 -106 189 -525
109 -274 200 -505 202 -511 4 -10 132 -13 592 -13 l586 0 28 73 c15 39 107
273 204 520 173 439 176 447 158 467 -54 60 -268 126 -540 166 -121 19 -633
27 -780 13z"/>
<path d="M4462 6668 c-16 -16 -15 -53 1 -66 14 -12 1298 -19 1317 -7 18 11 12
63 -9 75 -30 15 -1293 14 -1309 -2z"/>
<path d="M4577 6503 c-3 -5 -8 -24 -12 -44 l-7 -37 109 -4 c59 -2 312 -2 561
0 l452 5 -6 36 c-4 20 -8 39 -10 42 -5 9 -1082 11 -1087 2z"/>
<path d="M4373 6290 c-34 -20 -63 -66 -63 -98 0 -18 24 -19 803 -25 441 -3
806 -2 811 3 14 14 -4 69 -34 99 -16 15 -43 31 -61 35 -17 3 -345 6 -728 6
-673 0 -697 -1 -728 -20z"/>
<path d="M4185 6053 c-49 -13 -95 -75 -95 -129 0 -31 34 -87 64 -105 30 -18
69 -19 970 -19 l938 0 39 39 c35 35 39 44 39 91 0 45 -4 56 -32 84 l-33 33
-205 6 c-233 8 -1655 7 -1685 0z"/>
<path d="M4598 5684 c-5 -4 -8 -48 -8 -98 0 -107 -16 -385 -30 -541 -69 -742
-253 -1462 -496 -1947 -19 -37 -34 -70 -34 -73 0 -3 490 -5 1089 -5 l1090 0
-68 148 c-193 418 -331 901 -410 1437 -39 261 -78 723 -84 980 l-2 100 -520 3
c-286 2 -523 0 -527 -4z"/>
<path d="M3810 2890 c-25 -25 -26 -71 -1 -101 l19 -24 1274 0 c700 1 1285 4
1299 8 24 6 49 42 49 71 0 7 -9 25 -21 40 l-20 26 -1290 0 c-1276 0 -1289 0
-1309 -20z"/>
<path d="M3970 2607 c0 -24 -10 -71 -21 -106 -37 -109 -108 -202 -310 -403
-170 -170 -190 -192 -204 -240 -32 -107 -6 -217 65 -282 l40 -36 1581 0 1582
0 42 43 c50 49 68 102 67 194 -1 101 -19 128 -223 333 -242 242 -319 361 -319
490 l0 50 -1150 0 -1150 0 0 -43z"/>
<path d="M3304 1418 c-37 -17 -44 -51 -44 -201 1 -148 4 -163 47 -185 16 -9
471 -12 1817 -12 l1795 0 28 24 c28 24 28 26 31 153 2 76 -1 143 -8 165 -21
74 132 68 -1857 67 -1210 0 -1795 -4 -1809 -11z"/>
</g>
</svg>
