<?xml version="1.0" encoding="UTF-8"?>
<!DOCTYPE svg PUBLIC "-//W3C//DTD SVG 1.1//EN" "http://www.w3.org/Graphics/SVG/1.1/DTD/svg11.dtd">
<svg xmlns="http://www.w3.org/2000/svg" version="1.1" width="135px" height="133px" style="shape-rendering:geometricPrecision; text-rendering:geometricPrecision; image-rendering:optimizeQuality; fill-rule:evenodd; clip-rule:evenodd" xmlns:xlink="http://www.w3.org/1999/xlink">
<g><path style="opacity:0.86" fill="#060606" d="M 98.5,89.5 C 98.1667,89.5 97.8333,89.5 97.5,89.5C 98.1175,87.7708 99.1175,86.2708 100.5,85C 111.417,79.434 116.25,70.6007 115,58.5C 110.992,50.5756 104.492,46.9089 95.5,47.5C 82.8023,48.6779 72.9689,54.6779 66,65.5C 55.4589,49.9645 41.2922,44.7979 23.5,50C 15.6625,57.5251 14.4958,66.0251 20,75.5C 23.5813,79.7523 27.748,83.2523 32.5,86C 31.7476,86.6708 31.4142,87.5041 31.5,88.5C 31.1667,88.5 30.8333,88.5 30.5,88.5C 24.526,84.6912 19.6926,79.6912 16,73.5C 11.6602,52.5089 20.1602,42.6756 41.5,44C 45.8055,44.9032 49.6388,46.7365 53,49.5C 52.6103,41.7498 55.777,36.0831 62.5,32.5C 63.4742,30.2573 63.8076,27.924 63.5,25.5C 61.4727,25.6621 59.4727,25.4955 57.5,25C 56.1667,23.3333 56.1667,21.6667 57.5,20C 59.4727,19.5045 61.4727,19.3379 63.5,19.5C 63.0769,16.7118 64.0769,14.7118 66.5,13.5C 68.2825,15.0225 68.9492,17.0225 68.5,19.5C 70.5273,19.3379 72.5273,19.5045 74.5,20C 76.5268,21.3957 76.8602,23.0624 75.5,25C 73.1902,25.4966 70.8568,25.6633 68.5,25.5C 68.5,27.8333 68.5,30.1667 68.5,32.5C 75.2817,35.0107 78.9483,40.0107 79.5,47.5C 92.9608,40.5997 104.794,42.5997 115,53.5C 119.478,61.304 119.145,68.9707 114,76.5C 109.545,81.7972 104.379,86.1305 98.5,89.5 Z"/></g>
<g><path style="opacity:1" fill="#f0f0f0" d="M 97.5,89.5 C 90.5749,87.5183 83.5749,85.685 76.5,84C 61.8305,82.2867 47.6639,84.12 34,89.5C 32.9302,89.472 32.0968,89.1386 31.5,88.5C 31.4142,87.5041 31.7476,86.6708 32.5,86C 27.748,83.2523 23.5813,79.7523 20,75.5C 14.4958,66.0251 15.6625,57.5251 23.5,50C 41.2922,44.7979 55.4589,49.9645 66,65.5C 72.9689,54.6779 82.8023,48.6779 95.5,47.5C 104.492,46.9089 110.992,50.5756 115,58.5C 116.25,70.6007 111.417,79.434 100.5,85C 99.1175,86.2708 98.1175,87.7708 97.5,89.5 Z"/></g>
<g><path style="opacity:1" fill="#040404" d="M 63.5,71.5 C 63.5,73.8333 63.5,76.1667 63.5,78.5C 60.6146,78.1936 57.9479,78.5269 55.5,79.5C 49.2281,79.5677 43.2281,80.9011 37.5,83.5C 30.5873,80.7533 25.4206,76.0867 22,69.5C 19.5477,58.3616 23.881,52.3616 35,51.5C 48.2767,52.9652 57.7767,59.6319 63.5,71.5 Z"/></g>
<g><path style="opacity:1" fill="#060606" d="M 90.5,51.5 C 101.082,49.615 108.082,53.615 111.5,63.5C 108.987,73.5137 102.821,80.1804 93,83.5C 85.0742,80.7068 76.9075,79.3735 68.5,79.5C 67.4784,72.8839 69.3117,67.2172 74,62.5C 78.9973,57.9294 84.4973,54.2627 90.5,51.5 Z"/></g>
<g><path style="opacity:1" fill="#898989" d="M 63.5,71.5 C 64.4731,73.9479 64.8064,76.6146 64.5,79.5C 61.5,79.5 58.5,79.5 55.5,79.5C 57.9479,78.5269 60.6146,78.1936 63.5,78.5C 63.5,76.1667 63.5,73.8333 63.5,71.5 Z"/></g>
<g><path style="opacity:1" fill="#eeeeee" d="M 98.5,96.5 C 98.5,97.5 98.5,98.5 98.5,99.5C 97.7354,99.9234 96.9021,100.257 96,100.5C 75.2371,91.3321 54.5704,91.3321 34,100.5C 31.5,99.6667 31,98.1667 32.5,96C 42.1092,91.2227 52.2758,89.0561 63,89.5C 75.4494,88.9192 87.2828,91.2526 98.5,96.5 Z"/></g>
<g><path style="opacity:0.969" fill="#0d0d0d" d="M 97.5,89.5 C 97.8333,89.5 98.1667,89.5 98.5,89.5C 98.5,91.8333 98.5,94.1667 98.5,96.5C 87.2828,91.2526 75.4494,88.9192 63,89.5C 52.2758,89.0561 42.1092,91.2227 32.5,96C 31,98.1667 31.5,99.6667 34,100.5C 54.5704,91.3321 75.2371,91.3321 96,100.5C 96.9021,100.257 97.7354,99.9234 98.5,99.5C 98.5,102.167 98.5,104.833 98.5,107.5C 78.7043,98.3086 58.371,97.142 37.5,104C 33.7077,104.689 31.7077,106.856 31.5,110.5C 30.5084,103.352 30.175,96.0191 30.5,88.5C 30.8333,88.5 31.1667,88.5 31.5,88.5C 32.0968,89.1386 32.9302,89.472 34,89.5C 47.6639,84.12 61.8305,82.2867 76.5,84C 83.5749,85.685 90.5749,87.5183 97.5,89.5 Z"/></g>
<g><path style="opacity:1" fill="#eaeaea" d="M 98.5,107.5 C 98.7373,108.791 98.404,109.791 97.5,110.5C 90.6147,108.374 83.6147,106.541 76.5,105C 61.2694,102.976 46.6027,104.81 32.5,110.5C 32.1667,110.5 31.8333,110.5 31.5,110.5C 31.7077,106.856 33.7077,104.689 37.5,104C 58.371,97.142 78.7043,98.3086 98.5,107.5 Z"/></g>
<g><path style="opacity:0.95" fill="#030303" d="M 97.5,110.5 C 87.4723,116.68 76.4723,119.346 64.5,118.5C 52.8226,119.238 42.156,116.572 32.5,110.5C 46.6027,104.81 61.2694,102.976 76.5,105C 83.6147,106.541 90.6147,108.374 97.5,110.5 Z"/></g>
</svg>
