<?xml version="1.0" standalone="no"?>
<!DOCTYPE svg PUBLIC "-//W3C//DTD SVG 20010904//EN"
 "http://www.w3.org/TR/2001/REC-SVG-20010904/DTD/svg10.dtd">
<svg version="1.0" xmlns="http://www.w3.org/2000/svg"
 width="1024.000000pt" height="1024.000000pt" viewBox="0 0 1024.000000 1024.000000"
 preserveAspectRatio="xMidYMid meet">

<g transform="translate(0.000000,1024.000000) scale(0.100000,-0.100000)"
fill="#000000" stroke="none">
<path d="M5100 9085 c0 -24 -48 -549 -55 -601 l-6 -41 -82 -12 c-102 -14 -268
-51 -411 -92 l-110 -31 -310 -297 c-171 -163 -477 -454 -681 -646 -203 -192
-397 -375 -429 -406 l-59 -56 11 -69 c5 -38 25 -166 42 -284 18 -118 35 -218
39 -222 3 -3 45 -11 92 -17 161 -19 246 6 443 127 55 34 102 60 104 57 9 -8
-104 -158 -147 -196 -55 -47 -151 -97 -203 -105 -21 -4 -38 -8 -38 -10 0 -3
12 -22 26 -44 l27 -40 201 0 201 0 131 168 132 168 103 31 c57 17 197 60 311
96 l208 65 51 -19 c77 -29 203 -57 294 -64 142 -12 333 34 450 108 76 48 182
154 236 235 95 144 138 300 148 532 l6 155 24 -95 c104 -423 -65 -807 -432
-985 -138 -66 -197 -79 -367 -79 -80 -1 -166 3 -192 7 l-46 8 -63 -83 c-35
-46 -165 -211 -289 -368 -124 -157 -284 -359 -356 -450 -71 -90 -250 -318
-397 -505 -148 -187 -271 -346 -274 -353 -3 -6 17 -67 45 -135 60 -146 376
-952 386 -984 l7 -23 1291 0 c1187 0 1290 1 1284 16 -18 48 -70 275 -91 398
-35 211 -46 347 -46 585 0 309 31 567 122 1006 113 547 139 675 153 775 90
617 9 1076 -261 1485 -131 197 -388 426 -584 517 l-66 31 -23 71 c-35 111 -66
173 -136 278 -95 143 -262 313 -386 393 -27 16 -28 16 -28 0z m-320 -1191
c116 -10 124 -17 46 -40 -51 -14 -65 -22 -60 -34 40 -95 -27 -216 -131 -236
-51 -9 -116 14 -156 56 l-36 38 -63 -62 c-34 -33 -61 -56 -59 -51 26 69 153
306 169 315 27 14 134 29 180 24 19 -2 69 -6 110 -10z m-741 -301 c-377 -390
-456 -493 -490 -641 l-12 -51 -49 96 -48 97 32 34 c111 115 590 522 616 522 4
0 -19 -26 -49 -57z m-714 -657 c40 -69 47 -102 28 -147 -11 -28 -28 -47 -57
-63 -43 -25 -134 -51 -144 -41 -8 7 35 83 71 124 37 43 66 107 67 144 0 15 2
27 5 27 2 0 16 -20 30 -44z m1329 -1143 c-371 -566 -601 -1103 -607 -1419 l-2
-81 -24 36 c-37 56 -111 129 -166 163 -27 18 -51 33 -53 34 -6 4 61 161 119
276 144 286 401 651 649 919 93 101 116 121 84 72z"/>
<path d="M4575 7818 c-49 -26 -58 -69 -24 -112 26 -33 79 -36 109 -6 30 30 27
83 -6 109 -30 23 -49 26 -79 9z"/>
<path d="M4655 8739 c4 -123 8 -225 9 -226 0 0 39 7 86 17 47 10 102 21 122
24 42 8 44 11 53 113 l7 72 -49 46 c-55 54 -140 120 -197 155 l-39 23 8 -224z"/>
<path d="M5673 8678 c25 -45 59 -121 77 -168 l32 -85 81 -45 c194 -107 443
-336 567 -522 230 -344 332 -726 317 -1183 -10 -271 -41 -473 -162 -1040 -122
-569 -140 -717 -140 -1125 0 -337 8 -421 61 -673 40 -191 15 -185 221 -48 98
64 239 158 313 207 74 49 138 91 142 94 4 3 -11 52 -33 109 -204 526 -238
1001 -134 1866 46 385 50 440 50 710 0 296 -10 387 -65 613 -154 632 -603
1127 -1200 1325 -58 19 -120 38 -138 42 l-33 7 44 -84z"/>
<path d="M3744 3380 c-36 -14 -64 -59 -64 -101 0 -30 7 -45 34 -71 84 -83 104
-206 54 -344 -48 -136 -143 -252 -438 -534 -162 -155 -197 -195 -221 -245 -52
-109 -34 -253 44 -341 l39 -44 1940 0 1941 0 35 37 c86 92 100 238 35 367 -16
32 -60 82 -122 140 -275 257 -446 446 -499 551 -49 98 -65 223 -40 306 6 21
31 62 55 90 35 41 43 58 43 90 0 51 -13 75 -50 94 -25 13 -196 15 -1397 14
-752 0 -1378 -4 -1389 -9z"/>
<path d="M3064 1549 c-16 -5 -41 -20 -55 -35 -24 -25 -24 -28 -24 -221 0 -193
0 -195 24 -214 23 -19 70 -19 2121 -19 2050 0 2098 0 2121 19 23 19 24 25 27
188 4 193 -3 231 -51 265 l-32 23 -2050 2 c-1179 1 -2063 -3 -2081 -8z"/>
</g>
</svg>
