<?xml version="1.0" encoding="UTF-8"?>
<!DOCTYPE svg PUBLIC "-//W3C//DTD SVG 1.1//EN" "http://www.w3.org/Graphics/SVG/1.1/DTD/svg11.dtd">
<svg xmlns="http://www.w3.org/2000/svg" version="1.1" width="130px" height="126px" style="shape-rendering:geometricPrecision; text-rendering:geometricPrecision; image-rendering:optimizeQuality; fill-rule:evenodd; clip-rule:evenodd" xmlns:xlink="http://www.w3.org/1999/xlink">
<g><path style="opacity:0.956" fill="#010101" d="M 62.5,9.5 C 67.6668,10.7073 70.0001,14.0406 69.5,19.5C 90.7175,21.7067 104.551,33.04 111,53.5C 116.036,71.8524 117.703,90.5191 116,109.5C 92.2392,110.66 68.4059,110.827 44.5,110C 42.4557,102.449 43.9557,95.6155 49,89.5C 54.0336,84.8012 58.7002,79.8012 63,74.5C 65.5751,70.1173 66.9084,65.4507 67,60.5C 57.1355,68.6676 47.6355,77.1676 38.5,86C 35.3511,87.0346 32.6844,86.3679 30.5,84C 19.1138,83.1075 14.6138,76.9409 17,65.5C 23.3035,51.5562 30.6369,38.2229 39,25.5C 38.755,21.1866 38.755,16.8532 39,12.5C 40.5994,10.9644 42.4328,10.4644 44.5,11C 47.6929,13.199 50.5262,15.699 53,18.5C 55.9976,15.3361 59.1643,12.3361 62.5,9.5 Z"/></g>
<g><path style="opacity:1" fill="#f5f5f5" d="M 112.5,108.5 C 110.5,108.5 108.5,108.5 106.5,108.5C 106.828,97.9865 106.494,87.6532 105.5,77.5C 105.118,60.5819 99.1179,46.0819 87.5,34C 83.4455,31.3061 79.1122,29.1394 74.5,27.5C 73.0961,25.4529 73.4294,23.7862 75.5,22.5C 90.2463,26.7425 100.413,36.0758 106,50.5C 108.938,58.2526 110.938,66.2526 112,74.5C 112.5,85.8284 112.667,97.1618 112.5,108.5 Z"/></g>
<g><path style="opacity:1" fill="#efefef" d="M 44.5,31.5 C 48.0003,31.4954 49.5003,33.1621 49,36.5C 47.7777,41.0837 44.9444,43.2504 40.5,43C 39.6322,38.5363 40.9655,34.7029 44.5,31.5 Z"/></g>
<g><path style="opacity:1" fill="#e9e9e9" d="M 26.5,63.5 C 29.3523,63.3524 31.019,64.6857 31.5,67.5C 29.1667,72.8333 26.8333,72.8333 24.5,67.5C 24.7517,65.9271 25.4183,64.5938 26.5,63.5 Z"/></g>
<g><path style="opacity:1" fill="#595959" d="M 105.5,77.5 C 106.494,87.6532 106.828,97.9865 106.5,108.5C 108.5,108.5 110.5,108.5 112.5,108.5C 110.393,109.468 108.059,109.802 105.5,109.5C 105.5,98.8333 105.5,88.1667 105.5,77.5 Z"/></g>
</svg>
