<?xml version="1.0" encoding="UTF-8"?>
<svg version="1.1" xmlns="http://www.w3.org/2000/svg" width="1024" height="1024">
<path d="M0 0 C337.92 0 675.84 0 1024 0 C1024 337.92 1024 675.84 1024 1024 C686.08 1024 348.16 1024 0 1024 C0 686.08 0 348.16 0 0 Z " fill="#F9F9F9" transform="translate(0,0)"/>
<path d="M0 0 C75.57 0 151.14 0 229 0 C229.66 4.29 230.32 8.58 231 13 C237.60002693 31.01056911 255.39721677 47.18461215 269.80078125 59.2265625 C275.18251477 63.7773269 278.47944086 68.54571831 279.546875 75.62890625 C279.83829871 83.65115327 278.95343267 90.48232544 274 97 C270.87624213 99.83664573 268.85407908 100.37687011 264.6675663 100.38869667 C263.03616626 100.40413173 263.03616626 100.40413173 261.37180865 100.4198786 C259.58029739 100.41393307 259.58029739 100.41393307 257.75259399 100.40786743 C256.48342491 100.41536967 255.21425582 100.4228719 253.90662706 100.43060148 C250.38130731 100.45091906 246.85619078 100.45242818 243.33082199 100.45081019 C239.52974861 100.45225344 235.72875281 100.47083474 231.92771912 100.48706055 C223.61583205 100.51919204 215.30400699 100.52899523 206.99206591 100.53470278 C201.80320821 100.53845223 196.61436711 100.54725846 191.42551804 100.55720139 C177.06176699 100.5841413 162.69803201 100.60665061 148.33425331 100.60907936 C146.95533745 100.60931272 146.95533745 100.60931272 145.54856469 100.6095508 C143.68493772 100.60984185 141.82131074 100.61012722 139.95768376 100.61040695 C139.03256609 100.61054981 138.10744841 100.61069266 137.15429688 100.61083984 C135.76492889 100.61104935 135.76492889 100.61104935 134.34749286 100.61126308 C119.33316503 100.61439951 104.31912548 100.65100043 89.30489285 100.7024761 C73.89361109 100.75489239 58.48247175 100.78119262 43.07109869 100.78063047 C34.41661159 100.78088331 25.76245585 100.79216375 17.1080513 100.83180618 C9.73994842 100.8653846 2.37230594 100.87491256 -4.99584959 100.85304923 C-8.75584818 100.84259716 -12.51494461 100.84348459 -16.27484703 100.87481308 C-20.35011264 100.90843765 -24.42330565 100.88790698 -28.49862671 100.86196899 C-29.6885061 100.88031253 -30.87838549 100.89865606 -32.10432184 100.91755545 C-39.92247752 100.80460992 -39.92247752 100.80460992 -43.057338 98.46374011 C-48.91352806 91.79067157 -50.29772564 84.55961678 -50.49609375 75.87109375 C-49.13090163 67.97017874 -44.30520936 62.77863609 -38.671875 57.421875 C-37.9640387 56.72918518 -37.25620239 56.03649536 -36.5269165 55.32281494 C-33.52727917 52.38788295 -30.50452079 49.47721959 -27.48291016 46.56494141 C-11.88531954 32.01249156 -11.88531954 32.01249156 -2.5625 13.1875 C-2.13130859 11.66189453 -2.13130859 11.66189453 -1.69140625 10.10546875 C-0.94918152 6.77174751 -0.483003 3.38102099 0 0 Z " fill="#000000" transform="translate(398,686)"/>
<path d="M0 0 C0.64356445 0.22461914 1.28712891 0.44923828 1.95019531 0.68066406 C11.35660076 4.05518132 19.0968193 9.00448361 27 15 C27.67675781 15.50273437 28.35351562 16.00546875 29.05078125 16.5234375 C45.07668298 29.27047658 56.3468374 50.67686366 59.6484375 70.73828125 C62.28951958 95.24165389 56.9023496 119.30303933 41.55859375 138.921875 C26.74664282 157.02599375 5.72880411 169.27145995 -17.54296875 172.6875 C-43.4547884 175.02981138 -68.26097376 170.17193945 -88.875 153.703125 C-91.32631752 151.53580159 -93.67017989 149.29665541 -96 147 C-97.02480469 146.08347656 -97.02480469 146.08347656 -98.0703125 145.1484375 C-113.75010641 130.69843134 -121.44354234 109.6385316 -122.31640625 88.73046875 C-122.9321467 64.75833634 -117.02441557 45.81235085 -102 27 C-101.5565625 26.39285156 -101.113125 25.78570312 -100.65625 25.16015625 C-77.83871549 -4.40524669 -33.56630282 -12.03018849 0 0 Z " fill="#000100" transform="translate(544,229)"/>
<path d="M0 0 C34.32 0 68.64 0 104 0 C104.33 9.57 104.66 19.14 105 29 C108.0413805 65.96447063 117.52149969 101.71003692 134 135 C134.71712158 136.452854 134.71712158 136.452854 135.44873047 137.93505859 C142.56499276 152.22821401 150.3530734 165.94196612 159.01293945 179.35546875 C160 181 160 181 160 182 C88.72 182 17.44 182 -56 182 C-54.62174762 178.55436904 -53.65050717 176.23942131 -51.671875 173.3046875 C-38.30214567 153.04766286 -27.63605485 131.64363976 -19.1105957 108.93041992 C-18.33905776 106.89463844 -17.54699443 104.86656516 -16.73901367 102.8449707 C-13.74660386 95.31566329 -11.38102732 87.80124072 -9.4375 79.9375 C-9.14085449 78.74592285 -8.84420898 77.5543457 -8.53857422 76.32666016 C-2.50103052 51.14439843 -0.95783222 25.86146997 0 0 Z " fill="#010101" transform="translate(461,469)"/>
<path d="M0 0 C1.43277927 -0.00504506 2.86555224 -0.01227358 4.2983107 -0.02149814 C8.23584934 -0.04045342 12.1727682 -0.0281687 16.11029136 -0.01077521 C20.35643368 0.00257836 24.6024841 -0.01283098 28.84861755 -0.02459717 C37.16662545 -0.04299273 45.48439872 -0.03444891 53.80239934 -0.01650894 C60.56093994 -0.00249396 67.31941677 0.00141223 74.0779705 -0.00195122 C75.03918851 -0.00242866 76.00040652 -0.0029061 76.99075235 -0.00339801 C78.94332077 -0.00442432 80.89588918 -0.00547968 82.84845757 -0.00656378 C100.1203678 -0.0151346 117.39216461 0.00155706 134.66404724 0.03126526 C151.43297591 0.06010807 168.20174119 0.06718458 184.97068787 0.05177307 C203.2220652 0.03502216 221.47336492 0.03096501 239.72474426 0.04848343 C241.66989926 0.05032786 243.61505426 0.05216259 245.56020927 0.0539875 C246.51731775 0.05489959 247.47442623 0.05581168 248.46053799 0.05675141 C255.21340623 0.06236338 261.96623666 0.05904353 268.71910286 0.05244255 C276.94501976 0.04472102 285.17077565 0.05141937 293.39666004 0.07661759 C297.59564828 0.08913965 301.79438552 0.09522655 305.99338341 0.08407593 C309.83444197 0.0740682 313.67499894 0.08241825 317.51599621 0.10565711 C318.90822865 0.11083567 320.30050568 0.10922 321.69271893 0.10026246 C323.58003693 0.08912608 325.46745699 0.10485119 327.35472965 0.12203121 C328.40460404 0.12322269 329.45447844 0.12441418 330.5361672 0.12564176 C333.96505552 0.76009289 335.14970102 1.89241984 337.25218201 4.62818909 C337.76976013 7.77272034 337.76976013 7.77272034 337.78343201 11.44068909 C337.78725891 12.09142395 337.79108582 12.74215881 337.79502869 13.41261292 C337.79774277 14.78429212 337.79041653 16.15602353 337.77366638 17.52760315 C337.7522432 19.62220594 337.77347837 21.71337993 337.79905701 23.80787659 C337.79641363 25.14382162 337.79128844 26.47976454 337.78343201 27.81568909 C337.77892029 29.02611877 337.77440857 30.23654846 337.76976013 31.48365784 C337.13979482 35.31099428 336.26730142 36.25983413 333.25218201 38.62818909 C330.5361672 39.13073641 330.5361672 39.13073641 327.35472965 39.13434696 C325.53430121 39.15091849 325.53430121 39.15091849 323.67709643 39.1678248 C322.32851129 39.1598673 320.97992836 39.1515296 319.63134766 39.14285278 C318.20014588 39.1481763 316.76894969 39.15524086 315.3377642 39.16389984 C311.39998898 39.18258037 307.46258844 39.17620378 303.52479732 39.16574681 C299.27998157 39.15877003 295.03524399 39.17474113 290.79045105 39.18774414 C282.47268035 39.20941515 274.15504629 39.2092493 265.83725662 39.2011186 C259.07822738 39.19482519 252.31923808 39.19594956 245.56020927 39.20239067 C244.5991445 39.20329233 243.63807972 39.20419398 242.64789177 39.20512296 C240.69564755 39.20697411 238.74340334 39.20883667 236.79115915 39.21071052 C218.4730256 39.22729986 200.15496901 39.21856022 181.83684009 39.20172494 C165.06946843 39.18702769 148.30227595 39.20165472 131.53492738 39.2304951 C114.32805819 39.2598716 97.12127175 39.27086644 79.91437858 39.2613129 C77.96890924 39.26029032 76.02343988 39.25929572 74.0779705 39.25832939 C73.12070775 39.257853 72.163445 39.25737661 71.17717429 39.25688579 C64.42526986 39.2547193 57.67344357 39.26453819 50.92155647 39.27910042 C42.6945313 39.29659624 34.46773463 39.29654611 26.24071855 39.27374876 C22.0415538 39.26258128 17.84279201 39.25950029 13.64364433 39.27804947 C9.80117909 39.29480489 5.95946979 39.2885714 2.11705398 39.26383268 C0.72544169 39.25893258 -0.666231 39.26251082 -2.05779295 39.27532012 C-13.76345923 39.375313 -13.76345923 39.375313 -17.06662083 36.28008938 C-19.1279926 33.02850621 -19.39246662 31.02908848 -19.41188049 27.19068909 C-19.41832581 25.96607971 -19.42477112 24.74147034 -19.43141174 23.47975159 C-19.41207581 22.20873596 -19.39273987 20.93772034 -19.37281799 19.62818909 C-19.39215393 18.35717346 -19.41148987 17.08615784 -19.43141174 15.77662659 C-19.42496643 14.55201721 -19.41852112 13.32740784 -19.41188049 12.06568909 C-19.40624084 10.95065002 -19.4006012 9.83561096 -19.39479065 8.68678284 C-18.74158301 5.5987129 -17.99142939 3.84287955 -15.67860043 1.67564595 C-11.01698039 -0.85330076 -5.17149797 -0.04760354 0 0 Z " fill="#010101" transform="translate(352.74781799316406,796.3718109130859)"/>
<path d="M0 0 C1.53835062 -0.00935994 1.53835062 -0.00935994 3.10777903 -0.01890898 C6.55495387 -0.03490328 10.00142792 -0.02220913 13.4486084 -0.00964355 C15.9155875 -0.01506179 18.38256337 -0.02218276 20.84953308 -0.03088379 C26.86094237 -0.04725657 32.87207516 -0.04482326 38.88347375 -0.03323323 C43.76846798 -0.02420435 48.6534062 -0.02297252 53.53840637 -0.02732849 C54.23332519 -0.02794142 54.92824401 -0.02855436 55.64422098 -0.02918586 C57.05587893 -0.03046475 58.46753687 -0.0317616 59.8791948 -0.03307623 C73.12031089 -0.04448591 86.36131626 -0.03136228 99.60241419 -0.00987476 C110.96705391 0.00799661 122.33153022 0.00489261 133.69616699 -0.0135498 C146.88947984 -0.03494971 160.08269561 -0.04338724 173.27602339 -0.03110075 C174.6825253 -0.02982654 176.08902723 -0.02856905 177.49552917 -0.02732849 C178.18757805 -0.02671139 178.87962693 -0.02609429 179.59264699 -0.02545848 C184.47249899 -0.02200293 189.35228948 -0.02783832 194.23213196 -0.0372467 C200.79849566 -0.04962827 207.36459797 -0.04082927 213.93094826 -0.01766968 C216.34487709 -0.01236796 218.75883185 -0.01392118 221.17275047 -0.02272034 C224.46016711 -0.03360123 227.7465832 -0.02000157 231.03393555 0 C231.99618372 -0.00892289 232.9584319 -0.01784577 233.94983912 -0.02703905 C240.37192494 0.04909922 240.37192494 0.04909922 243.60965729 2.35218048 C245.54296445 5.31366969 245.5951136 7.0390596 245.01696777 10.50793457 C243.6124506 12.66368866 243.6124506 12.66368866 241.01696777 14.50793457 C237.67951525 15.11331823 234.37317942 15.04709982 230.98924255 15.01586914 C229.95888636 15.0221091 228.92853016 15.02834907 227.86695105 15.03477812 C224.40362378 15.0507727 220.94099401 15.03807819 217.47766113 15.0255127 C214.99920744 15.03093088 212.52075696 15.03805183 210.04231262 15.04675293 C204.0031653 15.06312543 197.9642932 15.06069274 191.92515653 15.04910237 C187.01822396 15.04007419 182.11134713 15.03884136 177.20440865 15.04319763 C176.15743429 15.04411703 176.15743429 15.04411703 175.08930894 15.045055 C173.67144825 15.04633388 172.25358758 15.04763073 170.83572692 15.04894537 C157.53693726 15.06035473 144.23825785 15.04723148 130.93948627 15.0257439 C119.52279405 15.00786864 108.10626449 15.0109798 96.6895752 15.02941895 C83.43730841 15.05081266 70.18513825 15.0592602 56.93285662 15.04696989 C55.52047481 15.04569567 54.10809298 15.04443818 52.69571114 15.04319763 C51.65328059 15.04227198 51.65328059 15.04227198 50.58979083 15.04132763 C45.68692682 15.0378705 40.78412399 15.04371075 35.88126945 15.05311584 C29.28618203 15.06548886 22.69135509 15.05671256 16.09628105 15.03353882 C13.67064426 15.0282332 11.24498167 15.02979691 8.81935501 15.03858948 C5.51845176 15.04945498 2.2185482 15.03588973 -1.08229065 15.01586914 C-2.5358686 15.02925347 -2.5358686 15.02925347 -4.01881176 15.04290819 C-10.46284193 14.96663912 -10.46284193 14.96663912 -13.07448483 12.66368866 C-14.32597146 9.69422618 -14.44834656 7.69866143 -13.98303223 4.50793457 C-10.51665897 -0.81672395 -5.74323646 -0.05325679 0 0 Z " fill="#040505" transform="translate(396.9830322265625,660.4920654296875)"/>
<path d="M0 0 C3.12835734 1.43628985 6.29807334 2.32951862 9.609375 3.265625 C10.74632812 3.59820312 11.88328125 3.93078125 13.0546875 4.2734375 C32.49982132 9.19008865 55.20864294 7.23511273 73.73828125 -0.1875 C80.6244185 -1.87230172 86.48832831 1.18991005 92.546875 4.140625 C93.37453369 4.53999268 94.20219238 4.93936035 95.05493164 5.35083008 C115.69408779 15.51810802 115.69408779 15.51810802 120.484375 24.140625 C120.484375 25.130625 120.484375 26.120625 120.484375 27.140625 C65.704375 27.140625 10.924375 27.140625 -45.515625 27.140625 C-44.30354907 21.08024535 -42.30829574 18.06359077 -37.33154297 14.63671875 C-34.73831769 13.06983998 -32.1129562 11.59150608 -29.453125 10.140625 C-28.04401855 9.36223267 -28.04401855 9.36223267 -26.60644531 8.56811523 C-24.74895607 7.54623968 -22.88851908 6.52970048 -21.02490234 5.51904297 C-18.91671963 4.36095778 -16.84694644 3.16355566 -14.78515625 1.92578125 C-9.21331414 -1.2529799 -5.98450294 -2.7519977 0 0 Z " fill="#070707" transform="translate(475.515625,404.859375)"/>
<path d="M0 0 C0.77647038 -0.00623996 1.55294077 -0.01247993 2.35294056 -0.01890898 C4.95720005 -0.03487582 7.56052833 -0.02222074 10.16479492 -0.00964355 C12.0307978 -0.01506305 13.8967964 -0.02218473 15.76278687 -0.03088379 C20.83301124 -0.04914063 25.90291055 -0.04203985 30.97314072 -0.02936745 C36.27507158 -0.01925202 41.57697431 -0.02862907 46.87890625 -0.03491211 C55.78317267 -0.04219276 64.68730645 -0.03258983 73.59155273 -0.0135498 C83.89131582 0.0082197 94.19076221 0.00116863 104.49051762 -0.02085543 C113.32798254 -0.0389975 122.16535203 -0.04157358 131.00282955 -0.03110075 C136.28356557 -0.02485927 141.56415265 -0.02404819 146.84487915 -0.0372467 C151.80914791 -0.04878721 156.7730077 -0.04081239 161.73723221 -0.01766968 C163.56096339 -0.01237296 165.3847289 -0.01391278 167.2084465 -0.02272034 C169.69460741 -0.03362167 172.17945082 -0.0199789 174.66552734 0 C175.75287784 -0.01338433 175.75287784 -0.01338433 176.86219501 -0.02703905 C180.22598551 0.02553914 182.04543176 0.29433222 184.77680969 2.32483673 C187.08458531 5.56278594 186.94508046 7.62992822 186.33276367 11.50793457 C183.65220627 15.01532431 182.17194921 16.36009618 177.77701473 17.13434696 C176.3793318 17.160422 174.98097299 17.15916127 173.58323669 17.13612366 C172.80999544 17.14321804 172.03675418 17.15031243 171.24008137 17.1576218 C168.65254787 17.17520537 166.06651584 17.15709635 163.47900391 17.13903809 C161.62270422 17.14417675 159.76640942 17.15145762 157.91012573 17.16072083 C152.87087427 17.17924852 147.83215131 17.16628807 142.79292178 17.14663053 C137.52169593 17.13025652 132.25050387 17.13905507 126.97926331 17.14414978 C118.12801663 17.14867173 109.27698122 17.13279357 100.42578125 17.1048584 C90.18790356 17.07279621 79.95040671 17.07282576 69.71250194 17.09007317 C59.86827908 17.10592741 50.02419605 17.09921243 40.17997932 17.08213615 C35.9882441 17.07525784 31.79662069 17.07630609 27.60488701 17.08368111 C22.67095528 17.09133272 17.73745792 17.07925458 12.80360031 17.0518322 C10.99116239 17.04493585 9.17868399 17.04486374 7.36624718 17.05204773 C4.89544634 17.06071403 2.4259948 17.04483573 -0.04469299 17.02259827 C-1.12518389 17.03495942 -1.12518389 17.03495942 -2.22750288 17.04757029 C-5.64402279 16.99066102 -7.38133279 16.73111087 -10.11044216 14.60076809 C-11.79978623 12.32974475 -12.21089525 11.30210529 -12.16723633 8.50793457 C-12.18270508 7.51793457 -12.18270508 7.51793457 -12.19848633 6.50793457 C-10.53942056 0.26203993 -5.59056324 -0.06881493 0 0 Z " fill="#000100" transform="translate(425.667236328125,441.4920654296875)"/>
</svg>
