<?xml version="1.0" encoding="UTF-8"?>
<svg version="1.1" xmlns="http://www.w3.org/2000/svg" width="1024" height="1024">
<path d="M0 0 C337.92 0 675.84 0 1024 0 C1024 337.92 1024 675.84 1024 1024 C686.08 1024 348.16 1024 0 1024 C0 686.08 0 348.16 0 0 Z " fill="#FDFDFD" transform="translate(0,0)"/>
<path d="M0 0 C37.95 0 75.9 0 115 0 C115.33 11.55 115.66 23.1 116 35 C116.45836943 42.62223999 116.95005257 50.21100929 117.625 57.8125 C117.70792297 58.77339539 117.79084595 59.73429077 117.87628174 60.7243042 C120.70795502 93.07980389 125.66721167 125.35241105 133 157 C133.21897949 157.9492334 133.43795898 158.8984668 133.66357422 159.87646484 C136.1303622 170.43267411 139.04045808 180.79262344 142.39257812 191.09960938 C142.98734438 192.96040541 143.54875458 194.83175825 144.109375 196.703125 C151.13916516 220.10365938 160.44118078 242.71436063 171.78515625 264.34765625 C173 267 173 267 173 270 C96.44 270 19.88 270 -59 270 C-57.7548415 266.26452449 -56.72632766 263.21509009 -55.00390625 259.8046875 C-41.74391026 233.03699945 -30.77007622 204.6148921 -23.65429688 175.57250977 C-23.1621516 173.63753413 -22.64325098 171.709333 -22.11132812 169.78491211 C-19.49364885 160.29454906 -17.40276036 150.75473337 -15.5 141.09692383 C-15.00644763 138.59518206 -14.50382507 136.09539382 -14 133.59570312 C-9.93204081 113.25615529 -6.60224171 92.93915393 -4.671875 72.27978516 C-4.380771 69.18632634 -4.07025103 66.0952736 -3.7578125 63.00390625 C-1.7473902 41.98468338 -1.00816751 21.17151764 0 0 Z " fill="#212121" transform="translate(455,434)"/>
<path d="M0 0 C81.51 0 163.02 0 247 0 C247.33 3.96 247.66 7.92 248 12 C253.26596641 32.10000571 271.19113311 47.93865988 286.07421875 61.3515625 C304.15406004 77.71756036 304.15406004 77.71756036 305.359375 88.09375 C305.73245545 96.96477408 304.02104501 104.47826916 298.4375 111.5 C294.16316706 115.88393122 294.16316706 115.88393122 290.4530679 116.25415033 C289.42407812 116.25610125 288.39508835 116.25805218 287.33491707 116.26006222 C286.14767292 116.26712781 284.96042877 116.2741934 283.73720753 116.2814731 C282.42643423 116.27905802 281.11566094 116.27664293 279.76516724 116.27415466 C278.36370649 116.27860497 276.96224827 116.28391833 275.56079376 116.29002339 C271.70067048 116.30423865 267.84062757 116.30586602 263.98048186 116.30542648 C259.82087386 116.30707157 255.66129929 116.32013225 251.50170898 116.33161926 C242.40266804 116.35449154 233.30365039 116.36239213 224.2045846 116.36744571 C218.52577904 116.37069987 212.84698028 116.37722061 207.16817856 116.3844471 C191.45251496 116.40401523 175.73685768 116.42041842 160.02118111 116.42332363 C159.01505645 116.4235112 158.0089318 116.42369877 156.97231852 116.42389202 C154.93256497 116.42425828 152.89281143 116.42462198 150.85305788 116.42498314 C149.84048921 116.42516595 148.82792054 116.42534876 147.78466797 116.42553711 C146.770867 116.42571766 145.75706604 116.42589821 144.71254383 116.42608423 C128.27814335 116.42962734 111.84387379 116.45665736 95.40951873 116.494035 C78.54621752 116.5320821 61.68298133 116.55148084 44.81963623 116.55178314 C35.34754814 116.5523685 25.87561624 116.5609105 16.40356827 116.58978081 C8.33939624 116.61424655 0.27543735 116.62161018 -7.78876172 116.60653328 C-11.9048996 116.59934479 -16.02061618 116.60030458 -20.13670731 116.62294388 C-23.90332859 116.64346298 -27.66920279 116.64100091 -31.43581535 116.62006903 C-33.44714367 116.6148956 -35.45848842 116.63440772 -37.46972072 116.65473074 C-47.19430588 116.56348666 -47.19430588 116.56348666 -50.2102375 113.60611057 C-50.80085913 112.74609408 -51.39148075 111.88607759 -52 111 C-53.051875 109.8553125 -53.051875 109.8553125 -54.125 108.6875 C-59.09693579 101.56105869 -59.9900127 94.51635929 -59 86 C-56.75231455 77.477526 -50.91442008 71.49355676 -44.40625 65.87890625 C-32.71865212 55.72702317 -21.25063486 44.6458851 -11.9375 32.25 C-11.48020508 31.64422119 -11.02291016 31.03844238 -10.55175781 30.41430664 C-3.85822573 21.09850002 -1.25990931 11.33918376 0 0 Z " fill="#212020" transform="translate(389,743)"/>
<path d="M0 0 C0.97705216 -0.00352835 0.97705216 -0.00352835 1.97384274 -0.00712797 C4.18366991 -0.01385076 6.39343873 -0.01335877 8.6032753 -0.01294994 C10.19274875 -0.01624654 11.78222136 -0.01997167 13.3716929 -0.02409142 C17.76078923 -0.03414291 22.14987188 -0.03783326 26.5389781 -0.04048073 C31.26439595 -0.04437451 35.98980287 -0.0539535 40.71521378 -0.0626936 C52.13798075 -0.08248479 63.56074865 -0.0925278 74.98352849 -0.10142139 C80.35737057 -0.10580014 85.73121166 -0.11116803 91.10505295 -0.11641026 C108.96007838 -0.13342556 126.8151032 -0.14792072 144.6701355 -0.155159 C149.30688605 -0.15706902 153.94363659 -0.15898933 158.58038712 -0.16094494 C159.73288736 -0.16142868 160.88538761 -0.16191242 162.07281211 -0.16241082 C180.75119628 -0.17071476 199.42951647 -0.19605647 218.10787269 -0.22852562 C237.26729005 -0.26156052 256.42667485 -0.27960454 275.58612084 -0.28280324 C286.35042169 -0.2849717 297.11462927 -0.29376932 307.87890244 -0.31926441 C317.04468583 -0.34092277 326.21035332 -0.34904591 335.3761594 -0.33929763 C340.05524207 -0.3347387 344.73408536 -0.33673118 349.41313553 -0.35605907 C353.69413957 -0.37359048 357.97472783 -0.37277523 362.25573567 -0.35716178 C363.80693349 -0.35477036 365.35815936 -0.3591881 366.90931413 -0.37099043 C369.01400669 -0.38601635 371.11720822 -0.37650397 373.22186279 -0.36076355 C374.3919985 -0.36174036 375.5621342 -0.36271717 376.76772857 -0.36372358 C380.51524036 0.239224 382.17164554 1.51015533 384.86261368 4.13422108 C386.34736938 7.10373247 386.0664575 10.14913166 386.10089493 13.40765858 C386.10896667 14.12781147 386.11703842 14.84796436 386.12535477 15.58994007 C386.13918982 17.11476709 386.14991458 18.63962501 386.15777969 20.16449451 C386.17499777 22.49354309 386.21888572 24.82117358 386.2630043 27.14984608 C386.27313112 28.63160648 386.28164726 30.11337894 386.28839493 31.59515858 C386.30590302 32.29007404 386.3234111 32.98498951 386.34144974 33.70096302 C386.32733046 36.85692537 386.14533254 38.75270611 384.24397755 41.31848955 C381.10125877 43.71473552 379.22294986 43.63542351 375.29082108 43.63758564 C374.62893835 43.6433994 373.96705562 43.64921317 373.28511584 43.6552031 C371.05724509 43.66985346 368.83046745 43.65589569 366.60260391 43.64215565 C364.99332457 43.64676261 363.38404943 43.65311414 361.77478313 43.66106462 C357.34481526 43.67780938 352.91519072 43.66948835 348.48522139 43.65711975 C343.71077709 43.64809255 338.93639304 43.66202738 334.1619606 43.67303944 C324.80578398 43.69085421 315.44973549 43.68697152 306.09355378 43.67538887 C298.49165051 43.66636644 290.88978322 43.66512539 283.28787613 43.66948414 C281.66683508 43.67040354 281.66683508 43.67040354 280.01304573 43.67134151 C277.81784478 43.67262037 275.62264384 43.67391722 273.42744291 43.67523187 C252.82836002 43.68664634 232.22934826 43.67351038 211.63027704 43.65203041 C193.94368956 43.63415865 176.25720708 43.63726252 158.57062149 43.65570545 C138.04677634 43.67709687 117.52299357 43.68554762 96.99913883 43.6732564 C94.81187631 43.67198216 92.62461377 43.67072468 90.43735123 43.66948414 C88.82296092 43.66855849 88.82296092 43.66855849 87.17595667 43.66761413 C79.58051684 43.66415604 71.98511648 43.66999945 64.38968277 43.67940235 C55.13718732 43.69060452 45.88482766 43.68761989 36.63234782 43.66627938 C31.90882691 43.65574491 27.18553264 43.65168779 22.46201324 43.66487598 C18.14168367 43.6767563 13.82179177 43.6703099 9.50150216 43.64896578 C7.93494353 43.64448111 6.36834826 43.64680754 4.80181301 43.65646893 C2.67881191 43.66856236 0.55732702 43.65623269 -1.56559372 43.63758564 C-2.74663398 43.63693623 -3.92767424 43.63628682 -5.14450359 43.63561773 C-8.77719211 43.02703462 -9.96020948 42.06103646 -12.13738632 39.13422108 C-12.54801571 36.51389817 -12.72273685 34.31891915 -12.70379257 31.70062733 C-12.70999115 30.985676 -12.71618973 30.27072468 -12.72257614 29.53410816 C-12.72966411 28.02541938 -12.72651796 26.51665222 -12.71380234 25.00800037 C-12.69994702 22.70680277 -12.73399721 20.40968392 -12.77215195 18.10883045 C-12.77310337 16.63942842 -12.77124309 15.17002133 -12.76629257 13.70062733 C-12.77955078 13.01714725 -12.79280899 12.33366718 -12.80646896 11.62947559 C-12.73088115 7.7249958 -12.22891741 6.24177575 -9.66057968 3.22382069 C-8.82792587 2.53425282 -7.99527206 1.84468494 -7.13738632 1.13422108 C-5.31441137 -0.68875388 -2.44888792 0.00374524 0 0 Z " fill="#222222" transform="translate(325.1373863220215,869.8657789230347)"/>
<path d="M0 0 C4.80974061 2.26409741 9.21312103 5.209625 13.7109375 8.02734375 C22.06831864 13.03978731 28.23647437 14.09285503 38 13 C44.32393353 10.88297504 49.14736266 6.43964692 54 2 C54.57105469 2.51949219 55.14210938 3.03898438 55.73046875 3.57421875 C64.31462957 10.95741589 73.79799875 16.00172294 85.38671875 15.34765625 C95.46709418 14.00661976 105.0147096 9.5616345 112 2 C116.13817057 3.9121202 119.61097699 6.55307209 123.26953125 9.24609375 C132.21248774 14.99056795 141.66698924 15.54826183 152 14 C158.48437737 12.12814493 164.15806531 8.63429582 169.26171875 4.26171875 C172 2 172 2 174 2 C174.99 3.3303125 174.99 3.3303125 176 4.6875 C180.2862531 9.91797117 185.64492104 12.38814381 192.234375 13.58984375 C205.00966463 14.4135898 215.22848908 7.62654511 225 0 C225.99 0.495 225.99 0.495 227 1 C226.53851562 1.47566406 226.07703125 1.95132813 225.6015625 2.44140625 C207.65286389 21.70255911 198.26572838 45.93450992 190.125 70.5625 C185.96820032 83.11603504 181.44766228 95.54654562 177 108 C135.09 108 93.18 108 50 108 C44.27558093 94.26139424 44.27558093 94.26139424 41.94921875 87.21875 C41.41466632 85.6285959 40.87990985 84.03851038 40.3449707 82.44848633 C39.93899155 81.23486923 39.93899155 81.23486923 39.52481079 79.99673462 C27.15085773 42.22982098 27.15085773 42.22982098 6.2265625 8.76171875 C3.9445806 5.9312605 1.97311158 3.04976378 0 0 Z " fill="#212120" transform="translate(399,212)"/>
<path d="M0 0 C81.51 0 163.02 0 247 0 C247.33 3.96 247.66 7.92 248 12 C253.26596641 32.10000571 271.19113311 47.93865988 286.07421875 61.3515625 C304.15406004 77.71756036 304.15406004 77.71756036 305.359375 88.09375 C305.73245545 96.96477408 304.02104501 104.47826916 298.4375 111.5 C294.16316706 115.88393122 294.16316706 115.88393122 290.4530679 116.25415033 C289.42407812 116.25610125 288.39508835 116.25805218 287.33491707 116.26006222 C286.14767292 116.26712781 284.96042877 116.2741934 283.73720753 116.2814731 C282.42643423 116.27905802 281.11566094 116.27664293 279.76516724 116.27415466 C278.36370649 116.27860497 276.96224827 116.28391833 275.56079376 116.29002339 C271.70067048 116.30423865 267.84062757 116.30586602 263.98048186 116.30542648 C259.82087386 116.30707157 255.66129929 116.32013225 251.50170898 116.33161926 C242.40266804 116.35449154 233.30365039 116.36239213 224.2045846 116.36744571 C218.52577904 116.37069987 212.84698028 116.37722061 207.16817856 116.3844471 C191.45251496 116.40401523 175.73685768 116.42041842 160.02118111 116.42332363 C159.01505645 116.4235112 158.0089318 116.42369877 156.97231852 116.42389202 C154.93256497 116.42425828 152.89281143 116.42462198 150.85305788 116.42498314 C149.84048921 116.42516595 148.82792054 116.42534876 147.78466797 116.42553711 C146.770867 116.42571766 145.75706604 116.42589821 144.71254383 116.42608423 C128.27814335 116.42962734 111.84387379 116.45665736 95.40951873 116.494035 C78.54621752 116.5320821 61.68298133 116.55148084 44.81963623 116.55178314 C35.34754814 116.5523685 25.87561624 116.5609105 16.40356827 116.58978081 C8.33939624 116.61424655 0.27543735 116.62161018 -7.78876172 116.60653328 C-11.9048996 116.59934479 -16.02061618 116.60030458 -20.13670731 116.62294388 C-23.90332859 116.64346298 -27.66920279 116.64100091 -31.43581535 116.62006903 C-33.44714367 116.6148956 -35.45848842 116.63440772 -37.46972072 116.65473074 C-46.23255369 116.57251061 -46.23255369 116.57251061 -50.19851875 113.61392307 C-50.79300756 112.75132846 -51.38749638 111.88873384 -52 111 C-52.763125 110.195625 -53.52625 109.39125 -54.3125 108.5625 C-56.36376961 105.4476091 -56.13567313 103.65312473 -56 100 C-55.39613419 99.99978263 -54.79226838 99.99956526 -54.17010361 99.99934131 C-18.37109744 99.98582214 17.42778846 99.94632476 53.22672361 99.87314438 C57.52623008 99.86437775 61.82573696 99.85582792 66.12524414 99.84741211 C67.40916261 99.84489352 67.40916261 99.84489352 68.71901882 99.84232404 C82.57394431 99.81566246 96.42882842 99.80655956 110.28377693 99.80395857 C124.50282426 99.8008979 138.72175206 99.77893801 152.94074541 99.73947543 C161.71294837 99.71572397 170.48491265 99.7066711 179.25714333 99.71648689 C185.27459293 99.72180728 191.2918289 99.70875125 197.30921768 99.6813371 C200.77976909 99.66606568 204.24984228 99.65880832 207.72040749 99.67340279 C211.48811471 99.68501151 215.25447677 99.66592263 219.02207947 99.63923645 C220.65780935 99.65524634 220.65780935 99.65524634 222.32658428 99.67157966 C229.31298881 99.57932064 234.36721857 98.25504042 240 94 C244.58229983 88.7471197 244.78220864 83.43288689 244.578125 76.57421875 C243.24881756 68.35586535 237.87278009 62.58792791 232.01171875 57.04296875 C220.98016871 45.84005483 207 27.3751711 207 11 C138.69 11 70.38 11 0 11 C0 7.37 0 3.74 0 0 Z " fill="#141313" transform="translate(389,743)"/>
<path d="M0 0 C0.0093457 0.81412354 0.01869141 1.62824707 0.02832031 2.46704102 C0.76004711 54.43040462 6.25944247 106.32891533 18 157 C18.21897949 157.9492334 18.43795898 158.8984668 18.66357422 159.87646484 C21.1303622 170.43267411 24.04045808 180.79262344 27.39257812 191.09960938 C27.98734438 192.96040541 28.54875458 194.83175825 29.109375 196.703125 C36.13916516 220.10365938 45.44118078 242.71436063 56.78515625 264.34765625 C58 267 58 267 58 270 C44.47 270 30.94 270 17 270 C11.3520242 256.44485807 11.3520242 256.44485807 9.38671875 250.6640625 C9.17128418 250.0304631 8.95584961 249.39686371 8.73388672 248.74406433 C8.04494939 246.70658302 7.36473713 244.66639858 6.6875 242.625 C6.45044342 241.91201752 6.21338684 241.19903503 5.96914673 240.46444702 C-4.9854659 207.37518485 -12.3008832 173.52568281 -17 139 C-17.12971191 138.0502832 -17.25942383 137.10056641 -17.39306641 136.12207031 C-22.24012019 99.64657606 -24.43401672 62.74331501 -26 26 C-49.06568101 22.05784353 -72.19283375 18.81473086 -95.38354492 15.71313477 C-96.17037659 15.6075676 -96.95720825 15.50200043 -97.7678833 15.39323425 C-99.25024042 15.19437737 -100.73269687 14.99625899 -102.215271 14.79902649 C-106.15703716 14.26944268 -110.08076157 13.67645558 -114 13 C-114 9.04 -114 5.08 -114 1 C-99.43155573 0.86951158 -84.86311061 0.73911852 -70.29466438 0.60884857 C-63.53058962 0.54836289 -56.76651517 0.48784369 -50.00244141 0.42724609 C-43.47967474 0.3688104 -36.95690726 0.31046743 -30.43413925 0.25218201 C-27.94056038 0.22988481 -25.44698178 0.20755609 -22.95340347 0.18519592 C-19.47170331 0.15398045 -15.99000217 0.12287519 -12.50830078 0.09179688 C-11.46820862 0.08244614 -10.42811646 0.0730954 -9.35650635 0.0634613 C-8.41137177 0.05504715 -7.46623718 0.046633 -6.49246216 0.03796387 C-5.66837923 0.03058952 -4.8442963 0.02321518 -3.99524117 0.01561737 C-2.66352473 0.00519361 -1.33175723 0 0 0 Z " fill="#121212" transform="translate(570,434)"/>
<path d="M0 0 C0.82814543 -0.00467997 1.65629087 -0.00935994 2.50953162 -0.01418173 C5.28863127 -0.02616182 8.06724055 -0.0166627 10.84634399 -0.00723267 C12.83717639 -0.01129709 14.82800654 -0.01663824 16.8188324 -0.02316284 C22.23003892 -0.03685935 27.64107418 -0.03152766 33.05228376 -0.02202559 C38.7122898 -0.01443899 44.372281 -0.02147201 50.0322876 -0.02618408 C59.54015743 -0.03164544 69.04795742 -0.02444097 78.55581665 -0.01016235 C89.54849426 0.00615548 100.54100487 0.00088344 111.53367841 -0.01564157 C120.96818419 -0.02925678 130.4026397 -0.03117563 139.83715212 -0.02332556 C145.47339593 -0.01864805 151.10956126 -0.01802621 156.74580002 -0.02793503 C162.04652149 -0.03660254 167.34702782 -0.03058654 172.64772606 -0.01325226 C174.5931748 -0.00928589 176.53864164 -0.01042403 178.48408318 -0.01704025 C181.14010509 -0.02524005 183.79543798 -0.01495299 186.45141602 0 C187.22107299 -0.00669217 187.99072997 -0.01338433 188.78370988 -0.02027929 C193.54701003 0.03172182 196.82633366 0.81932421 200.85269165 3.38095093 C203.95302244 7.355734 205.20184898 9.89344369 204.85269165 14.94345093 C204.11138529 19.20959637 202.80013801 22.12324706 199.85269165 25.38095093 C194.68474254 28.08831665 190.38636249 28.81713897 184.54789734 28.77536011 C183.73901752 28.78145121 182.93013771 28.78754231 182.09674639 28.793818 C179.40074794 28.8103962 176.70522449 28.80567967 174.00918579 28.8008728 C172.07041434 28.80821608 170.13164727 28.81680307 168.19288635 28.82653809 C162.9366942 28.84873397 157.6806589 28.85168577 152.42442632 28.84979057 C148.03324 28.8496708 143.64208683 28.85823768 139.25090975 28.86656809 C128.89036464 28.88579474 118.5299001 28.88868844 108.16934204 28.88192749 C97.48727663 28.87528497 86.80555637 28.89816139 76.12356097 28.93524122 C66.94543121 28.96594271 57.76741246 28.97729782 48.58923239 28.97340441 C43.11050512 28.97133762 37.63204655 28.97680575 32.153368 29.001297 C27.00105421 29.02356922 21.84930166 29.02168211 16.69698524 29.00136948 C14.80880548 28.99796045 12.92058788 29.00304388 11.03245926 29.01735306 C8.44914463 29.03557622 5.86772797 29.02277511 3.2844696 29.00241089 C2.54213941 29.01492874 1.79980922 29.02744658 1.03498417 29.04034376 C-4.69803151 28.94384028 -8.71471101 27.00083116 -13.14730835 23.38095093 C-15.91259293 19.49226948 -16.69094042 16.02414492 -16.5027771 11.33798218 C-15.76669645 7.28549419 -13.33696644 4.57990004 -10.51589012 1.73679161 C-7.10034922 -0.21835698 -3.8290546 -0.03310174 0 0 Z " fill="#202020" transform="translate(418.1473083496094,394.6190490722656)"/>
<path d="M0 0 C12.21493042 9.9841066 23.01551871 21.86677652 27.05859375 37.5 C20.67922165 34.76598339 16.24676037 28.50125481 13.05859375 22.5 C9.54572036 23.98076278 7.50251174 25.96305576 4.93359375 28.75 C-1.83511741 35.69801477 -9.155174 40.56979495 -19.00390625 40.875 C-29.11418066 40.72944788 -34.87873665 36.92498875 -41.87890625 29.875 C-43.57601152 28.09242899 -45.26493842 26.30199371 -46.94140625 24.5 C-47.93604443 23.49466678 -48.93312168 22.49164622 -49.94140625 21.5 C-50.29912109 22.33724609 -50.29912109 22.33724609 -50.6640625 23.19140625 C-54.80704982 30.67919067 -62.13426592 36.59741967 -70.015625 39.71875 C-76.98161709 41.57882799 -84.08012265 41.87731639 -90.62890625 38.5625 C-95.00379014 35.74259326 -98.80294446 32.24655629 -102.58203125 28.68359375 C-104.94782307 26.49406126 -107.40284301 24.4849404 -109.94140625 22.5 C-110.36550781 23.08007812 -110.78960937 23.66015625 -111.2265625 24.2578125 C-115.06946424 29.37605086 -118.9338707 33.51441048 -123.94140625 37.5 C-122.31206525 23.0966256 -110.4411815 10.97001336 -99.92578125 1.8984375 C-89.21757211 -6.48311887 -78.10644656 -11.29502764 -64.94140625 -14.5 C-64.18859375 -14.6959375 -63.43578125 -14.891875 -62.66015625 -15.09375 C-40.29248169 -18.4360462 -18.168802 -13.42812832 0 0 Z " fill="#212120" transform="translate(560.94140625,175.5)"/>
<path d="M0 0 C6.52048387 0.70692835 9.57350817 3.38743882 14 8 C18.62432114 14.41438093 18.69722734 21.30144816 18 29 C15.98074828 36.23199393 11.94128399 42.42134718 5.4375 46.3125 C0.26780562 48.85034997 -3.89506039 49.13971793 -9.609375 49.09765625 C-10.33618469 49.0962413 -11.06299438 49.09482635 -11.81182861 49.09336853 C-14.12459494 49.08778792 -16.43726312 49.07523904 -18.75 49.0625 C-20.32161318 49.05748249 -21.89322789 49.05292002 -23.46484375 49.04882812 C-27.30993343 49.03782485 -31.1549501 49.02057361 -35 49 C-33.51682255 82.81751108 -31.45686509 116.28876345 -26.625 149.8125 C-26.48405914 150.80217773 -26.34311829 151.79185547 -26.19790649 152.81152344 C-24.2216953 166.5586812 -21.59614205 180.06924662 -18.5262146 193.61228943 C-17.80234446 196.89686647 -17.17626065 200.19314827 -16.5625 203.5 C-9.637237 238.31868341 3.15652862 271.84623392 18 304 C15.03 304 12.06 304 9 304 C-3.67397899 282.40030389 -12.59935668 259.5424945 -21 236 C-21.40774658 234.87174805 -21.40774658 234.87174805 -21.82373047 233.72070312 C-25.67191828 223.0280286 -28.47581177 212.06333002 -31.23388672 201.05029297 C-31.73486286 199.055648 -32.24147049 197.06240681 -32.75439453 195.07080078 C-45.33859995 146.20145323 -52.56020312 93.91100874 -52.0625 43.375 C-52.05573242 41.99441406 -52.05573242 41.99441406 -52.04882812 40.5859375 C-52.03739405 38.39059444 -52.01948479 36.19528637 -52 34 C-51.02240723 33.99589111 -50.04481445 33.99178223 -49.03759766 33.98754883 C-45.36553209 33.96556331 -41.69450884 33.9110786 -38.02294922 33.84741211 C-36.44232268 33.82439953 -34.86154644 33.80987618 -33.28076172 33.80444336 C-23.27607526 33.76331087 -14.26360163 33.66245694 -6.4050293 26.55810547 C-1.12102449 20.67161457 0.45676742 15.26114793 0.1875 7.625 C0.17396484 6.88894531 0.16042969 6.15289062 0.14648438 5.39453125 C0.11144869 3.59603257 0.05765288 1.79791578 0 0 Z " fill="#D1D1D1" transform="translate(633,400)"/>
<path d="M0 0 C1.12765589 -0.0055344 2.25531178 -0.01106879 3.41713905 -0.0167709 C7.20979225 -0.03042449 11.00179276 -0.0153819 14.79443359 -0.00050354 C17.50772211 -0.00207777 20.22098663 -0.00963066 22.93426514 -0.01687622 C29.54723199 -0.03082128 36.16000811 -0.02324327 42.77296591 -0.00820064 C50.47121491 0.00864527 58.1694162 0.005451 65.86767793 0.00170528 C79.60176528 -0.00417562 93.33576101 0.01000724 107.06982422 0.03465271 C120.40189041 0.05857417 133.73383417 0.06565727 147.06591797 0.05516052 C161.57766537 0.04375548 176.08935612 0.04181612 190.60110283 0.05625862 C192.14802932 0.05778449 193.69495582 0.05930484 195.24188232 0.06081963 C196.00303396 0.06157744 196.76418559 0.06233525 197.54840243 0.06311603 C202.9166559 0.06786207 208.28488411 0.06600516 213.65313721 0.06175423 C220.19373252 0.05683143 226.73421199 0.06279453 233.27478075 0.08264852 C236.61304086 0.09253162 239.95097667 0.09601047 243.28926849 0.08975601 C246.90495047 0.0838299 250.5201076 0.09625759 254.13574219 0.11352539 C255.19526407 0.10751535 256.25478596 0.1015053 257.34641457 0.09531313 C258.31332914 0.10375307 259.28024372 0.11219301 260.27645874 0.12088871 C261.11119406 0.12191784 261.94592937 0.12294697 262.8059597 0.12400728 C265.65980972 0.59991761 267.0230747 1.46758216 269.06787109 3.50120544 C269.91650298 10.18418154 269.91650298 10.18418154 267.71792603 13.59623623 C263.49382005 16.63269851 259.21135482 16.05534633 254.13574219 16.01586914 C252.44425836 16.02628743 252.44425836 16.02628743 250.71860313 16.0369162 C246.92597261 16.05526676 243.13396191 16.04489902 239.34130859 16.03465271 C236.62801568 16.03951196 233.91475342 16.05031263 231.20147705 16.0607605 C224.58852742 16.08242067 217.97574974 16.08226857 211.36277628 16.07413495 C205.98912804 16.06783952 200.61553002 16.06896777 195.24188232 16.07540703 C194.47757947 16.07630868 193.71327662 16.07721034 192.92581308 16.07813932 C191.37323013 16.07999048 189.82064719 16.08185304 188.26806426 16.08372688 C173.70357883 16.10031219 159.13919023 16.09157975 144.57471061 16.0747413 C131.24360483 16.06004175 117.91272439 16.07467494 104.58164763 16.10351146 C90.89928691 16.13288789 77.21703025 16.14388301 63.53463936 16.13432926 C61.98771288 16.13330669 60.44078638 16.13231208 58.89385986 16.13134575 C57.75213241 16.13063116 57.75213241 16.13063116 56.58733976 16.12990214 C51.2190548 16.12773579 45.85086813 16.13755373 40.48260498 16.15211678 C33.94195752 16.16961248 27.40159746 16.16956276 20.86096144 16.14676512 C17.52250552 16.13559731 14.18497474 16.13520452 10.84647369 16.15106583 C7.23049261 16.16689062 3.61591359 16.15214322 0 16.12939453 C-1.05952188 16.14123026 -2.11904377 16.15306599 -3.21067238 16.16526037 C-10.28470293 16.07437967 -10.28470293 16.07437967 -13.58413696 13.15334988 C-15.23142901 9.9123391 -15.54270481 8.0883389 -14.93212891 4.50120544 C-11.43815787 -1.07743583 -5.88686433 -0.05336687 0 0 Z " fill="#201F1F" transform="translate(384.93212890625,715.4987945556641)"/>
<path d="M0 0 C0.67561372 2.5395837 1.34065828 5.08118835 2 7.625 C2.19078125 8.33785156 2.3815625 9.05070313 2.578125 9.78515625 C3.63725129 13.9081836 4.53376106 17.71735246 4 22 C2.63671875 23.625 2.63671875 23.625 0.6875 25 C-18.57060219 40.50873716 -28.76250734 66.72712511 -35.36206055 89.79760742 C-36.45504961 93.57099218 -37.74197308 97.27916906 -39 101 C-39.21269531 101.64839844 -39.42539062 102.29679687 -39.64453125 102.96484375 C-39.86496094 103.63644531 -40.08539062 104.30804688 -40.3125 105 C-40.66828125 106.08861328 -40.66828125 106.08861328 -41.03125 107.19921875 C-41.84586205 109.55436729 -42.70727435 111.87849366 -43.59375 114.20703125 C-43.87565186 114.96306641 -44.15755371 115.71910156 -44.44799805 116.49804688 C-45.01781314 118.02356143 -45.59976126 119.54460675 -46.19458008 121.06054688 C-47.78153745 125.14623512 -47.78153745 125.14623512 -47.26953125 129.3671875 C-46.85058594 129.90601563 -46.43164062 130.44484375 -46 131 C-43.06346645 135.17891313 -42.46162017 137.88539163 -43 143 C-44.5473293 147.02305617 -46.00984402 150.11575968 -50 152 C-54.42988727 151.75836979 -57.93776824 150.66655662 -62 149 C-63.9924325 148.62406934 -65.9918674 148.28020455 -68 148 C-68.66 145.03 -69.32 142.06 -70 139 C-69.43410156 138.60167969 -68.86820313 138.20335937 -68.28515625 137.79296875 C-67.55167969 137.26316406 -66.81820312 136.73335937 -66.0625 136.1875 C-65.33160156 135.66542969 -64.60070312 135.14335937 -63.84765625 134.60546875 C-61.47488009 132.54371187 -61.08477306 130.80742868 -60.76171875 127.73046875 C-60.54416321 121.98022873 -60.54416321 121.98022873 -63.125 116.9375 C-65 114 -65 114 -64.84901428 112.06340027 C-64.66817795 111.344048 -64.48734161 110.62469574 -64.30102539 109.88354492 C-64.10018341 109.08435638 -63.89934143 108.28516785 -63.69241333 107.46176147 C-62.59869463 103.5732249 -61.36725619 99.74688922 -60.05859375 95.92578125 C-59.77501511 95.08740723 -59.49143646 94.2490332 -59.19926453 93.38525391 C-58.28513774 90.69208007 -57.36250313 88.00195633 -56.4375 85.3125 C-56.12286804 84.39503998 -55.80823608 83.47757996 -55.48406982 82.53231812 C-39.55093255 36.16399908 -39.55093255 36.16399908 -24 18 C-23.4946875 17.32710937 -22.989375 16.65421875 -22.46875 15.9609375 C-18.17931159 10.46783015 -7.3440102 0 0 0 Z " fill="#CFD0D0" transform="translate(653,208)"/>
<path d="M0 0 C0.99 0.495 0.99 0.495 2 1 C1.53851562 1.47566406 1.07703125 1.95132813 0.6015625 2.44140625 C-17.90173785 22.29771472 -27.34907986 47.47385193 -35.63012695 72.87451172 C-37.89608379 79.79584044 -40.34420376 86.64854311 -42.8125 93.5 C-43.21009521 94.60569336 -43.60769043 95.71138672 -44.01733398 96.85058594 C-46.86750548 104.73501095 -46.86750548 104.73501095 -48 107 C-56.91 107 -65.82 107 -75 107 C-73.81067578 101.648041 -72.70927729 96.74780157 -71.0390625 91.60546875 C-70.65548584 90.41920898 -70.27190918 89.23294922 -69.87670898 88.01074219 C-69.45964856 86.73627055 -69.04240744 85.46185803 -68.625 84.1875 C-68.18997998 82.84935066 -67.75517036 81.51113291 -67.32055664 80.17285156 C-62.31871879 64.80468025 -57.19058572 49.47767783 -52.05639648 34.15332031 C-49.38444711 26.1776101 -49.11210676 21.55945396 -52.625 13.875 C-53.35589844 12.41707031 -53.35589844 12.41707031 -54.1015625 10.9296875 C-55.22777571 7.25725313 -54.50861027 5.45851469 -53 2 C-52.34 2 -51.68 2 -51 2 C-50.34 2.886875 -49.68 3.77375 -49 4.6875 C-44.7137469 9.91797117 -39.35507896 12.38814381 -32.765625 13.58984375 C-19.99033537 14.4135898 -9.77151092 7.62654511 0 0 Z " fill="#121212" transform="translate(624,212)"/>
<path d="M0 0 C0.64338229 -0.00297112 1.28676459 -0.00594224 1.94964331 -0.0090034 C4.11526086 -0.01770626 6.28082324 -0.01919998 8.44645691 -0.02069092 C9.99527098 -0.025318 11.54408391 -0.03034251 13.09289551 -0.03573608 C17.30785397 -0.04887332 21.52279649 -0.0553077 25.73777223 -0.05974674 C28.37007185 -0.06267553 31.00236711 -0.06677999 33.63466454 -0.07125092 C41.86742661 -0.08492977 50.10017871 -0.09459434 58.33295137 -0.09845281 C67.84207916 -0.10293369 77.35106322 -0.12048131 86.8601473 -0.1494534 C94.20628016 -0.17105976 101.55237256 -0.18115654 108.89853686 -0.18249393 C113.28787073 -0.18354277 117.67706955 -0.18946733 122.06637001 -0.20731354 C126.1958072 -0.22377603 130.32500758 -0.22595866 134.45446587 -0.21717453 C135.96979023 -0.21640315 137.48512722 -0.22076012 139.00041962 -0.23063278 C141.07014244 -0.24332638 143.1390233 -0.23749048 145.20874023 -0.22705078 C146.36667996 -0.22851734 147.52461969 -0.2299839 148.71764851 -0.2314949 C152.75312013 0.25626729 155.52332059 1.63574327 158.15812683 4.75372314 C158.47136902 5.31446533 158.78461121 5.87520752 159.10734558 6.45294189 C159.43347839 7.00594971 159.75961121 7.55895752 160.09562683 8.12872314 C160.79484558 10.14044189 160.79484558 10.14044189 160.79484558 16.14044189 C103.04484558 16.14044189 45.29484558 16.14044189 -14.20515442 16.14044189 C-14.20515442 8.24570505 -14.20515442 8.24570505 -11.33015442 4.76544189 C-10.79648254 4.09770752 -10.26281067 3.42997314 -9.71296692 2.74200439 C-6.75661367 -0.39816356 -4.15744707 0.01069062 0 0 Z " fill="#2A2A2A" transform="translate(439.2051544189453,367.85955810546875)"/>
<path d="M0 0 C8.38850469 -0.11595557 16.77667344 -0.2047454 25.16578197 -0.25906086 C29.06141191 -0.28513253 32.95649273 -0.32048427 36.85180664 -0.37719727 C40.61252026 -0.43160664 44.37270644 -0.46143883 48.13378334 -0.47438622 C49.56714492 -0.48361035 51.00047828 -0.50162371 52.43361473 -0.52865028 C54.44398106 -0.56504759 56.45488047 -0.56704327 58.46557617 -0.56762695 C59.60919113 -0.57873001 60.75280609 -0.58983307 61.93107605 -0.60127258 C65.98248309 0.19249097 67.46635313 1.80730742 70 5 C70.48896114 7.73761495 70.68177199 9.84110017 70.62890625 12.56640625 C70.63131821 13.2823143 70.63373016 13.99822235 70.63621521 14.73582458 C70.63523946 16.24280359 70.62191042 17.74981964 70.59692383 19.2565918 C70.56254224 21.55967057 70.5762908 23.85892336 70.59570312 26.16210938 C70.58880577 27.63022461 70.57913437 29.09832999 70.56640625 30.56640625 C70.57384605 31.5946627 70.57384605 31.5946627 70.58143616 32.64369202 C70.50470514 35.7652172 70.2578654 37.65364632 68.373703 40.18437195 C65.24693353 42.57601503 63.4001174 42.48397036 59.48730469 42.45410156 C58.84298492 42.45468567 58.19866516 42.45526978 57.53482056 42.45587158 C55.41328323 42.45309334 53.29316564 42.42201774 51.171875 42.390625 C49.69786344 42.38316159 48.22384194 42.37746912 46.74981689 42.37347412 C42.87634733 42.3582254 39.00348084 42.31895107 35.13024902 42.2746582 C31.17545733 42.23368852 27.22056788 42.21545954 23.265625 42.1953125 C15.51014218 42.15245528 7.7551557 42.08421422 0 42 C0.35404907 41.49550827 0.70809814 40.99101654 1.07287598 40.47123718 C3.98039763 36.12479616 5.63123424 33.07622308 5.59375 27.70703125 C5.59117187 26.58232422 5.58859375 25.45761719 5.5859375 24.29882812 C5.55757812 23.14833984 5.52921875 21.99785156 5.5 20.8125 C5.50257813 19.65041016 5.50515625 18.48832031 5.5078125 17.29101562 C5.44125538 11.50387368 5.34833038 7.86624698 2 3 C1.34 2.01 0.68 1.02 0 0 Z " fill="#111111" transform="translate(641,871)"/>
<path d="M0 0 C4.04152915 -0.08746928 8.08281305 -0.14054982 12.125 -0.1875 C13.26710938 -0.21263672 14.40921875 -0.23777344 15.5859375 -0.26367188 C26.31851684 -0.35726995 26.31851684 -0.35726995 31 3 C34.10033079 6.97478307 35.34915733 9.51249276 35 14.5625 C34.25869364 18.82864544 32.94744636 21.74229613 30 25 C24.83205089 27.70736572 20.53367084 28.43618804 14.69520569 28.39440918 C13.88632587 28.40050028 13.07744606 28.40659139 12.24405473 28.41286707 C9.54805629 28.42944527 6.85253284 28.42472874 4.15649414 28.41992188 C2.21772269 28.42726515 0.27895562 28.43585214 -1.6598053 28.44558716 C-6.91599745 28.46778304 -12.17203275 28.47073485 -17.42826533 28.46883965 C-21.81945165 28.46871987 -26.21060482 28.47728676 -30.6017819 28.48561716 C-40.96232701 28.50484381 -51.32279155 28.50773751 -61.68334961 28.50097656 C-72.36541502 28.49433404 -83.04713528 28.51721047 -93.72913069 28.55429029 C-102.90726044 28.58499179 -112.08527919 28.59634689 -121.26345927 28.59245348 C-126.74218653 28.59038669 -132.2206451 28.59585483 -137.69932365 28.62034607 C-142.85163744 28.64261829 -148.00338999 28.64073118 -153.15570641 28.62041855 C-155.04388617 28.61700952 -156.93210377 28.62209295 -158.82023239 28.63640213 C-161.40354702 28.65462529 -163.98496368 28.64182418 -166.56822205 28.62145996 C-167.31055224 28.63397781 -168.05288243 28.64649566 -168.81770748 28.65939283 C-174.65076025 28.56120543 -178.35505581 26.42530665 -183 23 C-182.505 21.515 -182.505 21.515 -182 20 C-181.06570789 19.99853344 -180.13141579 19.99706688 -179.1688118 19.99555588 C-156.45168068 19.95898608 -133.73469728 19.89956969 -111.01768875 19.81609726 C-100.03197225 19.77626161 -89.04632785 19.74389214 -78.06054688 19.72900391 C-68.48706602 19.71601083 -58.91374351 19.68910628 -49.34035182 19.64538693 C-44.26971377 19.6227193 -39.19927141 19.60709249 -34.12857819 19.60811615 C-29.35803475 19.60885964 -24.58792477 19.59103462 -19.81749344 19.55883217 C-18.06473135 19.55029803 -16.31192083 19.54860695 -14.55914688 19.55419731 C-12.16906789 19.5608062 -9.78038066 19.54299339 -7.39044189 19.51898193 C-6.69394067 19.52674235 -5.99743945 19.53450277 -5.27983212 19.54249835 C-1.99821813 19.48397817 -0.24214127 19.1779552 2.43065262 17.21365738 C4.36184862 14.4895911 4.55407425 12.27241131 4.40625 8.96484375 C3.78548642 5.96249684 2.06062348 4.18941245 0 2 C0 1.34 0 0.68 0 0 Z " fill="#1B1A1A" transform="translate(588,395)"/>
<path d="M0 0 C1.16798126 -0.00563965 2.33596252 -0.0112793 3.53933716 -0.01708984 C5.47111061 -0.01101715 5.47111061 -0.01101715 7.44190979 -0.00482178 C8.80677986 -0.00753073 10.17164846 -0.01109112 11.53651428 -0.01544189 C15.24932507 -0.02458046 18.96202504 -0.02101542 22.67483783 -0.01468372 C26.55586219 -0.00963027 30.43687689 -0.01431344 34.31790161 -0.01745605 C40.83728239 -0.02109805 47.35661791 -0.01629096 53.87599182 -0.0067749 C61.41727308 0.00410555 68.95844617 0.00058801 76.49972481 -0.01042771 C82.96855771 -0.0194994 89.43735802 -0.02078631 95.90619522 -0.01555037 C99.77228415 -0.01242943 103.63832221 -0.01202464 107.50440788 -0.01862335 C111.13971145 -0.02439431 114.77487541 -0.02040457 118.41016388 -0.00883484 C120.38361925 -0.00492187 122.35708642 -0.01087637 124.33053589 -0.01708984 C125.50133698 -0.0114502 126.67213806 -0.00581055 127.87841797 0 C129.40792414 0.00113108 129.40792414 0.00113108 130.96832943 0.002285 C133.50270081 0.25396729 133.50270081 0.25396729 136.50270081 2.25396729 C136.94020081 5.19146729 136.94020081 5.19146729 136.50270081 8.25396729 C133.42354979 11.32743048 131.05457082 11.63015576 126.79612732 11.63491821 C125.63236572 11.64337769 124.46860413 11.65183716 123.26957703 11.66055298 C121.9966983 11.65448029 120.72381958 11.64840759 119.41236877 11.64215088 C118.05543088 11.64621687 116.6984963 11.65155891 115.34156799 11.65808105 C111.65988719 11.67175478 107.97845864 11.66645659 104.29677343 11.6569438 C100.44598553 11.64935055 96.59521929 11.65639159 92.74443054 11.66110229 C86.27986266 11.66655952 79.81539761 11.65936777 73.35084534 11.64508057 C65.87080372 11.62874025 58.39100724 11.6340526 50.91097152 11.65055978 C44.49220771 11.66415918 38.07351782 11.66610233 31.65474427 11.65824378 C27.81943434 11.65356049 23.98423979 11.65296057 20.14893723 11.66285324 C16.54555487 11.67149873 12.94248981 11.66554583 9.33914185 11.64817047 C7.38102152 11.64229133 5.42287446 11.65124079 3.46476746 11.66055298 C2.30664551 11.65209351 1.14852356 11.64363403 -0.04469299 11.63491821 C-1.05531359 11.63378714 -2.06593418 11.63265606 -3.10717964 11.63149071 C-3.89591909 11.50690798 -4.68465855 11.38232525 -5.49729919 11.25396729 C-7.79893802 7.80150905 -7.84220242 6.30658016 -7.49729919 2.25396729 C-4.85836966 -0.38496225 -3.68280051 0.00272446 0 0 Z " fill="#1F1E1E" transform="translate(447.49729919433594,327.74603271484375)"/>
<path d="M0 0 C5.67179885 2.42290436 9.26438365 6.76907854 11.57421875 12.421875 C12.67650747 18.45670747 12.4700064 23.66331256 9.26171875 28.984375 C7.9609375 30.80078125 7.9609375 30.80078125 6.57421875 32.421875 C5.95377686 33.19785034 5.95377686 33.19785034 5.32080078 33.98950195 C1.6865201 36.96997787 -3.74310303 36.02035477 -8.23828125 36.046875 C-9.31916016 36.09199219 -10.40003906 36.13710937 -11.51367188 36.18359375 C-19.29405519 36.25046015 -19.29405519 36.25046015 -22.4765625 33.92041016 C-27.23328025 28.48191525 -28.9390925 22.8334047 -28.734375 15.65625 C-27.85727991 9.30563742 -23.7908966 5.48858491 -19.01171875 1.5859375 C-13.84750994 -2.20454089 -5.98985612 -1.42753415 0 0 Z " fill="#202122" transform="translate(520.42578125,113.578125)"/>
<path d="M0 0 C5.52480598 0.13812015 8.36937133 2.47713804 12.23046875 6.109375 C15.68870526 9.80426788 16.85438523 12.75187339 17.4375 17.75 C17.1506635 23.7391462 15.32576229 29.50270644 11.19921875 33.93359375 C6.92986518 37.39052664 3.46725335 38.77219778 -2 39 C-1.93588945 53.48898495 6.30793275 63.17949597 15.55908203 73.38574219 C17.77488768 75.86810528 19.88526519 78.43127625 22 81 C16.05148722 78.48690508 11.91108281 73.25714962 7.4375 68.75 C6.94333588 68.25401306 6.44917175 67.75802612 5.94003296 67.24700928 C-17.78941675 43.36933198 -17.78941675 43.36933198 -18.6875 29 C-18.75324219 28.05125 -18.81898438 27.1025 -18.88671875 26.125 C-18.92410156 25.42375 -18.96148438 24.7225 -19 24 C-18.26394531 23.76925781 -17.52789063 23.53851562 -16.76953125 23.30078125 C-10.09959029 21.07159359 -5.37999371 19.16498899 -1.75 12.8125 C-0.62629454 8.59860454 -0.32025441 4.34029001 0 0 Z " fill="#CECFD0" transform="translate(666,719)"/>
<path d="M0 0 C38.94 0 77.88 0 118 0 C118.99 4.455 118.99 4.455 120 9 C80.07 9 40.14 9 -1 9 C-0.67 6.03 -0.34 3.06 0 0 Z " fill="#121211" transform="translate(453,347)"/>
<path d="M0 0 C2.72977064 -0.08126109 5.4571017 -0.14061663 8.1875 -0.1875 C8.95642578 -0.21263672 9.72535156 -0.23777344 10.51757812 -0.26367188 C15.2036122 -0.32400708 18.1789294 -0.01777735 22 3 C25.52089845 7.37077049 25 8.80676992 25 15 C-31.76 15 -88.52 15 -147 15 C-147 13.68 -147 12.36 -147 11 C-97.5 10.67 -48 10.34 3 10 C3.55363653 5.24654127 3.55363653 5.24654127 1.5 3.3125 C1.005 2.879375 0.51 2.44625 0 2 C0 1.34 0 0.68 0 0 Z " fill="#111110" transform="translate(574,368)"/>
<path d="M0 0 C6.20019459 0.75487003 9.8820312 1.83554451 14.35913086 6.37939453 C19.28704987 12.82280912 18.65340188 20.24603883 18.48706055 27.96508789 C18.43725164 30.32426364 18.42555001 32.68135907 18.41992188 35.04101562 C18.40584844 36.54429307 18.38964855 38.04755244 18.37109375 39.55078125 C18.36573105 40.25390945 18.36036835 40.95703766 18.35484314 41.68147278 C18.26594047 45.32188996 18.07486809 46.88769787 16 50 C12.76248322 51.07917226 10.42248229 51.11425601 7.01953125 51.09765625 C5.85615234 51.09443359 4.69277344 51.09121094 3.49414062 51.08789062 C2.27919922 51.07951172 1.06425781 51.07113281 -0.1875 51.0625 C-1.41404297 51.05798828 -2.64058594 51.05347656 -3.90429688 51.04882812 C-6.93624668 51.03703065 -9.96809906 51.02056921 -13 51 C-12.37818848 50.53376221 -11.75637695 50.06752441 -11.11572266 49.5871582 C-9.18499986 48.13878191 -7.26012057 46.69476601 -5.375 45.1875 C-4.78460937 44.72730469 -4.19421875 44.26710938 -3.5859375 43.79296875 C0.47343334 39.20368004 0.2746355 33.35223857 0.1953125 27.5390625 C0.1924826 26.74849457 0.18965271 25.95792664 0.18673706 25.1434021 C0.17560955 22.63710916 0.15051926 20.13118355 0.125 17.625 C0.11496058 15.91797394 0.10583641 14.21094223 0.09765625 12.50390625 C0.07569463 8.3357976 0.04121671 4.16796092 0 0 Z " fill="#CDCED0" transform="translate(722,874)"/>
<path d="M0 0 C16.72107557 0.96467744 31.08312945 11.91692388 42.19921875 23.75 C49.00249899 31.3887708 54.4265324 40.04925861 57 50 C50.6206279 47.26598339 46.18816662 41.00125481 43 35 C38.33234845 36.93510839 35.51333402 40.47478285 32.12109375 44.1015625 C30 46 30 46 27 46 C26.87625 45.2471875 26.7525 44.494375 26.625 43.71875 C23.43461788 27.28828208 15.43787479 12.20394309 1.72265625 2.3125 C1.15417969 1.879375 0.58570313 1.44625 0 1 C0 0.67 0 0.34 0 0 Z " fill="#141313" transform="translate(531,163)"/>
<path d="M0 0 C5.67336878 2.43536582 9.57406232 7.20526858 13.875 11.5 C15.20337891 12.79164063 15.20337891 12.79164063 16.55859375 14.109375 C25.11940815 22.63191452 32.16720028 31.58685628 32.328125 44.11743164 C32.32296875 44.8418042 32.3178125 45.56617676 32.3125 46.3125 C32.31121094 47.06072021 32.30992187 47.80894043 32.30859375 48.57983398 C32.21043306 54.22959531 31.27584627 58.78451897 29 64 C28.34 64 27.68 64 27 64 C26.401875 63.38125 25.80375 62.7625 25.1875 62.125 C20.57693777 57.64616812 15.12880077 57.50739527 9 57 C9.97933283 54.52078805 10.9719487 52.06204047 12.0703125 49.6328125 C16.07724784 40.10521068 16.66458152 29.99374456 13.375 20.125 C10.18409655 12.53673843 5.37631009 6.16694392 0 0 Z " fill="#CFCFCF" transform="translate(690,802)"/>
<path d="M0 0 C6.19300719 -0.07416092 12.38575584 -0.12860756 18.57910156 -0.16479492 C20.6859182 -0.17988069 22.79270344 -0.20035193 24.89941406 -0.22631836 C27.9278132 -0.26271053 30.95579709 -0.2797285 33.984375 -0.29296875 C34.92617615 -0.30845261 35.86797729 -0.32393646 36.83831787 -0.33988953 C37.71892883 -0.34011612 38.59953979 -0.34034271 39.50683594 -0.34057617 C40.27960876 -0.34723801 41.05238159 -0.35389984 41.84857178 -0.36076355 C44.64051406 0.10740499 45.99161311 1.02100815 48 3 C48.85252084 9.71360161 48.85252084 9.71360161 46.60644531 13.1027832 C42.55792829 16.04967584 38.64477413 15.4951527 33.765625 15.390625 C32.77246277 15.38496521 31.77930054 15.37930542 30.75604248 15.37347412 C27.58686941 15.35110026 24.4188308 15.30090106 21.25 15.25 C19.10027676 15.22993635 16.95053577 15.21168534 14.80078125 15.1953125 C9.53346771 15.15123239 4.26681491 15.08431033 -1 15 C-0.68546875 14.4121875 -0.3709375 13.824375 -0.046875 13.21875 C1.40388467 10.14400562 1.75862236 7.37928698 2 4 C1.07741665 1.82031097 1.07741665 1.82031097 0 0 Z " fill="#111111" transform="translate(606,716)"/>
<path d="M0 0 C8.86098583 4.54638106 13.81103972 9.75364599 18.9375 18.1875 C20.86175225 25.09216982 21.42143 32.79631547 18.4765625 39.43359375 C17.98929688 40.28050781 17.50203125 41.12742188 17 42 C10.27954125 39.80962826 3.63275997 37.44234339 -3 35 C-2.65066406 34.16855469 -2.30132813 33.33710938 -1.94140625 32.48046875 C-1.48636719 31.39378906 -1.03132812 30.30710938 -0.5625 29.1875 C-0.11003906 28.10855469 0.34242188 27.02960938 0.80859375 25.91796875 C4.44168204 17.01988039 3.64237607 8.78072804 0 0 Z " fill="#CDCECF" transform="translate(540,117)"/>
<path d="M0 0 C18.07152679 -0.04668758 36.14303797 -0.08197291 54.21461201 -0.10362434 C62.60525336 -0.11394396 70.99585728 -0.12801737 79.38647461 -0.15087891 C86.6983679 -0.17079182 94.01023409 -0.18371145 101.32215375 -0.18817699 C105.19499548 -0.19078794 109.06775964 -0.19693897 112.94057655 -0.21146011 C116.58403877 -0.22501092 120.22739129 -0.22922774 123.87087631 -0.22621536 C125.84913784 -0.22702998 127.82738737 -0.23780469 129.80561829 -0.24884033 C130.97930969 -0.246091 132.1530011 -0.24334167 133.36225891 -0.24050903 C134.89566154 -0.24327441 134.89566154 -0.24327441 136.460042 -0.24609566 C139 0 139 0 142 2 C142.4375 4.9375 142.4375 4.9375 142 8 C139.81053974 10.18817106 138.43334953 10.93957511 135.35261154 11.36914349 C134.33863926 11.36637811 133.32466698 11.36361273 132.27996826 11.36076355 C131.11331635 11.36488754 129.94666443 11.36901154 128.74465942 11.3732605 C127.46863861 11.36247467 126.1926178 11.35168884 124.87792969 11.34057617 C123.51775125 11.33972976 122.15757144 11.34020533 120.7973938 11.34190369 C117.10754554 11.34276451 113.41798978 11.32512487 109.7282095 11.30418181 C105.87116923 11.28542944 102.01412228 11.28366571 98.15704346 11.28010559 C90.85433953 11.27078088 83.55177032 11.24616138 76.24912572 11.21605712 C67.93482081 11.18252634 59.62050947 11.16603044 51.30615377 11.15097082 C34.20402459 11.11961216 17.10202654 11.06684342 0 11 C0 10.67 0 10.34 0 10 C28.05 9.67 56.1 9.34 85 9 C85.33 8.34 85.66 7.68 86 7 C99.86 7 113.72 7 128 7 C128.33 5.02 128.66 3.04 129 1 C86.43 1 43.86 1 0 1 C0 0.67 0 0.34 0 0 Z " fill="#4A4949" transform="translate(442,328)"/>
<path d="M0 0 C0.33 1.32 0.66 2.64 1 4 C32.35 4 63.7 4 96 4 C96.99 6.475 96.99 6.475 98 9 C65.33 9 32.66 9 -1 9 C-0.67 6.03 -0.34 3.06 0 0 Z " fill="#222222" transform="translate(453,347)"/>
<path d="M0 0 C10.56 0 21.12 0 32 0 C32 4.95 32 9.9 32 15 C13.75867303 15.76644231 13.75867303 15.76644231 7 10 C3.81304222 6.90119212 1.41587058 4.24761174 0 0 Z " fill="#CDCECE" transform="translate(411,434)"/>
<path d="M0 0 C1.65 0 3.3 0 5 0 C9.41436155 6.06974713 10.16077419 11.58284967 9 19 C7.72666779 22.04238917 6.13927311 24.4991596 4 27 C3.59072266 27.52239258 3.18144531 28.04478516 2.75976562 28.58300781 C0.29001904 30.57168833 -1.40290016 30.34281111 -4.54296875 30.29296875 C-6.15268555 30.2784668 -6.15268555 30.2784668 -7.79492188 30.26367188 C-8.91447266 30.23853516 -10.03402344 30.21339844 -11.1875 30.1875 C-12.31865234 30.17396484 -13.44980469 30.16042969 -14.61523438 30.14648438 C-17.41063317 30.11109958 -20.20507892 30.06172948 -23 30 C-24.0625 28.125 -24.0625 28.125 -25 26 C-24.67 25.34 -24.34 24.68 -24 24 C-23.14728516 24.03480469 -23.14728516 24.03480469 -22.27734375 24.0703125 C-15.95732404 24.21802582 -10.77083377 23.70028436 -5.25 20.3125 C-0.6476915 15.58234959 0.17105016 11.46148829 0.1875 5.0625 C0.1397912 3.37451707 0.0823499 1.68664786 0 0 Z " fill="#161617" transform="translate(523,119)"/>
<path d="M0 0 C0.33 0.66 0.66 1.32 1 2 C29.71 2.33 58.42 2.66 88 3 C88 3.33 88 3.66 88 4 C95.92 4.33 103.84 4.66 112 5 C112 5.33 112 5.66 112 6 C75.37 6 38.74 6 1 6 C0.67 4.02 0.34 2.04 0 0 Z " fill="#0E0E0E" transform="translate(440,332)"/>
<path d="M0 0 C10.59078406 4.65315913 21.4802185 16.92039901 27 27 C27 28.32 27 29.64 27 31 C24.6875 32.8125 24.6875 32.8125 22 34 C20.515 33.505 20.515 33.505 19 33 C17.640625 30.2265625 17.640625 30.2265625 16.25 26.625 C12.2730281 16.77570188 6.5286189 8.34610988 0 0 Z " fill="#CFCFCE" transform="translate(581,179)"/>
<path d="M0 0 C6.82624103 1.53590423 11.69252518 5.71837897 15.65625 11.35546875 C18.14864996 15.59947201 18.14864996 15.59947201 19 18 C18.67 18.99 18.34 19.98 18 21 C17.21625 20.236875 16.4325 19.47375 15.625 18.6875 C11.61604735 15.2953093 7.01942546 14.22013702 2 13 C1.93941406 12.39671875 1.87882813 11.7934375 1.81640625 11.171875 C1.69072266 9.97304688 1.69072266 9.97304688 1.5625 8.75 C1.48128906 7.96109375 1.40007813 7.1721875 1.31640625 6.359375 C1.02365007 4.17635361 0.57935581 2.1226818 0 0 Z " fill="#CFD0D0" transform="translate(609,371)"/>
<path d="M0 0 C5.08129185 -0.68898873 5.08129185 -0.68898873 8 0 C12.56244457 4.34242821 14.32050572 11.10128837 16 17 C9.52868922 14.2265811 5.34850214 7.99205646 2 2 C1.34 1.34 0.68 0.68 0 0 Z " fill="#211F1E" transform="translate(572,196)"/>
<path d="M0 0 C0.66 0.66 1.32 1.32 2 2 C1.74923045 5.85052606 -0.36611645 7.68201567 -3.0625 10.25 C-3.79597656 10.95640625 -4.52945312 11.6628125 -5.28515625 12.390625 C-5.85105469 12.92171875 -6.41695313 13.4528125 -7 14 C-8.18311902 10.45064295 -7.78103361 9.75125428 -6.3125 6.4375 C-5.97863281 5.65246094 -5.64476562 4.86742187 -5.30078125 4.05859375 C-3.8007222 1.68462642 -2.58160408 1.00546685 0 0 Z " fill="#2B2B2B" transform="translate(445,199)"/>
<path d="M0 0 C0.66 0.33 1.32 0.66 2 1 C0.70910257 2.4590143 -0.58274439 3.91718851 -1.875 5.375 C-2.59429688 6.18710938 -3.31359375 6.99921875 -4.0546875 7.8359375 C-5.33295938 9.25795079 -6.64794586 10.64794586 -8 12 C-8.33 11.01 -8.66 10.02 -9 9 C-9.66 8.34 -10.32 7.68 -11 7 C-9.21475351 5.80286983 -7.4215972 4.61752721 -5.625 3.4375 C-4.62726562 2.77621094 -3.62953125 2.11492187 -2.6015625 1.43359375 C-1.74304688 0.96050781 -0.88453125 0.48742187 0 0 Z " fill="#252627" transform="translate(624,212)"/>
<path d="M0 0 C0.66 0 1.32 0 2 0 C2.67119549 1.4562545 3.33681807 2.91507867 4 4.375 C4.556875 5.59316406 4.556875 5.59316406 5.125 6.8359375 C6 9 6 9 6 11 C3.14908131 9.72200196 0.77855829 8.62103327 -1 6 C-0.6875 2.8125 -0.6875 2.8125 0 0 Z " fill="#303030" transform="translate(582,202)"/>
<path d="M0 0 C3.43595166 1.52708963 6.11912454 3.59927045 9 6 C7.68 6.33 6.36 6.66 5 7 C3.35 4.69 1.7 2.38 0 0 Z " fill="#414242" transform="translate(399,212)"/>
<path d="M0 0 C2.475 0.495 2.475 0.495 5 1 C5 2.65 5 4.3 5 6 C4.01 6.33 3.02 6.66 2 7 C1.34 4.69 0.68 2.38 0 0 Z " fill="#141212" transform="translate(578,200)"/>
</svg>
