<?xml version="1.0" encoding="UTF-8"?>
<!DOCTYPE svg PUBLIC "-//W3C//DTD SVG 1.1//EN" "http://www.w3.org/Graphics/SVG/1.1/DTD/svg11.dtd">
<svg xmlns="http://www.w3.org/2000/svg" version="1.1" width="133px" height="133px" style="shape-rendering:geometricPrecision; text-rendering:geometricPrecision; image-rendering:optimizeQuality; fill-rule:evenodd; clip-rule:evenodd" xmlns:xlink="http://www.w3.org/1999/xlink">
<g><path style="opacity:0.922" fill="#000000" d="M 101.5,86.5 C 101.67,85.1779 101.337,84.0113 100.5,83C 77.1461,74.3632 53.8128,74.3632 30.5,83C 29.6634,84.0113 29.33,85.1779 29.5,86.5C 26.4126,84.5795 24.2459,81.9128 23,78.5C 20.6375,66.5219 18.4708,54.5219 16.5,42.5C 11.0318,42.7021 8.03181,40.0355 7.5,34.5C 9.3033,26.6228 13.97,24.1228 21.5,27C 26.2694,31.3907 26.6027,36.0573 22.5,41C 27.7048,47.9076 32.5382,55.0743 37,62.5C 38.1982,52.8702 38.6982,43.2036 38.5,33.5C 31.7887,31.3987 29.9554,27.0654 33,20.5C 37.3122,15.6234 41.9789,15.2901 47,19.5C 48.4833,22.7024 48.8166,26.0357 48,29.5C 47.5,31.3333 46.3333,32.5 44.5,33C 48.2042,42.2392 52.0376,51.4059 56,60.5C 58.0455,50.6023 60.2121,40.769 62.5,31C 56.0942,27.0478 55.0942,22.0478 59.5,16C 65.875,12.458 70.7084,13.958 74,20.5C 74.8167,25.3806 72.9834,28.8806 68.5,31C 70.7879,40.769 72.9545,50.6023 75,60.5C 78.9624,51.4059 82.7958,42.2392 86.5,33C 84.6667,32.5 83.5,31.3333 83,29.5C 80.8592,22.1038 83.5259,17.7705 91,16.5C 100.312,19.8771 101.812,25.3771 95.5,33C 94.552,33.4828 93.552,33.6495 92.5,33.5C 92.3018,43.2036 92.8018,52.8702 94,62.5C 98.4618,55.0743 103.295,47.9076 108.5,41C 104.397,36.0573 104.731,31.3907 109.5,27C 117.03,24.1228 121.697,26.6228 123.5,34.5C 122.968,40.0355 119.968,42.7021 114.5,42.5C 112.45,55.5812 109.95,68.5812 107,81.5C 105.296,83.3734 103.463,85.0401 101.5,86.5 Z"/></g>
<g><path style="opacity:1" fill="#eaeaea" d="M 101.5,86.5 C 93.7959,85.326 86.1292,83.826 78.5,82C 67.4678,81.2513 56.4678,81.5847 45.5,83C 40.2177,84.4894 34.8844,85.6561 29.5,86.5C 29.33,85.1779 29.6634,84.0113 30.5,83C 53.8128,74.3632 77.1461,74.3632 100.5,83C 101.337,84.0113 101.67,85.1779 101.5,86.5 Z"/></g>
<g><path style="opacity:0.947" fill="#060606" d="M 101.5,86.5 C 100.767,88.9633 99.7674,91.2967 98.5,93.5C 101.158,97.8203 102.991,102.487 104,107.5C 104.765,109.066 104.598,110.399 103.5,111.5C 102.405,114.735 100.072,116.568 96.5,117C 74.7304,123.216 53.0638,122.883 31.5,116C 28.383,114.555 26.383,112.222 25.5,109C 26.9034,103.364 29.2367,98.1971 32.5,93.5C 31.2326,91.2967 30.2326,88.9633 29.5,86.5C 34.8844,85.6561 40.2177,84.4894 45.5,83C 56.4678,81.5847 67.4678,81.2513 78.5,82C 86.1292,83.826 93.7959,85.326 101.5,86.5 Z"/></g>
<g><path style="opacity:1" fill="#e2e2e2" d="M 34.5,89.5 C 55.1694,89.3334 75.836,89.5 96.5,90C 97.8333,91.3333 97.8333,92.6667 96.5,94C 75.8333,94.6667 55.1667,94.6667 34.5,94C 33.2721,92.5098 33.2721,91.0098 34.5,89.5 Z"/></g>
<g><path style="opacity:1" fill="#e5e5e5" d="M 31.5,98.5 C 53.6317,105.132 75.7984,105.132 98,98.5C 100.5,99.3333 101,100.833 99.5,103C 76.5563,110.377 53.723,110.21 31,102.5C 30.4209,101.072 30.5876,99.7382 31.5,98.5 Z"/></g>
<g><path style="opacity:1" fill="#e8e8e8" d="M 103.5,111.5 C 78.5689,120.61 53.5689,120.777 28.5,112C 27,109.833 27.5,108.333 30,107.5C 53.6312,115.433 77.2979,115.433 101,107.5C 103.02,108.032 103.853,109.365 103.5,111.5 Z"/></g>
</svg>
