<?xml version="1.0" encoding="UTF-8"?>
<svg version="1.1" xmlns="http://www.w3.org/2000/svg" width="1024" height="1024">
<path d="M0 0 C337.92 0 675.84 0 1024 0 C1024 337.92 1024 675.84 1024 1024 C686.08 1024 348.16 1024 0 1024 C0 686.08 0 348.16 0 0 Z " fill="#FBFCFC" transform="translate(0,0)"/>
<path d="M0 0 C47.19 0 94.38 0 143 0 C143.33 13.86 143.66 27.72 144 42 C144.60001454 51.83577558 145.24777161 61.62841409 146.125 71.4375 C146.2322641 72.67219025 146.3395282 73.90688049 146.45004272 75.1789856 C150.00418416 115.65938087 155.57438728 158.06302248 169.15771484 196.58496094 C170.14420725 199.41347772 171.08128931 202.25668358 172.01953125 205.1015625 C177.29286972 220.91805843 183.10619009 236.62417476 190.7890625 251.453125 C192 254 192 254 192 257 C112.47 257 32.94 257 -49 257 C-47.76747479 253.30242438 -46.65944231 250.07457291 -45.0390625 246.61328125 C-34.42219517 223.39320815 -25.75661906 198.89094821 -20 174 C-19.49543905 171.89437602 -18.99017778 169.78891977 -18.484375 167.68359375 C-15.977897 157.13812957 -13.57239059 146.6031082 -11.84912109 135.89794922 C-11.08717035 131.1743407 -11.08717035 131.1743407 -10 129 C-9.73383763 127.36645799 -9.51319528 125.72537418 -9.31640625 124.08203125 C-9.19330078 123.07333984 -9.07019531 122.06464844 -8.94335938 121.02539062 C-8.81767578 119.96513672 -8.69199219 118.90488281 -8.5625 117.8125 C-8.31451134 115.75642475 -8.06580264 113.70043622 -7.81640625 111.64453125 C-7.68693604 110.56719727 -7.55746582 109.48986328 -7.42407227 108.37988281 C-6.98547703 104.88425101 -6.49233831 101.39859058 -6 97.91015625 C-4.89473553 89.67527649 -4.23100355 81.42426978 -3.62231445 73.13964844 C-3.43819167 70.63441115 -3.24797158 68.12969611 -3.05664062 65.625 C-2.74458883 61.50741502 -2.44674759 57.3889973 -2.15887451 53.26965332 C-2.01682891 51.2404149 -1.87028858 49.21149228 -1.72314453 47.18261719 C-0.68260946 31.46303285 -0.46373302 15.76692278 0 0 Z " fill="#010101" transform="translate(441,401)"/>
<path d="M0 0 C84.15 0 168.3 0 255 0 C255.66 5.61 256.32 11.22 257 17 C260.74021439 25.21380416 265.13287333 32.17977469 271 39 C271.94746094 40.11181641 271.94746094 40.11181641 272.9140625 41.24609375 C281.1263768 50.61182298 289.94270484 59.93866899 299.5625 67.875 C306.16422713 73.46772954 309.54252369 79.64752719 310.2734375 88.19921875 C310.50785375 96.25051537 309.8589168 102.40091299 305 109 C304.25862006 110.02105898 303.51724012 111.04211796 302.75339413 112.09411812 C297.94134081 116.79551094 291.58736774 115.83308793 285.26600647 115.77536011 C283.84686851 115.78370855 282.42774391 115.79466459 281.00864404 115.80799973 C277.11330668 115.83692587 273.21881496 115.82841558 269.32343113 115.81366611 C265.12082847 115.80421113 260.91840989 115.8292148 256.71586609 115.84970093 C248.4845495 115.88410433 240.25353806 115.88575149 232.02216823 115.87527512 C225.33231258 115.86719445 218.64254717 115.87007552 211.95269585 115.88077164 C211.00080558 115.88226848 210.04891531 115.88376533 209.06817989 115.88530753 C207.13446119 115.88837046 205.20074251 115.89144715 203.26702385 115.89453746 C185.13048548 115.92199732 166.99411963 115.91110523 148.85758518 115.88816704 C132.26295061 115.86830001 115.66876196 115.89418548 99.07419617 115.94203542 C82.03672898 115.99079252 64.9994696 116.01003945 47.96193403 115.99672997 C38.39586288 115.98974004 28.83013474 115.9942456 19.26411629 116.02923203 C11.12088622 116.05864524 2.97824069 116.05998854 -5.16497772 116.0250902 C-9.32007455 116.00803859 -13.47412654 116.00384342 -17.62916946 116.03439331 C-21.4338345 116.06202083 -25.23655662 116.05265668 -29.0411082 116.01391484 C-31.06771878 116.00280189 -33.09442742 116.03099783 -35.12085193 116.06062305 C-43.7352932 115.92070933 -43.7352932 115.92070933 -47.33899415 113.29720712 C-54.2996056 105.62154734 -55.59241785 97.5276749 -55.3515625 87.37890625 C-54.29507097 77.22484879 -48.22544981 72.16413003 -41.26850891 65.37110901 C-38.76535613 62.92237782 -36.2735535 60.46221696 -33.78198242 58.00170898 C-32.48158977 56.72130502 -31.17761366 55.44452907 -29.86987305 54.17163086 C-21.19105465 45.71717933 -13.62850953 37.15705335 -7 27 C-6.18752808 25.77265137 -6.18752808 25.77265137 -5.35864258 24.52050781 C-0.61550986 16.37578611 -1.21139653 10.29687051 0 0 Z " fill="#010101" transform="translate(386,694)"/>
<path d="M0 0 C14.52 0 29.04 0 44 0 C44 17.82 44 35.64 44 54 C61.16 54 78.32 54 96 54 C96 36.18 96 18.36 96 0 C116.79 0 137.58 0 159 0 C159 17.82 159 35.64 159 54 C175.83 54 192.66 54 210 54 C210 36.18 210 18.36 210 0 C224.52 0 239.04 0 254 0 C254 32.34 254 64.68 254 98 C170.18 98 86.36 98 0 98 C0 65.66 0 33.32 0 0 Z " fill="#000000" transform="translate(385,215)"/>
<path d="M0 0 C0.65568388 -0.0072672 1.31136777 -0.01453441 1.98692086 -0.02202183 C4.18791926 -0.04029547 6.38718007 -0.02290831 8.58816624 -0.00571251 C10.18038737 -0.01147285 11.77260186 -0.01941339 13.36480242 -0.02934873 C17.74310993 -0.05025776 22.12087385 -0.03988862 26.49918354 -0.02441764 C31.2198104 -0.01312448 35.9403425 -0.03055677 40.66095066 -0.04431725 C49.91006803 -0.06657648 59.15898278 -0.06173636 68.40810817 -0.04725404 C75.92416419 -0.03597168 83.44016334 -0.03442656 90.9562254 -0.03987312 C92.55954487 -0.04102237 92.55954487 -0.04102237 94.19525464 -0.04219484 C96.3665346 -0.04379343 98.53781455 -0.0454145 100.70909447 -0.04705779 C121.08030354 -0.06132334 141.4514002 -0.04491028 161.82259084 -0.01805596 C179.30786521 0.00428033 196.7929736 0.00040627 214.27824497 -0.02264977 C234.57396302 -0.04939904 254.86958247 -0.05994659 275.16531569 -0.04458845 C277.32900717 -0.04299567 279.49269867 -0.04142382 281.65639019 -0.03987312 C282.72101754 -0.03910175 283.78564489 -0.03833037 284.88253368 -0.03753562 C292.39039164 -0.03321576 299.89818714 -0.04051139 307.40603542 -0.05227089 C316.55454094 -0.06628487 325.70283192 -0.06251926 334.85131281 -0.03586717 C339.52045036 -0.02271367 344.18923004 -0.01760263 348.85836506 -0.03411293 C353.13135696 -0.04899405 357.40365875 -0.04085504 361.67658789 -0.01422517 C363.22363433 -0.00863231 364.77073887 -0.01149876 366.31774806 -0.02360411 C379.32283477 -0.11757536 379.32283477 -0.11757536 383.28554726 2.95378494 C386.02066146 6.45893032 386.12022667 8.55584176 386.09977818 12.97686195 C386.10127369 14.01742996 386.10127369 14.01742996 386.10279942 15.07901955 C386.0981372 16.53898065 386.07879178 17.99896069 386.04557896 19.45855141 C385.99826402 21.6894262 386.00447591 23.91553269 386.01774693 26.14678383 C385.93361919 36.87820561 385.93361919 36.87820561 383.74979502 39.80476141 C380.61033662 42.21485008 378.73594236 42.13040628 374.79862976 42.13257027 C374.13644744 42.13838403 373.47426511 42.14419779 372.79201666 42.15018773 C370.56313676 42.1648381 368.33534947 42.15088032 366.10647678 42.13714027 C364.49648475 42.14174723 362.88649692 42.14809875 361.27651793 42.15604925 C356.84461949 42.17279395 352.41306424 42.16447302 347.98116434 42.15210438 C343.20469417 42.14307723 338.42828422 42.15701193 333.6518259 42.16802406 C324.29197429 42.18583849 314.93225076 42.18195642 305.57239407 42.1703735 C297.96809852 42.16135147 290.36383896 42.16010984 282.7595396 42.16446877 C281.67855685 42.1650817 280.59757409 42.16569463 279.48383429 42.16632614 C277.2880676 42.16760499 275.09230093 42.16890185 272.89653427 42.1702165 C252.29271276 42.18163072 231.68896236 42.1684951 211.08515251 42.14701504 C193.39199407 42.12914077 175.69894058 42.13224926 158.00578403 42.15069008 C137.47572254 42.17207756 116.94572341 42.18053468 96.41565233 42.16824102 C94.22812689 42.16696678 92.04060144 42.1657093 89.85307598 42.16446877 C88.77667506 42.16385166 87.70027415 42.16323456 86.59125502 42.16259876 C78.99233974 42.15913967 71.39346389 42.16498616 63.79455471 42.17438698 C54.53946882 42.18558468 45.2845187 42.18261389 36.02944844 42.161264 C31.30402617 42.15072386 26.57883056 42.146682 21.85340977 42.15986061 C17.53251557 42.17172916 13.21205939 42.16531428 8.89120526 42.1439504 C7.32331855 42.13946072 5.75539526 42.14180322 4.18753182 42.15145355 C2.06513967 42.16352084 -0.05572864 42.15124451 -2.17803955 42.13257027 C-3.35945953 42.13192086 -4.54087951 42.13127145 -5.75810009 42.13060236 C-8.62678432 41.6292057 -8.62678432 41.6292057 -10.50358576 39.80476141 C-12.95018719 35.06586853 -12.14392526 29.17152799 -12.12776089 23.93023109 C-12.12678865 21.70162122 -12.16842045 19.47645914 -12.21272182 17.24834633 C-12.21792962 15.82452535 -12.22061701 14.40069246 -12.22053432 12.97686195 C-12.22762417 11.68788002 -12.23471401 10.39889809 -12.2420187 9.07085609 C-10.99650348 2.10338466 -6.66130808 0.0046319 0 0 Z " fill="#020202" transform="translate(326.626784324646,819.3707942962646)"/>
<path d="M0 0 C5.61 0 11.22 0 17 0 C17.33 34.65 17.66 69.3 18 105 C28.89 110.61 39.78 116.22 51 122 C51.99 122.66 52.98 123.32 54 124 C54.29296875 127.0390625 54.29296875 127.0390625 54.1875 130.625 C54.14689453 132.40777344 54.14689453 132.40777344 54.10546875 134.2265625 C54.07066406 135.14179688 54.03585937 136.05703125 54 137 C52.1746875 137.61875 52.1746875 137.61875 50.3125 138.25 C43.87239053 140.72173216 40.14550445 144.20061454 36.94921875 150.30078125 C34.79062638 156.4390007 34.84413064 163.82848507 37.1875 169.9375 C40.89180774 176.19650273 43.80170671 179.72421695 50.6875 182.25390625 C57.98230759 183.89695843 65.54954525 183.84701325 73 184 C73.02528996 188.76073853 73.04312881 193.52143546 73.05493164 198.28222656 C73.05986742 199.89160851 73.06661691 201.50098623 73.07543945 203.11035156 C73.46987475 277.07857135 60.78640131 351.3793239 33 420 C32.57041992 421.08603516 32.14083984 422.17207031 31.69824219 423.29101562 C30.49123563 426.29970479 29.22791441 429.27629045 27.9375 432.25 C27.58695557 433.13171875 27.23641113 434.0134375 26.87524414 434.921875 C25.77231178 437.33915349 24.87675096 439.11567915 23 441 C20.34639715 441.78727996 18.07016272 441.98386668 15.30688477 441.99121094 C12.8377107 441.88042361 12.8377107 441.88042361 10 443 C11.28316913 438.91310631 12.80978127 435.01357695 14.51220703 431.09057617 C22.85810531 411.84302876 30.21414529 392.2446882 35.28417969 371.87109375 C35.81533499 369.74067547 36.35972211 367.61354693 36.91113281 365.48828125 C39.6552349 354.85673083 41.92894731 344.15673729 44 333.375 C44.17364075 332.47313965 44.34728149 331.5712793 44.52618408 330.64208984 C48.04599411 312.16865075 50.23283426 293.68830424 51.8293457 274.96087646 C52.07075859 272.1869595 52.34144426 269.415996 52.609375 266.64453125 C54.75300977 243.17757674 55.16500398 219.54101394 56 196 C55.34515625 196.0314209 54.6903125 196.0628418 54.015625 196.09521484 C51.0107768 196.22094737 48.00648315 196.29828536 45 196.375 C43.97003906 196.42527344 42.94007813 196.47554687 41.87890625 196.52734375 C35.32943634 196.65249286 31.55519461 195.86180998 26.55395508 191.53125 C20.29875531 185.36744592 17.87674014 179.30765403 17.4375 170.625 C17.61974541 163.78683521 19.56924797 159.17855827 24 154 C27.66545952 150.55924298 31.00958914 147.98699237 36 147 C36.04852028 145.43825353 36.0364864 143.87457394 36 142.3125 C36 141.44238281 36 140.57226562 36 139.67578125 C34.38504947 135.35452689 30.934176 134.12167178 27 132 C26.02063477 131.44820068 25.04126953 130.89640137 24.03222656 130.32788086 C19.59311 127.8286002 15.13281044 125.36827781 10.671875 122.90820312 C9.58648437 122.30556641 8.50109375 121.70292969 7.3828125 121.08203125 C6.39684082 120.53780518 5.41086914 119.9935791 4.39501953 119.43286133 C2 118 2 118 0 116 C-0.24609566 113.94228935 -0.24609566 113.94228935 -0.24050903 111.35568237 C-0.24325836 110.37689117 -0.24600769 109.39809998 -0.24884033 108.38964844 C-0.24164978 107.31215332 -0.23445923 106.2346582 -0.22705078 105.12451172 C-0.22734283 103.99280548 -0.22763489 102.86109924 -0.22793579 101.69509888 C-0.22653812 97.9398848 -0.21095626 94.18486708 -0.1953125 90.4296875 C-0.19158393 87.83179838 -0.18873622 85.23390787 -0.18673706 82.63601685 C-0.17987089 76.4878341 -0.16409462 70.33973287 -0.14403808 64.19158089 C-0.12170136 57.19288685 -0.11069127 50.19418946 -0.10064721 43.19546866 C-0.07972896 28.79693993 -0.04413732 14.39847503 0 0 Z " fill="#BFBFC0" transform="translate(357,217)"/>
<path d="M0 0 C-0.16081055 0.66588135 -0.32162109 1.3317627 -0.48730469 2.01782227 C-1.10210461 5.5939085 -1.18113624 9.0978237 -1.203125 12.71484375 C-1.21167511 13.81488487 -1.21167511 13.81488487 -1.22039795 14.93714905 C-1.22980984 16.48274306 -1.2363667 18.02835678 -1.24023438 19.57397461 C-1.24995508 21.9266272 -1.28101925 24.27841083 -1.3125 26.63085938 C-1.31902982 28.13801569 -1.32428037 29.6451782 -1.328125 31.15234375 C-1.3404718 31.84939926 -1.3528186 32.54645477 -1.36553955 33.26463318 C-1.3414744 38.59001764 -0.14140736 42.70602418 3.53515625 46.64453125 C8.29584004 50.28505415 10.36248544 51.12525253 16.33687019 51.1386652 C17.32803033 51.14292853 17.32803033 51.14292853 18.33921391 51.14727798 C20.57496068 51.15566435 22.81065591 51.15689626 25.04641724 51.15821838 C26.65681675 51.16278106 28.26721508 51.16778064 29.87761199 51.17318195 C34.31970448 51.18680606 38.76178928 51.19419373 43.20389724 51.20060861 C47.98782872 51.20859385 52.77174412 51.22229805 57.55566406 51.23532104 C65.84972761 51.25711049 74.14379277 51.27524593 82.43787003 51.29092598 C94.42983403 51.31360218 106.42178024 51.34174809 118.41372918 51.37124526 C137.86809676 51.41894882 157.32247161 51.46220549 176.77685547 51.50268555 C195.67920497 51.54202643 214.58154801 51.58344926 233.48388672 51.62768555 C234.64828955 51.63040982 235.81269238 51.63313409 237.01238014 51.63594092 C242.85362674 51.64962016 248.69487324 51.66334048 254.5361197 51.67708123 C303.02406633 51.79108941 351.51202695 51.89788914 400 52 C397.93997726 57.37944803 396.10067638 60.93608214 390.79248327 63.62449312 C387.14840449 65.10457998 383.95957716 65.37789181 380.00776768 65.38311005 C379.33686831 65.38806956 378.66596894 65.39302908 377.97473928 65.39813888 C375.73439359 65.41105678 373.49464765 65.40272283 371.25428772 65.39440918 C369.62877224 65.39929989 368.00326025 65.40549053 366.37775415 65.41286707 C361.91674208 65.42926667 357.45590674 65.42694863 352.99487507 65.4214921 C348.1815538 65.41882197 343.36827964 65.43335332 338.55497742 65.44558716 C329.12771204 65.46664332 319.70050815 65.47118193 310.27322204 65.46939927 C302.61135935 65.46809186 294.94951586 65.47189475 287.28765678 65.47932434 C285.08102415 65.48142352 282.87439152 65.48352112 280.66775888 65.48561716 C279.02033647 65.48718245 279.02033647 65.48718245 277.3396328 65.48877937 C256.56779769 65.50768215 235.7959979 65.50663128 215.02415776 65.49981004 C196.01836411 65.4942333 177.01270521 65.51506555 158.00694305 65.54817051 C138.49361706 65.58189591 118.98035564 65.59707736 99.46699995 65.59245348 C88.51097589 65.59020779 77.5550764 65.59546669 66.59907722 65.62034607 C57.27283011 65.64134419 47.94677589 65.64496583 38.6205209 65.62604648 C33.86200082 65.61687988 29.10384055 65.61577397 24.34534836 65.63640213 C19.98846988 65.65508052 15.6322467 65.65064411 11.27539342 65.62785631 C9.70009968 65.62366264 8.12475601 65.62789641 6.54951502 65.64145225 C-8.77715711 65.76435503 -8.77715711 65.76435503 -15 60 C-20.78915047 53.65060916 -19.29639932 44.61472104 -19.35009766 36.55053711 C-19.36661899 34.73400019 -19.3938585 32.91752725 -19.43212891 31.10131836 C-19.48724197 28.46954955 -19.50882516 25.83930149 -19.5234375 23.20703125 C-19.54610687 22.4046553 -19.56877625 21.60227936 -19.59213257 20.77558899 C-19.56963888 14.69430445 -17.77587156 10.74527421 -14 6 C-9.66184072 1.87874868 -6.0051063 0 0 0 Z " fill="#BEBFBF" transform="translate(306,820)"/>
<path d="M0 0 C0.82421074 -0.00538554 1.64842148 -0.01077108 2.4976083 -0.01631981 C5.25743835 -0.03061912 8.01679008 -0.02349081 10.77664185 -0.01637268 C12.75614813 -0.02207526 14.73565113 -0.02903908 16.71514893 -0.03717041 C22.09123178 -0.05513042 27.46715166 -0.05392794 32.84325552 -0.04822803 C37.3313614 -0.04513994 41.8194358 -0.05122447 46.3075372 -0.05726677 C56.89622365 -0.07132005 67.48482944 -0.06974433 78.07351685 -0.05836487 C88.99636247 -0.04688566 99.91896252 -0.06095426 110.84177577 -0.08776134 C120.22026991 -0.10991633 129.59868695 -0.11655608 138.9772054 -0.11068493 C144.5782866 -0.10731335 150.17921042 -0.10974379 155.78026962 -0.12693596 C161.04822303 -0.14239945 166.31581267 -0.13845595 171.58375168 -0.11963081 C173.51588369 -0.11594315 175.44804261 -0.11905855 177.38014984 -0.1295166 C180.02061676 -0.14271627 182.65987767 -0.13118835 185.30029297 -0.11352539 C186.06246404 -0.1231304 186.8246351 -0.1327354 187.60990226 -0.14263147 C193.0707147 -0.06762235 196.25863522 1.29883827 200.77713013 4.38768005 C203.22147419 7.30512296 203.73275603 9.0390264 204.21463013 12.82518005 C203.54739853 18.25835163 201.34006054 21.11258553 197.1501379 24.53087425 C193.13146591 26.74311151 189.90043601 26.9532778 185.43400574 26.90907288 C184.19640799 26.92054952 184.19640799 26.92054952 182.93380827 26.93225801 C180.17697515 26.95284922 177.42098051 26.94494779 174.66409302 26.93699646 C172.68443533 26.94569328 170.70478439 26.95606045 168.72514343 26.9679718 C163.3532233 26.99474603 157.98158464 26.99590996 152.6096108 26.9908452 C148.12392901 26.98870552 143.63830415 26.9984731 139.15263456 27.00805604 C128.5701477 27.03024409 117.98780282 27.03112227 107.40530396 27.01902771 C96.4897135 27.00694429 85.5746384 27.03158 74.65913588 27.07416785 C65.28485199 27.10939699 55.91073217 27.12140313 46.53638452 27.11489236 C40.93858892 27.11126606 35.34116101 27.11654464 29.74342537 27.14432144 C24.47941663 27.16946514 19.21621153 27.1656038 13.95221519 27.13949966 C12.02169143 27.13476613 10.09111121 27.14024503 8.16065216 27.15674591 C5.52191564 27.17767258 2.88587816 27.16149677 0.24723816 27.13612366 C-0.89499526 27.15824651 -0.89499526 27.15824651 -2.06030411 27.18081629 C-7.36061147 27.07380467 -10.04354324 25.47936905 -13.89174086 21.86918008 C-16.89607393 18.52546246 -16.49344615 15.16183983 -16.43771362 10.86424255 C-16.15602478 7.61713846 -15.3742997 5.83585882 -13.22286987 3.38768005 C-8.97377829 0.13981276 -5.16414829 -0.04048454 0 0 Z " fill="#020202" transform="translate(419.2228698730469,363.61231994628906)"/>
<path d="M0 0 C1.13259386 -0.00482883 2.26518773 -0.00965766 3.43210262 -0.01463282 C7.23548065 -0.02592398 11.0381894 -0.00856838 14.84153748 0.00863647 C17.56482332 0.00870478 20.2880886 0.0027748 23.0113678 -0.00286865 C29.64492705 -0.01295004 36.27828684 -0.00167308 42.91182131 0.01683195 C50.63478929 0.03760167 58.35771415 0.03745953 66.0807048 0.03648679 C79.85860912 0.03548557 93.63642057 0.05380836 107.41429138 0.08285522 C120.78800651 0.11103549 134.16163991 0.12519653 147.53538513 0.12387085 C148.35920768 0.12379094 149.18303022 0.12371102 150.03181709 0.12362869 C150.85420652 0.12354798 151.67659596 0.12346727 152.52390629 0.12338412 C167.74409379 0.12200484 182.96424652 0.13378149 198.18442275 0.15169055 C203.56971235 0.15772609 208.95499556 0.15985 214.34028816 0.16075516 C220.90096838 0.1621187 227.46159001 0.17103789 234.02224535 0.18942077 C237.37058002 0.1986617 240.71877576 0.20368385 244.06713295 0.20223236 C247.69361084 0.20125498 251.31984503 0.21252263 254.94628906 0.22705078 C256.00901978 0.22395358 257.07175049 0.22085637 258.16668516 0.21766531 C259.62135708 0.22733865 259.62135708 0.22733865 261.1054163 0.23720741 C261.94264731 0.23861626 262.77987831 0.24002511 263.64247996 0.24147666 C266.16304648 0.52275318 267.76933104 1.1476374 269.90965271 2.49447632 C271.47665713 5.62848516 271.76129832 9.12602727 270.90965271 12.49447632 C268.73612254 14.97237335 266.92795494 16.3288308 263.63328075 16.86476994 C260.6908933 17.0124724 257.77211297 17.0272147 254.82603455 17.00241089 C253.69414625 17.00865085 252.56225795 17.01489081 251.39607 17.02131987 C247.5950485 17.03730229 243.79466359 17.02462438 239.99363708 17.01205444 C237.27196934 17.01527235 234.55032881 17.02444952 231.82867432 17.03329468 C225.19880683 17.05108701 218.56912042 17.04723681 211.93924582 17.03564411 C206.55132983 17.02661284 201.1634646 17.02538446 195.77554321 17.02973938 C195.00888921 17.03035231 194.24223521 17.03096524 193.45234928 17.03159675 C191.89493659 17.03287564 190.33752391 17.0341725 188.78011125 17.03548712 C174.17409667 17.046895 159.56818249 17.03377597 144.96218437 17.01228565 C132.42785921 16.99441446 119.89368223 16.99751851 107.35935974 17.01596069 C92.80583903 17.03736375 78.25240634 17.04579634 63.69887209 17.03351164 C62.14716881 17.03223743 60.59546551 17.03097995 59.04376221 17.02973938 C58.28028216 17.02912228 57.51680212 17.02850518 56.73018631 17.02786937 C51.34835184 17.02441477 45.96657315 17.03024718 40.58474731 17.03965759 C34.0266142 17.05087271 27.4686726 17.04784796 20.91056144 17.02653462 C17.56398522 17.01601719 14.21799307 17.01406402 10.87137794 17.02513123 C7.24502105 17.03601998 3.61956967 17.02240223 -0.00672913 17.00241089 C-1.066547 17.01133378 -2.12636487 17.02025666 -3.21829844 17.02944994 C-7.70643907 16.98127431 -10.34036653 16.94827572 -14.24156952 14.58773041 C-16.22681767 12.33995955 -16.77312937 11.45291872 -16.71534729 8.49447632 C-16.72823792 7.83447632 -16.74112854 7.17447632 -16.75440979 6.49447632 C-14.26418717 -1.00548828 -6.43824565 -0.06245266 0 0 Z " fill="#0F0F0F" transform="translate(386.09034729003906,667.5055236816406)"/>
<path d="M0 0 C-0.04640625 0.94101562 -0.0928125 1.88203125 -0.140625 2.8515625 C-0.46194879 10.4205988 -0.46194879 10.4205988 1.625 17.5625 C7.33788708 23.43641746 7.33788708 23.43641746 15 26 C15.98613579 40.40853954 10.20756787 49.38611948 1 60 C-4.93672865 66.34325244 -11.25314195 72.3288078 -17.50024414 78.36328125 C-19.62991671 80.42621467 -21.74691877 82.50155184 -23.86328125 84.578125 C-24.50606522 85.19085266 -25.14884918 85.80358032 -25.81111145 86.43487549 C-30.27677484 90.82720032 -33.22307536 95.40252563 -36 101 C-36.8971875 102.7634375 -36.8971875 102.7634375 -37.8125 104.5625 C-41.12851276 114.01787354 -39.69607876 125.92629312 -36 135 C-35.71382813 135.71285156 -35.42765625 136.42570313 -35.1328125 137.16015625 C-34.45359404 138.78704617 -33.73215329 140.39623565 -33 142 C-34.08667969 142.03867187 -34.08667969 142.03867187 -35.1953125 142.078125 C-41.47854806 142.44674149 -45.04323136 143.15850431 -50 147 C-50.99 147 -51.98 147 -53 147 C-57.26581071 136.05726819 -59.36332525 124.94651273 -54.875 113.625 C-49.48489011 102.29079671 -40.50341838 93.57978711 -31 85.5625 C-17.55480422 74.0106073 -3.5110247 59.10432163 -2.11328125 40.90625 C-2.07589844 40.2771875 -2.03851563 39.648125 -2 39 C-2.73992187 38.89816406 -3.47984375 38.79632812 -4.2421875 38.69140625 C-9.39423934 37.39974453 -13.46309591 33.55472137 -16.1796875 29.0390625 C-18.37900467 23.73975542 -19.03867794 18.46225979 -17.37890625 12.9296875 C-14.98902669 7.34268017 -11.16949091 4.06772664 -6 1 C-3 0 -3 0 0 0 Z " fill="#BEBEBF" transform="translate(360,668)"/>
<path d="M0 0 C59.4 0 118.8 0 180 0 C180 3.3 180 6.6 180 10 C120.6 10 61.2 10 0 10 C0 6.7 0 3.4 0 0 Z " fill="#010000" transform="translate(422,343)"/>
<path d="M0 0 C71.61 0 143.22 0 217 0 C209.40285047 7.59714953 202.26673726 8.64444403 191.84005737 8.69985962 C190.07989302 8.69332898 188.31973059 8.68626156 186.55957031 8.67871094 C184.68772193 8.68877132 182.81588379 8.70092218 180.94406128 8.71499634 C175.87763257 8.74624598 170.81168002 8.74573842 165.74517918 8.73749065 C161.50594681 8.73332022 157.26680692 8.74431922 153.02759051 8.75513482 C143.0196202 8.78025086 133.01188605 8.77916971 123.00390625 8.76171875 C112.70346137 8.74421193 102.4037915 8.77056165 92.1034615 8.81868529 C83.2394029 8.85854962 74.37558811 8.87107899 65.51144481 8.86197114 C60.22643735 8.85680422 54.94194942 8.86171482 49.65702057 8.89293671 C44.68255976 8.9211248 39.70926465 8.91494322 34.73483658 8.88322067 C32.91809921 8.87720339 31.10127578 8.88290236 29.28462601 8.90172958 C17.64463828 9.01329727 9.73645788 7.71017322 0 1 C0 0.67 0 0.34 0 0 Z " fill="#171717" transform="translate(403,324)"/>
<path d="M0 0 C5.61 0 11.22 0 17 0 C17 13.53 17 27.06 17 41 C11.39 41 5.78 41 0 41 C0 27.47 0 13.94 0 0 Z " fill="#C0C1C1" transform="translate(567,217)"/>
<path d="M0 0 C5.61 0 11.22 0 17 0 C17 13.53 17 27.06 17 41 C11.39 41 5.78 41 0 41 C0 27.47 0 13.94 0 0 Z " fill="#C1C2C2" transform="translate(452,217)"/>
<path d="M0 0 C5.94 0 11.88 0 18 0 C14.48118397 5.86469338 10.71559313 10.05601251 4 12 C2.68 12 1.36 12 0 12 C0 8.04 0 4.08 0 0 Z " fill="#BCBBBC" transform="translate(595,401)"/>
<path d="M0 0 C-1.41023609 3.4963457 -2.83187137 4.81142412 -6.1328125 6.578125 C-6.93847656 7.01640625 -7.74414062 7.4546875 -8.57421875 7.90625 C-9.41597656 8.3496875 -10.25773438 8.793125 -11.125 9.25 C-11.97449219 9.70890625 -12.82398438 10.1678125 -13.69921875 10.640625 C-15.79430436 11.77055881 -17.8944137 12.8897933 -20 14 C-20.33 12.68 -20.66 11.36 -21 10 C-17.87852455 8.32666842 -14.75226502 6.66248284 -11.625 5 C-10.73554687 4.52304687 -9.84609375 4.04609375 -8.9296875 3.5546875 C-8.07890625 3.10351562 -7.228125 2.65234375 -6.3515625 2.1875 C-5.56604004 1.76855469 -4.78051758 1.34960938 -3.97119141 0.91796875 C-2 0 -2 0 0 0 Z " fill="#C0C1C0" transform="translate(635,330)"/>
</svg>
