<?xml version="1.0" encoding="UTF-8"?>
<!DOCTYPE svg PUBLIC "-//W3C//DTD SVG 1.1//EN" "http://www.w3.org/Graphics/SVG/1.1/DTD/svg11.dtd">
<svg xmlns="http://www.w3.org/2000/svg" version="1.1" width="122px" height="123px" style="shape-rendering:geometricPrecision; text-rendering:geometricPrecision; image-rendering:optimizeQuality; fill-rule:evenodd; clip-rule:evenodd" xmlns:xlink="http://www.w3.org/1999/xlink">
<g><path style="opacity:0.921" fill="#000000" d="M 94.5,31.5 C 94.6716,30.5084 94.3382,29.8417 93.5,29.5C 70.1667,28.1667 46.8333,28.1667 23.5,29.5C 22.6618,29.8417 22.3284,30.5084 22.5,31.5C 21.3483,26.0154 21.1816,20.3487 22,14.5C 22.5,14 23,13.5 23.5,13C 28.1667,12.3333 32.8333,12.3333 37.5,13C 38.4061,14.6995 38.7394,16.5328 38.5,18.5C 41.8333,18.5 45.1667,18.5 48.5,18.5C 48.2606,16.5328 48.5939,14.6995 49.5,13C 55.5,12.3333 61.5,12.3333 67.5,13C 68.4061,14.6995 68.7394,16.5328 68.5,18.5C 71.8333,18.5 75.1667,18.5 78.5,18.5C 78.2606,16.5328 78.5939,14.6995 79.5,13C 84.1667,12.3333 88.8333,12.3333 93.5,13C 94,13.5 94.5,14 95,14.5C 95.8184,20.3487 95.6517,26.0154 94.5,31.5 Z"/></g>
<g><path style="opacity:1" fill="#e8e8e8" d="M 93.5,29.5 C 82.1863,30.8323 70.5197,31.499 58.5,31.5C 46.4803,31.499 34.8137,30.8323 23.5,29.5C 46.8333,28.1667 70.1667,28.1667 93.5,29.5 Z"/></g>
<g><path style="opacity:1" fill="#424242" d="M 23.5,29.5 C 34.8137,30.8323 46.4803,31.499 58.5,31.5C 70.5197,31.499 82.1863,30.8323 93.5,29.5C 94.3382,29.8417 94.6716,30.5084 94.5,31.5C 94.5,32.1667 94.1667,32.5 93.5,32.5C 70.1667,32.5 46.8333,32.5 23.5,32.5C 22.8333,32.5 22.5,32.1667 22.5,31.5C 22.3284,30.5084 22.6618,29.8417 23.5,29.5 Z"/></g>
<g><path style="opacity:0.954" fill="#030303" d="M 23.5,32.5 C 46.8333,32.5 70.1667,32.5 93.5,32.5C 91.8304,35.0016 89.6637,37.0016 87,38.5C 86.3333,51.1667 86.3333,63.8333 87,76.5C 88.2899,78.792 89.9565,80.792 92,82.5C 92.4983,85.8168 92.665,89.1501 92.5,92.5C 95.6852,92.0196 98.5185,92.6863 101,94.5C 101.667,98.1667 101.667,101.833 101,105.5C 100.5,106 100,106.5 99.5,107C 72.1667,107.667 44.8333,107.667 17.5,107C 17,106.5 16.5,106 16,105.5C 15.3333,101.833 15.3333,98.1667 16,94.5C 18.4815,92.6863 21.3148,92.0196 24.5,92.5C 24.335,89.1501 24.5017,85.8168 25,82.5C 27.0435,80.792 28.7101,78.792 30,76.5C 30.6667,63.8333 30.6667,51.1667 30,38.5C 27.3363,37.0016 25.1696,35.0016 23.5,32.5 Z"/></g>
<g><path style="opacity:1" fill="#eaeaea" d="M 31.5,36.5 C 49.5123,36.1671 67.5123,36.5005 85.5,37.5C 85.2907,38.086 84.9574,38.586 84.5,39C 67.1667,39.6667 49.8333,39.6667 32.5,39C 31.7476,38.3292 31.4142,37.4959 31.5,36.5 Z"/></g>
<g><path style="opacity:1" fill="#ededed" d="M 32.5,74.5 C 49.8333,74.5 67.1667,74.5 84.5,74.5C 84.5,75.5 84.5,76.5 84.5,77.5C 67.1667,77.5 49.8333,77.5 32.5,77.5C 32.5,76.5 32.5,75.5 32.5,74.5 Z"/></g>
<g><path style="opacity:1" fill="#f1f1f1" d="M 29.5,80.5 C 48.8333,80.5 68.1667,80.5 87.5,80.5C 87.5,81.5 87.5,82.5 87.5,83.5C 68.1667,83.5 48.8333,83.5 29.5,83.5C 29.5,82.5 29.5,81.5 29.5,80.5 Z"/></g>
<g><path style="opacity:1" fill="#fafafa" d="M 26.5,92.5 C 47.8333,92.5 69.1667,92.5 90.5,92.5C 90.5,93.5 90.5,94.5 90.5,95.5C 69.1667,95.5 47.8333,95.5 26.5,95.5C 26.5,94.5 26.5,93.5 26.5,92.5 Z"/></g>
</svg>
