<?xml version="1.0" encoding="UTF-8"?>
<!DOCTYPE svg PUBLIC "-//W3C//DTD SVG 1.1//EN" "http://www.w3.org/Graphics/SVG/1.1/DTD/svg11.dtd">
<svg xmlns="http://www.w3.org/2000/svg" version="1.1" width="117px" height="135px" style="shape-rendering:geometricPrecision; text-rendering:geometricPrecision; image-rendering:optimizeQuality; fill-rule:evenodd; clip-rule:evenodd" xmlns:xlink="http://www.w3.org/1999/xlink">
<g><path style="opacity:0.89" fill="#060606" d="M 51.5,13.5 C 64.571,12.6251 68.571,18.2917 63.5,30.5C 73.8352,35.5007 80.6685,43.5007 84,54.5C 85.7993,63.6017 83.2993,71.2684 76.5,77.5C 80.2148,82.5717 81.7148,88.2384 81,94.5C 78.5673,98.2435 75.0673,100.41 70.5,101C 79.8181,102.032 89.1515,103.032 98.5,104C 101.783,105.561 104.617,107.727 107,110.5C 107.113,114.993 104.78,117.326 100,117.5C 85.3308,116.167 70.6641,114.833 56,113.5C 41.1646,114.823 26.3313,116.156 11.5,117.5C 6.10717,117.286 3.9405,114.619 5,109.5C 6.93842,106.894 9.43842,105.061 12.5,104C 22.1769,103.033 31.8435,102.033 41.5,101C 32.4921,100.009 28.9921,95.1754 31,86.5C 31.5637,82.8733 33.0637,79.7066 35.5,77C 31.6978,74.9125 29.1978,71.7459 28,67.5C 25.9667,57.8328 27.9667,49.1661 34,41.5C 38.3783,37.0648 43.2116,33.2315 48.5,30C 44.0301,23.5154 45.0301,18.0154 51.5,13.5 Z"/></g>
<g><path style="opacity:1" fill="#f2f2f2" d="M 52.5,18.5 C 59.4883,17.6478 61.8216,20.4811 59.5,27C 53.2401,29.4117 50.4068,27.245 51,20.5C 51.7172,19.9558 52.2172,19.2891 52.5,18.5 Z"/></g>
<g><path style="opacity:1" fill="#fafafa" d="M 53.5,33.5 C 64.5751,35.3915 72.7418,41.3915 78,51.5C 81.688,60.8571 79.5213,68.3571 71.5,74C 60.8333,74.6667 50.1667,74.6667 39.5,74C 36.527,72.2352 34.3604,69.7352 33,66.5C 30.8402,56.3229 33.6735,47.8229 41.5,41C 45.4289,38.2119 49.4289,35.7119 53.5,33.5 Z"/></g>
<g><path style="opacity:1" fill="#1c1c1c" d="M 54.5,43.5 C 55.8221,43.33 56.9887,43.6634 58,44.5C 58.4955,46.4727 58.6621,48.4727 58.5,50.5C 60.5273,50.3379 62.5273,50.5045 64.5,51C 65.8333,52.3333 65.8333,53.6667 64.5,55C 62.5273,55.4955 60.5273,55.6621 58.5,55.5C 58.6621,57.5273 58.4955,59.5273 58,61.5C 56.6667,62.8333 55.3333,62.8333 54,61.5C 53.5045,59.5273 53.3379,57.5273 53.5,55.5C 51.4727,55.6621 49.4727,55.4955 47.5,55C 46.1667,53.6667 46.1667,52.3333 47.5,51C 49.4727,50.5045 51.4727,50.3379 53.5,50.5C 53.298,48.0504 53.6314,45.717 54.5,43.5 Z"/></g>
<g><path style="opacity:1" fill="#f6f6f6" d="M 74.5,84.5 C 68.5093,85.1662 62.3426,85.4996 56,85.5C 49.462,85.4962 43.2953,84.8296 37.5,83.5C 38.6253,81.8712 39.9586,80.3712 41.5,79C 51.1667,78.3333 60.8333,78.3333 70.5,79C 72.4641,80.451 73.7974,82.2843 74.5,84.5 Z"/></g>
<g><path style="opacity:1" fill="#aaaaaa" d="M 37.5,83.5 C 43.2953,84.8296 49.462,85.4962 56,85.5C 62.3426,85.4996 68.5093,85.1662 74.5,84.5C 75.0431,84.56 75.3764,84.8933 75.5,85.5C 62.5171,86.4991 49.5171,86.8325 36.5,86.5C 36.2627,85.209 36.596,84.209 37.5,83.5 Z"/></g>
<g><path style="opacity:1" fill="#f3f3f3" d="M 35.5,90.5 C 49.1667,90.5 62.8333,90.5 76.5,90.5C 75.7106,93.4343 73.7106,95.2676 70.5,96C 59.72,98.3263 49.0533,97.993 38.5,95C 36.1367,94.4115 35.1367,92.9115 35.5,90.5 Z"/></g>
<g><path style="opacity:1" fill="#eeeeee" d="M 55.5,102.5 C 59.7832,105.094 64.4499,106.594 69.5,107C 77.8333,107.333 86.1667,107.667 94.5,108C 96.9962,109.08 99.3295,110.414 101.5,112C 87.9404,110.805 74.2737,110.139 60.5,110C 56.8573,108.155 53.1906,108.155 49.5,110C 38.5,110.333 27.5,110.667 16.5,111C 14.4658,112.205 12.4658,112.372 10.5,111.5C 12.1311,109.703 14.1311,108.536 16.5,108C 27.9285,107.966 39.2618,106.966 50.5,105C 52.4913,104.626 54.158,103.793 55.5,102.5 Z"/></g>
</svg>
