<?xml version="1.0" encoding="UTF-8"?>
<svg version="1.1" xmlns="http://www.w3.org/2000/svg" width="1024" height="1024">
<path d="M0 0 C337.92 0 675.84 0 1024 0 C1024 337.92 1024 675.84 1024 1024 C686.08 1024 348.16 1024 0 1024 C0 686.08 0 348.16 0 0 Z " fill="#FEFEFE" transform="translate(0,0)"/>
<path d="M0 0 C10.04593025 5.9258716 16.22995176 13.31750546 20.23828125 24.3203125 C20.65975461 27.12604294 20.71529427 29.86152802 20.67578125 32.6953125 C20.6696582 33.44337158 20.66353516 34.19143066 20.65722656 34.9621582 C20.49216343 40.79967949 19.41826596 45.34955142 16.23828125 50.3203125 C15.55765625 51.4134375 14.87703125 52.5065625 14.17578125 53.6328125 C12.55426826 55.88200793 10.90558589 58.10511172 9.23828125 60.3203125 C9.77453125 60.38347656 10.31078125 60.44664062 10.86328125 60.51171875 C44.05651525 65.69816156 72.39788398 92.55261192 95.36328125 115.2578125 C96.09836914 115.97976807 96.83345703 116.70172363 97.59082031 117.44555664 C106.36164251 126.20307731 106.36164251 126.20307731 106.49145508 132.8984375 C106.42775166 138.31374628 105.13141839 142.67586689 103.1953125 147.69140625 C102.87549408 148.55881943 102.55567566 149.4262326 102.22616577 150.31993103 C101.18286164 153.13846849 100.11707115 155.94789997 99.05078125 158.7578125 C98.31596759 160.73007456 97.58266812 162.70290139 96.85083008 164.67626953 C95.36805865 168.66662332 93.87634743 172.65343753 92.37597656 176.63720703 C90.45703194 181.73264252 88.55737927 186.83495595 86.66796875 191.94140625 C86.11818668 193.42578963 85.56838241 194.91016478 85.01855469 196.39453125 C84.75409546 197.10867188 84.48963623 197.8228125 84.21716309 198.55859375 C82.91582724 202.07218045 81.6135191 205.5854009 80.30859375 209.09765625 C80.0573877 209.77384003 79.80618164 210.4500238 79.54736328 211.146698 C77.96787941 215.38826821 76.36409424 219.6199467 74.74534607 223.84667969 C73.67452104 226.64876039 72.61523946 229.45512404 71.55776978 232.26226807 C71.05847297 233.57849537 70.55368195 234.89265338 70.0430603 236.20452881 C69.34570755 237.99695718 68.66840996 239.79714979 67.9921875 241.59765625 C67.60361572 242.61077881 67.21504395 243.62390137 66.81469727 244.66772461 C66.00323631 247.27681169 66.00323631 247.27681169 67.02709961 249.53344727 C67.95939634 250.90887152 68.90794235 252.27329176 69.86328125 253.6328125 C71.67136307 257.1667906 71.72088649 259.390527 71.23828125 263.3203125 C69.15623734 267.18696547 67.02835906 270.04626582 63.23828125 272.3203125 C62.57828125 272.3203125 61.91828125 272.3203125 61.23828125 272.3203125 C61.56828125 275.2903125 61.89828125 278.2603125 62.23828125 281.3203125 C63.02203125 281.1965625 63.80578125 281.0728125 64.61328125 280.9453125 C70.90785217 281.59647501 76.1013732 284.7921396 80.1796875 289.6171875 C84.34585609 295.7610313 85.3584964 299.98718825 85.23828125 307.3203125 C86.90890625 307.289375 86.90890625 307.289375 88.61328125 307.2578125 C95.00996435 308.04457031 99.10869167 312.71683559 103.23828125 317.3203125 C106.78992076 322.96115172 107.17618057 328.81754388 106.23828125 335.3203125 C104.04005009 342.12017424 100.37001477 347.54964878 94.23828125 351.3203125 C89.07873058 353.87787427 85.41607902 354.68390042 79.5546875 354.61328125 C78.8543187 354.60903641 78.15394989 354.60479156 77.43235779 354.60041809 C75.22142125 354.58378406 73.01143668 354.5461643 70.80078125 354.5078125 C69.2910289 354.49274576 67.78126209 354.47906086 66.27148438 354.46679688 C62.59344691 354.43393171 58.91595718 354.38225832 55.23828125 354.3203125 C55.63092955 391.07016283 57.56888174 428.12455063 64.23828125 464.3203125 C64.49297915 465.73800565 64.74700504 467.15581964 65.00048828 468.57373047 C69.50696818 493.7084304 74.38023768 518.6532515 82.46166992 542.92236328 C83.38549885 545.77487751 84.24478176 548.64461276 85.109375 551.515625 C87.22783303 558.41860051 89.62981065 565.18930775 92.17578125 571.9453125 C92.40561707 572.55695251 92.63545288 573.16859253 92.87225342 573.79876709 C97.82849039 586.91204714 103.79685887 599.44935572 110.10595703 611.96142578 C111.23828125 614.3203125 111.23828125 614.3203125 112.23828125 617.3203125 C112.86734375 617.25070312 113.49640625 617.18109375 114.14453125 617.109375 C120.38097245 616.71490131 123.86654677 617.56672367 128.61328125 621.69140625 C132.77795856 625.8660948 134.00911753 629.81384315 134.42578125 635.62109375 C134.04273995 641.13529247 131.68586081 646.16199235 127.51953125 649.8359375 C124.01792783 652.01676068 121.262373 652.471905 117.23828125 652.3203125 C117.30408603 669.03472758 127.50037546 680.61953375 138.77001953 691.91064453 C140.00358313 693.12603167 141.24044744 694.33807717 142.48046875 695.546875 C143.10291473 696.15377167 143.72536072 696.76066833 144.3666687 697.38595581 C146.92641835 699.87246771 149.49143897 702.35287541 152.07519531 704.81445312 C161.65157624 713.96447192 169.42041109 722.20042395 170.44140625 736.08203125 C170.59194244 745.47799816 168.80049867 753.06487145 164.23828125 761.3203125 C165.47578125 761.1965625 165.47578125 761.1965625 166.73828125 761.0703125 C172.18029942 761.45902808 176.29277064 763.23193502 180.046875 767.26171875 C185.61372041 774.51063256 185.48534628 780.85979739 185.53344727 789.72412109 C185.54492019 791.19427145 185.56529737 792.6643817 185.5949707 794.13427734 C185.92946185 810.71681605 185.92946185 810.71681605 181.23828125 817.3203125 C176.19530745 821.4370258 172.37330982 822.44454098 165.98253155 822.45453358 C164.66353507 822.45899142 163.34453859 822.46344926 161.98557252 822.46804219 C160.51289856 822.46795289 159.0402246 822.46776303 157.56755066 822.46748352 C156.01006218 822.47078195 154.45257455 822.47450748 152.89508802 822.478625 C148.60365355 822.48865525 144.31223308 822.49236343 140.02078855 822.49501431 C135.39695539 822.49891425 130.77313333 822.50849271 126.14930725 822.51722717 C114.97802144 822.53699896 103.80673472 822.54705808 92.63543579 822.55595496 C87.37778395 822.56033614 82.12013311 822.56570334 76.86248207 822.57094383 C59.39083026 822.58795579 41.91917908 822.6024512 24.44752026 822.60969257 C19.91252326 822.61160254 15.37752627 822.61352286 10.8425293 822.61547852 C9.71534728 822.61596226 8.58816526 822.616446 7.42682622 822.6169444 C-10.84336474 822.62524931 -29.11349033 822.65059417 -47.38365272 822.68305919 C-66.13068372 822.71610074 -84.87768146 822.73413865 -103.62474173 822.73733681 C-114.15486084 822.73950446 -124.68488458 822.7482904 -135.21497536 822.77379799 C-144.1804924 822.79546522 -153.14589091 822.803575 -162.11143116 822.79383121 C-166.68736511 822.78927512 -171.26305428 822.79124848 -175.83895493 822.81059265 C-180.02679648 822.82814382 -184.21421324 822.82729252 -188.4020588 822.81169536 C-189.91822172 822.80930701 -191.43441344 822.81370609 -192.95053218 822.82552401 C-195.01035463 822.84058737 -197.06866098 822.83101169 -199.12844563 822.81529713 C-200.27281536 822.81627394 -201.4171851 822.81725074 -202.59623271 822.81825715 C-207.077016 822.11341055 -210.37915326 820.08166306 -213.1875 816.50390625 C-216.92427475 809.14558769 -217.0131558 802.94250642 -217.05688477 794.86157227 C-217.06837189 793.38458654 -217.08877203 791.90764125 -217.1184082 790.4309082 C-217.42551363 775.11852882 -217.42551363 775.11852882 -212.76171875 768.3203125 C-208.66682154 764.07214144 -204.95422238 761.39339595 -199.01171875 761.1953125 C-197.93921875 761.2365625 -196.86671875 761.2778125 -195.76171875 761.3203125 C-196.28572266 760.09054687 -196.28572266 760.09054687 -196.8203125 758.8359375 C-197.50287109 757.21945312 -197.50287109 757.21945312 -198.19921875 755.5703125 C-198.65167969 754.50296875 -199.10414063 753.435625 -199.5703125 752.3359375 C-203.25606672 743.00674977 -202.69355641 733.38067955 -199.22265625 724.05078125 C-195.62543464 717.32763177 -190.56199602 711.84480783 -185.11328125 706.58203125 C-183.84753475 705.33671202 -182.58191367 704.0912653 -181.31640625 702.84570312 C-179.35547056 700.92804494 -177.39206133 699.01300808 -175.42578125 697.10083008 C-155.7861181 677.98746522 -155.7861181 677.98746522 -148.76171875 652.3203125 C-149.77234375 652.2790625 -150.78296875 652.2378125 -151.82421875 652.1953125 C-156.64268035 651.49160208 -159.62269782 648.92166984 -162.76171875 645.3203125 C-165.57802846 640.41448269 -166.73912433 635.88822969 -165.76171875 630.3203125 C-163.60654277 624.43923906 -159.35652147 620.11771386 -153.76171875 617.3203125 C-153.12153809 617.34786621 -152.48135742 617.37541992 -151.82177734 617.40380859 C-149.14230152 617.47990731 -147.27769358 617.27631969 -144.76171875 616.3203125 C-141.85667315 612.9169853 -140.19678819 609.01164643 -138.38671875 604.9453125 C-137.83927002 603.78153076 -137.29182129 602.61774902 -136.7277832 601.41870117 C-135.01161774 597.74527148 -133.3769108 594.03906205 -131.76171875 590.3203125 C-131.00592529 588.58467041 -131.00592529 588.58467041 -130.23486328 586.81396484 C-120.4062994 563.93944412 -112.50259156 540.83741855 -106.58203125 516.66064453 C-105.79306737 513.44796481 -104.98275712 510.24136864 -104.16796875 507.03515625 C-100.54536185 492.59043976 -97.76128335 478.06156623 -95.29101562 463.37841797 C-94.81458558 460.62575987 -94.28454935 457.88942791 -93.74609375 455.1484375 C-92.28429032 447.14325454 -91.57078455 439.03694423 -90.76171875 430.9453125 C-90.67489838 430.08715942 -90.588078 429.22900635 -90.49862671 428.34484863 C-88.01412058 403.70371162 -86.49840754 379.0772485 -85.76171875 354.3203125 C-86.6839624 354.34125977 -87.60620605 354.36220703 -88.55639648 354.38378906 C-92.01743806 354.45244931 -95.47774351 354.50234479 -98.93920898 354.54003906 C-100.42988593 354.56000708 -101.92048605 354.5871917 -103.41088867 354.62207031 C-111.87750845 354.81507405 -119.31344517 354.93277046 -126.76171875 350.3203125 C-127.66921875 349.7840625 -128.57671875 349.2478125 -129.51171875 348.6953125 C-134.90069711 343.00694646 -137.09472476 337.06512065 -137.44921875 329.2578125 C-137.16984665 322.48671506 -135.57415407 318.11310523 -130.76171875 313.3203125 C-126.3401474 309.65894113 -122.4873999 307.20583085 -116.76171875 306.3203125 C-116.74753906 305.7634375 -116.73335938 305.2065625 -116.71875 304.6328125 C-116.28437842 297.68286715 -114.16436553 292.84186898 -109.30859375 287.81640625 C-105.36844604 284.34285498 -101.20485732 281.47964762 -95.88671875 281.1328125 C-95.18546875 281.1946875 -94.48421875 281.2565625 -93.76171875 281.3203125 C-93.10171875 278.3503125 -92.44171875 275.3803125 -91.76171875 272.3203125 C-92.50421875 272.0728125 -93.24671875 271.8253125 -94.01171875 271.5703125 C-97.61271509 269.93349598 -99.98376221 267.87622558 -101.76171875 264.3203125 C-102.12506488 260.95489345 -102.19112638 257.68042722 -101.76171875 254.3203125 C-100.67890625 253.11375 -100.67890625 253.11375 -99.57421875 251.8828125 C-97.52025714 249.57847775 -97.52025714 249.57847775 -97.96850586 247.40649414 C-100.62085051 238.15540647 -104.02476299 229.17770714 -107.39758301 220.1706543 C-108.91849381 216.10900425 -110.42895835 212.04349399 -111.94012451 207.97821045 C-112.71957594 205.88169718 -113.4995681 203.78538487 -114.28009033 201.68927002 C-117.90461184 191.95252923 -121.48684102 182.20056644 -125.05334473 172.44244385 C-125.98497925 169.89347234 -126.91772077 167.34490805 -127.85058594 164.79638672 C-129.23762018 161.00505428 -130.61972107 157.21195658 -131.99838257 153.41757202 C-132.75142298 151.34860004 -133.50907745 149.28135548 -134.2668457 147.21411133 C-134.72503722 145.95403516 -135.1829786 144.693868 -135.640625 143.43359375 C-136.03580322 142.35118408 -136.43098145 141.26877441 -136.83813477 140.15356445 C-138.18706091 136.01550262 -138.5672554 133.64091815 -137.76171875 129.3203125 C-133.72866646 121.55140072 -127.43535831 115.51729189 -121.26171875 109.4453125 C-120.77372803 108.96130981 -120.2857373 108.47730713 -119.78295898 107.9786377 C-112.20264616 100.47089045 -104.43483078 93.5455389 -95.76171875 87.3203125 C-94.62757324 86.47052617 -93.49478689 85.61892322 -92.36328125 84.765625 C-79.48365467 75.16626413 -65.87461255 67.7688144 -50.76171875 62.3203125 C-49.71242188 61.93746094 -48.663125 61.55460937 -47.58203125 61.16015625 C-44.76171875 60.3203125 -44.76171875 60.3203125 -40.76171875 60.3203125 C-41.1484375 59.84722656 -41.53515625 59.37414062 -41.93359375 58.88671875 C-50.22934065 48.3527629 -52.77478345 38.67829414 -51.76171875 25.3203125 C-49.50727843 15.50127422 -43.51506736 7.85138686 -35.19921875 2.3828125 C-24.86277345 -3.96307482 -11.14938164 -5.35919857 0 0 Z " fill="#070707" transform="translate(527.76171875,102.6796875)"/>
<path d="M0 0 C39.27 0 78.54 0 119 0 C119.33 11.22 119.66 22.44 120 34 C120.39591414 40.74246543 120.81269135 47.46056561 121.375 54.1875 C121.44069183 55.00120056 121.50638367 55.81490112 121.57406616 56.65325928 C122.64034941 69.83497663 123.98355688 82.92633635 126 96 C126.2073811 97.37673771 126.41438586 98.75353214 126.62109375 100.13037109 C129.46420553 118.98231824 132.69603603 137.61294408 137.29736328 156.12890625 C137.98890012 158.95464398 138.6399012 161.78661411 139.27734375 164.625 C141.52574258 174.56665082 144.19715575 184.20379087 147.5703125 193.82421875 C148.59557201 196.75179214 149.50752303 199.69272215 150.37109375 202.671875 C152.27145386 209.07518247 154.58360477 215.31396286 156.9375 221.5625 C157.28791855 222.49503601 157.28791855 222.49503601 157.64541626 223.44641113 C162.39463631 236.01878396 168.01748403 248.05121951 174.07299805 260.05175781 C175 262 175 262 175 263 C98.11 263 21.22 263 -58 263 C-55.03 256.73 -52.06 250.46 -49 244 C-40.06947198 224.42106613 -33.08735129 204.37686061 -26.59832764 183.88555908 C-26.07690682 182.24236279 -25.54902017 180.60122101 -25.02001953 178.96044922 C-6.57555464 121.32285503 -3.58704981 59.78416352 0 0 Z " fill="#FDFDFD" transform="translate(453,457)"/>
<path d="M0 0 C80.52 0 161.04 0 244 0 C244.66 4.95 245.32 9.9 246 15 C247.46069856 19.07877096 247.46069856 19.07877096 249.5625 22.25 C250.18253906 23.28640625 250.80257813 24.3228125 251.44140625 25.390625 C259.62753034 37.33756806 269.98655595 47.12129334 280.37524414 57.10791016 C282.38266066 59.04236016 284.37370548 60.99254037 286.36328125 62.9453125 C287.27428337 63.80819382 287.27428337 63.80819382 288.20368958 64.68850708 C293.29834119 69.722221 296.40898005 75.24963075 297.53125 82.37109375 C297.44262507 91.06741467 296.52141281 98.66924971 290.23288727 105.09631538 C285.01105547 109.45179957 279.2269573 108.8377302 272.71520996 108.77536011 C271.3570802 108.78371187 269.99896441 108.79466974 268.64087439 108.80799973 C264.91880691 108.83688209 261.1976261 108.82842947 257.47551036 108.81366611 C253.45765437 108.80420033 249.43998991 108.82922422 245.42219543 108.84970093 C237.55530612 108.88408215 229.68873624 108.88575625 221.82179129 108.87527512 C215.4280108 108.86719096 209.03432469 108.87007966 202.64054871 108.88077164 C201.73042435 108.88226848 200.82029999 108.88376533 199.88259611 108.88530753 C198.03367394 108.88837049 196.1847518 108.89144718 194.33582968 108.89453746 C176.9999875 108.92198885 159.66432587 108.91111079 142.32848781 108.88816704 C126.46785967 108.86829696 110.60769798 108.8941922 94.74714178 108.94203542 C78.45996903 108.99079534 62.17301365 109.01003901 45.88576937 108.99672997 C36.74224563 108.98974116 27.59908076 108.99423835 18.45561218 109.02923203 C10.67288551 109.05864864 2.89077045 109.05998403 -4.89194405 109.0250902 C-8.86276555 109.00804195 -12.83249388 109.00383481 -16.8032589 109.03439331 C-20.43952702 109.06203123 -24.07376289 109.05264439 -27.70991248 109.01391484 C-29.64600931 109.00280788 -31.58220885 109.03098961 -33.51811075 109.06062305 C-41.76563486 108.92054073 -41.76563486 108.92054073 -45.3039217 106.28182626 C-51.88206977 98.98304066 -53.30077756 92.18273857 -53.59375 82.5390625 C-51.42711471 69.62477583 -41.26139811 61.80905893 -32.25 53.1875 C-22.71540569 44.04589716 -13.9198892 35.32619059 -7 24 C-6.22329956 22.75524902 -6.22329956 22.75524902 -5.4309082 21.48535156 C-1.26414064 14.10783126 -1.31374829 9.19623805 0 0 Z " fill="#FEFEFE" transform="translate(390,756)"/>
<path d="M0 0 C1.94583069 -0.0195581 1.94583069 -0.0195581 3.93097109 -0.03951132 C5.37388351 -0.02870058 6.81679246 -0.01741727 8.25969791 -0.00571251 C9.78989705 -0.01147155 11.32008929 -0.01941121 12.85026699 -0.02934873 C17.06174775 -0.05027579 21.27266406 -0.03988058 25.48414719 -0.02441764 C30.02345002 -0.01313177 34.56265394 -0.03055313 39.10193729 -0.04431725 C47.99725942 -0.06658436 56.89237095 -0.06173288 65.78770142 -0.04725404 C73.01584245 -0.03597472 80.24392435 -0.03442523 87.47207165 -0.03987312 C89.01358182 -0.04102237 89.01358182 -0.04102237 90.5862336 -0.04219484 C92.67376583 -0.04379342 94.76129804 -0.04541449 96.84883023 -0.04705779 C116.43742489 -0.06132565 136.02590268 -0.04490668 155.61447818 -0.01805596 C172.43036377 0.00428042 189.24607679 0.00040665 206.06195927 -0.02264977 C225.57758285 -0.0493952 245.0931039 -0.05994875 264.60874325 -0.04458845 C266.68902018 -0.04299566 268.76929713 -0.04142381 270.84957409 -0.03987312 C271.87317549 -0.03910175 272.89677688 -0.03833037 273.95139651 -0.03753562 C281.17217404 -0.0332146 288.39288666 -0.04051389 295.61365414 -0.05227089 C304.41160873 -0.06628062 313.20934023 -0.06252828 322.0072692 -0.03586717 C326.49805725 -0.02270785 330.98847307 -0.01761239 335.47925854 -0.03411293 C339.58817742 -0.04898224 343.69637811 -0.04087492 347.80523158 -0.01422517 C349.29374378 -0.00862723 350.78231632 -0.01151008 352.27078991 -0.02360411 C354.29035854 -0.03875805 356.31009649 -0.02025809 358.32962036 0 C359.45256341 0.00081176 360.57550646 0.00162352 361.73247808 0.00245988 C365.71008284 0.83475934 367.21856811 2.49937755 369.72773075 5.6292057 C370.37470341 8.97905922 370.37470341 8.97905922 370.39179325 12.75811195 C370.39657688 13.42962791 370.40136051 14.10114388 370.4062891 14.7930088 C370.40967691 16.20579828 370.40055242 17.61866735 370.37958622 19.03130531 C370.35275113 21.19006623 370.37938161 23.34365027 370.4113245 25.50225258 C370.40802101 26.87921713 370.40161601 28.25617847 370.39179325 29.63311195 C370.3861536 30.87907143 370.38051395 32.1250309 370.37470341 33.40874672 C369.72773075 36.6292057 369.72773075 36.6292057 367.58717686 38.79902411 C364.18730375 40.97510471 362.33928468 41.13025144 358.32962036 41.13257027 C356.37987805 41.14821675 356.37987805 41.14821675 354.39074701 41.16417933 C352.95008909 41.15553128 351.50943339 41.14650466 350.06877995 41.13714027 C348.53700847 41.14174877 347.00524141 41.14810135 345.47348362 41.15604925 C341.26239883 41.17277271 337.05167587 41.16448265 332.84058964 41.15210438 C328.29997448 41.14306858 323.75942233 41.15701624 319.21881962 41.16802406 C310.32332595 41.18582918 301.42796713 41.18196056 292.53246813 41.1703735 C285.30482551 41.16134785 278.07722073 41.16011141 270.84957409 41.16446877 C269.82174741 41.1650817 268.79392073 41.16569463 267.73494779 41.16632614 C265.64709137 41.16760501 263.55923497 41.16890186 261.47137857 41.1702165 C241.88473368 41.18162799 222.29816361 41.16849937 202.71153099 41.14701504 C185.89536023 41.12914088 169.07929991 41.13224969 152.26313114 41.15069008 C132.74605539 41.17208215 113.22904525 41.18053211 93.71195942 41.16824102 C91.63199684 41.16696679 89.55203425 41.16570931 87.47207165 41.16446877 C85.93690096 41.16354311 85.93690096 41.16354311 84.37071673 41.16259876 C77.14896585 41.15914106 69.9272565 41.16498317 62.70551205 41.17438698 C53.90868086 41.18558976 45.11199249 41.18260312 36.31517773 41.161264 C31.82455157 41.15073076 27.33416379 41.14667034 22.84353924 41.15986061 C18.73603998 41.17174335 14.629001 41.16529064 10.52154375 41.1439504 C9.03240369 41.13946679 7.54322508 41.14178986 6.05410963 41.15145355 C4.03609952 41.1635492 2.01798112 41.14879691 0 41.13257027 C-1.1227807 41.13192086 -2.24556139 41.13127145 -3.40236574 41.13060236 C-6.94425599 40.51180388 -8.12586471 39.46845326 -10.27226925 36.6292057 C-10.78984737 33.40874672 -10.78984737 33.40874672 -10.80351925 29.63311195 C-10.80734615 28.96255272 -10.81117306 28.29199348 -10.81511593 27.60111427 C-10.81783088 26.18655326 -10.81049857 24.77194169 -10.79375362 23.35747719 C-10.77236602 21.20146121 -10.79354603 19.04878926 -10.81914425 16.89287758 C-10.81650023 15.51461507 -10.81137372 14.13635462 -10.80351925 12.75811195 C-10.79900753 11.51102455 -10.79449581 10.26393715 -10.78984737 8.97905922 C-9.7527583 2.26684265 -6.58079381 0.00475786 0 0 Z " fill="#FEFEFE" transform="translate(332.2722692489624,874.3707942962646)"/>
<path d="M0 0 C14.0134079 1.16778399 14.0134079 1.16778399 20.25 3.125 C21.32423218 3.45540283 21.32423218 3.45540283 22.42016602 3.79248047 C52.47936102 13.35362053 75.67034886 32.69004921 97.6875 54.5625 C98.28820312 55.15844971 98.88890625 55.75439941 99.5078125 56.3684082 C100.34505859 57.20891724 100.34505859 57.20891724 101.19921875 58.06640625 C101.69252686 58.56084229 102.18583496 59.05527832 102.6940918 59.56469727 C104.53579846 61.58888749 105.96726147 63.16310684 106.0770874 65.97058105 C105.40197911 71.40189435 104.12611395 76.19048954 102.140625 81.28125 C101.84373276 82.06877151 101.54684052 82.85629303 101.24095154 83.66767883 C100.25330449 86.28209819 99.25154568 88.89087705 98.25 91.5 C97.1786009 94.32524302 96.11105025 97.15192139 95.04374695 99.97871399 C94.27757529 102.00754099 93.51022025 104.03592142 92.74177551 106.06388855 C89.56588627 114.45716376 86.45838832 122.87465179 83.37109375 131.30078125 C82.89392559 132.60216813 82.41674259 133.90354957 81.93954468 135.20492554 C80.05405315 140.34834834 78.16957625 145.49213788 76.28991699 150.63769531 C74.97116472 154.24530295 73.64808527 157.85129782 72.32421875 161.45703125 C71.93108994 162.53648514 71.53796112 163.61593903 71.13291931 164.72810364 C70.57925438 166.23324776 70.57925438 166.23324776 70.0144043 167.76879883 C69.69626266 168.63837723 69.37812103 169.50795563 69.05033875 170.40388489 C67.86236608 173.34018883 66.41655638 176.16688724 65 179 C43.55 179 22.1 179 0 179 C0 119.93 0 60.86 0 0 Z " fill="#FDFCFC" transform="translate(517,170)"/>
<path d="M0 0 C0 59.07 0 118.14 0 179 C-21.45 179 -42.9 179 -65 179 C-67.97209306 171.86697666 -70.89291853 164.8036782 -73.5390625 157.55859375 C-73.85814072 156.69218765 -74.17721893 155.82578156 -74.50596619 154.93312073 C-75.54811544 152.10214872 -76.58675804 149.2699071 -77.625 146.4375 C-79.12475985 142.35229656 -80.62622627 138.26772395 -82.12890625 134.18359375 C-82.5182988 133.12490082 -82.90769135 132.06620789 -83.30888367 130.97543335 C-86.27871579 122.91737095 -89.30144114 114.88007823 -92.33984375 106.84765625 C-93.65281388 103.36567335 -94.96511694 99.88343966 -96.27728271 96.40115356 C-97.13129729 94.14111961 -97.98873922 91.88237769 -98.84967041 89.62496948 C-100.05573319 86.46156694 -101.2497169 83.29383972 -102.44140625 80.125 C-102.80306381 79.18636612 -103.16472137 78.24773224 -103.53733826 77.28065491 C-105.2297371 72.74638267 -106.62070523 68.92021269 -106 64 C-104.48828125 61.68359375 -104.48828125 61.68359375 -102.3125 59.4375 C-101.49136719 58.5815625 -100.67023438 57.725625 -99.82421875 56.84375 C-99.37095215 56.38742188 -98.91768555 55.93109375 -98.45068359 55.4609375 C-96.9162919 53.91570022 -95.40537305 52.34950099 -93.89453125 50.78125 C-87.30507069 44.00391676 -80.46308903 37.81743597 -73 32 C-71.56140625 30.81857422 -71.56140625 30.81857422 -70.09375 29.61328125 C-50.54641057 13.89149436 -25.59207874 0 0 0 Z " fill="#FDFDFC" transform="translate(507,170)"/>
<path d="M0 0 C80.52 0 161.04 0 244 0 C244.66 4.95 245.32 9.9 246 15 C247.46069856 19.07877096 247.46069856 19.07877096 249.5625 22.25 C250.18253906 23.28640625 250.80257813 24.3228125 251.44140625 25.390625 C259.62753034 37.33756806 269.98655595 47.12129334 280.37524414 57.10791016 C282.38266066 59.04236016 284.37370548 60.99254037 286.36328125 62.9453125 C287.27428337 63.80819382 287.27428337 63.80819382 288.20368958 64.68850708 C293.29834119 69.722221 296.40898005 75.24963075 297.53125 82.37109375 C297.44262507 91.06741467 296.52141281 98.66924971 290.23288727 105.09631538 C285.01105547 109.45179957 279.2269573 108.8377302 272.71520996 108.77536011 C271.3570802 108.78371187 269.99896441 108.79466974 268.64087439 108.80799973 C264.91880691 108.83688209 261.1976261 108.82842947 257.47551036 108.81366611 C253.45765437 108.80420033 249.43998991 108.82922422 245.42219543 108.84970093 C237.55530612 108.88408215 229.68873624 108.88575625 221.82179129 108.87527512 C215.4280108 108.86719096 209.03432469 108.87007966 202.64054871 108.88077164 C201.73042435 108.88226848 200.82029999 108.88376533 199.88259611 108.88530753 C198.03367394 108.88837049 196.1847518 108.89144718 194.33582968 108.89453746 C176.9999875 108.92198885 159.66432587 108.91111079 142.32848781 108.88816704 C126.46785967 108.86829696 110.60769798 108.8941922 94.74714178 108.94203542 C78.45996903 108.99079534 62.17301365 109.01003901 45.88576937 108.99672997 C36.74224563 108.98974116 27.59908076 108.99423835 18.45561218 109.02923203 C10.67288551 109.05864864 2.89077045 109.05998403 -4.89194405 109.0250902 C-8.86276555 109.00804195 -12.83249388 109.00383481 -16.8032589 109.03439331 C-20.43952702 109.06203123 -24.07376289 109.05264439 -27.70991248 109.01391484 C-29.64600931 109.00280788 -31.58220885 109.03098961 -33.51811075 109.06062305 C-41.67493782 108.9220812 -41.67493782 108.9220812 -45.30172443 106.39828134 C-49.09817933 102.3627857 -50.98634978 98.40613451 -52 93 C-51.40845029 92.99978263 -50.81690058 92.99956526 -50.20742512 92.99934131 C-15.14331985 92.98582393 19.92066259 92.94633537 54.98469532 92.87314438 C59.19536291 92.86437768 63.40603091 92.85582786 67.61669922 92.84741211 C68.45496349 92.84573305 69.29322775 92.84405398 70.15689397 92.84232404 C83.72796798 92.815658 97.29899976 92.80655924 110.87009728 92.80395857 C124.7964678 92.80089856 138.72271625 92.77894633 152.64903164 92.73947543 C161.24158861 92.7157167 169.83390186 92.70667436 178.42648715 92.71648689 C184.31965168 92.72180477 190.21259793 92.70876319 196.10570031 92.6813371 C199.50524682 92.66605637 202.90430474 92.65882037 206.30386543 92.67340279 C209.99311077 92.68499976 213.68097897 92.66594084 217.37011719 92.63923645 C218.9751978 92.65524634 218.9751978 92.65524634 220.61270428 92.67157966 C227.33383134 92.58078131 231.80432783 91.36804398 237 87 C241.25001856 82.42305693 242.45266539 78.64154189 242.32421875 72.515625 C241.25976409 64.25648281 235.90819277 58.5384067 230.37524414 52.74511719 C219.92238415 41.71261293 208 25.86482713 208 10 C104.545 10.495 104.545 10.495 -1 11 C-0.67 7.37 -0.34 3.74 0 0 Z " fill="#E0E1E1" transform="translate(390,756)"/>
<path d="M0 0 C39.27 0 78.54 0 119 0 C119.33 11.22 119.66 22.44 120 34 C120.39591414 40.74246543 120.81269135 47.46056561 121.375 54.1875 C121.44069183 55.00120056 121.50638367 55.81490112 121.57406616 56.65325928 C122.64034941 69.83497663 123.98355688 82.92633635 126 96 C126.2073811 97.37673771 126.41438586 98.75353214 126.62109375 100.13037109 C129.46420553 118.98231824 132.69603603 137.61294408 137.29736328 156.12890625 C137.98890012 158.95464398 138.6399012 161.78661411 139.27734375 164.625 C141.52574258 174.56665082 144.19715575 184.20379087 147.5703125 193.82421875 C148.59557201 196.75179214 149.50752303 199.69272215 150.37109375 202.671875 C152.27145386 209.07518247 154.58360477 215.31396286 156.9375 221.5625 C157.28791855 222.49503601 157.28791855 222.49503601 157.64541626 223.44641113 C162.39463631 236.01878396 168.01748403 248.05121951 174.07299805 260.05175781 C175 262 175 262 175 263 C98.11 263 21.22 263 -58 263 C-58 262.67 -58 262.34 -58 262 C5.69 262 69.38 262 135 262 C131.7 252.76 128.4 243.52 125 234 C122.5468289 226.01679913 120.17051545 218.05845307 118 210 C117.7102832 208.93410645 117.42056641 207.86821289 117.12207031 206.77001953 C111.99018737 187.69474907 108.20886563 168.47494466 105 149 C104.84047852 148.03562012 104.68095703 147.07124023 104.51660156 146.07763672 C98.02381653 105.69251379 95.3306245 63.88244789 96 23 C94.70280029 23.02698975 93.40560059 23.05397949 92.0690918 23.08178711 C87.23590926 23.07889973 82.65332537 22.48339907 77.89453125 21.69140625 C76.12871466 21.41234137 74.36258692 21.13523997 72.59619141 20.85986328 C71.68081604 20.71687805 70.76544067 20.57389282 69.82232666 20.42657471 C65.0607776 19.70690025 60.28722241 19.08399518 55.51171875 18.46484375 C54.54283722 18.33896881 53.57395569 18.21309387 52.57571411 18.08340454 C49.61317296 17.69989366 46.65035373 17.31858773 43.6875 16.9375 C41.68942834 16.67922815 39.69138138 16.42076513 37.69335938 16.16210938 C36.71722687 16.03575104 35.74109436 15.9093927 34.73538208 15.77920532 C33.77469818 15.654841 32.81401428 15.53047668 31.82421875 15.40234375 C30.88327362 15.28063812 29.94232849 15.1589325 28.97286987 15.03353882 C23.46684044 14.32099812 17.96107637 13.60663354 12.45703125 12.87890625 C11.33917236 12.73138916 10.22131348 12.58387207 9.06958008 12.43188477 C6.03643022 12.00512567 3.01887926 11.51748161 0 11 C0 7.37 0 3.74 0 0 Z " fill="#DEDFE0" transform="translate(453,457)"/>
<path d="M0 0 C0.83631254 -0.00467997 1.67262508 -0.00935994 2.53428042 -0.01418173 C5.34101752 -0.02616261 8.14726915 -0.01666238 10.95401001 -0.00723267 C12.96454656 -0.01129705 14.97508089 -0.01663818 16.98561096 -0.02316284 C22.45053423 -0.03685976 27.91528792 -0.03152749 33.38021421 -0.02202559 C39.09627463 -0.01443922 44.81232037 -0.02147195 50.52838135 -0.02618408 C60.13040782 -0.0316455 69.73236513 -0.0244408 79.3343811 -0.01016235 C90.4361213 0.00615558 101.53769614 0.00088338 112.63943231 -0.01564157 C122.16735543 -0.0292565 131.69522877 -0.03117577 141.22315848 -0.02332556 C146.91529336 -0.01864791 152.60735054 -0.0180266 158.29948044 -0.02793503 C163.65273079 -0.03660214 169.0057681 -0.03058728 174.35899544 -0.01325226 C176.3237949 -0.00928568 178.28861229 -0.01042439 180.25340462 -0.01704025 C182.93569856 -0.0252392 185.61731007 -0.01495398 188.29956055 0 C189.07699942 -0.00669217 189.85443829 -0.01338433 190.65543592 -0.02027929 C195.43784509 0.03142774 198.71182877 0.85308958 202.77676392 3.38095093 C205.97970572 7.01095163 206.29946531 10.49090386 206.12832642 15.16610718 C205.42490774 19.59764482 203.12047683 22.34423927 199.65132809 25.02078342 C195.90349629 26.794158 192.53176349 26.80011602 188.47123718 26.76863098 C187.63815377 26.77401652 186.80507036 26.77940206 185.946742 26.78495079 C183.15694057 26.79925125 180.36761223 26.79212152 177.57778931 26.78500366 C175.57695636 26.79070613 173.57612667 26.79766991 171.57530212 26.80580139 C166.14143752 26.82376139 160.70773415 26.82255906 155.27384877 26.81685901 C150.73842752 26.81377129 146.20303742 26.81985495 141.6676206 26.82589775 C130.96870522 26.83995068 120.26986969 26.83837526 109.57095337 26.82699585 C98.53107319 26.81551331 87.4914359 26.82959093 76.45158774 26.85639232 C66.97459643 26.87853871 57.49768142 26.8851891 48.02066606 26.87931591 C42.35981363 26.87594267 36.6991169 26.87838589 31.03828621 26.89556694 C25.71534514 26.91101701 20.39276431 26.90710189 15.06983757 26.8882618 C13.11632227 26.88457058 11.1627804 26.88769984 9.20928955 26.89814758 C6.54220102 26.91132274 3.87631114 26.8998411 1.20927429 26.88215637 C0.43640849 26.89176138 -0.33645732 26.90136639 -1.1327433 26.91126245 C-6.30311513 26.84073395 -9.25336253 25.66771053 -13.22323608 22.38095093 C-16.13360808 18.01539293 -16.87386099 14.58595014 -16.22323608 9.38095093 C-12.11458227 1.75059385 -8.45296928 -0.07234767 0 0 Z " fill="#FEFEFD" transform="translate(417.2232360839844,419.6190490722656)"/>
<path d="M0 0 C32.043118 7.12823599 57.04805547 29.07184563 79.6875 51.5625 C80.28820312 52.15844971 80.88890625 52.75439941 81.5078125 53.3684082 C82.34505859 54.20891724 82.34505859 54.20891724 83.19921875 55.06640625 C83.69252686 55.56084229 84.18583496 56.05527832 84.6940918 56.56469727 C86.53579846 58.58888749 87.96726147 60.16310684 88.0770874 62.97058105 C87.40197911 68.40189435 86.12611395 73.19048954 84.140625 78.28125 C83.84373276 79.06877151 83.54684052 79.85629303 83.24095154 80.66767883 C82.25330449 83.28209819 81.25154568 85.89087705 80.25 88.5 C79.1786009 91.32524302 78.11105025 94.15192139 77.04374695 96.97871399 C76.27757529 99.00754099 75.51022025 101.03592142 74.74177551 103.06388855 C71.56588627 111.45716376 68.45838832 119.87465179 65.37109375 128.30078125 C64.89392559 129.60216813 64.41674259 130.90354957 63.93954468 132.20492554 C62.05405315 137.34834834 60.16957625 142.49213788 58.28991699 147.63769531 C56.97116472 151.24530295 55.64808527 154.85129782 54.32421875 158.45703125 C53.93108994 159.53648514 53.53796112 160.61593903 53.13291931 161.72810364 C52.76380936 162.73153305 52.3946994 163.73496246 52.0144043 164.76879883 C51.69626266 165.63837723 51.37812103 166.50795563 51.05033875 167.40388489 C49.86236608 170.34018883 48.41655638 173.16688724 47 176 C38.75 176 30.5 176 22 176 C28.90034231 154.49082487 35.96410791 133.0497096 43.32566833 111.69371033 C54.83462764 84.84525028 54.83462764 84.84525028 53.48828125 57.51171875 C49.10873811 48.52836826 43.44539448 40.60195568 37 33 C36.5575293 32.47776855 36.11505859 31.95553711 35.65917969 31.41748047 C26.64375681 20.9168203 16.44714196 12.65859233 4.77441406 5.27294922 C3.15058125 4.2307438 1.57039665 3.12110638 0 2 C0 1.34 0 0.68 0 0 Z " fill="#E0E1E2" transform="translate(535,173)"/>
<path d="M0 0 C0.93992306 -0.00905664 1.87984612 -0.01811328 2.8482517 -0.02744436 C3.88276767 -0.02211644 4.91728364 -0.01678851 5.98314857 -0.01129913 C7.62941512 -0.02043579 7.62941512 -0.02043579 9.30893958 -0.02975702 C13.0055101 -0.04647461 16.70173945 -0.04159864 20.39834023 -0.03681183 C23.04089491 -0.04414711 25.68342356 -0.05263829 28.32596779 -0.06247711 C34.77024782 -0.08355674 41.21443794 -0.0880705 47.65874837 -0.08628923 C52.89605983 -0.08498278 58.13334317 -0.08877971 63.37064934 -0.09621429 C64.8779426 -0.09831344 66.38523586 -0.10041104 67.89252913 -0.10250711 C69.01778938 -0.10407241 69.01778938 -0.10407241 70.16578217 -0.10566932 C84.36163573 -0.12458216 98.55743765 -0.1235184 112.7532986 -0.11669999 C125.74429606 -0.11112466 138.73509631 -0.13194759 151.72604768 -0.16506046 C165.05920013 -0.19878225 178.39225807 -0.21396763 191.72545397 -0.20934343 C199.2134064 -0.20709708 206.70117658 -0.21236579 214.18909264 -0.23723602 C220.56430428 -0.25822983 226.93923377 -0.26186061 233.31445692 -0.24293643 C236.56789435 -0.233766 239.82069506 -0.23537528 243.07411194 -0.25329208 C246.60002176 -0.27137312 250.12451915 -0.25881647 253.6503849 -0.23834991 C254.68043943 -0.25086776 255.71049395 -0.26338561 256.77176225 -0.27628279 C261.47107425 -0.2175856 263.72981229 -0.13754305 267.61442947 2.69538879 C269.44375038 5.38311005 269.44375038 5.38311005 269.50625038 9.00811005 C268.32666206 12.75503767 267.72518176 13.44775172 264.44375038 15.38311005 C262.22672319 15.76145887 262.22672319 15.76145887 259.76165962 15.76622009 C258.81912881 15.77527673 257.87659801 15.78433337 256.90550566 15.79366446 C255.87322041 15.78833653 254.84093516 15.7830086 253.77736855 15.77751923 C252.67829752 15.78361033 251.5792265 15.78970143 250.4468503 15.79597712 C246.75105156 15.81267312 243.05559486 15.8078218 239.35976601 15.80303192 C236.71544134 15.81036835 234.07114263 15.81886003 231.42682838 15.8286972 C224.98235254 15.84976291 218.53796664 15.85429145 212.09346044 15.85250932 C206.85664105 15.85120243 201.61984976 15.85500205 196.38303566 15.86243439 C194.87542804 15.86453354 193.36782042 15.86663114 191.8602128 15.86872721 C190.73470808 15.8702925 190.73470808 15.8702925 189.5864659 15.87188941 C175.39254578 15.89079587 161.19867733 15.88974015 147.00474983 15.88292009 C134.01314044 15.87734245 121.02172811 15.89817865 108.03016478 15.93128055 C94.69585549 15.9649926 81.36164068 15.98018913 68.02728796 15.97556353 C60.53882339 15.97331655 53.05054103 15.97859537 45.56211281 16.00345612 C39.18799473 16.02443709 32.8141588 16.02809328 26.44002926 16.00915653 C23.18670855 15.999979 19.93402545 16.00161124 16.6807251 16.01951218 C13.15670698 16.03756957 9.63410575 16.02505461 6.11013222 16.00457001 C5.07784697 16.01708786 4.04556172 16.0296057 2.98199511 16.04250288 C-3.89415651 15.95637806 -3.89415651 15.95637806 -7.22680473 13.0708313 C-9.04189182 9.40129358 -8.63858172 7.27950562 -7.55624962 3.38311005 C-5.29249694 0.3851113 -3.68668156 0.00712217 0 0 Z " fill="#FEFEFE" transform="translate(381.5562496185303,729.6168899536133)"/>
<path d="M0 0 C-2.79576724 2.22280753 -5.72179217 4.03243944 -8.82080078 5.80200195 C-23.66612138 14.33524601 -36.74813584 25.09766896 -49 37 C-49.60537598 37.57959473 -50.21075195 38.15918945 -50.83447266 38.75634766 C-52.73329536 40.57724996 -54.6186205 42.41109291 -56.5 44.25 C-57.07580811 44.80421631 -57.65161621 45.35843262 -58.24487305 45.92944336 C-63.19094456 50.83771977 -67.46136377 55.63976604 -68.58984375 62.6796875 C-68.15308283 68.75904659 -65.66720593 74.46737905 -63.5625 80.125 C-63.07507414 81.4633347 -62.58869946 82.80205263 -62.10327148 84.14111328 C-60.72712074 87.92420012 -59.33299258 91.7004386 -57.93457031 95.4753418 C-56.9551021 98.12128765 -55.97909993 100.7684915 -55.00390625 103.41601562 C-52.85970584 109.23676201 -50.71168596 115.05609278 -48.5625 120.875 C-48.20103882 121.85388184 -47.83957764 122.83276367 -47.46716309 123.84130859 C-44.03181991 133.14186246 -40.59654802 142.44197946 -37.08790588 151.71517944 C-35.92257082 154.80072688 -34.76848143 157.89040107 -33.6166687 160.98101807 C-33.08507779 162.39828451 -32.54799446 163.81350427 -32.00515747 165.22650146 C-31.26699768 167.14875581 -30.54748396 169.07701532 -29.83203125 171.0078125 C-29.22452026 172.61100342 -29.22452026 172.61100342 -28.60473633 174.24658203 C-28 177 -28 177 -28.76049805 179.18701172 C-29.16953369 179.78529785 -29.57856934 180.38358398 -30 181 C-32.84734834 185.27102251 -32.3758576 188.9938966 -32 194 C-31.5048792 196.95976672 -31.5048792 196.95976672 -30 199 C-27.55711372 200.31068333 -27.55711372 200.31068333 -25 201 C-24.34 201.33 -23.68 201.66 -23 202 C-23.20986083 205.22914884 -23.62589382 208.0517262 -25 211 C-27.19934362 212.28480925 -29.21330919 212.80360704 -31.68359375 213.40234375 C-37.22160518 214.83120673 -40.80794532 218.43992189 -44 223 C-45.70033855 225.9538728 -46.32606751 228.36209847 -46.625 231.75 C-46.69976562 232.54921875 -46.77453125 233.3484375 -46.8515625 234.171875 C-46.90054688 234.77515625 -46.94953125 235.3784375 -47 236 C-47.97839844 236.34611328 -47.97839844 236.34611328 -48.9765625 236.69921875 C-56.31571081 239.43786849 -62.50776014 242.39658921 -66.30078125 249.7265625 C-68.50082928 256.87979129 -68.00693142 264.77316163 -64.9375 271.5625 C-61.17360099 278.03768219 -56.16903725 281.07659976 -49 283 C-49 283.33 -49 283.66 -49 284 C-57.76565435 284.63112711 -64.54519154 285.02374352 -71.9765625 279.77734375 C-77.21464371 275.17632647 -80.40331874 269.9203255 -81.25390625 262.90625 C-81.62070882 255.99616283 -79.74853171 251.20765439 -75.26953125 245.98046875 C-70.99214622 241.78846066 -67.68016764 240.20547949 -61.6875 239.97265625 C-61.130625 239.98167969 -60.57375 239.99070312 -60 240 C-59.99742187 239.23816406 -59.99484375 238.47632813 -59.9921875 237.69140625 C-59.70078918 229.91107105 -58.26610116 224.82237946 -53 219 C-48.89123049 215.43906642 -45.08623574 214.3320389 -39.85546875 213.39453125 C-37.99300962 213.1745359 -37.99300962 213.1745359 -37 212 C-36.50795078 208.92936371 -36.4161311 206.05990554 -37 203 C-39.77867705 200.73083907 -39.77867705 200.73083907 -43 199 C-45.63306114 194.96263958 -46.71565726 191.80512733 -46 187 C-44.9790625 185.824375 -44.9790625 185.824375 -43.9375 184.625 C-41.60835458 182.05246731 -41.60835458 182.05246731 -42.19921875 178.34765625 C-42.88438057 173.93826819 -44.26167341 169.95836345 -45.875 165.8125 C-46.17599609 165.01642334 -46.47699219 164.22034668 -46.78710938 163.40014648 C-47.84928886 160.59667623 -48.92458898 157.79842025 -50 155 C-51.59679089 150.81821556 -53.19028251 146.63518136 -54.78155518 142.45129395 C-55.26266586 141.18645228 -55.74407312 139.92172339 -56.22576904 138.65710449 C-59.36722333 130.40526558 -62.40967572 122.12957045 -65.28588867 113.78149414 C-67.79900167 106.51016064 -70.41878971 99.27867999 -73.06152344 92.05368042 C-73.55833679 90.695055 -74.05428173 89.33611168 -74.54931641 87.97683716 C-75.24521581 86.06697663 -75.94480719 84.15846259 -76.64453125 82.25 C-77.05034424 81.14140625 -77.45615723 80.0328125 -77.87426758 78.890625 C-78.91782862 76.0752997 -78.91782862 76.0752997 -80.11962891 73.77807617 C-82.2234368 69.52903765 -81.70287207 64.55995517 -81 60 C-79.34791783 56.34227721 -76.8039114 53.8378982 -74 51 C-73.43087891 50.40638672 -72.86175781 49.81277344 -72.27539062 49.20117188 C-64.29187442 40.87585376 -56.1465828 33.03993545 -47 26 C-46.03320312 25.21625 -45.06640625 24.4325 -44.0703125 23.625 C-10.04463004 -3.72023335 -10.04463004 -3.72023335 0 0 Z " fill="#E0E0E0" transform="translate(459,173)"/>
<path d="M0 0 C4.29 0 8.58 0 13 0 C13.60605095 17.72699027 12.57364763 35.20834037 11.1875 52.875 C11.10463745 53.95729889 11.0217749 55.03959778 10.93640137 56.1546936 C9.82384067 70.53305956 8.22584545 84.75230524 6 99 C5.79582763 100.34270088 5.59210112 101.68546967 5.38891602 103.02832031 C2.83956054 119.60078419 -0.35848429 135.92102825 -4.32861328 152.20996094 C-4.93039738 154.71075682 -5.5035494 157.21505452 -6.05859375 159.7265625 C-8.42052012 170.36611005 -11.56098983 180.6624992 -15 191 C-15.32097656 191.98145996 -15.64195312 192.96291992 -15.97265625 193.97412109 C-35.01487439 252.01487439 -35.01487439 252.01487439 -46 263 C-47.68183948 263.23287008 -49.3712416 263.41264166 -51.0625 263.5625 C-51.98160156 263.64628906 -52.90070313 263.73007812 -53.84765625 263.81640625 C-54.55792969 263.87699219 -55.26820313 263.93757813 -56 264 C-55.38275714 260.02703605 -54.12929772 256.90778464 -52.33203125 253.3203125 C-51.4968396 251.61524536 -51.4968396 251.61524536 -50.64477539 249.87573242 C-50.19740524 248.96312149 -50.19740524 248.96312149 -49.74099731 248.03207397 C-36.88171811 221.61993866 -27.05596131 193.50248831 -20 165 C-19.71608398 163.8749707 -19.43216797 162.74994141 -19.13964844 161.59082031 C-5.80278903 108.34496921 -1.08626555 54.76809585 0 0 Z " fill="#E2E2E2" transform="translate(429,457)"/>
<path d="M0 0 C7.60609388 -0.11599547 15.21209574 -0.20476637 22.81887341 -0.25906086 C26.35132845 -0.28512388 29.88317713 -0.32045866 33.4152832 -0.37719727 C37.47873661 -0.44206064 41.54155598 -0.46620732 45.60546875 -0.48828125 C46.8702153 -0.51408768 48.13496185 -0.5398941 49.43803406 -0.56648254 C58.10019388 -0.56925285 58.10019388 -0.56925285 62.2956543 2.08496094 C64.39533919 5.67617103 64.6452816 7.9759123 64.6640625 12.12890625 C64.66884613 12.80042221 64.67362976 13.47193817 64.67855835 14.1638031 C64.68194616 15.57659258 64.67282167 16.98946165 64.65185547 18.40209961 C64.62502038 20.56086053 64.65165086 22.71444456 64.68359375 24.87304688 C64.68029026 26.25001143 64.67388526 27.62697277 64.6640625 29.00390625 C64.65842285 30.24986572 64.6527832 31.4958252 64.64697266 32.77954102 C64 36 64 36 61.86014444 38.17051673 C58.45459951 40.34886388 56.60641864 40.49761245 52.59071636 40.49219131 C50.63727386 40.50413761 50.63727386 40.50413761 48.64436787 40.51632524 C47.20095328 40.50491362 45.75754157 40.49313124 44.31413269 40.48101807 C42.77951359 40.48276228 41.24489564 40.48626444 39.71028405 40.49137473 C35.49144458 40.50032802 31.27301052 40.48430639 27.0542227 40.46426249 C22.50552923 40.4470069 17.95685908 40.45283285 13.40814209 40.45587158 C5.52659363 40.45797014 -2.35482249 40.44540806 -10.23633766 40.42292023 C-21.6316976 40.3904277 -33.02699347 40.37999602 -44.42239472 40.37496826 C-62.91013211 40.3662113 -81.39779896 40.33958482 -99.88549805 40.30175781 C-117.84578091 40.26504812 -135.80604462 40.23673125 -153.76635742 40.21972656 C-155.42665003 40.21815022 -155.42665003 40.21815022 -157.12048391 40.21654204 C-162.67322106 40.21132193 -168.22595833 40.20626709 -173.7786957 40.20129442 C-219.85251267 40.15981989 -265.9262527 40.08936051 -312 40 C-312 39.67 -312 39.34 -312 39 C-311.00826099 38.99910437 -311.00826099 38.99910437 -309.99648684 38.99819064 C-270.84098938 38.96232376 -231.68557122 38.90572657 -192.53014539 38.82207905 C-187.8323531 38.81206117 -183.13456046 38.80221711 -178.43676758 38.79248047 C-177.03385434 38.78956841 -177.03385434 38.78956841 -175.60259942 38.78659752 C-160.4438584 38.75554701 -145.28513253 38.73858837 -130.12636568 38.72680578 C-114.58072726 38.71441 -99.03516856 38.68694429 -83.48958045 38.64538693 C-73.89131288 38.62020636 -64.29317748 38.60688603 -54.69487641 38.60857043 C-48.11964158 38.6086001 -41.54454174 38.59403792 -34.96935948 38.56783572 C-31.17152876 38.55313739 -27.37397484 38.54503119 -23.57612038 38.55419731 C-19.46496576 38.56395212 -15.35454929 38.54306095 -11.24345398 38.51898193 C-9.42976154 38.53062256 -9.42976154 38.53062256 -7.57942885 38.54249835 C-6.48315289 38.53105076 -5.38687693 38.51960317 -4.25738049 38.50780869 C-3.30769994 38.5062898 -2.35801939 38.50477092 -1.37956065 38.50320601 C1.13674267 38.20076816 1.13674267 38.20076816 2.80333298 36.15806603 C5.23598514 31.77102776 4.47770974 26.48005709 4.44604492 21.58276367 C4.43753896 19.57171098 4.46630173 17.56350634 4.49804688 15.55273438 C4.49740234 14.27849609 4.49675781 13.00425781 4.49609375 11.69140625 C4.49794678 10.52810791 4.4997998 9.36480957 4.50170898 8.16625977 C3.90619593 4.40800733 2.58278734 2.73074118 0 0 Z " fill="#DFDFE0" transform="translate(638,875)"/>
<path d="M0 0 C1.00076706 -0.00551503 1.00076706 -0.00551503 2.02175164 -0.01114148 C4.2679471 -0.02219611 6.51409633 -0.02602516 8.76031494 -0.02983093 C10.36661934 -0.03609427 11.97292229 -0.04274096 13.57922363 -0.04974365 C17.95126441 -0.06716608 22.32329424 -0.07770893 26.69536114 -0.08594918 C29.42616402 -0.09109703 32.1569635 -0.09717288 34.88776398 -0.10346031 C43.42967441 -0.12251642 51.97157618 -0.13674629 60.51350379 -0.14507228 C70.37753341 -0.15484528 80.24133867 -0.18116464 90.10528922 -0.22157317 C97.72659362 -0.25172422 105.34783367 -0.26654022 112.96919656 -0.26985329 C117.52236898 -0.27220507 122.07530183 -0.28118181 126.62841034 -0.30631447 C130.91302229 -0.32958239 135.19723671 -0.33383368 139.48189545 -0.32355309 C141.05324627 -0.32305729 142.62461657 -0.3293907 144.19590759 -0.34310913 C146.34429701 -0.36081423 148.49125766 -0.35373053 150.63964844 -0.34057617 C152.44154444 -0.3441587 152.44154444 -0.3441587 154.27984238 -0.34781361 C158.26082396 0.25041199 160.4341755 1.67730682 163.5737915 4.14717102 C166.17029816 7.68786191 165.5737915 9.29563504 165.5737915 14.14717102 C106.5037915 14.14717102 47.4337915 14.14717102 -13.4262085 14.14717102 C-13.4262085 6.25699761 -13.4262085 6.25699761 -11.0512085 3.77217102 C-7.18848415 -0.09055332 -5.36349093 0.01910454 0 0 Z " fill="#FDFDFD" transform="translate(436.42620849609375,394.8528289794922)"/>
<path d="M0 0 C3.87485635 -0.08751413 7.74945643 -0.14056435 11.625 -0.1875 C13.26662109 -0.22520508 13.26662109 -0.22520508 14.94140625 -0.26367188 C25.1472973 -0.3564527 25.1472973 -0.3564527 30 3 C33.2029418 6.63000071 33.52270139 10.10995293 33.3515625 14.78515625 C32.64814383 19.21669389 30.34371291 21.96328834 26.87456417 24.6398325 C23.12673238 26.41320707 19.75499957 26.4191651 15.69447327 26.38768005 C14.86138986 26.39306559 14.02830644 26.39845113 13.16997808 26.40399987 C10.38017666 26.41830033 7.59084832 26.41117059 4.80102539 26.40405273 C2.80019245 26.4097552 0.79936276 26.41671899 -1.20146179 26.42485046 C-6.63532639 26.44281047 -12.06902976 26.44160813 -17.50291514 26.43590808 C-22.0383364 26.43282037 -26.57372649 26.43890403 -31.10914332 26.44494683 C-41.80805869 26.45899976 -52.50689423 26.45742433 -63.20581055 26.44604492 C-74.24569072 26.43456238 -85.28532801 26.44864001 -96.32517618 26.4754414 C-105.80216749 26.49758778 -115.2790825 26.50423818 -124.75609785 26.49836498 C-130.41695029 26.49499174 -136.07764701 26.49743496 -141.73847771 26.51461601 C-147.06141877 26.53006609 -152.38399961 26.52615097 -157.70692635 26.50731087 C-159.66044164 26.50361965 -161.61398352 26.50674891 -163.56747437 26.51719666 C-166.2345629 26.53037181 -168.90045277 26.51889017 -171.56748962 26.50120544 C-172.34035543 26.51081045 -173.11322123 26.52041546 -173.90950722 26.53031152 C-179.06103242 26.46004011 -182.07728277 25.3358982 -186 22 C-186.33 21.01 -186.66 20.02 -187 19 C-186.03901744 18.99576806 -185.07803488 18.99153612 -184.08793163 18.98717594 C-160.72863242 18.88408218 -137.36936469 18.77534666 -114.01011944 18.66066074 C-102.71386953 18.60533127 -91.41761646 18.55184971 -80.12133789 18.50268555 C-70.27801492 18.45984035 -60.43471519 18.41356149 -50.5914281 18.36312145 C-45.3772354 18.33652324 -40.1630473 18.3116702 -34.94882774 18.29092598 C-30.04465493 18.27136107 -25.14052633 18.24721768 -20.23639297 18.21950912 C-18.43320963 18.21013793 -16.63001657 18.20246289 -14.82681847 18.19658089 C-12.37116583 18.1883209 -9.91562051 18.17404449 -7.46000671 18.15821838 C-6.3817035 18.15675122 -6.3817035 18.15675122 -5.28161639 18.15525442 C-2.24376008 18.1299557 0.09316009 17.96894664 3 17 C4.22397775 13.32806676 4.72596231 9.80297686 4 6 C2.73463245 3.95632127 1.40866259 1.94767746 0 0 Z " fill="#DDDEDE" transform="translate(590,420)"/>
<path d="M0 0 C6.88366658 3.7881153 11.45748613 9.53261465 13.9375 16.97265625 C14.79451198 25.70193542 14.17743116 32.75145759 8.9375 39.97265625 C3.77410631 45.4019758 0.1592202 47.13222888 -7.25 47.36743164 C-22.99136077 47.60135981 -22.99136077 47.60135981 -28.46875 42.8984375 C-31.25823613 39.52780843 -33.27864725 35.95447044 -35.0625 31.97265625 C-35.3925 31.31265625 -35.7225 30.65265625 -36.0625 29.97265625 C-36.99264109 21.57481102 -36.05148795 14.89981218 -31.0625 7.97265625 C-22.55622873 -1.10631447 -11.99541844 -4.02397328 0 0 Z " fill="#FBFBFC" transform="translate(523.0625,112.02734375)"/>
<path d="M0 0 C0 3 0 3 -2 6.1875 C-4.28103903 10.06526634 -4.83462586 13.57395375 -4 18 C-2.21540656 23.23926095 0.17962206 27.08535287 5 30 C7.32655998 30.84337799 9.58246627 31.43116853 12 32 C13.11057153 42.44759887 10.07991319 49.68643021 3.73681641 57.94750977 C-1.26810823 63.89329185 -6.41862739 69.54947889 -11.98828125 74.97265625 C-12.58620987 75.55503052 -13.18413849 76.13740479 -13.80018616 76.73742676 C-16.25321512 79.11736829 -18.7114785 81.49119719 -21.1887207 83.84594727 C-30.37216894 92.60209089 -39.1060407 101.44834923 -40.23828125 114.8125 C-40.42948244 123.02408795 -38.8995965 129.37254736 -36 137 C-35.64325691 138.32726156 -35.29981295 139.65873154 -35 141 C-35.61488281 141.13277344 -36.22976563 141.26554688 -36.86328125 141.40234375 C-38.07564453 141.66724609 -38.07564453 141.66724609 -39.3125 141.9375 C-40.11300781 142.11152344 -40.91351563 142.28554688 -41.73828125 142.46484375 C-44.145401 142.99886159 -44.145401 142.99886159 -47 144 C-47.81752303 142.41925436 -48.62881997 140.83528777 -49.4375 139.25 C-50.11619141 137.92742187 -50.11619141 137.92742187 -50.80859375 136.578125 C-54.7290951 128.09441716 -54.49009106 116.24375554 -51.9765625 107.3984375 C-47.93983606 98.76742571 -41.41482247 92.92627651 -34.3125 86.8125 C-21.05827268 75.35724964 -4.61389911 60.8990286 -1 43 C-0.93451508 41.41788427 -0.91421619 39.83329919 -0.9375 38.25 C-0.94652344 37.45078125 -0.95554687 36.6515625 -0.96484375 35.828125 C-0.97644531 35.22484375 -0.98804688 34.6215625 -1 34 C-1.66386719 33.78085937 -2.32773437 33.56171875 -3.01171875 33.3359375 C-9.02116583 31.1778003 -12.50839624 29.40635421 -16 24 C-17.72959504 18.48551192 -18.08454543 12.43634222 -15.4375 7.1875 C-11.80383692 1.66638649 -6.61245823 -0.64511788 0 0 Z " fill="#E0E0E0" transform="translate(367,723)"/>
<path d="M0 0 C1.27881042 -0.00563965 2.55762085 -0.0112793 3.87518311 -0.01708984 C5.3004156 -0.01320087 6.72564754 -0.00910451 8.15087891 -0.00482178 C9.64544852 -0.00753055 11.14001679 -0.01109084 12.63458252 -0.01544189 C16.70061752 -0.02458171 20.76655136 -0.02101512 24.8325882 -0.01468372 C29.08110331 -0.00963194 33.32960956 -0.01431288 37.578125 -0.01745605 C44.7137203 -0.02109811 51.84927425 -0.01629035 58.98486328 -0.0067749 C67.24302421 0.00411011 75.50108639 0.0005847 83.75924492 -0.01042771 C90.84037053 -0.0194938 97.92146636 -0.0207892 105.0025959 -0.01555037 C109.23585759 -0.01242693 113.46907281 -0.01203156 117.70233154 -0.01862335 C121.68153268 -0.02438635 125.6606061 -0.02041924 129.6397934 -0.00883484 C131.10315488 -0.00618263 132.56652706 -0.00696287 134.02988434 -0.01136017 C136.02154668 -0.01679473 138.01323242 -0.00878333 140.00488281 0 C141.12134186 0.00075405 142.2378009 0.0015081 143.38809204 0.002285 C146.00244141 0.25396729 146.00244141 0.25396729 148.00244141 2.25396729 C148.18994141 5.31646729 148.18994141 5.31646729 148.00244141 8.25396729 C146.20723232 10.04917637 143.50950554 9.38407087 141.08717346 9.38768005 C139.80132355 9.39194504 138.51547363 9.39621002 137.19065857 9.40060425 C135.75234982 9.40025468 134.3140411 9.39979312 132.87573242 9.39923096 C131.37145911 9.40222082 129.86718656 9.40562294 128.36291504 9.40940857 C124.26585911 9.4182704 120.16882405 9.42058759 116.07175946 9.42122436 C112.65705452 9.42217164 109.2423545 9.42584784 105.82765144 9.42939645 C97.77450275 9.4375493 89.72136524 9.43997993 81.66821289 9.43927002 C73.34816342 9.43866899 65.02817874 9.44922387 56.70814568 9.46501368 C49.57609073 9.47806893 42.44405701 9.48345477 35.3119902 9.48281461 C31.04740782 9.48255903 26.78288298 9.48544317 22.51831245 9.49599266 C18.50876669 9.50563985 14.49933387 9.50577622 10.48978424 9.49847603 C9.01513187 9.49742596 7.5404726 9.49981793 6.06583214 9.50583649 C4.05879979 9.51349966 2.05172934 9.50773814 0.04469299 9.50120544 C-1.64300532 9.5020226 -1.64300532 9.5020226 -3.36479855 9.50285625 C-5.99755859 9.25396729 -5.99755859 9.25396729 -7.99755859 7.25396729 C-8.24755859 4.75396729 -8.24755859 4.75396729 -7.99755859 2.25396729 C-5.27280093 -0.47079038 -3.81489343 0.00257656 0 0 Z " fill="#F9F9F9" transform="translate(441.99755859375,357.74603271484375)"/>
<path d="M0 0 C43.23 0 86.46 0 131 0 C131.33 2.97 131.66 5.94 132 9 C87.78 9 43.56 9 -2 9 C-1.34 6.03 -0.68 3.06 0 0 Z " fill="#D7D7D6" transform="translate(447,375)"/>
<path d="M0 0 C34.18386589 -0.11440483 68.36768813 -0.20252821 102.55170406 -0.25532665 C106.58598336 -0.2615803 110.62026228 -0.2680519 114.65454102 -0.2746582 C115.45770484 -0.27596976 116.26086866 -0.27728131 117.08837078 -0.2786326 C130.09893602 -0.30039857 143.10939099 -0.33982662 156.11989077 -0.38576398 C169.4664845 -0.43249555 182.8130204 -0.4602884 196.15969259 -0.47044247 C204.39762802 -0.47730852 212.63525175 -0.49900621 220.87309126 -0.53958233 C226.51948458 -0.56598004 232.16571638 -0.57400779 237.81216695 -0.56750689 C241.07168446 -0.56429923 244.33054049 -0.57198939 247.5899868 -0.59602737 C251.12257938 -0.62080847 254.65382511 -0.61495822 258.18644714 -0.60127258 C259.21854803 -0.61583679 260.25064891 -0.630401 261.31402558 -0.64540654 C266.01961631 -0.5959389 268.28091077 -0.52391503 272.1719408 2.31101704 C274 5 274 5 274.0625 8.625 C272.8829857 12.37169248 272.28231882 13.06601194 269 15 C266.77837014 15.37259549 266.77837014 15.37259549 264.30673599 15.36914349 C263.36173839 15.37511663 262.41674078 15.38108978 261.44310689 15.38724393 C260.40809316 15.3785054 259.37307944 15.36976688 258.30670166 15.36076355 C256.65386173 15.36460846 256.65386173 15.36460846 254.9676311 15.36853105 C251.26245321 15.37348621 247.55767964 15.35694698 243.85253906 15.34057617 C241.20172708 15.33973027 238.55094014 15.3400721 235.90013123 15.34190369 C230.18650347 15.34347727 224.47297844 15.33405923 218.75937653 15.31719017 C210.49846946 15.29281621 202.2376121 15.28499655 193.97667298 15.2812262 C180.57410148 15.27465919 167.17158473 15.25469127 153.76904297 15.22631836 C140.74918899 15.19878424 127.72934987 15.17754749 114.70947266 15.16479492 C113.50579628 15.16361267 113.50579628 15.16361267 112.27780321 15.16240653 C108.25217068 15.15849143 104.22653803 15.15470031 100.20090532 15.15097082 C66.80056384 15.11986715 33.40028863 15.06702457 0 15 C0 14.67 0 14.34 0 14 C1.17320738 13.99761165 2.34641476 13.99522329 3.55517387 13.99276257 C31.38197985 13.93544782 59.20871251 13.86274953 87.03542697 13.77101372 C90.45769964 13.75974506 93.87997273 13.74860669 97.30224609 13.73754883 C98.32424941 13.7342433 98.32424941 13.7342433 99.36689927 13.730871 C110.41036342 13.69546344 121.4538275 13.67061887 132.49732743 13.64965298 C143.82236911 13.6279184 155.14732581 13.59466647 166.47230923 13.55129844 C172.83617523 13.52729631 179.19995919 13.50861345 185.56386948 13.50238609 C191.54742739 13.49636674 197.53077518 13.47648186 203.51425552 13.44572449 C205.71615392 13.43689347 207.91807972 13.43323205 210.11999512 13.43499184 C213.11481998 13.43663034 216.10899331 13.42006787 219.10372925 13.39872742 C219.98503978 13.40357499 220.86635031 13.40842257 221.77436721 13.41341704 C224.42969336 13.41774702 224.42969336 13.41774702 228 13 C230.43769218 9.34346173 230.23944439 7.30999899 230 3 C227.88428423 0.88428423 223.11167561 1.84500373 220.1860199 1.84178162 C219.25003198 1.83684364 218.31404407 1.83190566 217.34969288 1.82681805 C214.18812723 1.81136167 211.026582 1.80306052 207.86499023 1.79467773 C205.60871193 1.7851056 203.35243545 1.77509592 201.09616089 1.76467896 C194.94973349 1.7375518 188.80329835 1.71658467 182.6568439 1.69667697 C176.24127195 1.67486541 169.82572407 1.64745318 163.41017151 1.62062073 C152.63519265 1.57631607 141.86020701 1.53549195 131.08520508 1.49731445 C119.98493486 1.45797499 108.88467565 1.41655251 97.78442383 1.37231445 C97.10066456 1.36959018 96.4169053 1.36686591 95.71242606 1.36405908 C92.28234424 1.35037986 88.85226258 1.33665954 85.42218101 1.32291877 C56.94814364 1.20890618 28.47408212 1.10218124 0 1 C0 0.67 0 0.34 0 0 Z " fill="#CACBCB" transform="translate(377,730)"/>
<path d="M0 0 C0.66 0.66 1.32 1.32 2 2 C0.76302083 3.39973958 -0.47395833 4.79947917 -1.7109375 6.19921875 C-6.09597395 12.32498179 -5.37221613 19.36469249 -5.37060547 26.5546875 C-5.37495991 28.72997467 -5.41126106 30.9031987 -5.44921875 33.078125 C-5.66022865 44.20051069 -5.66022865 44.20051069 -1 54 C3.3409209 57.37368646 6.14406926 58.50052368 11.62603569 58.50780869 C12.26947564 58.51411244 12.91291558 58.52041619 13.57585371 58.52691096 C15.72890463 58.54315592 17.88084033 58.5310149 20.03390503 58.51898193 C21.59414043 58.52485821 23.15437006 58.53248579 24.71458924 58.541713 C28.99952802 58.56198784 33.284136 58.55741558 37.56910086 58.54880548 C42.19075354 58.54386506 46.81232267 58.56194003 51.4339447 58.57722473 C59.44039694 58.60055142 67.44675857 58.60928463 75.45324326 58.60811615 C87.02926519 58.6064478 98.60516623 58.62677256 110.18115593 58.65247145 C128.96223609 58.69356821 147.74329451 58.71686937 166.52441406 58.72900391 C184.76890145 58.74082978 203.01334794 58.76102147 221.2578125 58.79248047 C222.38233349 58.79441657 223.50685448 58.79635267 224.66545187 58.79834744 C230.30682317 58.80811193 235.94819417 58.81804105 241.58956504 58.82805204 C288.39302339 58.91089489 335.19648315 58.96486755 382 59 C382 59.33 382 59.66 382 60 C332.57990416 60.11441532 283.1598217 60.20253362 233.73961949 60.25532665 C227.90665366 60.26158027 222.0736881 60.26805187 216.24072266 60.2746582 C215.07947199 60.27596976 213.91822133 60.27728131 212.72178125 60.2786326 C193.91278652 60.30039603 175.1038681 60.33982276 156.29491866 60.38576398 C136.99879304 60.43250246 117.70270742 60.46028989 98.40652752 60.47044247 C86.49732606 60.47730702 74.58834031 60.49899711 62.67920524 60.53958233 C54.51543354 60.56598846 46.35177355 60.5740058 38.18796223 60.56750689 C33.47605313 60.5643007 28.76452128 60.56925552 24.05267906 60.59602737 C19.73810724 60.6203631 15.42416627 60.62158565 11.10956538 60.60449447 C9.54952833 60.60238223 7.98945189 60.60872244 6.42949235 60.62441591 C-9.04747885 60.77105161 -9.04747885 60.77105161 -15 55 C-18.13804555 50.52612018 -18.45552647 46.32828923 -18.43359375 41.00390625 C-18.4388356 40.25213608 -18.44407745 39.50036591 -18.44947815 38.72581482 C-18.45587216 37.14331288 -18.45459544 35.56076324 -18.44604492 33.97827148 C-18.43753549 31.57253409 -18.46632757 29.16917519 -18.49804688 26.76367188 C-18.49965933 25.2187507 -18.49908051 23.67382538 -18.49609375 22.12890625 C-18.50732773 21.4182753 -18.51856171 20.70764435 -18.53013611 19.97547913 C-18.43592873 13.13828861 -15.98428596 9.02938337 -11.25 4.1875 C-7.33809516 1.55448713 -4.6457831 0.69686746 0 0 Z " fill="#CBCBCC" transform="translate(317,866)"/>
<path d="M0 0 C2.54283234 -0.10871967 5.08095088 -0.18762401 7.625 -0.25 C8.69427734 -0.30027344 8.69427734 -0.30027344 9.78515625 -0.3515625 C15.00193044 -0.44728313 17.84031086 0.58854762 22 4 C24.59650665 7.54069089 24 9.14846402 24 14 C-35.07 14 -94.14 14 -155 14 C-154.67 12.68 -154.34 11.36 -154 10 C-101.86 9.67 -49.72 9.34 4 9 C3.00523938 5.0209575 2.69367575 4.57655942 0 2 C0 1.34 0 0.68 0 0 Z " fill="#DFDFE0" transform="translate(578,395)"/>
<path d="M0 0 C6.46648747 2.97458424 9.59178952 6.78973729 13 13 C15.31327028 19.93981083 15.01441761 27.79942856 11.9375 34.4375 C9.05899521 39.48721982 5.21990478 43.39004761 0 46 C-19.48667654 48.02173382 -19.48667654 48.02173382 -26.8125 43 C-28.76953125 41.3125 -28.76953125 41.3125 -30 40 C-29.67 39.34 -29.34 38.68 -29 38 C-26.81874807 37.79282546 -24.62773618 37.68538827 -22.4375 37.625 C-14.37363204 37.13379992 -9.25569399 35.68398776 -3.6875 29.75 C1.27438256 23.39554549 2.81866832 16.97195052 2 9 C1.4598994 5.96251114 0.78953783 2.9819152 0 0 Z " fill="#DEDFDF" transform="translate(523,113)"/>
<path d="M0 0 C-0.73605469 0.4846875 -1.47210938 0.969375 -2.23046875 1.46875 C-8.35051753 5.67274652 -12.83116076 9.23446138 -16 16 C-16.31582031 16.59039062 -16.63164062 17.18078125 -16.95703125 17.7890625 C-20.72390257 25.87321557 -20.10017651 35.74237398 -17.25 44 C-15.57203416 48.05210899 -13.58347045 51.46925705 -11 55 C-10.34 56.32 -9.68 57.64 -9 59 C-12.63 59.99 -16.26 60.98 -20 62 C-29.81239097 49.84250931 -33.43411245 40.72689612 -32 25 C-31.14533935 21.60067175 -29.88421102 18.94149558 -28 16 C-27.59910156 15.31679687 -27.19820313 14.63359375 -26.78515625 13.9296875 C-22.23138281 6.98683292 -14.94548332 2.04837823 -7.0625 -0.5 C-4.12061597 -0.9803076 -2.76979698 -0.81359047 0 0 Z " fill="#E0E0E1" transform="translate(496,104)"/>
<path d="M0 0 C1.79133978 -0.05391993 3.58313899 -0.09275571 5.375 -0.125 C6.37273437 -0.14820313 7.37046875 -0.17140625 8.3984375 -0.1953125 C11 0 11 0 13 2 C13.1875 5.0625 13.1875 5.0625 13 8 C11.20479091 9.79520909 8.50706413 9.13010358 6.08473206 9.13371277 C4.79888214 9.13797775 3.51303223 9.14224274 2.18821716 9.14663696 C0.74990842 9.1462874 -0.68840031 9.14582584 -2.12670898 9.14526367 C-3.6309823 9.14825353 -5.13525484 9.15165565 -6.63952637 9.15544128 C-10.73658229 9.16430312 -14.83361736 9.16662031 -18.93068194 9.16725707 C-22.34538688 9.16820436 -25.76008691 9.17188056 -29.17478997 9.17542917 C-37.22793866 9.18358201 -45.28107617 9.18601264 -53.33422852 9.18530273 C-61.65427798 9.18470171 -69.97426266 9.19525658 -78.29429573 9.2110464 C-85.42635067 9.22410164 -92.55838439 9.22948748 -99.6904512 9.22884732 C-103.95503358 9.22859174 -108.21955842 9.23147588 -112.48412895 9.24202538 C-116.49367471 9.25167256 -120.50310754 9.25180894 -124.51265717 9.24450874 C-125.98730953 9.24345867 -127.46196881 9.24585064 -128.93660927 9.2518692 C-130.94364161 9.25953237 -132.95071207 9.25377086 -134.95774841 9.24723816 C-136.64544672 9.24805531 -136.64544672 9.24805531 -138.36723995 9.24888897 C-141 9 -141 9 -143 7 C-143.125 4.375 -143.125 4.375 -143 2 C-142.67 2.99 -142.34 3.98 -142 5 C-95.47 5 -48.94 5 -1 5 C-0.67 3.35 -0.34 1.7 0 0 Z " fill="#DDDDDC" transform="translate(577,358)"/>
<path d="M0 0 C36.3 0 72.6 0 110 0 C110 1.32 110 2.64 110 4 C73.7 4 37.4 4 0 4 C0 2.68 0 1.36 0 0 Z " fill="#FCFDFD" transform="translate(446,379)"/>
<path d="M0 0 C21.45 0 42.9 0 65 0 C65 0.33 65 0.66 65 1 C64.24022858 1.00808685 63.48045715 1.01617371 62.69766235 1.02450562 C55.54608567 1.10236727 48.3947155 1.18963186 41.24338722 1.28752708 C37.56659359 1.33752552 33.88982918 1.38385493 30.21289062 1.421875 C26.66606297 1.45868346 23.11947779 1.50503067 19.5728569 1.55806351 C18.2180849 1.57663122 16.86326087 1.59173038 15.50841141 1.60334396 C13.61439144 1.62016509 11.72050412 1.65033616 9.82666016 1.68115234 C8.20783432 1.70113785 8.20783432 1.70113785 6.55630493 1.7215271 C3.8344136 1.74800507 3.8344136 1.74800507 2 4 C1.01 4 0.02 4 -1 4 C-0.67 2.68 -0.34 1.36 0 0 Z " fill="#E5E6E5" transform="translate(424,405)"/>
<path d="M0 0 C-2.92903058 2.33364352 -5.88568203 4.04960836 -9.25 5.6875 C-10.58804687 6.34298828 -10.58804687 6.34298828 -11.953125 7.01171875 C-12.62859375 7.33785156 -13.3040625 7.66398438 -14 8 C-14.33 7.34 -14.66 6.68 -15 6 C-12.87748883 3.69895986 -10.84451444 2.18105541 -8.0625 0.75 C-7.39347656 0.39421875 -6.72445313 0.0384375 -6.03515625 -0.328125 C-3.61730731 -1.12634 -2.36988243 -0.82707306 0 0 Z " fill="#D8D8D9" transform="translate(459,173)"/>
<path d="M0 0 C0.598125 0.20625 1.19625 0.4125 1.8125 0.625 C-0.57323379 2.51713369 -2.25925348 3.64891783 -5.1875 4.625 C-5.1875 3.635 -5.1875 2.645 -5.1875 1.625 C-2.1875 -0.375 -2.1875 -0.375 0 0 Z " fill="#CDCED0" transform="translate(457.1875,172.375)"/>
<path d="M0 0 C1.32 0 2.64 0 4 0 C4.33 0.99 4.66 1.98 5 3 C4.34 3.66 3.68 4.32 3 5 C1.68 3.68 0.36 2.36 -1 1 C-0.67 0.67 -0.34 0.34 0 0 Z " fill="#D5D5D7" transform="translate(494,151)"/>
</svg>
