<?xml version="1.0" encoding="UTF-8"?>
<!DOCTYPE svg PUBLIC "-//W3C//DTD SVG 1.1//EN" "http://www.w3.org/Graphics/SVG/1.1/DTD/svg11.dtd">
<svg xmlns="http://www.w3.org/2000/svg" version="1.1" width="136px" height="141px" style="shape-rendering:geometricPrecision; text-rendering:geometricPrecision; image-rendering:optimizeQuality; fill-rule:evenodd; clip-rule:evenodd" xmlns:xlink="http://www.w3.org/1999/xlink">
<g><path style="opacity:0.91" fill="#090909" d="M 64.5,14.5 C 68.0681,14.7593 69.4015,16.7593 68.5,20.5C 70.8568,20.3367 73.1902,20.5034 75.5,21C 76.8333,22.3333 76.8333,23.6667 75.5,25C 73.1902,25.4966 70.8568,25.6633 68.5,25.5C 67.2772,30.3521 68.9438,33.5188 73.5,35C 77.082,38.737 78.9154,43.237 79,48.5C 87.4742,44.2674 96.3075,43.4341 105.5,46C 118.951,54.3044 121.451,65.1377 113,78.5C 109.225,83.1132 104.725,86.7798 99.5,89.5C 98.6689,96.4764 98.1689,103.476 98,110.5C 87.836,117 76.6693,120 64.5,119.5C 52.3307,120 41.164,117 31,110.5C 30.6667,103.167 30.3333,95.8333 30,88.5C 23.5699,84.0714 18.5699,78.4048 15,71.5C 12.6583,60.5113 16.1583,52.0113 25.5,46C 35.0629,43.2043 44.0629,44.3709 52.5,49.5C 52.9614,41.9025 56.4614,36.2358 63,32.5C 63.4966,30.1902 63.6633,27.8568 63.5,25.5C 61.1667,25.5 58.8333,25.5 56.5,25.5C 56.5,23.8333 56.5,22.1667 56.5,20.5C 58.8333,20.5 61.1667,20.5 63.5,20.5C 63.3253,18.3792 63.6586,16.3792 64.5,14.5 Z"/></g>
<g><path style="opacity:1" fill="#f7f7f7" d="M 63.5,37.5 C 69.9131,37.6091 73.2464,40.9425 73.5,47.5C 73.3184,50.2263 72.8184,52.8929 72,55.5C 69.5134,57.8089 67.5134,60.4756 66,63.5C 57.3896,55.3311 56.5563,46.6645 63.5,37.5 Z"/></g>
<g><path style="opacity:1" fill="#fcfcfc" d="M 28.5,49.5 C 43.8257,48.2456 55.3257,54.2456 63,67.5C 63.4988,71.4862 63.6655,75.4862 63.5,79.5C 53.7021,79.4261 44.2021,81.0927 35,84.5C 26.0745,80.9157 20.9078,74.4157 19.5,65C 19.5472,58.0669 22.5472,52.9002 28.5,49.5 Z"/></g>
<g><path style="opacity:1" fill="#fbfbfb" d="M 87.5,49.5 C 97.8029,47.1183 105.97,50.1183 112,58.5C 114.139,67.736 111.306,75.236 103.5,81C 100.958,82.7698 98.2913,84.2698 95.5,85.5C 86.7892,82.2244 77.7892,80.2244 68.5,79.5C 67.0847,68.8285 70.7514,60.3285 79.5,54C 82.3911,52.7258 85.0578,51.2258 87.5,49.5 Z"/></g>
<g><path style="opacity:1" fill="#e9e9e9" d="M 56.5,83.5 C 68.8395,83.2087 80.8395,85.042 92.5,89C 93.4061,90.6995 93.7394,92.5328 93.5,94.5C 74.1481,89.1884 54.8147,89.1884 35.5,94.5C 35.2148,92.712 35.5481,91.0453 36.5,89.5C 43.0145,86.5441 49.6812,84.5441 56.5,83.5 Z"/></g>
<g><path style="opacity:1" fill="#efefef" d="M 51.5,94.5 C 65.541,93.4232 79.2077,95.0898 92.5,99.5C 93.8333,101.5 93.8333,103.5 92.5,105.5C 80.2192,101.043 67.5525,99.5426 54.5,101C 48.1763,101.248 42.1763,102.748 36.5,105.5C 35.0903,103.051 35.4237,100.884 37.5,99C 42.254,97.3583 46.9207,95.8583 51.5,94.5 Z"/></g>
<g><path style="opacity:1" fill="#f1f1f1" d="M 54.5,104.5 C 66.8368,103.548 78.8368,105.048 90.5,109C 85.2231,111.869 79.5564,113.535 73.5,114C 63.6942,115.073 54.0275,114.406 44.5,112C 42.6675,111.252 41.0009,110.252 39.5,109C 44.4818,107.01 49.4818,105.51 54.5,104.5 Z"/></g>
</svg>
