<?xml version="1.0" encoding="UTF-8"?>
<svg version="1.1" xmlns="http://www.w3.org/2000/svg" width="1024" height="1024">
<path d="M0 0 C337.92 0 675.84 0 1024 0 C1024 337.92 1024 675.84 1024 1024 C686.08 1024 348.16 1024 0 1024 C0 686.08 0 348.16 0 0 Z " fill="#FDFDFD" transform="translate(0,0)"/>
<path d="M0 0 C22.77 0 45.54 0 69 0 C67.05687412 7.12479488 65.06460159 14.16427949 62.8125 21.1875 C62.53986328 22.04408203 62.26722656 22.90066406 61.98632812 23.78320312 C61.32623941 25.85611329 60.66342023 27.92815366 60 30 C61.23234375 29.66226563 62.4646875 29.32453125 63.734375 28.9765625 C65.40616912 28.52574161 67.07804881 28.07523799 68.75 27.625 C69.55566406 27.40328125 70.36132812 27.1815625 71.19140625 26.953125 C77.81737612 25.1792433 84.14761212 24.14206465 91 23 C91 44.45 91 65.9 91 88 C79.75 85.75 79.75 85.75 75.4296875 84.4921875 C74.51445313 84.22792969 73.59921875 83.96367187 72.65625 83.69140625 C71.7384375 83.42199219 70.820625 83.15257812 69.875 82.875 C68.44027344 82.45927734 68.44027344 82.45927734 66.9765625 82.03515625 C64.64994713 81.36043779 62.32448578 80.6820117 60 80 C60.33773437 81.01320313 60.67546875 82.02640625 61.0234375 83.0703125 C61.91927083 85.7578125 62.81510417 88.4453125 63.7109375 91.1328125 C63.93233398 91.78725342 64.15373047 92.44169434 64.38183594 93.1159668 C64.93510934 94.802227 65.42870498 96.50779571 65.9140625 98.21484375 C67.47292894 102.21294365 70.12899198 104.5680931 73.125 107.55859375 C75.42707003 110.55608076 76.14799599 113.3479203 77 117 C77.79470703 117.12528076 78.58941406 117.25056152 79.40820312 117.37963867 C130.32363509 125.50561779 130.32363509 125.50561779 141.86328125 140.30078125 C144.31624372 143.96758082 144.23376774 146.59119735 144 151 C143.08886719 154.16430664 143.08886719 154.16430664 141.796875 157.41015625 C141.31758545 158.63089844 140.8382959 159.85164062 140.34448242 161.109375 C139.81319765 162.42716776 139.28169735 163.74487365 138.75 165.0625 C138.19989312 166.45141358 137.65083966 167.84074481 137.1027832 169.23046875 C135.41735712 173.4932438 133.70996068 177.74702088 132 182 C131.49833885 183.25106063 130.99686606 184.5021968 130.49560547 185.75341797 C129.53835635 188.14247497 128.58075598 190.53139126 127.62280273 192.92016602 C122.61126637 205.41959749 117.61709836 217.92574508 112.72476196 230.47241211 C112.03659939 232.23224885 111.3445565 233.99057347 110.64852905 235.74731445 C109.67566667 238.20515844 108.71704797 240.66811031 107.76171875 243.1328125 C107.46656372 243.8699649 107.17140869 244.60711731 106.86730957 245.36660767 C105.46886904 249.02029414 104.65676126 251.29019788 106 255 C106.680625 255.763125 107.36125 256.52625 108.0625 257.3125 C110.61071472 260.84712042 110.60068781 262.72009935 110 267 C107.91795609 270.86665297 105.79007781 273.72595332 102 276 C101.34 276 100.68 276 100 276 C100.25965262 280.27094839 100.25965262 280.27094839 102 284 C104.92374728 285.38375825 107.83849799 286.16690375 110.953125 287.03125 C117.47959283 289.10633208 120.748863 293.10102156 123.9375 299 C125.69422725 302.80050143 126.55838353 305.75628518 126 310 C126.556875 310.13535156 127.11375 310.27070313 127.6875 310.41015625 C135.30350733 312.55859075 140.904933 316.64353707 145.5 323.125 C148.46426508 329.00059686 147.87541823 336.36701433 146.375 342.59375 C143.87188076 349.11973944 139.08193575 353.96962857 132.83691406 357.07592773 C129.27758301 358.23531397 126.25399486 358.22513143 122.51171875 358.1953125 C121.4569207 358.19106766 121.4569207 358.19106766 120.3808136 358.18673706 C118.14953108 358.17560151 115.91865983 358.15050997 113.6875 358.125 C112.16862562 358.1149616 110.6497449 358.10583726 109.13085938 358.09765625 C105.42044079 358.07568413 101.71026058 358.04120047 98 358 C98.4222221 379.73160803 99.78811468 401.27605619 101.80792236 422.91467285 C102.10092797 426.09574356 102.37421575 429.27853603 102.65234375 432.4609375 C106.48934167 474.46551087 114.6387211 516.97465546 128 557 C128.31308105 557.94713867 128.62616211 558.89427734 128.94873047 559.87011719 C135.85418411 580.66052261 143.9446207 600.54030912 154 620 C154.3196875 620.79535156 154.639375 621.59070313 154.96875 622.41015625 C155.86269314 624.19771288 155.86269314 624.19771288 157.84765625 624.3984375 C158.57855469 624.39070312 159.30945313 624.38296875 160.0625 624.375 C165.83798879 624.7941887 169.77534733 627.10487023 174 631 C177.20628695 635.1802397 178.71149842 639.57996253 178.375 644.921875 C177.48022828 649.88040163 175.94374453 654.22168054 172.1640625 657.6796875 C168.10953178 660.42931178 165.00056406 661.62507051 160 661 C159.77489779 674.95633697 168.07285613 686.06636442 177 696 C177.83015625 696.95003906 178.6603125 697.90007813 179.515625 698.87890625 C183.10661067 702.9270266 186.69183028 706.86031112 190.8125 710.375 C212.48292748 728.86768659 212.48292748 728.86768659 215 743 C215.65546768 753.71437559 215.36571816 763.90611692 209 773 C210.4540625 772.8453125 210.4540625 772.8453125 211.9375 772.6875 C217.05315686 772.70825317 220.98124693 774.98217232 225 778 C231.86434062 785.43365797 231.27965405 793.28104422 231.35009766 802.74047852 C231.36660961 804.36302074 231.39383689 805.98549166 231.43212891 807.60766602 C231.82868452 824.5164527 231.82868452 824.5164527 227.61897278 829.36409819 C221.49005801 835.55710087 215.99006794 836.58181331 207.37294006 836.66871703 C205.95565439 836.65790897 204.53837228 836.64662579 203.12109375 836.63491821 C201.60195483 836.64068383 200.08282288 836.64862791 198.56370544 836.65855443 C194.40125511 836.6793909 190.23937934 836.6691274 186.07692719 836.65362334 C181.58330937 836.64230057 177.08978967 836.65977714 172.59619141 836.67352295 C163.79800067 836.69575 155.00002327 836.69095654 146.20182419 836.67645974 C139.05103556 836.66516541 131.9003067 836.66363745 124.74951172 836.66907883 C123.73157248 836.66984499 122.71363325 836.67061116 121.66484737 836.67140054 C119.59688948 836.67299917 117.5289316 836.67462024 115.46097374 836.6762635 C96.07208815 836.69051944 76.68332078 836.67413068 57.29445457 836.64726166 C40.65978551 836.62492304 24.02529091 836.62880321 7.390625 836.65185547 C-11.92912163 836.67861619 -31.24876465 836.68914616 -50.56852722 836.67379415 C-52.62885537 836.67220141 -54.68918354 836.67062956 -56.74951172 836.66907883 C-57.7632187 836.66830745 -58.77692568 836.66753607 -59.82135105 836.66674132 C-66.96312002 836.66242514 -74.10482324 836.66970911 -81.24658203 836.68147659 C-89.95066435 836.69550313 -98.65452122 836.69169838 -107.35857773 836.66507287 C-111.7991349 836.65193677 -116.23931626 836.64677872 -120.67987061 836.66331863 C-124.74622897 836.67823564 -128.81186379 836.67000168 -132.87815666 836.64343087 C-134.34776025 836.63785326 -135.81742518 836.64067033 -137.28698921 836.65280981 C-145.29574613 836.71388364 -151.91610377 836.7169974 -158 831 C-162.26408127 825.53322915 -163.16722436 821.31436057 -163.23828125 814.55078125 C-163.246353 813.81933395 -163.25442474 813.08788666 -163.26274109 812.33427429 C-163.27656363 810.78512935 -163.28729397 809.23595419 -163.29516602 807.68676758 C-163.30665732 806.11278269 -163.32706404 804.5388359 -163.35668945 802.96508789 C-163.66592538 786.53066693 -163.66592538 786.53066693 -159 780 C-156.9296875 777.94140625 -156.9296875 777.94140625 -154.875 776.5625 C-154.19179688 776.08941406 -153.50859375 775.61632812 -152.8046875 775.12890625 C-148.69912235 772.5607064 -145.79979565 772.92258394 -141 773 C-141.26554687 772.48050781 -141.53109375 771.96101562 -141.8046875 771.42578125 C-142.15789062 770.72839844 -142.51109375 770.03101563 -142.875 769.3125 C-143.22304688 768.62800781 -143.57109375 767.94351563 -143.9296875 767.23828125 C-144.28289062 766.49964844 -144.63609375 765.76101563 -145 765 C-145.36480469 764.25105469 -145.72960937 763.50210938 -146.10546875 762.73046875 C-149.19285527 753.30652475 -147.59859454 741.79907441 -143.67578125 732.92578125 C-140.80591058 727.91521451 -137.10953909 724.01568338 -133 720 C-131.86111328 718.82630859 -131.86111328 718.82630859 -130.69921875 717.62890625 C-127.30080816 714.14832338 -123.84386945 710.82316589 -120.125 707.6875 C-107.5851403 696.87468684 -94.38084238 682.25591492 -92.1875 665.25 C-92.0946875 663.64125 -92.0946875 663.64125 -92 662 C-93.299375 661.87625 -93.299375 661.87625 -94.625 661.75 C-100.7005687 660.39987362 -104.50778128 657.04431593 -108 652 C-109.83866817 646.48399549 -110.11012241 640.09141712 -108.12890625 634.57421875 C-105.48704213 629.97477663 -102.13063503 626.6142479 -97 625 C-95.52023781 625.07198843 -94.04101715 625.15584314 -92.5625 625.25 C-90.18853737 625.19853806 -90.18853737 625.19853806 -88 624 C-85.01798905 619.73589605 -83.04328859 615.15841469 -81.02246094 610.37841797 C-80.01999066 608.04650167 -78.95073378 605.76037438 -77.8515625 603.47265625 C-71.63428921 590.38799109 -66.83572551 576.84042885 -62.10888672 563.15942383 C-61.08724937 560.24858962 -60.01300034 557.36336168 -58.92578125 554.4765625 C-56.70675222 548.40032102 -55.08490392 542.20446304 -53.5 535.9375 C-53.04391357 534.15206787 -53.04391357 534.15206787 -52.57861328 532.33056641 C-50.1940176 522.92331736 -47.97855085 513.50016912 -46 504 C-45.81228027 503.11828125 -45.62456055 502.2365625 -45.43115234 501.328125 C-39.54813944 473.61217684 -35.55551043 445.9386785 -33.30419922 417.71923828 C-33.03119911 414.38145047 -32.72946441 411.04846401 -32.41015625 407.71484375 C-30.85596053 391.16617594 -30.39017397 374.60935686 -30 358 C-31.38336548 358.03927612 -31.38336548 358.03927612 -32.79467773 358.0793457 C-36.25577774 358.16517247 -39.71572795 358.22753632 -43.17749023 358.2746582 C-44.668233 358.29961933 -46.1588557 358.33360159 -47.64916992 358.37719727 C-57.25912474 358.65103104 -65.15423517 358.50770323 -72.5324707 351.55615234 C-73.875 350.0625 -73.875 350.0625 -76 347 C-76.598125 346.154375 -77.19625 345.30875 -77.8125 344.4375 C-80.07666498 337.8833382 -80.33234728 330.07016359 -77.5 323.625 C-74.24296096 318.13456276 -68.89746377 313.45334493 -63 311 C-59.75 310.875 -59.75 310.875 -57 311 C-57.103125 309.700625 -57.20625 308.40125 -57.3125 307.0625 C-57.28188019 300.57110062 -54.75287991 295.80171148 -50.23828125 291.20703125 C-46.51607979 288.14923897 -43.31169329 286.70706483 -38.625 285.625 C-36.10118713 285.0831753 -36.10118713 285.0831753 -34 284 C-32.46747187 281.21812829 -32.31764458 279.22938658 -32 276 C-33.11375 275.6596875 -33.11375 275.6596875 -34.25 275.3125 C-37.76679269 273.63403076 -39.07869347 272.41565605 -41 269 C-41.55774679 265.57464595 -41.59488424 262.42200079 -41 259 C-39.71937515 257.2925002 -38.3927289 255.61736259 -37 254 C-37.34747325 248.67711265 -39.41210339 243.94001259 -41.3671875 239.0390625 C-41.88758858 237.71421089 -41.88758858 237.71421089 -42.41850281 236.3625946 C-43.56507793 233.44782514 -44.71999308 230.5364374 -45.875 227.625 C-46.67619871 225.59288867 -47.47689065 223.56057746 -48.27709961 221.52807617 C-50.40217842 216.13537849 -52.53480206 210.74569951 -54.66998291 205.35699463 C-56.01318542 201.96671969 -57.35516654 198.5759637 -58.69677734 195.18505859 C-63.87724438 182.09076071 -63.87724438 182.09076071 -69.06787109 169.00048828 C-69.45860306 168.01562943 -69.84933502 167.03077057 -70.25190735 166.0160675 C-70.98379586 164.17154673 -71.716333 162.32728313 -72.44963074 160.48332214 C-72.7724855 159.66938492 -73.09534027 158.85544769 -73.42797852 158.0168457 C-73.84950951 156.95588432 -73.84950951 156.95588432 -74.27955627 155.87348938 C-76.43301148 150.27350245 -76.84964334 146.10563784 -74.5625 140.4375 C-67.37716448 129.20727281 -49.90875497 124.64375938 -37.70507812 121.55566406 C-34.56803179 120.91126718 -31.44671068 120.5178137 -28.265625 120.1484375 C-26.51294312 119.93489624 -26.51294312 119.93489624 -24.72485352 119.71704102 C-22.39908152 119.45105964 -20.06815571 119.22632355 -17.73413086 119.04663086 C-14.53234662 118.68169425 -11.94532374 118.31566878 -9 117 C-7.31341468 114.49185568 -6.52377992 112.32139747 -5.78222656 109.39916992 C-4.87718552 106.62331528 -3.87811941 105.70846738 -1.5625 104 C4.40311883 98.74151271 5.29629595 89.41935633 7 82 C0.4385924 82.57486653 -5.60265618 83.78874373 -11.9375 85.5625 C-13.61270512 86.0242308 -15.28846126 86.48396855 -16.96484375 86.94140625 C-18.05720337 87.24606812 -18.05720337 87.24606812 -19.17163086 87.55688477 C-21 88 -21 88 -23 88 C-23 66.55 -23 45.1 -23 23 C-0.5 27.5 -0.5 27.5 7 30 C4.06904004 17.92187962 4.06904004 17.92187962 0.515625 6.015625 C0 4 0 4 0 0 Z " fill="#070707" transform="translate(478,98)"/>
<path d="M0 0 C34.98 0 69.96 0 106 0 C106.33 9.24 106.66 18.48 107 28 C107.5019015 35.67773649 108.01241024 43.3424379 108.61962891 51.01074219 C108.8761331 54.26437285 109.12022895 57.51877724 109.36328125 60.7734375 C110.97612108 81.86260903 113.55305307 102.77860817 117.125 123.625 C117.27073456 124.48054474 117.41646912 125.33608948 117.56661987 126.21755981 C119.82901468 139.38681161 122.49640133 152.43230958 125.5625 165.4375 C125.74000793 166.19903381 125.91751587 166.96056763 126.10040283 167.74517822 C128.44423189 177.72280559 131.33607549 187.40766996 134.68481445 197.09399414 C135.80754941 200.36455276 136.75993246 203.65060594 137.625 207 C138.4760312 210.24556649 139.45408972 213.31575999 140.72265625 216.421875 C141.07682617 217.29263672 141.43099609 218.16339844 141.79589844 219.06054688 C142.19325195 220.03056641 142.59060547 221.00058594 143 222 C143.44118164 223.08861328 143.88236328 224.17722656 144.33691406 225.29882812 C145.56615265 228.32709552 146.80236549 231.35236269 148.04418945 234.37548828 C148.80501389 236.23173551 149.55976508 238.09046821 150.31445312 239.94921875 C153.45411313 247.58622957 156.88113755 254.93645089 160.6862793 262.26074219 C162 265 162 265 162 267 C90.06 267 18.12 267 -56 267 C-54.58297083 263.45742708 -53.12115772 260.01602419 -51.53125 256.5546875 C-44.27544164 240.60979485 -37.77327394 224.54971859 -32 208 C-31.6498584 207.0095166 -31.2997168 206.0190332 -30.93896484 204.99853516 C-8.07008649 139.67294433 -1.90435749 68.55686955 0 0 Z " fill="#FDFDFC" transform="translate(459,456)"/>
<path d="M0 0 C75.9 0 151.8 0 230 0 C230.66 4.62 231.32 9.24 232 14 C236.45243077 28.42587571 246.65110509 39.42093292 257 50 C257.62310059 50.63824707 258.24620117 51.27649414 258.88818359 51.93408203 C260.85614106 53.94209225 262.83181187 55.94204898 264.8125 57.9375 C265.4223877 58.55222168 266.03227539 59.16694336 266.66064453 59.80029297 C269.59982529 62.72828902 272.57631535 65.52087839 275.765625 68.17578125 C281.32732298 72.89226955 283.82442767 78.01076736 284.515625 85.296875 C284.9637577 93.55829229 284.58039817 100.16897535 279.703125 107.15234375 C277.16754727 109.90309665 275.26564023 111.81131039 271.46993405 112.37719816 C270.50815477 112.37822729 269.5463755 112.37925642 268.55545139 112.38031673 C267.4428509 112.38875668 266.33025041 112.39719662 265.18393475 112.40589231 C263.96167515 112.39988227 262.73941556 112.39387222 261.4801178 112.38768005 C260.18165828 112.39306559 258.88319876 112.39845113 257.54539198 112.40399987 C253.93831028 112.4184901 250.33145637 112.4141987 246.72436202 112.40683305 C242.83538947 112.40211248 238.946467 112.41460136 235.05751038 112.42485046 C227.43759682 112.44206567 219.81776562 112.44287285 212.19783766 112.43763756 C206.00565174 112.43359969 199.81349021 112.43503485 193.62130547 112.44038582 C192.74072617 112.44113424 191.86014687 112.44188266 190.95288334 112.44265376 C189.16411213 112.44418521 187.37534092 112.44572355 185.58656972 112.44726873 C168.80356606 112.46100361 152.020609 112.45554914 135.2376064 112.44408352 C119.87672533 112.43415002 104.51596469 112.44709206 89.1551022 112.47101771 C73.39013587 112.49538816 57.62522568 112.50502165 41.86024088 112.49836498 C33.00635586 112.4948682 24.1525635 112.49713507 15.2986927 112.51461601 C7.76156161 112.52931234 0.2245884 112.53000721 -7.31253951 112.5125451 C-11.15926682 112.50401142 -15.00571177 112.50194284 -18.85242462 112.51719666 C-23.01955848 112.53351672 -27.18600635 112.51894559 -31.35313416 112.50120544 C-32.57316303 112.51081045 -33.7931919 112.52041546 -35.05019134 112.53031152 C-43.23321348 112.45829757 -43.23321348 112.45829757 -47.19155216 110.09245396 C-52.69792885 103.72133312 -54.46391997 97.67652386 -54.5625 89.375 C-54.57708252 88.67093018 -54.59166504 87.96686035 -54.60668945 87.24145508 C-54.44762246 78.97671996 -50.67070411 73.20018902 -44.89875793 67.52252197 C-44.24767563 66.90149597 -43.59659332 66.28046997 -42.92578125 65.640625 C-42.24251266 64.97013123 -41.55924408 64.29963745 -40.85527039 63.60882568 C-38.68379158 61.47927532 -36.49967241 59.36342033 -34.3125 57.25 C-17.29831127 40.83394495 -17.29831127 40.83394495 -4.5 21.0625 C-4.16742188 20.46244141 -3.83484375 19.86238281 -3.4921875 19.24414062 C-0.09926542 12.54794685 -0.6429428 8.35825645 0 0 Z " fill="#FDFDFD" transform="translate(397,759)"/>
<path d="M0 0 C2.99681047 -0.00217528 5.99324503 -0.02036014 8.98999023 -0.03930664 C25.84848866 -0.08936971 42.34881442 1.21914317 58.96459961 4.12280273 C60.48899658 4.38492554 60.48899658 4.38492554 62.04418945 4.65234375 C93.83849291 10.23078487 93.83849291 10.23078487 103.46459961 19.18530273 C104.94306741 23.43335829 104.11907356 25.88458284 102.35913086 29.92749023 C101.87661865 31.05920654 101.39410645 32.19092285 100.89697266 33.35693359 C100.63379242 33.95827118 100.37061218 34.55960876 100.09945679 35.1791687 C98.67454504 38.43864045 97.29543806 41.71753744 95.90991211 44.99389648 C95.47671913 46.01366325 95.47671913 46.01366325 95.03477478 47.05403137 C92.08668213 54.01829605 89.35475416 61.05981953 86.65209961 68.12280273 C85.6714261 70.67921459 84.68946892 73.23513099 83.70678711 75.79077148 C83.45475525 76.44648132 83.20272339 77.10219116 82.9430542 77.777771 C78.79612931 88.54320214 74.52572808 99.26074254 70.27587891 109.98583984 C69.96282806 110.77665451 69.64977722 111.56746918 69.32723999 112.38224792 C68.73841276 113.86953522 68.14887242 115.35654045 67.5585022 116.84321594 C66.46373773 119.60845051 65.40531981 122.36314214 64.46459961 125.18530273 C25.52459961 125.18530273 -13.41540039 125.18530273 -53.53540039 125.18530273 C-59.80540039 109.01530273 -66.07540039 92.84530273 -72.53540039 76.18530273 C-77.98156911 62.47628042 -77.98156911 62.47628042 -83.45727539 48.77905273 C-83.94905273 47.55186523 -84.44083008 46.32467773 -84.94750977 45.06030273 C-86.094464 42.22867923 -87.29370785 39.42360817 -88.51391602 36.62280273 C-88.84272766 35.85697876 -89.17153931 35.09115479 -89.51031494 34.30212402 C-90.14672435 32.82329709 -90.79362595 31.3489267 -91.45257568 29.88000488 C-93.13158013 25.95261808 -94.08914631 23.27296581 -92.53540039 19.18530273 C-71.07248086 -0.80376824 -27.2831501 -0.0022072 0 0 Z " fill="#FDFDFD" transform="translate(506.535400390625,223.814697265625)"/>
<path d="M0 0 C1.24882987 -0.00445784 2.49765973 -0.00891569 3.78433293 -0.01350862 C5.18821666 -0.01341931 6.59210038 -0.01322943 7.99598408 -0.01294994 C9.4733753 -0.01624661 10.95076561 -0.01997176 12.42815477 -0.02409142 C16.50747809 -0.0341422 20.58678669 -0.03783315 24.66612065 -0.04048073 C29.05822163 -0.04437477 33.45031086 -0.05395378 37.84240437 -0.0626936 C48.45983002 -0.08248486 59.07725666 -0.09252815 69.69469616 -0.10142139 C74.69035226 -0.10580044 79.6860073 -0.11116828 84.68166256 -0.11641026 C101.28167183 -0.13342615 117.88168043 -0.14792086 134.48169708 -0.155159 C138.79255582 -0.15706901 143.10341455 -0.15898932 147.41427326 -0.16094494 C149.02151027 -0.16167055 149.02151027 -0.16167055 150.66121671 -0.16241082 C168.02298952 -0.17071305 185.38469347 -0.19605161 202.7464362 -0.22852562 C220.55775369 -0.26156976 238.36903615 -0.27960541 256.18038446 -0.28280324 C266.18627457 -0.28497093 276.19206431 -0.29375717 286.19792461 -0.31926441 C294.7188285 -0.34093543 303.23960766 -0.34903966 311.76053598 -0.33929763 C316.10963102 -0.33474228 320.45846851 -0.33671047 324.8075285 -0.35605907 C328.78820976 -0.37361609 332.76844418 -0.37275421 336.74912969 -0.35716178 C338.18998303 -0.35477428 339.63086671 -0.35916821 341.07167353 -0.37099043 C354.52101926 -0.47451904 354.52101926 -0.47451904 359.287076 4.13422108 C361.43105264 8.42217436 360.59619701 14.0695503 360.63717365 18.82782459 C360.65371407 20.2352196 360.68097993 21.64253124 360.7192049 23.04950428 C360.77417773 25.08469402 360.79587477 27.11791866 360.8105135 29.15375233 C360.83033283 30.37167469 360.85015217 31.58959705 360.87057209 32.84442616 C360.10951001 37.1353515 358.628969 38.40236439 355.287076 41.13422108 C352.34953159 41.75981623 352.34953159 41.75981623 349.02952194 41.76063347 C347.7610443 41.77305551 346.49256665 41.78547754 345.18565029 41.79827601 C343.78036307 41.78677512 342.37507964 41.77480291 340.9698 41.76241016 C339.47514909 41.76745491 337.98050423 41.77468318 336.48587328 41.78390831 C332.37731992 41.80286798 328.26936035 41.79057628 324.1608218 41.77318537 C319.73063004 41.75983419 315.30052646 41.7752403 310.87034321 41.78700733 C302.19138665 41.80540468 293.51265495 41.79685786 284.83370536 41.77891911 C277.78197319 41.76490514 270.73030215 41.76099771 263.6785574 41.76436138 C262.67570897 41.76483882 261.67286054 41.76531627 260.63962277 41.76580818 C258.60249935 41.76683448 256.56537594 41.76788984 254.52825255 41.76897394 C236.50762976 41.77754513 218.48711569 41.76085193 200.46651936 41.73114491 C182.97005364 41.7023022 165.47374452 41.69522546 147.97726154 41.71063709 C128.93481957 41.72738745 109.89245197 41.73144571 90.85000807 41.71392673 C88.82059833 41.7120823 86.79118859 41.71024757 84.76177883 41.70842266 C83.7632087 41.70751057 82.76463857 41.70659848 81.73580874 41.70565875 C74.68989109 41.70004643 67.64400968 41.70336697 60.59809399 41.70996761 C52.0153512 41.7176886 43.43276272 41.71099273 34.8500511 41.68579257 C30.46879221 41.67326926 26.08777392 41.66718516 21.70650578 41.67833424 C17.69891691 41.68834008 13.69180889 41.67999584 9.68427879 41.65675306 C8.23148113 41.65157341 6.77864074 41.65319207 5.32586145 41.66214771 C3.35685536 41.67327958 1.38775148 41.65756278 -0.58121109 41.64037895 C-1.67665192 41.63918747 -2.77209275 41.63799599 -3.90072876 41.6367684 C-7.3801748 41.01498145 -8.53135343 39.85375359 -10.712924 37.13422108 C-12.81660063 32.92686783 -12.02175057 27.49636024 -12.06302166 22.86786366 C-12.07955998 21.50896522 -12.10682321 20.15015303 -12.14505291 18.79169178 C-12.20002007 16.82697422 -12.21859289 14.86134583 -12.2363615 12.89593983 C-12.25618084 11.71991199 -12.27600018 10.54388416 -12.2964201 9.33221912 C-11.54682396 5.22386777 -9.84742065 3.78562651 -6.712924 1.13422108 C-4.94371779 -0.63498513 -2.39718702 0.00394465 0 0 Z " fill="#FDFEFE" transform="translate(337.7129240036011,881.8657789230347)"/>
<path d="M0 0 C75.9 0 151.8 0 230 0 C230.66 4.62 231.32 9.24 232 14 C236.45243077 28.42587571 246.65110509 39.42093292 257 50 C257.62310059 50.63824707 258.24620117 51.27649414 258.88818359 51.93408203 C260.85614106 53.94209225 262.83181187 55.94204898 264.8125 57.9375 C265.4223877 58.55222168 266.03227539 59.16694336 266.66064453 59.80029297 C269.59982529 62.72828902 272.57631535 65.52087839 275.765625 68.17578125 C281.32732298 72.89226955 283.82442767 78.01076736 284.515625 85.296875 C284.9637577 93.55829229 284.58039817 100.16897535 279.703125 107.15234375 C277.16754727 109.90309665 275.26564023 111.81131039 271.46993405 112.37719816 C270.50815477 112.37822729 269.5463755 112.37925642 268.55545139 112.38031673 C267.4428509 112.38875668 266.33025041 112.39719662 265.18393475 112.40589231 C263.96167515 112.39988227 262.73941556 112.39387222 261.4801178 112.38768005 C260.18165828 112.39306559 258.88319876 112.39845113 257.54539198 112.40399987 C253.93831028 112.4184901 250.33145637 112.4141987 246.72436202 112.40683305 C242.83538947 112.40211248 238.946467 112.41460136 235.05751038 112.42485046 C227.43759682 112.44206567 219.81776562 112.44287285 212.19783766 112.43763756 C206.00565174 112.43359969 199.81349021 112.43503485 193.62130547 112.44038582 C192.74072617 112.44113424 191.86014687 112.44188266 190.95288334 112.44265376 C189.16411213 112.44418521 187.37534092 112.44572355 185.58656972 112.44726873 C168.80356606 112.46100361 152.020609 112.45554914 135.2376064 112.44408352 C119.87672533 112.43415002 104.51596469 112.44709206 89.1551022 112.47101771 C73.39013587 112.49538816 57.62522568 112.50502165 41.86024088 112.49836498 C33.00635586 112.4948682 24.1525635 112.49713507 15.2986927 112.51461601 C7.76156161 112.52931234 0.2245884 112.53000721 -7.31253951 112.5125451 C-11.15926682 112.50401142 -15.00571177 112.50194284 -18.85242462 112.51719666 C-23.01955848 112.53351672 -27.18600635 112.51894559 -31.35313416 112.50120544 C-32.57316303 112.51081045 -33.7931919 112.52041546 -35.05019134 112.53031152 C-43.22757152 112.45834722 -43.22757152 112.45834722 -47.20522404 110.09806919 C-48.9366157 108.07409541 -50.1972485 106.2890835 -51.3125 103.875 C-51.63863281 103.19179688 -51.96476562 102.50859375 -52.30078125 101.8046875 C-53 100 -53 100 -53 98 C-52.44094927 97.99978263 -51.88189855 97.99956526 -51.30590689 97.99934131 C-18.15391968 97.98581824 14.99792305 97.94630185 48.1498306 97.87314438 C52.13260151 97.86437789 56.11537286 97.85582803 60.09814453 97.84741211 C60.89102496 97.84573305 61.68390538 97.84405398 62.50081249 97.84232404 C75.33011846 97.81567208 88.15937975 97.80656025 100.98871057 97.80395857 C114.15798576 97.80089646 127.32713201 97.77892005 140.49634898 97.73947543 C148.61904942 97.71573963 156.74149228 97.70666403 164.8642226 97.71648689 C171.09833214 97.72244337 177.33210545 97.7020527 183.56613922 97.67193985 C186.11944147 97.66370482 188.6727876 97.66395861 191.22608566 97.67340279 C194.71759777 97.68503733 198.20766599 97.66588409 201.69906616 97.63923645 C203.20786191 97.65524634 203.20786191 97.65524634 204.74713838 97.67157966 C212.31687079 97.56410204 218.94103941 95.63372324 224.69047487 90.48662788 C229.10051614 85.50733289 229.32894131 81.46917911 229 75 C227.8346159 69.64925795 225.85357752 65.88657691 222.4375 61.6875 C221.99349854 61.12409912 221.54949707 60.56069824 221.09204102 59.98022461 C218.34537666 56.53529714 215.45143558 53.27807212 212.4375 50.0625 C202.27583781 38.96560518 194.87723117 26.01784932 193 11 C129.31 11 65.62 11 0 11 C0 7.37 0 3.74 0 0 Z " fill="#DDDDDD" transform="translate(397,759)"/>
<path d="M0 0 C34.98 0 69.96 0 106 0 C106.33 9.24 106.66 18.48 107 28 C107.5019015 35.67773649 108.01241024 43.3424379 108.61962891 51.01074219 C108.8761331 54.26437285 109.12022895 57.51877724 109.36328125 60.7734375 C110.97612108 81.86260903 113.55305307 102.77860817 117.125 123.625 C117.27073456 124.48054474 117.41646912 125.33608948 117.56661987 126.21755981 C119.82901468 139.38681161 122.49640133 152.43230958 125.5625 165.4375 C125.74000793 166.19903381 125.91751587 166.96056763 126.10040283 167.74517822 C128.44423189 177.72280559 131.33607549 187.40766996 134.68481445 197.09399414 C135.80754941 200.36455276 136.75993246 203.65060594 137.625 207 C138.4760312 210.24556649 139.45408972 213.31575999 140.72265625 216.421875 C141.07682617 217.29263672 141.43099609 218.16339844 141.79589844 219.06054688 C142.19325195 220.03056641 142.59060547 221.00058594 143 222 C143.44118164 223.08861328 143.88236328 224.17722656 144.33691406 225.29882812 C145.56615265 228.32709552 146.80236549 231.35236269 148.04418945 234.37548828 C148.80501389 236.23173551 149.55976508 238.09046821 150.31445312 239.94921875 C153.45411313 247.58622957 156.88113755 254.93645089 160.6862793 262.26074219 C162 265 162 265 162 267 C149.13 267 136.26 267 123 267 C118.54176677 256.07732859 114.20203022 245.35958342 111 234 C110.54807416 232.46058495 110.09484274 230.92155286 109.640625 229.3828125 C108.042553 223.93586286 106.5130968 218.47108446 105 213 C104.63237549 211.68902344 104.63237549 211.68902344 104.25732422 210.3515625 C91.18079381 163.18858459 85.98222957 112.97529568 84.34082031 64.18896484 C84.30956055 63.31320801 84.27830078 62.43745117 84.24609375 61.53515625 C84.22216553 60.775979 84.1982373 60.01680176 84.17358398 59.23461914 C84.04718588 56.96239995 84.04718588 56.96239995 83.49072266 54.62988281 C82.90697423 51.50145592 82.88781297 48.56896041 82.90234375 45.38671875 C82.90717773 43.5159668 82.90717773 43.5159668 82.91210938 41.60742188 C82.92467773 39.66706055 82.92467773 39.66706055 82.9375 37.6875 C82.94201172 36.37458984 82.94652344 35.06167969 82.95117188 33.70898438 C82.96294051 30.4726099 82.9793824 27.23632822 83 24 C55.71121674 19.97622097 28.36887606 16.43244136 1 13 C1 15.31 1 17.62 1 20 C0.67 20 0.34 20 0 20 C0 13.4 0 6.8 0 0 Z " fill="#DEDEDF" transform="translate(459,456)"/>
<path d="M0 0 C0.75464149 -0.00382555 1.50928298 -0.00765109 2.2867924 -0.01159257 C4.81704895 -0.02191645 7.34707831 -0.0179316 9.87734985 -0.01396179 C11.69084381 -0.01830864 13.50433593 -0.02349169 15.31782532 -0.02944946 C20.24554076 -0.04285443 25.17317958 -0.04341641 30.10090971 -0.04088616 C34.21376941 -0.03981736 38.32661356 -0.04469756 42.43946993 -0.04949158 C52.14257062 -0.06059219 61.8456326 -0.06102122 71.54873657 -0.05497742 C81.55984367 -0.04893764 91.57081021 -0.0612475 101.58189332 -0.08254749 C110.17563631 -0.10015981 118.76933455 -0.10616538 127.36309493 -0.10290974 C132.49632755 -0.10109598 137.62945995 -0.10374224 142.76267624 -0.11762428 C147.59062555 -0.1301918 152.41835574 -0.12826868 157.24630165 -0.11521339 C159.01759858 -0.11284563 160.78891088 -0.11558945 162.5601902 -0.12383652 C164.97975311 -0.13428901 167.39857878 -0.12621569 169.81811523 -0.11352539 C170.51773514 -0.12089968 171.21735505 -0.12827396 171.93817556 -0.13587171 C177.69681091 -0.07240732 181.59202208 1.57246922 185.91104126 5.32319641 C188.29159577 9.62650648 188.30577474 13.44986214 187.53604126 18.26069641 C185.48991557 22.35294778 183.81996608 24.67885031 179.53604126 26.26069641 C176.97610391 26.45810098 174.52459883 26.54778354 171.96492004 26.5415802 C171.19873346 26.54752244 170.43254688 26.55346469 169.64314252 26.559587 C167.07378787 26.57694095 164.5046198 26.57997569 161.93521118 26.58296204 C160.09378156 26.59221978 158.25235577 26.60226929 156.41093445 26.61305237 C151.40673013 26.63928999 146.40257946 26.65218803 141.3983171 26.66107368 C138.27183228 26.66693643 135.14536211 26.67514626 132.01888466 26.68408203 C122.23664359 26.71142831 112.45443602 26.73076376 102.67215937 26.73848581 C91.38006773 26.74744874 80.0884601 26.7825534 68.79651564 26.840487 C60.06772532 26.88371586 51.3390712 26.90389407 42.61017495 26.90656805 C37.39683541 26.90866438 32.18395095 26.92048344 26.97072411 26.95620728 C22.06627167 26.98916174 17.16261657 26.99348439 12.25809288 26.97592926 C10.45978154 26.9743881 8.6614274 26.98307999 6.86322403 27.00284576 C-8.41835317 27.16094739 -8.41835317 27.16094739 -13.02577209 23.40364075 C-16.3626018 19.10230064 -16.86708665 15.82661875 -16.81552124 10.54975891 C-16.20894072 6.60024573 -14.35936055 4.95868446 -11.46395874 2.26069641 C-7.84468563 -0.1668901 -4.21117937 -0.0226045 0 0 Z " fill="#FEFEFE" transform="translate(426.4639587402344,418.7393035888672)"/>
<path d="M0 0 C13.2 0 26.4 0 40 0 C38.17877638 8.49904356 36.38394246 16.63368565 33.8125 24.875 C33.40354492 26.21111328 33.40354492 26.21111328 32.98632812 27.57421875 C32.32942086 29.71781087 31.66736328 31.85964518 31 34 C31.69528809 33.70109863 32.39057617 33.40219727 33.10693359 33.09423828 C36.15027176 31.94316303 39.11323965 31.19672158 42.2890625 30.4921875 C43.47757813 30.22792969 44.66609375 29.96367187 45.890625 29.69140625 C47.12296875 29.42199219 48.3553125 29.15257812 49.625 28.875 C50.86507812 28.59785156 52.10515625 28.32070312 53.3828125 28.03515625 C62.60618073 26 62.60618073 26 66 26 C66 38.21 66 50.42 66 63 C52.5 60.75 52.5 60.75 47.796875 59.4921875 C46.79785156 59.22792969 45.79882812 58.96367187 44.76953125 58.69140625 C43.77308594 58.42199219 42.77664063 58.15257812 41.75 57.875 C40.70714844 57.59785156 39.66429687 57.32070312 38.58984375 57.03515625 C36.05853615 56.36168909 33.52867572 55.68326952 31 55 C31.1853833 55.53294678 31.3707666 56.06589355 31.56176758 56.61499023 C33.52786884 62.37370396 35.17441298 68.17014601 36.6875 74.0625 C36.91244141 74.92810547 37.13738281 75.79371094 37.36914062 76.68554688 C37.91551056 78.78965238 38.45815403 80.89472496 39 83 C38.33009033 82.84635986 37.66018066 82.69271973 36.9699707 82.53442383 C25.5779137 80.00555122 13.50339334 80.32677915 2 82 C2.63560297 76.53959266 3.89612519 71.50154439 5.5 66.25 C5.83837891 65.11884766 5.83837891 65.11884766 6.18359375 63.96484375 C7.08471576 60.96288109 8.00881548 57.97355357 9 55 C8.25951416 55.17128418 7.51902832 55.34256836 6.75610352 55.51904297 C3.35832694 56.30475725 -0.03958543 57.08988272 -3.4375 57.875 C-4.60216797 58.14441406 -5.76683594 58.41382813 -6.96679688 58.69140625 C-8.68286133 59.08779297 -8.68286133 59.08779297 -10.43359375 59.4921875 C-11.47572021 59.73308105 -12.51784668 59.97397461 -13.59155273 60.22216797 C-17.72384248 61.16518603 -21.86240589 62.08053464 -26 63 C-26 50.79 -26 38.58 -26 26 C-21.48867672 26.64447475 -17.33875657 27.3145808 -12.953125 28.375 C-11.86128906 28.63796875 -10.76945312 28.9009375 -9.64453125 29.171875 C-8.52433594 29.44515625 -7.40414063 29.7184375 -6.25 30 C-5.11433594 30.27328125 -3.97867187 30.5465625 -2.80859375 30.828125 C5.55925325 32.85308442 5.55925325 32.85308442 9 34 C8.69763428 33.04130005 8.69763428 33.04130005 8.38916016 32.06323242 C7.46097495 29.10674129 6.54295681 26.14718216 5.625 23.1875 C5.30789063 22.18267578 4.99078125 21.17785156 4.6640625 20.14257812 C4.2 18.63920898 4.2 18.63920898 3.7265625 17.10546875 C3.30238037 15.74651489 3.30238037 15.74651489 2.86962891 14.36010742 C1.64658699 9.63446847 0.87320092 4.80260504 0 0 Z " fill="#FBFBFB" transform="translate(492,109)"/>
<path d="M0 0 C0.90222241 -0.00843994 1.80444482 -0.01687988 2.7340073 -0.02557558 C3.72640496 -0.01956553 4.71880261 -0.01355549 5.74127293 -0.00736332 C6.79457045 -0.01274886 7.84786797 -0.01813439 8.93308359 -0.02368313 C12.47998671 -0.03804717 16.02652105 -0.03083809 19.57344151 -0.023736 C22.10923661 -0.02943514 24.64502915 -0.03639761 27.1808176 -0.04453373 C33.36409553 -0.06065944 39.54723614 -0.06255555 45.73052876 -0.05732083 C50.75522419 -0.05328338 55.77988957 -0.0547176 60.80458355 -0.06006908 C61.51906539 -0.06081751 62.23354723 -0.06156593 62.96968003 -0.06233703 C64.42103851 -0.06386847 65.87239698 -0.06540682 67.32375545 -0.066952 C80.9420661 -0.08068794 94.56031934 -0.07523173 108.17862869 -0.06376678 C120.64325582 -0.05383365 133.10773452 -0.06677446 145.57233875 -0.09070098 C158.36420889 -0.11507111 171.15600984 -0.12470497 183.94790274 -0.11804825 C191.13230426 -0.11455132 198.3165916 -0.11681918 205.50097561 -0.13429928 C212.25529946 -0.15052881 219.00929384 -0.14587221 225.76362514 -0.12699413 C228.24689776 -0.12329345 230.7301912 -0.12645942 233.21344471 -0.13687992 C236.59504213 -0.14998999 239.97568429 -0.13863032 243.35723972 -0.12088871 C244.34740666 -0.13049372 245.33757359 -0.14009872 246.35774559 -0.14999479 C252.96356694 -0.07834438 252.96356694 -0.07834438 256.22246742 2.22414207 C258.13355736 5.18803535 258.18940732 6.9203617 257.61274815 10.38031673 C256.22246742 12.53649139 256.22246742 12.53649139 253.61274815 14.38031673 C250.1994682 14.98567937 246.81585441 14.91507209 243.35723972 14.88152218 C241.77495346 14.88982377 241.77495346 14.88982377 240.16070181 14.89829308 C236.61445066 14.91194197 233.06889813 14.89690683 229.52266026 14.88202572 C226.98509515 14.88580731 224.44753211 14.89130603 221.9099741 14.8983984 C215.72645009 14.91093617 209.54318659 14.90476772 203.35967558 14.88972282 C196.16193397 14.87287568 188.96424337 14.87607129 181.76648814 14.8798169 C168.92638183 14.88569719 156.08637355 14.87151673 143.24629307 14.84686947 C130.78043538 14.82294317 118.31470865 14.81586692 105.84883213 14.82636166 C92.28014588 14.83776433 78.71152023 14.83970939 65.14283472 14.82526356 C63.696751 14.82373769 62.25066728 14.82221733 60.80458355 14.82070255 C60.09304519 14.81994474 59.38150683 14.81918692 58.6484067 14.81840615 C53.62833711 14.81365866 48.60829454 14.815518 43.58822536 14.81976795 C36.83556254 14.82520162 30.08310855 14.81447924 23.33047009 14.7928133 C20.84678226 14.78723127 18.36307698 14.78679301 15.87938786 14.79176617 C12.49981162 14.79768637 9.1207983 14.78527639 5.74127293 14.76799679 C4.25267644 14.77701186 4.25267644 14.77701186 2.7340073 14.78620905 C1.83178489 14.77776911 0.92956248 14.76932917 0 14.76063347 C-0.78043531 14.75960434 -1.56087062 14.75857521 -2.36495548 14.75751489 C-4.91671264 14.28156186 -5.8058105 13.40004646 -7.38725185 11.38031673 C-7.78568935 9.44281673 -7.78568935 9.44281673 -7.76225185 7.38031673 C-7.76998623 6.69969173 -7.7777206 6.01906673 -7.78568935 5.31781673 C-6.89340199 0.97885074 -4.08858908 0.00539146 0 0 Z " fill="#FDFEFE" transform="translate(387.38725185394287,733.619683265686)"/>
<path d="M0 0 C13.44425736 1.89683829 29.7689296 4.26800621 40 14 C41.46815911 18.25281737 40.65584345 20.69613413 38.89453125 24.7421875 C38.17076294 26.43976196 38.17076294 26.43976196 37.43237305 28.17163086 C37.16919281 28.77296844 36.90601257 29.37430603 36.63485718 29.99386597 C35.20994543 33.25333772 33.83083845 36.53223471 32.4453125 39.80859375 C32.01211952 40.82836052 32.01211952 40.82836052 31.57017517 41.86872864 C28.62208252 48.83299332 25.89015456 55.8745168 23.1875 62.9375 C22.2068265 65.49391185 21.22486931 68.04982825 20.2421875 70.60546875 C19.99015564 71.26117859 19.73812378 71.91688843 19.47845459 72.59246826 C15.3315297 83.35789941 11.06112847 94.07543981 6.8112793 104.80053711 C6.49822845 105.59135178 6.18517761 106.38216644 5.86264038 107.19694519 C5.27381315 108.68423249 4.68427281 110.17123772 4.09390259 111.65791321 C2.99913812 114.42314778 1.9407202 117.17783941 1 120 C-37.94 120 -76.88 120 -117 120 C-117 119.67 -117 119.34 -117 119 C-86.31 119 -55.62 119 -24 119 C-23.67 117.35 -23.34 115.7 -23 114 C-22.31648969 111.87637742 -21.59819425 109.76380024 -20.85546875 107.66015625 C-20.42556641 106.43103516 -19.99566406 105.20191406 -19.55273438 103.93554688 C-18.65578863 101.38814377 -17.75647617 98.84158227 -16.85742188 96.29492188 C-14.29380812 88.9621485 -11.96661617 81.64411044 -9.93066406 74.14941406 C-8.97409829 70.91234729 -7.81837212 67.81941202 -6.5625 64.6875 C-4.27145046 58.93176511 -2.50441861 53.11978895 -0.80932617 47.17016602 C0.36049042 43.09129149 1.63135393 39.10048383 3.125 35.125 C7.66987879 23.35116874 7.66987879 23.35116874 8 11 C6.37042476 8.70283796 4.62360208 6.7483552 2.62890625 4.76171875 C1 3 1 3 0 0 Z " fill="#DEDEDF" transform="translate(570,229)"/>
<path d="M0 0 C45.63232637 -0.09151601 91.26464304 -0.16201863 136.89704306 -0.20426132 C142.28194813 -0.20926426 147.66685301 -0.21444154 153.05175781 -0.21972656 C154.12381465 -0.2207758 155.19587149 -0.22182505 156.3004149 -0.22290608 C173.66871291 -0.24032069 191.03695806 -0.27186419 208.4052247 -0.30861118 C226.22102588 -0.34599123 244.03679934 -0.36822964 261.85263813 -0.37635398 C272.84974536 -0.38184784 283.84670321 -0.39921203 294.84376447 -0.43166587 C302.38050858 -0.4527775 309.91717524 -0.45920765 317.45394678 -0.45400551 C321.80506515 -0.45143851 326.15592213 -0.45542799 330.50699425 -0.4768219 C334.48955752 -0.49626121 338.47168317 -0.49728728 342.45426641 -0.48359558 C343.89582599 -0.48190294 345.33741267 -0.48699959 346.77891876 -0.49953273 C360.23479978 -0.60973219 360.23479978 -0.60973219 365 4 C367.14397664 8.28795328 366.30912101 13.93532922 366.35009766 18.69360352 C366.36663807 20.10099852 366.39390393 21.50831016 366.43212891 22.9152832 C366.48710174 24.95047295 366.50879877 26.98369759 366.5234375 29.01953125 C366.54325684 30.23745361 366.56307617 31.45537598 366.58349609 32.71020508 C365.82238141 37.00142697 364.34292525 38.26878541 361 41 C358.05785292 41.62099248 358.05785292 41.62099248 354.7312727 41.61523914 C353.46032826 41.62519439 352.18938382 41.63514963 350.87992591 41.64540654 C349.47188184 41.63114211 348.0638424 41.61641415 346.6558075 41.60127258 C345.15830986 41.60345293 343.66081407 41.60783078 342.16332847 41.61421841 C338.04701147 41.6254088 333.93134385 41.6053854 329.81510961 41.58032811 C325.37684668 41.55875649 320.93862103 41.5660412 316.50032043 41.56983948 C308.81026709 41.57246256 301.12042568 41.5567614 293.43042564 41.52865028 C282.31198296 41.48803278 271.19364286 41.47499486 260.07513402 41.46871033 C242.0366035 41.4577644 223.99818596 41.42448208 205.9597168 41.37719727 C188.43595953 41.33130941 170.91223294 41.29591371 153.38842773 41.2746582 C151.76845956 41.27268778 151.76845956 41.27268778 150.11576476 41.27067754 C144.69788433 41.26415241 139.28000368 41.25783385 133.86212289 41.25161803 C88.90800366 41.19977572 43.95400766 41.11170229 -1 41 C-1 40.67 -1 40.34 -1 40 C-0.36211632 39.99940291 0.27576735 39.99880582 0.93298084 39.99819064 C38.71065666 39.96232318 76.48824829 39.90572511 114.26584964 39.82207905 C118.7984079 39.81206118 123.33096652 39.80221712 127.86352539 39.79248047 C129.21709349 39.78956841 129.21709349 39.78956841 130.59800639 39.78659752 C145.22325885 39.75554764 159.84849561 39.73858854 174.47377483 39.72680578 C189.47248883 39.71440967 204.4711202 39.68694323 219.46978205 39.64538693 C228.7302467 39.62020728 237.99057437 39.60688596 247.25107374 39.60857043 C253.59503822 39.6086001 259.93886282 39.59403654 266.28277282 39.56783572 C269.94693902 39.55313844 273.61081835 39.54503027 277.27500916 39.55419731 C281.24157603 39.56395335 285.20763465 39.54305857 289.17414856 39.51898193 C290.34047642 39.52674235 291.50680428 39.53450277 292.70847541 39.54249835 C293.76643402 39.53105076 294.82439263 39.51960317 295.91441059 39.50780869 C297.28880833 39.50553036 297.28880833 39.50553036 298.69097167 39.50320601 C301.14261598 39.19051559 301.14261598 39.19051559 302.79457968 37.16479516 C304.49673558 34.10792048 304.37186067 31.67121004 304.36328125 28.1875 C304.36377975 27.53676514 304.36427826 26.88603027 304.36479187 26.21557617 C304.36245815 24.84388159 304.35277093 23.47218218 304.33618164 22.10058594 C304.31257632 20.00676995 304.31562686 17.91422792 304.32226562 15.8203125 C304.41063276 8.17640513 304.41063276 8.17640513 302 1 C202.34 1 102.68 1 0 1 C0 0.67 0 0.34 0 0 Z " fill="#D9D9DA" transform="translate(332,882)"/>
<path d="M0 0 C1.80857483 -0.01073296 1.80857483 -0.01073296 3.65368652 -0.02168274 C4.99700902 -0.02452313 6.34033179 -0.02723485 7.68365479 -0.02983093 C9.09291756 -0.03609479 10.50217868 -0.04274152 11.91143799 -0.04974365 C15.74630511 -0.06716184 19.58115975 -0.07770788 23.41605663 -0.08594918 C25.81184036 -0.09109819 28.2076202 -0.097174 30.60340118 -0.10346031 C38.09879671 -0.12251569 45.59418237 -0.13674542 53.08959746 -0.14507228 C61.74243041 -0.15484346 70.39500746 -0.18115825 79.04775023 -0.22157317 C85.73488004 -0.25173537 92.4219365 -0.26654129 99.10913301 -0.26985329 C103.10340613 -0.2722039 107.09740598 -0.28116518 111.09160614 -0.30631447 C114.85093785 -0.32960193 118.60981651 -0.33382599 122.36920166 -0.32355309 C123.7470475 -0.32305775 125.12491568 -0.32937763 126.50269318 -0.34310913 C139.50649358 -0.46543117 139.50649358 -0.46543117 144.33306885 4.14717102 C146.33306885 7.14717102 146.33306885 7.14717102 146.33306885 14.14717102 C93.53306885 14.14717102 40.73306885 14.14717102 -13.66693115 14.14717102 C-13.66693115 7.38162078 -13.66693115 7.38162078 -10.79193115 4.33467102 C-10.25825928 3.75072571 -9.7245874 3.1667804 -9.17474365 2.56513977 C-6.23706134 -0.1974993 -3.91884295 0.01591523 0 0 Z " fill="#FCFDFD" transform="translate(445.66693115234375,393.8528289794922)"/>
<path d="M0 0 C24.0173583 -0.0700669 48.03470129 -0.12297684 72.05214119 -0.15543652 C83.20374085 -0.17090839 94.35527702 -0.1920041 105.50683594 -0.22631836 C115.22601516 -0.25621082 124.94514841 -0.27557267 134.66437232 -0.28226548 C139.81109742 -0.28617798 144.95769097 -0.29537969 150.10437393 -0.31719017 C154.94866058 -0.33755284 159.79276149 -0.34383421 164.63708687 -0.33932304 C166.41484016 -0.34014834 168.19259966 -0.34611529 169.97031593 -0.35761642 C172.39882428 -0.37255721 174.8266327 -0.36894802 177.25515747 -0.36076355 C178.30868005 -0.37387134 178.30868005 -0.37387134 179.38348591 -0.38724393 C185.15450499 -0.33472644 189.04698548 1.30396107 193.375 5.0625 C195.75555451 9.36581007 195.76973348 13.18916573 195 18 C192.95387431 22.09225137 191.28392482 24.4181539 187 26 C184.44006265 26.19740456 181.98855757 26.28708713 179.42887878 26.28088379 C178.6626922 26.28682603 177.89650562 26.29276828 177.10710126 26.29889059 C174.53774661 26.31624454 171.96857854 26.31927928 169.39916992 26.32226562 C167.5577403 26.33152337 165.71631451 26.34157288 163.87489319 26.35235596 C158.87068887 26.37859358 153.8665382 26.39149162 148.86227584 26.40037727 C145.73579102 26.40624002 142.60932085 26.41444984 139.4828434 26.42338562 C129.70060233 26.4507319 119.91839476 26.47006735 110.13611811 26.4777894 C98.84402647 26.48675233 87.55241884 26.52185699 76.26047438 26.57979059 C67.53168406 26.62301945 58.80302994 26.64319766 50.07413369 26.64587164 C44.86079415 26.64796796 39.64790969 26.65978703 34.43468285 26.69551086 C29.53023041 26.72846533 24.62657531 26.73278798 19.72205162 26.71523285 C17.92374028 26.71369169 16.12538614 26.72238358 14.32718277 26.74214935 C-0.95795081 26.90028778 -0.95795081 26.90028778 -5.62431335 23.01794434 C-8 20 -8 20 -8 19 C-7.12755268 18.99761165 -6.25510536 18.99522329 -5.35622025 18.99276257 C15.85876397 18.93366229 37.07363411 18.8581442 58.28849411 18.76428509 C68.54778772 18.71929293 78.80704635 18.67988618 89.06640625 18.65356445 C98.00701801 18.63061205 106.94751938 18.597245 115.88804364 18.55129844 C120.62330348 18.52732895 125.35845374 18.50862463 130.09377289 18.50238609 C134.54908462 18.49635205 139.00411585 18.47641336 143.45932388 18.44572449 C145.09598216 18.43691723 146.73267704 18.43322722 148.36935806 18.43499184 C150.60160645 18.43663895 152.83299401 18.4199948 155.06512451 18.39872742 C156.3150758 18.39411845 157.56502708 18.38950949 158.85285568 18.38476086 C162.22213107 17.97284289 163.62758764 17.38408997 166 15 C166.62997202 12.868774 166.62997202 12.868774 166.5 10.5625 C166.5103125 9.80066406 166.520625 9.03882813 166.53125 8.25390625 C165.78775777 5.09953111 164.52756527 4.00779857 162 2 C158.8953732 1.39410289 158.8953732 1.39410289 155.36883545 1.48101807 C154.37140568 1.46976619 154.37140568 1.46976619 153.35382581 1.458287 C151.12716797 1.43799767 148.90152724 1.44611417 146.67480469 1.45410156 C145.07816561 1.44536715 143.48153528 1.43488183 141.88491821 1.42277527 C137.55051312 1.3948782 133.21639312 1.39151139 128.88191128 1.39249516 C124.35213753 1.38936923 119.82249279 1.36375772 115.29278564 1.34051514 C106.7151733 1.29992702 98.13763704 1.27960783 89.55994344 1.26654124 C79.79455099 1.25068071 70.02928817 1.21226909 60.26397085 1.17194796 C40.17602331 1.08951055 20.08808181 1.03544245 0 1 C0 0.67 0 0.34 0 0 Z " fill="#DBDCDC" transform="translate(419,419)"/>
<path d="M0 0 C1.07542557 -0.00708481 2.15085114 -0.01416962 3.25886536 -0.02146912 C5.03635162 -0.01775299 5.03635162 -0.01775299 6.8497467 -0.01396179 C8.71564201 -0.02162819 8.71564201 -0.02162819 10.61923218 -0.02944946 C14.03664134 -0.04099254 17.45380848 -0.0434151 20.87122035 -0.04088616 C23.72171853 -0.03981826 26.57219421 -0.04469521 29.42268759 -0.04949158 C36.14643788 -0.06059642 42.8701323 -0.06101879 49.59388733 -0.05497742 C56.53536341 -0.04893641 63.47663686 -0.06124949 70.41807836 -0.08254749 C76.37311884 -0.10014861 82.32809473 -0.10616719 88.28316027 -0.10290974 C91.84188471 -0.10109426 95.40046463 -0.10375919 98.95916557 -0.11762428 C102.92668015 -0.13250297 106.8939356 -0.1232455 110.86146545 -0.11161804 C112.63591537 -0.12308365 112.63591537 -0.12308365 114.44621277 -0.13478088 C115.52445816 -0.12776657 116.60270355 -0.12075226 117.71362305 -0.11352539 C118.65217605 -0.11369313 119.59072905 -0.11386087 120.55772305 -0.1140337 C122.92030334 0.26069641 122.92030334 0.26069641 124.76134586 1.62002277 C125.92030334 3.26069641 125.92030334 3.26069641 125.67030334 5.88569641 C124.92030334 8.26069641 124.92030334 8.26069641 123.92030334 9.26069641 C122.24202029 9.36121467 120.55949231 9.39145929 118.87820435 9.39440918 C117.23971779 9.40080666 117.23971779 9.40080666 115.56813049 9.40733337 C114.35927185 9.40688019 113.15041321 9.406427 111.90492249 9.40596008 C110.00757607 9.410998 110.00757607 9.410998 108.07189941 9.4161377 C104.59259166 9.42499799 101.11330847 9.42731666 97.63399053 9.42795348 C94.73374814 9.42890093 91.83351152 9.43257733 88.93327135 9.43612558 C82.0930896 9.44427787 75.25292103 9.44670911 68.41273499 9.44599915 C61.34690692 9.44539816 54.28115515 9.4559523 47.2153464 9.47174281 C41.15759198 9.48480021 35.09986256 9.4901838 29.04209417 9.48954374 C25.42025826 9.48928821 21.79849011 9.49216907 18.17666817 9.50272179 C14.13941827 9.51416303 10.10234027 9.50966703 6.06507874 9.50361633 C4.25482712 9.51204559 4.25482712 9.51204559 2.40800476 9.52064514 C1.31286057 9.51645065 0.21771637 9.51225616 -0.91061401 9.50793457 C-2.34389746 9.50875172 -2.34389746 9.50875172 -3.80613613 9.50958538 C-6.07969666 9.26069641 -6.07969666 9.26069641 -8.07969666 7.26069641 C-7.49455321 1.40926192 -5.71628758 0.01250809 0 0 Z " fill="#FBFBFB" transform="translate(453.07969665527344,356.7393035888672)"/>
<path d="M0 0 C35.64 0 71.28 0 108 0 C110 6 110 6 110 9 C73.04 9 36.08 9 -2 9 C-1.34 6.03 -0.68 3.06 0 0 Z " fill="#FAFBFB" transform="translate(458,374)"/>
<path d="M0 0 C17.62853582 -0.0934737 35.25699421 -0.163994 52.88572121 -0.20724869 C61.07119663 -0.22786712 69.25651799 -0.25597386 77.44189453 -0.30175781 C84.57692645 -0.34164773 91.7118468 -0.36743804 98.84698713 -0.37635398 C102.62445666 -0.38156513 106.401607 -0.39379785 110.17897415 -0.42292023 C113.73635388 -0.45012368 117.29328373 -0.45843524 120.8507576 -0.45243073 C122.77481074 -0.45405131 124.69881517 -0.4755484 126.6227417 -0.49768066 C137.25846188 -0.44694012 137.25846188 -0.44694012 142 4 C144 7 144 7 144 14 C91.2 14 38.4 14 -16 14 C-16 12.02 -16 10.04 -16 8 C-15.67 8.66 -15.34 9.32 -15 10 C31.2 10 77.4 10 125 10 C124.73998789 4.25809298 124.73998789 4.25809298 122.25229263 2.64240456 C119.72422428 1.92134256 117.59397208 1.73803748 114.96331787 1.7215271 C113.94812073 1.71036362 112.93292358 1.69920013 111.88696289 1.68769836 C110.77925537 1.68553818 109.67154785 1.68337799 108.53027344 1.68115234 C107.35926086 1.67110672 106.18824829 1.6610611 104.98175049 1.65071106 C101.10763036 1.61979783 97.2335796 1.60282106 93.359375 1.5859375 C90.67464709 1.56832421 87.989944 1.54775627 85.30523682 1.5272522 C78.95886238 1.48047651 72.61247108 1.44372659 66.26601243 1.41057932 C59.03988334 1.37234935 51.81384421 1.3229415 44.58779097 1.27259517 C29.72526156 1.16929335 14.86267368 1.08002728 0 1 C0 0.67 0 0.34 0 0 Z " fill="#DFDFE0" transform="translate(448,394)"/>
<path d="M0 0 C0.78043531 -0.00064941 1.56087062 -0.00129882 2.36495548 -0.00196791 C3.26717789 -0.0123989 4.1694003 -0.02282989 5.09896278 -0.03357697 C6.58755927 -0.02019264 6.58755927 -0.02019264 8.10622841 -0.00653791 C9.15952593 -0.01277788 10.21282345 -0.01901784 11.29803908 -0.02544689 C14.84504943 -0.041465 18.39138094 -0.02873774 21.93839699 -0.01618147 C24.47419312 -0.02159868 27.00998611 -0.02871907 29.54577309 -0.0374217 C35.72909345 -0.0538054 41.91216039 -0.05135523 48.09548425 -0.03977114 C53.1201854 -0.03074654 58.14483211 -0.02950858 63.16953903 -0.03386641 C64.24126179 -0.0347858 64.24126179 -0.0347858 65.33463551 -0.03572378 C66.785994 -0.03700265 68.23735248 -0.0382995 69.68871094 -0.03961414 C83.30704376 -0.05102783 96.92526899 -0.03789434 110.54358418 -0.01641268 C122.23285956 0.00145522 133.92197605 -0.00164167 145.61124855 -0.02008772 C159.1784784 -0.04148715 172.74561385 -0.04992508 186.31285822 -0.03763866 C187.75925629 -0.03636444 189.20565437 -0.03510696 190.65205246 -0.03386641 C191.71959142 -0.03294075 191.71959142 -0.03294075 192.80869682 -0.0319964 C197.82779793 -0.02854042 202.84683924 -0.03437724 207.86593109 -0.04378462 C214.62026789 -0.0561658 221.37425775 -0.04736806 228.12858063 -0.02420759 C230.61184873 -0.01890543 233.09514202 -0.02045984 235.57840019 -0.02925825 C238.96001038 -0.04013748 242.34064756 -0.02654131 245.72219521 -0.00653791 C246.71236214 -0.0154608 247.70252908 -0.02438369 248.72270107 -0.03357697 C255.32844303 0.04257481 255.32844303 0.04257481 258.58742291 2.34564257 C260.49870416 5.30925437 260.55433543 7.04160588 259.97770363 10.50139666 C258.55875832 12.66448259 258.55875832 12.66448259 255.97770363 14.50139666 C252.70935319 15.05961917 249.48795602 14.96624068 246.18082863 14.89202166 C245.23205849 14.88636187 244.28328835 14.88070208 243.3057676 14.87487078 C240.27923027 14.85250275 237.25388234 14.80230523 234.22770363 14.75139666 C232.17433533 14.73133222 230.12094844 14.71308135 228.06754738 14.69670916 C223.03714207 14.65263646 218.00762442 14.58360557 212.97770363 14.50139666 C213.79368019 13.73182634 214.60965676 12.96225603 215.45035988 12.16936541 C218.19138423 9.77647695 218.19138423 9.77647695 218.41520363 6.81389666 C218.1674386 4.31557375 218.1674386 4.31557375 215.97770363 2.50139666 C213.12850336 2.30351734 210.37638524 2.23221362 207.52595192 2.24742937 C206.64093447 2.24430939 205.75591702 2.24118941 204.84408087 2.23797488 C201.8607232 2.22995943 198.87756694 2.23633233 195.89420754 2.24260759 C193.76249754 2.23989927 191.63078847 2.23633923 189.49908119 2.23198748 C183.69537395 2.22284127 177.89173751 2.22641719 172.08802897 2.23274565 C166.02402 2.23779544 159.96001726 2.23311693 153.89600807 2.22997332 C143.70871058 2.22633013 133.52144204 2.23114142 123.33414894 2.24065447 C111.54739061 2.25153385 99.76070149 2.24801859 87.97394484 2.23700166 C77.86691326 2.22793186 67.75990255 2.22664218 57.65286821 2.231879 C51.61090346 2.23500114 45.56897126 2.23540146 39.52700859 2.22880602 C33.84552632 2.22303787 28.16413342 2.22701977 22.48266083 2.23859453 C20.39446654 2.24124421 18.30626476 2.24047081 16.21807343 2.2360692 C13.3730875 2.23062434 10.52839005 2.23743515 7.68342263 2.24742937 C6.85210245 2.24296793 6.02078228 2.23850648 5.16427058 2.23390985 C1.30602891 2.26029577 -1.75770718 2.29466067 -5.02229637 4.50139666 C-2.62449418 0.65070215 -2.62449418 0.65070215 0 0 Z " fill="#E1E1E2" transform="translate(385.0222963690758,733.4986033439636)"/>
<path d="M0 0 C2.8491602 2.27932816 3.50613555 3.51227111 5.25 7 C-15.21 7 -35.67 7 -56.75 7 C-52.56087134 0.0181189 -46.37945582 -4.23430345 -38.51171875 -6.52734375 C-25.63085614 -8.73184782 -10.91392017 -7.72007998 0 0 Z " fill="#F6F7F7" transform="translate(537.75,207)"/>
<path d="M0 0 C35.64 0 71.28 0 108 0 C110 6 110 6 110 9 C103.07 9 96.14 9 89 9 C88.01 7.02 88.01 7.02 87 5 C68.52 4.67 50.04 4.34 31 4 C31.99 3.34 32.98 2.68 34 2 C22.78 1.67 11.56 1.34 0 1 C0 0.67 0 0.34 0 0 Z " fill="#C7C7C7" transform="translate(458,374)"/>
<path d="M0 0 C1.41310864 0.00276538 1.41310864 0.00276538 2.85476494 0.00558662 C3.93452599 0.0028373 5.01428703 0.00008797 6.12676811 -0.00274467 C7.91132408 0.00804115 7.91132408 0.00804115 9.73193169 0.01904488 C11.60505531 0.0186068 11.60505531 0.0186068 13.51601982 0.01815987 C16.9456379 0.01931664 20.37501687 0.02936513 23.80459261 0.04330778 C27.38671894 0.05578808 30.96884825 0.0569835 34.55099297 0.0593586 C41.33665655 0.06558133 48.12225589 0.08200283 54.90789115 0.10205758 C62.63208625 0.12439195 70.35628437 0.1354038 78.0805037 0.14544845 C93.97200001 0.16636841 109.86343218 0.20155973 125.75488091 0.24609566 C125.75488091 0.57609566 125.75488091 0.90609566 125.75488091 1.24609566 C125.10220049 1.24848401 124.44952007 1.25087236 123.77706146 1.25333309 C107.9120162 1.31241249 92.04714764 1.38791681 76.18227386 1.48181057 C68.5102011 1.52681844 60.83817527 1.56622141 53.16601372 1.5925312 C46.48066849 1.61547106 39.7954712 1.64882367 33.1102432 1.69479722 C29.5688807 1.71878401 26.02766518 1.73747683 22.48622322 1.74370956 C18.53736301 1.75085411 14.58887212 1.78124134 10.64013481 1.81372261 C9.45978157 1.81228752 8.27942833 1.81085243 7.06330681 1.80937386 C5.45628647 1.82818108 5.45628647 1.82818108 3.81680107 1.84736824 C2.88210299 1.85197721 1.9474049 1.85658617 0.98438263 1.8613348 C0.24864706 1.98830588 -0.48708851 2.11527697 -1.24511909 2.24609566 C-2.23511909 3.73109566 -2.23511909 3.73109566 -3.24511909 5.24609566 C21.83488091 5.57609566 46.91488091 5.90609566 72.75488091 6.24609566 C72.75488091 6.90609566 72.75488091 7.56609566 72.75488091 8.24609566 C62.88042995 8.4229067 53.00586262 8.58887267 43.1309967 8.74087143 C38.54604159 8.81178879 33.96121216 8.8864861 29.37646294 8.96972847 C24.95457321 9.04987637 20.53262765 9.1202173 16.11046791 9.18366814 C14.42066354 9.20965566 12.73091035 9.23921811 11.04123116 9.27235985 C8.68035308 9.31806474 6.3196151 9.35122431 3.95849419 9.38134956 C3.25502861 9.39789085 2.55156303 9.41443214 1.82678032 9.43147469 C0.13508409 9.4463965 -1.55689765 9.3554901 -3.24511909 9.24609566 C-3.90511909 8.58609566 -4.56511909 7.92609566 -5.24511909 7.24609566 C-4.85629942 3.35789891 -4.36107201 0.47803294 0 0 Z " fill="#B5B5B5" transform="translate(450.24511909484863,356.75390434265137)"/>
<path d="M0 0 C0.625 2.875 0.625 2.875 1 6 C-1 8 -1 8 -3.26073647 8.24609566 C-4.21018324 8.24425207 -5.15963001 8.24240849 -6.1378479 8.24050903 C-7.2260231 8.24325836 -8.3141983 8.24600769 -9.43534851 8.24884033 C-10.63440323 8.24164978 -11.83345795 8.23445923 -13.06884766 8.22705078 C-14.32735031 8.22734283 -15.58585297 8.22763489 -16.88249207 8.22793579 C-20.33893172 8.22851096 -23.79523331 8.21673024 -27.2516408 8.20278788 C-30.8617944 8.19030777 -34.47195096 8.18911217 -38.0821228 8.18673706 C-44.9209101 8.18051427 -51.75963365 8.16409269 -58.59839284 8.14403808 C-66.38304635 8.12170389 -74.16770286 8.1106919 -81.95238042 8.10064721 C-97.96829096 8.07972712 -113.98413735 8.04453569 -130 8 C-130 7.67 -130 7.34 -130 7 C-105.25 7 -80.5 7 -55 7 C-55 6.34 -55 5.68 -55 5 C-41.14 5 -27.28 5 -13 5 C-13 3.68 -13 2.36 -13 1 C-11.20843648 0.83222817 -9.4167455 0.66581706 -7.625 0.5 C-6.62726563 0.4071875 -5.62953125 0.314375 -4.6015625 0.21875 C-2 0 -2 0 0 0 Z " fill="#E2E1E0" transform="translate(578,358)"/>
<path d="M0 0 C17.49 0 34.98 0 53 0 C53 0.33 53 0.66 53 1 C52.16021606 1.03758423 52.16021606 1.03758423 51.3034668 1.07592773 C48.76458695 1.19203745 46.22606447 1.3146958 43.6875 1.4375 C42.36588867 1.49647461 42.36588867 1.49647461 41.01757812 1.55664062 C39.74624023 1.61948242 39.74624023 1.61948242 38.44921875 1.68359375 C37.66893311 1.72025146 36.88864746 1.75690918 36.0847168 1.79467773 C33.80670899 1.94125263 33.80670899 1.94125263 31 3 C28.74065744 3.13975686 26.47781667 3.22544376 24.21484375 3.28125 C23.55795059 3.29965942 22.90105743 3.31806885 22.22425842 3.33703613 C19.41749066 3.41558969 16.61048979 3.48352365 13.8034668 3.55224609 C11.75297176 3.60396516 9.70268222 3.66120548 7.65234375 3.71875 C5.81144165 3.76418945 5.81144165 3.76418945 3.93334961 3.81054688 C1.06628588 3.80492521 1.06628588 3.80492521 -1 5 C-0.67 3.35 -0.34 1.7 0 0 Z " fill="#E1E1E1" transform="translate(458,375)"/>
<path d="M0 0 C6.44514058 1.66609076 11.54271558 3.90596066 16 9 C16.33 9.99 16.66 10.98 17 12 C7.24221453 12.16262976 7.24221453 12.16262976 5 11 C2.92898848 7.49521127 1.45213584 3.79789374 0 0 Z " fill="#D4D4D3" transform="translate(526,202)"/>
<path d="M0 0 C0.33 1.98 0.66 3.96 1 6 C0.01 6 -0.98 6 -2 6 C-2 5.67 -2 5.34 -2 5 C-5.63 5 -9.26 5 -13 5 C-13 3.68 -13 2.36 -13 1 C-11.20843648 0.83222817 -9.4167455 0.66581706 -7.625 0.5 C-6.62726562 0.4071875 -5.62953125 0.314375 -4.6015625 0.21875 C-2 0 -2 0 0 0 Z " fill="#E8E8E8" transform="translate(578,358)"/>
<path d="M0 0 C0.33 0.99 0.66 1.98 1 3 C-7.57142857 3.28571429 -7.57142857 3.28571429 -11 1 C-7.26513121 0.4254048 -3.78706732 0 0 0 Z " fill="#C9CAC7" transform="translate(542,211)"/>
</svg>
