<?xml version="1.0" encoding="UTF-8"?>
<svg version="1.1" xmlns="http://www.w3.org/2000/svg" width="1024" height="1024">
<path d="M0 0 C337.92 0 675.84 0 1024 0 C1024 337.92 1024 675.84 1024 1024 C686.08 1024 348.16 1024 0 1024 C0 686.08 0 348.16 0 0 Z " fill="#FDFEFE" transform="translate(0,0)"/>
<path d="M0 0 C5.31954636 1.47118704 9.4431919 3.93307399 14 6.9375 C15.11822144 7.67166138 15.11822144 7.67166138 16.2590332 8.4206543 C46.15492214 28.30984429 46.15492214 28.30984429 52 40 C53.9231979 40.66962307 53.9231979 40.66962307 56.27734375 41.11328125 C57.17461182 41.30656006 58.07187988 41.49983887 58.99633789 41.69897461 C59.96692139 41.90143799 60.93750488 42.10390137 61.9375 42.3125 C76.98577858 45.60916212 91.18575711 49.00188653 105 56 C106.2631215 56.60537775 107.5275055 57.20812651 108.79296875 57.80859375 C156.6323871 80.74337372 192.9750914 122.15233737 210.71679688 172.14624023 C211.91159653 175.73751983 212.98094909 179.35536602 214 183 C214.22236328 183.77585449 214.44472656 184.55170898 214.67382812 185.35107422 C218.1252338 197.56619872 220.20678668 209.79217053 221.69042969 222.38964844 C221.94500014 224.53623144 222.23004216 226.67917899 222.5234375 228.82080078 C223.40467055 235.88385789 223.24479159 243.01755334 223.25 250.125 C223.25067474 250.95612305 223.25134949 251.78724609 223.25204468 252.64355469 C223.21870951 278.85309705 220.70936716 304.70004643 217.17340088 330.64654541 C212.13192658 367.6775885 208.7468124 405.78516282 214 443 C214.12890625 443.93553711 214.2578125 444.87107422 214.390625 445.83496094 C218.22523939 472.82816087 224.94859458 499.10830609 237.15991211 523.59643555 C238.13371888 526.38258133 238.06227166 527.28873983 237 530 C235.31027222 531.51467896 235.31027222 531.51467896 233.08544922 532.95751953 C232.25302704 533.5055423 231.42060486 534.05356506 230.56295776 534.61819458 C229.65272858 535.20051849 228.74249939 535.78284241 227.8046875 536.3828125 C226.86505157 536.99712128 225.92541565 537.61143005 224.95730591 538.24435425 C221.93689364 540.21561043 218.90631244 542.17055685 215.875 544.125 C213.88601095 545.41818285 211.89772145 546.71244233 209.91015625 548.0078125 C206.0452364 550.5255835 202.17674817 553.03772887 198.3059082 555.54638672 C193.75451075 558.50140721 189.23017017 561.49419117 184.72265625 564.515625 C179.05912589 568.31099772 173.34143287 572.00779842 167.5625 575.625 C166.72396484 576.15222656 165.88542969 576.67945313 165.02148438 577.22265625 C163.01545423 578.48358948 161.00832276 579.74272289 159 581 C159.88751953 581.61875 159.88751953 581.61875 160.79296875 582.25 C166.98547931 586.77568472 170.59982386 591.19964773 174 598 C174.63335114 605.9116979 175.09468947 613.50041131 170 620 C168.92993615 620.95261782 167.84632984 621.89023201 166.75 622.8125 C163.9479754 625.4438429 163.51569548 627.36707647 163.375 631.1875 C164.79023107 654.39728948 188.17195629 674.35993256 204.2734375 689.078125 C205.47900485 690.12600211 206.68971396 691.16800223 207.90625 692.203125 C218.91735671 701.65295539 228.15987392 709.96828833 233 724 C233.4125 725.0725 233.825 726.145 234.25 727.25 C237.16353116 741.81765578 233.72337218 752.31439211 227 765 C227.99 765.165 228.98 765.33 230 765.5 C235.21650031 766.99497265 238.78117617 770.76654692 242 775 C244.9841918 780.71698163 245.45501668 785.37926166 245.43359375 791.7734375 C245.4388356 792.69661774 245.44407745 793.61979797 245.44947815 794.57095337 C245.45587519 796.51571654 245.45459152 798.46051852 245.44604492 800.40527344 C245.43754479 803.35943509 245.46631285 806.31165439 245.49804688 809.265625 C245.49965954 811.16406193 245.49908011 813.06250224 245.49609375 814.9609375 C245.50732773 815.83309906 245.51856171 816.70526062 245.53013611 817.60385132 C245.4618073 823.70488421 244.25965361 828.77565524 241 834 C235.136398 839.63674093 228.65916204 841.24848757 220.61544228 841.25726891 C219.88998042 841.26077498 219.16451856 841.26428105 218.41707301 841.26789337 C215.9852169 841.2772001 213.55360064 841.27228598 211.12173462 841.26742554 C209.36096609 841.27116215 207.60019922 841.27576372 205.83943498 841.28115618 C200.99994497 841.29339999 196.16052401 841.29312409 191.32102203 841.29076743 C186.10210095 841.29035962 180.88320212 841.30139495 175.66429138 841.31088257 C165.43946236 841.32750068 155.2146564 841.33299247 144.98981501 841.33410732 C136.68004927 841.33505733 128.37029114 841.33916525 120.0605278 841.34550858 C96.5073735 841.36312252 72.95423744 841.3723471 49.40107651 841.37084763 C48.13112361 841.37076772 46.8611707 841.3706878 45.55273438 841.37060547 C44.28123336 841.37052371 43.00973235 841.37044195 41.699701 841.37035771 C21.08693598 841.36954457 0.47424399 841.38868887 -20.1384999 841.4168822 C-41.29708589 841.4455941 -62.45563623 841.45942346 -83.6142422 841.45769465 C-95.49582352 841.4570302 -107.37732826 841.46254648 -119.25889206 841.48405075 C-129.37381839 841.50224015 -139.48863343 841.50662824 -149.60356902 841.4930319 C-154.76505889 841.4864912 -159.9263351 841.4864249 -165.08780479 841.5037384 C-169.81286166 841.51942516 -174.53753465 841.51665052 -179.2625819 841.49917014 C-180.97182195 841.49609056 -182.68109034 841.49976857 -184.39029698 841.51089029 C-201.65108093 841.61576607 -201.65108093 841.61576607 -209.0234375 835.25390625 C-209.46945312 834.69574219 -209.91546875 834.13757813 -210.375 833.5625 C-210.83648437 833.00691406 -211.29796875 832.45132813 -211.7734375 831.87890625 C-215.30767133 826.46500029 -215.33415664 821.44647986 -215.37109375 815.16796875 C-215.38012222 814.2173909 -215.3891507 813.26681305 -215.39845276 812.28742981 C-215.41293412 810.27946104 -215.42183673 808.27144531 -215.42553711 806.26342773 C-215.43742026 803.208003 -215.48661557 800.15460752 -215.53710938 797.09960938 C-215.54657612 795.14323896 -215.55380995 793.18685622 -215.55859375 791.23046875 C-215.57812607 790.32499802 -215.59765839 789.41952728 -215.61778259 788.48661804 C-215.56439871 780.89615478 -212.96550071 776.27440704 -207.9375 770.72265625 C-207.298125 770.17480469 -206.65875 769.62695312 -206 769.0625 C-205.0409375 768.21365234 -205.0409375 768.21365234 -204.0625 767.34765625 C-201.70728873 765.8087398 -199.76756078 765.37957865 -197 765 C-197.40992188 764.20335937 -197.81984375 763.40671875 -198.2421875 762.5859375 C-198.78101563 761.52632812 -199.31984375 760.46671875 -199.875 759.375 C-200.40867187 758.33085938 -200.94234375 757.28671875 -201.4921875 756.2109375 C-206.26493806 746.04720444 -206.72134192 734.31262342 -203.375 723.5625 C-198.7570716 711.78436903 -191.64061092 703.90132574 -182.20703125 695.69140625 C-149.85965775 669.27513862 -149.85965775 669.27513862 -133.3125 633.1875 C-133.43014447 626.92097141 -135.80940281 623.77944008 -140.0546875 619.3515625 C-144.61863326 613.83450357 -144.54680449 607.35683267 -144.4453125 600.484375 C-143.59291182 593.8147135 -139.83133476 589.48483288 -135 585.0625 C-132.00647485 583.00445146 -129.44254852 582.06623378 -126 581 C-127.50402145 577.07813633 -129.01193624 573.15779321 -130.52270508 569.23852539 C-131.03048136 567.91987669 -131.53738971 566.60089327 -132.04321289 565.28149414 C-136.09425648 554.71765044 -140.33000682 544.23355779 -144.60929871 533.76026917 C-149.50752656 521.77057788 -154.35374337 509.76036717 -159.17431641 497.73925781 C-160.15754709 495.28962014 -161.14220154 492.8406157 -162.12939453 490.39257812 C-163.58330186 486.78709756 -165.03020384 483.17882832 -166.4765625 479.5703125 C-166.91811676 478.47776154 -167.35967102 477.38521057 -167.81460571 476.259552 C-168.21948212 475.24593597 -168.62435852 474.23231995 -169.04150391 473.18798828 C-169.57464706 471.86119553 -169.57464706 471.86119553 -170.11856079 470.50759888 C-171.01004846 467.97141323 -171.70728493 465.67530539 -172 463 C-170.49176739 460.77137173 -169.06901748 459.00609135 -167.25 457.0625 C-166.22036119 455.90698888 -165.1930858 454.74936824 -164.16796875 453.58984375 C-163.37398682 452.70014893 -163.37398682 452.70014893 -162.56396484 451.79248047 C-160.11838036 448.98956425 -157.83947196 446.065309 -155.5625 443.125 C-154.64887333 441.95148347 -153.73480541 440.77831036 -152.8203125 439.60546875 C-152.13050293 438.72060791 -152.13050293 438.72060791 -151.42675781 437.81787109 C-148.95635104 434.67025835 -146.4446188 431.55588663 -143.9375 428.4375 C-140.2386253 423.83090785 -136.58634647 419.19472237 -133 414.5 C-128.91933223 409.1581842 -124.74237446 403.89961335 -120.53344727 398.65844727 C-117.14445638 394.4364447 -113.77917002 390.19705363 -110.4375 385.9375 C-109.98697266 385.36322266 -109.53644531 384.78894531 -109.07226562 384.19726562 C-107.71432079 382.46525277 -106.35702859 380.73273081 -105 379 C-99.34812696 371.78336903 -93.67695052 364.58477486 -87.9375 357.4375 C-84.22146994 352.80763354 -80.5467618 348.15110963 -76.9375 343.4375 C-69.04581102 333.13114284 -60.99620107 322.96617128 -52.78393555 312.91333008 C-48.49045702 307.64204602 -44.32690985 302.28376813 -40.21875 296.8671875 C-38.59573702 294.76984327 -36.94682731 292.76378988 -35.21875 290.7578125 C-32.79105132 288.33020985 -32.79105132 288.33020985 -33 286 C-37.71070486 286.6802726 -42.19891333 287.82477523 -46.75 289.1875 C-47.85275269 289.51415649 -47.85275269 289.51415649 -48.9777832 289.84741211 C-55.18830831 291.70905824 -61.34730174 293.7177107 -67.46655273 295.8605957 C-70.92740752 297.0573821 -74.1762783 298.03289317 -77.7890625 298.70703125 C-88.75313337 300.7855857 -93.16669468 307.04810709 -99.34716797 315.69775391 C-101.63143576 318.87953312 -104.00601497 321.98871726 -106.38647461 325.09887695 C-107.52498118 326.58943962 -108.65506454 328.08648288 -109.77563477 329.59057617 C-110.28537842 330.26967041 -110.79512207 330.94876465 -111.3203125 331.6484375 C-111.76648926 332.24833496 -112.21266602 332.84823242 -112.67236328 333.46630859 C-114.5169008 335.59712593 -116.18605067 336.90047677 -119.02203369 337.24723816 C-119.79367859 337.24581314 -120.56532349 337.24438812 -121.36035156 337.24291992 C-122.23846497 337.24599655 -123.11657837 337.24907318 -124.02130127 337.25224304 C-125.44161652 337.24146477 -125.44161652 337.24146477 -126.890625 337.23046875 C-127.86860046 337.23001053 -128.84657593 337.22955231 -129.85418701 337.2290802 C-131.92542736 337.22605774 -133.99666543 337.21817164 -136.06787109 337.20581055 C-139.22371571 337.18765124 -142.37926503 337.18530028 -145.53515625 337.18554688 C-147.54948168 337.18062758 -149.56380514 337.17479748 -151.578125 337.16796875 C-152.98629486 337.16629951 -152.98629486 337.16629951 -154.4229126 337.16459656 C-167.7933247 337.06883015 -167.7933247 337.06883015 -171.22265625 334.03125 C-171.82980469 333.1959375 -172.43695313 332.360625 -173.0625 331.5 C-173.72378906 330.6028125 -174.38507813 329.705625 -175.06640625 328.78125 C-175.70449219 327.8634375 -176.34257812 326.945625 -177 326 C-177.60714844 325.1440625 -178.21429688 324.288125 -178.83984375 323.40625 C-183 317.37647059 -183 317.37647059 -183 315 C-183.83192871 314.92483154 -183.83192871 314.92483154 -184.68066406 314.84814453 C-187.20461964 314.61538326 -189.72723539 314.37031964 -192.25 314.125 C-193.12269531 314.04636719 -193.99539063 313.96773438 -194.89453125 313.88671875 C-196.16103516 313.76103516 -196.16103516 313.76103516 -197.453125 313.6328125 C-198.61569824 313.52283936 -198.61569824 313.52283936 -199.80175781 313.41064453 C-202.31938041 312.94033787 -203.92521717 312.52811996 -206 311 C-206.83374023 308.45092773 -206.83374023 308.45092773 -207.30859375 305.18359375 C-207.49591064 303.95987061 -207.68322754 302.73614746 -207.8762207 301.4753418 C-208.0637695 300.12945795 -208.25085039 298.78350884 -208.4375 297.4375 C-208.64187104 296.05420569 -208.84787065 294.6711511 -209.05541992 293.28833008 C-209.49119241 290.36983825 -209.91702436 287.45011396 -210.33691406 284.52929688 C-210.99335232 279.99715507 -211.70719586 275.47513293 -212.4296875 270.953125 C-212.77872344 268.74559073 -213.12671522 266.5378952 -213.47415161 264.33010864 C-213.69733377 262.91679613 -213.92229092 261.50376261 -214.1491394 260.09103394 C-217.48691427 239.19483852 -217.48691427 239.19483852 -213.875 233.86328125 C-212.92625 233.02152344 -211.9775 232.17976562 -211 231.3125 C-210.49815186 230.85319092 -209.99630371 230.39388184 -209.47924805 229.9206543 C-208.01029117 228.58670925 -206.5057091 227.29231722 -205 226 C-204.26394531 225.3503125 -203.52789062 224.700625 -202.76953125 224.03125 C-201.48572074 222.90375175 -200.19424701 221.78490733 -198.89453125 220.67578125 C-196.13202151 218.23224171 -193.58273342 215.59182088 -190.99609375 212.96484375 C-189.07892823 211.07769256 -187.10424678 209.31314625 -185.0625 207.5625 C-182.07198284 204.99334729 -179.26883316 202.30682744 -176.5 199.5 C-173.13885518 196.0928121 -169.66298797 192.92541826 -166.03125 189.8125 C-163.76361428 187.7890712 -161.6342305 185.66346653 -159.5 183.5 C-156.8122154 180.7755846 -154.10183137 178.16739688 -151.1875 175.6875 C-147.6110116 172.62499795 -144.30610507 169.34719384 -141 166 C-137.17012943 162.12270804 -133.27948687 158.43756384 -129.125 154.90625 C-126.30606044 152.37749539 -123.66061424 149.69353754 -121 147 C-117.77601913 143.73617385 -114.56482153 140.53169859 -111.0625 137.5625 C-107.34042282 134.39989997 -103.93134196 130.97029022 -100.5 127.5 C-97.10994146 124.07154895 -93.74805992 120.67739258 -90.0625 117.5625 C-85.49435541 113.6926705 -81.36459977 109.38966177 -77.15722656 105.13769531 C-73.41680573 101.37294654 -69.61643729 97.74862468 -65.55078125 94.33203125 C-63.9656318 93.03658752 -63.9656318 93.03658752 -62.66796875 91.4609375 C-60.33429419 89.41692278 -57.94190018 88.75347543 -55 87.8125 C-53.948125 87.46832031 -52.89625 87.12414062 -51.8125 86.76953125 C-49 86 -49 86 -46 86 C-46.03029297 84.80850342 -46.06058594 83.61700684 -46.09179688 82.3894043 C-46.65767456 59.92384672 -47.20033314 37.47429663 -47 15 C-40.97282995 16.81336934 -35.57018756 19.03638446 -30.125 22.1875 C-29.43736572 22.58042236 -28.74973145 22.97334473 -28.04125977 23.37817383 C-19.34121297 28.4333183 -11.5831348 34.41776808 -4 41 C-2.51790326 27.34578963 -1.20926297 13.68100241 0 0 Z " fill="#050506" transform="translate(497,92)"/>
<path d="M0 0 C8.78569887 4.07766741 15.98280969 11.47648137 23 18 C23.59425781 18.54011719 24.18851563 19.08023438 24.80078125 19.63671875 C39.45189448 33.51856112 54.72816149 55.52763707 57 76 C57.86625 76.268125 58.7325 76.53625 59.625 76.8125 C75.77404925 82.49457288 89.50283363 93.92639926 101.62792969 105.67919922 C102.77778149 106.78608503 103.95252078 107.86703815 105.1328125 108.94140625 C116.8362427 119.88582737 125.81340102 133.78380818 133 148 C133.32194336 148.63679687 133.64388672 149.27359375 133.97558594 149.9296875 C140.83098913 163.68259463 145.8740621 177.95516339 149 193 C149.15243164 193.72380859 149.30486328 194.44761719 149.46191406 195.19335938 C157.08511996 233.29292406 151.11915298 274.54761357 143 312 C142.74814941 313.16370117 142.49629883 314.32740234 142.23681641 315.52636719 C140.77361036 322.24012538 139.26827148 328.94400374 137.75439453 335.64648438 C132.48173954 359.08505685 127.73899002 382.59842342 124.25 406.375 C124.07658081 407.53986938 124.07658081 407.53986938 123.8996582 408.72827148 C117.89050913 451.62273648 120.0475193 498.10958412 131 540 C131.60528338 542.3538798 132.20965557 544.70799439 132.8125 547.0625 C133.04582031 547.91972656 133.27914063 548.77695312 133.51953125 549.66015625 C134 552 134 552 134 557 C49.19 557 -35.62 557 -123 557 C-135.77933364 525.63254471 -135.77933364 525.63254471 -141.75 510.6171875 C-142.42209476 508.92854865 -143.09421455 507.23991975 -143.76635742 505.55130005 C-145.14827244 502.07863024 -146.52926758 498.60559635 -147.90966797 495.13232422 C-149.6698738 490.70389852 -151.43348128 486.27683551 -153.19784546 481.85006523 C-154.57563308 478.39164361 -155.95115466 474.93232403 -157.3260498 471.47275162 C-157.97586406 469.83870469 -158.62647901 468.20497591 -159.2779541 466.57159042 C-161.21083532 461.72398603 -163.12087275 456.86871665 -165 452 C-165.37547974 451.03246292 -165.75095947 450.06492584 -166.13781738 449.06806946 C-167.02148438 446.64916992 -167.02148438 446.64916992 -168 443 C-166.5958795 440.13546173 -165.60780923 438.6756015 -163.5 436.4375 C-162.46333694 435.23455139 -161.42688746 434.03141871 -160.390625 432.828125 C-159.83697266 432.20744141 -159.28332031 431.58675781 -158.71289062 430.94726562 C-155.78300062 427.61647847 -153.03121994 424.14237324 -150.25 420.6875 C-149.21390118 419.42027889 -148.1774494 418.15334627 -147.140625 416.88671875 C-143.69125696 412.64452389 -140.34355403 408.32577536 -137 404 C-123.69786001 386.83150078 -123.69786001 386.83150078 -116.9375 378.4375 C-112.7266284 373.20888451 -108.62078792 367.9102977 -104.5625 362.5625 C-99.72070375 356.18435061 -94.74227996 349.9377649 -89.66870117 343.74291992 C-85.4935201 338.63584097 -81.45316688 333.44110254 -77.44921875 328.19921875 C-70.92619834 319.66023066 -64.23328743 311.26047536 -57.4375 302.9375 C-53.51561519 298.13323419 -49.64260209 293.30134029 -45.875 288.375 C-45.08738281 287.34632813 -44.29976562 286.31765625 -43.48828125 285.2578125 C-42.17438064 283.5388589 -40.86210635 281.81871519 -39.55224609 280.09667969 C-38.06232568 278.14257507 -36.56321914 276.19581823 -35.0625 274.25 C-34.37099854 273.33613525 -34.37099854 273.33613525 -33.66552734 272.40380859 C-30.34109123 268.11369708 -30.34109123 268.11369708 -27 267 C-25.13598633 267.11450195 -25.13598633 267.11450195 -23.01953125 267.42578125 C2.78213629 270.66468069 27.18893474 266.16786849 48.25 250.25 C64.35650861 236.64547331 74.19686128 216.71322987 77 196 C77.3003883 192.11981874 77.38009288 188.26596336 77.375 184.375 C77.37693359 182.82425781 77.37693359 182.82425781 77.37890625 181.2421875 C77.25425869 172.08625759 75.65741943 163.73152098 73 155 C72.98541748 155.64324219 72.97083496 156.28648437 72.95581055 156.94921875 C72.20881318 186.55459863 67.43395378 214.10009071 46 236 C36.109076 244.69811609 24.83140765 250.94393919 12 254 C11.16210938 254.20496094 10.32421875 254.40992188 9.4609375 254.62109375 C-7.67594308 258.28606084 -24.30608934 255.19695625 -40.62109375 249.671875 C-49.76901413 247.85286656 -58.48438328 251.47389376 -67.125 254.25 C-68.42867331 254.66225532 -69.73254836 255.07387319 -71.03662109 255.48486328 C-78.71817735 257.91360391 -86.38292579 260.39199845 -93.98828125 263.05078125 C-97 264 -97 264 -99.98046875 264.54296875 C-108.25856175 266.06157064 -111.98141139 270.74068905 -116.74853516 277.29003906 C-118.01378507 279.01883547 -119.31695827 280.71097047 -120.63671875 282.3984375 C-122.29584087 284.52282255 -123.9414337 286.65489646 -125.578125 288.796875 C-125.97256302 289.3029277 -126.36700104 289.80898041 -126.77339172 290.33036804 C-128.05495375 292.02283513 -128.05495375 292.02283513 -129.22697449 294.02668762 C-132.76481816 299.54666934 -132.76481816 299.54666934 -136.04525757 300.75064087 C-138.45022573 301.04057027 -140.73842889 301.08386225 -143.16015625 301.02734375 C-144.02764999 301.03262589 -144.89514374 301.03790802 -145.78892517 301.04335022 C-147.61531696 301.04440825 -149.44181632 301.025592 -151.26782227 300.98803711 C-154.05974673 300.93754979 -156.84280691 300.96725634 -159.63476562 301.00585938 C-161.41409287 300.99697951 -163.19340428 300.98346454 -164.97265625 300.96484375 C-165.80297867 300.97587631 -166.63330109 300.98690887 -167.48878479 300.99827576 C-173.12230526 300.8158534 -173.12230526 300.8158534 -175.6701355 298.44754028 C-179 293.95020769 -179 293.95020769 -179 291 C-178.07380859 290.76216797 -178.07380859 290.76216797 -177.12890625 290.51953125 C-162.03382891 286.36091786 -152.49285585 278.01839172 -144 265 C-143.32141507 263.67269268 -142.65247729 262.34033414 -142 261 C-142.92111572 261.55929199 -142.92111572 261.55929199 -143.86083984 262.12988281 C-146.69429439 263.84432235 -149.53454517 265.54718562 -152.375 267.25 C-153.34050781 267.83652344 -154.30601562 268.42304688 -155.30078125 269.02734375 C-163.79909704 274.10351895 -172.6495362 279.11889785 -182.7734375 279.1328125 C-184.1346875 279.13474609 -184.1346875 279.13474609 -185.5234375 279.13671875 C-186.93496094 279.13091797 -186.93496094 279.13091797 -188.375 279.125 C-189.30828125 279.12886719 -190.2415625 279.13273437 -191.203125 279.13671875 C-192.11320312 279.13542969 -193.02328125 279.13414062 -193.9609375 279.1328125 C-195.19529541 279.13112061 -195.19529541 279.13112061 -196.45458984 279.12939453 C-199.35825602 278.98178825 -202.14225069 278.52332307 -205 278 C-207.12864326 266.97228555 -209.07129425 255.92273136 -210.84472656 244.83227539 C-211.11817781 243.13210049 -211.39561495 241.43256252 -211.67675781 239.73364258 C-212.08990345 237.23648585 -212.49156678 234.73772304 -212.890625 232.23828125 C-213.0811142 231.10547478 -213.0811142 231.10547478 -213.27545166 229.94978333 C-213.88311809 226.0526946 -214.26003764 222.77755619 -213 219 C-211.19586571 216.88122468 -209.44752862 215.02320843 -207.4375 213.125 C-206.89101807 212.59398682 -206.34453613 212.06297363 -205.78149414 211.51586914 C-202.30988813 208.16706128 -198.73323532 204.96443502 -195.05859375 201.83984375 C-191.9300108 199.04370984 -189.01602391 196.03673816 -186.07055664 193.05102539 C-182.82619226 189.77962934 -179.46373664 186.73028962 -175.9609375 183.7421875 C-173.71368115 181.7456211 -171.61105073 179.63987054 -169.5 177.5 C-166.8122154 174.7755846 -164.10183137 172.16739688 -161.1875 169.6875 C-157.61101211 166.62499839 -154.30609895 163.34720041 -151 160 C-147.12743156 156.07934752 -143.19207752 152.34595806 -138.9921875 148.7734375 C-136.56062019 146.60886582 -134.28788919 144.31570547 -132 142 C-129.18543426 139.15136993 -126.37264748 136.39470688 -123.3125 133.8125 C-118.47919177 129.68794573 -114.07544139 125.12655343 -109.63012695 120.59301758 C-106.52554227 117.44579764 -103.38162065 114.41701847 -100.03125 111.53125 C-95.8076119 107.88933509 -91.90341837 103.97965701 -88 100 C-83.43843594 95.34934289 -78.82497352 90.87771602 -73.85571289 86.66186523 C-72.14012458 85.12548718 -70.69144237 83.52008563 -69.18359375 81.78515625 C-65.27690769 77.82860319 -60.30879193 76.81491458 -55.0625 75.4375 C-54.01143066 75.14794434 -52.96036133 74.85838867 -51.87744141 74.56005859 C-36.50050381 70.40431557 -21.00547368 66.30513035 -5 66 C-5.0097435 65.33441574 -5.019487 64.66883148 -5.02952576 63.983078 C-5.08494189 57.24819551 -4.7580214 50.63169919 -4.16015625 43.92578125 C-4.07374374 42.91710495 -3.98733124 41.90842865 -3.89830017 40.8691864 C-3.71637142 38.75561896 -3.53222893 36.64224098 -3.34594727 34.52905273 C-3.06234905 31.31078699 -2.78546566 28.09199794 -2.50976562 24.87304688 C-2.33111833 22.80725798 -2.15209481 20.74150157 -1.97265625 18.67578125 C-1.8491555 17.24737663 -1.8491555 17.24737663 -1.72315979 15.79011536 C-1.25620365 10.50894694 -0.69272018 5.25643314 0 0 Z " fill="#FDFDFD" transform="translate(509,115)"/>
<path d="M0 0 C1.12880803 -0.00865438 2.25761606 -0.01730876 3.4206304 -0.02622539 C7.19957233 -0.04780029 10.97704012 -0.02652572 14.75596619 -0.00532532 C17.46646796 -0.00851145 20.17691337 -0.02065536 22.88739014 -0.03231812 C29.48264699 -0.05512378 36.07747957 -0.04568005 42.67272789 -0.02481725 C48.03295293 -0.0085233 53.3930623 -0.0043361 58.75330925 -0.00878334 C59.51662819 -0.00941402 60.27994712 -0.01004469 61.06639693 -0.01069448 C62.61712384 -0.01204055 64.16785071 -0.01342012 65.71857756 -0.01483283 C80.25363038 -0.0267648 94.78845076 -0.00271536 109.32345068 0.03418525 C121.79322564 0.06508373 134.26273314 0.06744569 146.73252869 0.04838562 C161.21761044 0.02627065 175.7025423 0.02013137 190.18763155 0.04070824 C191.73230038 0.04287116 193.27696923 0.04502026 194.82163811 0.04715538 C195.58162335 0.04822175 196.3416086 0.04928811 197.1246237 0.05038679 C202.47846602 0.05685444 207.83223115 0.05209251 213.18606758 0.04313087 C219.71050633 0.0325924 226.23463145 0.04010511 232.75901229 0.07058666 C236.08759383 0.08570962 239.4152686 0.09020058 242.743927 0.07839584 C246.3525073 0.06700238 249.95964977 0.08629813 253.56811523 0.11352539 C255.14559 0.09781816 255.14559 0.09781816 256.75493294 0.08179361 C261.36010829 0.14668798 264.67895939 0.20937236 268.35509396 3.17027569 C271.43504836 6.53593192 272.28759402 8.76918012 272.27915955 13.39970398 C271.3009206 17.52472555 268.45071152 20.27137309 265.6658783 23.36064148 C260.48066564 29.7432426 261.18001155 36.9002439 261.7205658 44.75517273 C265.23483158 65.89567782 282.71753932 84.6247847 298.66197205 97.95048523 C301.30346305 100.26617563 303.7569045 102.75420228 306.2205658 105.25517273 C309.37629827 108.45469728 312.56220317 111.57239559 315.9705658 114.50517273 C325.03801063 122.34879065 331.77468685 129.80018451 332.95884705 142.26298523 C333.23660583 152.0576371 330.80767199 160.62122481 324.1791755 168.00541413 C318.97323037 171.71041344 312.25739969 170.8434248 306.11325073 170.76431274 C304.5027919 170.77281772 302.89234837 170.78481329 301.28193861 170.79999262 C296.8622493 170.83144381 292.44396354 170.81301475 288.02429473 170.78631103 C283.25594073 170.76615724 278.48780612 170.79206017 273.71948242 170.81207275 C264.38095769 170.84380231 255.04296043 170.83238844 245.70443862 170.80574661 C238.11594339 170.78495219 230.52759315 170.78013185 222.93907356 170.78676033 C221.85936345 170.78769747 220.77965333 170.78863461 219.66722472 170.78960015 C217.47387981 170.79158564 215.28053493 170.79361364 213.0871901 170.79568369 C192.51751109 170.81332621 171.94812222 170.78269364 151.37850476 170.73506487 C133.72377633 170.69523034 116.06940407 170.69442022 98.41465759 170.72270203 C77.91746167 170.75550672 57.42046871 170.76588411 36.92325693 170.73915488 C34.73825207 170.73635481 32.55324718 170.73357697 30.36824226 170.73082161 C29.29314845 170.72944669 28.21805463 170.72807178 27.11038221 170.7266552 C19.52934725 170.71845425 11.9484231 170.72614547 4.36739922 170.73980522 C-4.86897957 170.75593914 -14.1049291 170.74696269 -23.3412369 170.70578795 C-28.05504932 170.68538335 -32.76817317 170.6762077 -37.48199844 170.69727707 C-41.79586949 170.71622901 -46.10838613 170.70295054 -50.42210978 170.66376323 C-51.98388919 170.65523756 -53.54578656 170.6585498 -55.10750485 170.67478525 C-66.78326944 170.78643565 -66.78326944 170.78643565 -70.51163375 168.21658242 C-72.05406385 166.45859335 -73.19129424 164.81783237 -74.2794342 162.75517273 C-74.74994202 162.0100946 -75.22044983 161.26501648 -75.70521545 160.49736023 C-75.99783264 159.88118835 -76.29044983 159.26501648 -76.5919342 158.63017273 C-76.89744202 158.0088446 -77.20294983 157.38751648 -77.51771545 156.74736023 C-80.72457535 148.3601882 -80.0913636 139.51419702 -76.7403717 131.33720398 C-72.69801201 124.19281959 -67.36417088 118.63414463 -61.3419342 113.13017273 C-60.60048157 112.44141052 -59.85902893 111.75264832 -59.09510803 111.04301453 C-56.1474426 108.3069506 -53.18572851 105.58640849 -50.22181702 102.8679657 C-21.70711903 77.380091 -21.70711903 77.380091 -7.9434967 42.95048523 C-7.7246768 33.07112734 -8.57469746 26.60201785 -15.5294342 19.31767273 C-17.90565668 16.65581738 -18.81076112 14.77015153 -19.0919342 11.19267273 C-18.74108116 7.69426217 -18.01952962 5.91931537 -15.43361759 3.52502728 C-10.63027732 -0.30168938 -5.93415051 -0.07954156 0 0 Z " fill="#DFDFDE" transform="translate(385.27943420410156,685.2448272705078)"/>
<path d="M0 0 C68.97 0 137.94 0 209 0 C210.65 5.61 212.3 11.22 214 17 C215.54661915 20.47864983 217.02812516 23.65485721 218.875 26.9375 C219.30409668 27.72890381 219.73319336 28.52030762 220.17529297 29.33569336 C223.06475846 34.57844042 226.1871095 39.52180946 229.8203125 44.28515625 C231 46 231 46 231 48 C231.66 48 232.32 48 233 48 C234.59375 49.9140625 234.59375 49.9140625 236.5 52.625 C237.20382812 53.62015625 237.90765625 54.6153125 238.6328125 55.640625 C239.01211914 56.18138672 239.39142578 56.72214844 239.78222656 57.27929688 C241.063799 59.09014742 242.36887419 60.88209257 243.6796875 62.671875 C244.57819854 63.90619647 245.47663711 65.1405707 246.375 66.375 C246.80361328 66.95717285 247.23222656 67.5393457 247.67382812 68.13916016 C252.44154414 74.74514626 253.86337115 79.93744176 253 88 C251.39875543 91.76292473 249.45444189 93.84097382 246 96 C242.95312491 97.01562503 240.91492842 97.12431843 237.72700214 97.12304783 C236.62724279 97.12503888 235.52748343 97.12702993 234.39439803 97.12908131 C232.57486917 97.12471205 232.57486917 97.12471205 230.71858215 97.12025452 C229.43378344 97.12110894 228.14898472 97.12196337 226.82525271 97.12284368 C223.25192538 97.12508541 219.67862789 97.12107174 216.10530436 97.11606562 C212.25460537 97.11175671 208.40390812 97.11320786 204.5532074 97.1139679 C197.87923088 97.11449285 191.20526412 97.11134902 184.53129005 97.10573006 C174.88178327 97.09761121 165.23228121 97.09499944 155.58277138 97.09374207 C139.92798098 97.09155215 124.27319578 97.08489371 108.6184082 97.07543945 C93.40909857 97.06626377 78.19979035 97.0591837 62.99047852 97.05493164 C62.05335007 97.05466892 61.11622163 97.05440619 60.15069536 97.05413551 C55.4495089 97.05283049 50.74832243 97.05156678 46.04713595 97.05032361 C7.03142032 97.03995288 -31.9842895 97.02233621 -71 97 C-71.1072863 86.6862606 -67.62345595 81.01909727 -60.59765625 73.58203125 C-56.43316734 69.4425919 -52.09932436 65.50041534 -47.73779297 61.57177734 C-27.26671683 43.05635332 -10.99328609 25.65100089 0 0 Z " fill="#FDFDFD" transform="translate(378,731)"/>
<path d="M0 0 C3.78101812 3.5298316 6.62476992 7.15334208 9.25 11.625 C9.6305957 12.26816162 10.01119141 12.91132324 10.40332031 13.57397461 C20.45460924 30.92461015 27.91746375 49.35114812 32 69 C32.15243164 69.72380859 32.30486328 70.44761719 32.46191406 71.19335938 C40.08511996 109.29292406 34.11915298 150.54761357 26 188 C25.74814941 189.16370117 25.49629883 190.32740234 25.23681641 191.52636719 C23.77361036 198.24012538 22.26827148 204.94400374 20.75439453 211.64648438 C15.48173954 235.08505685 10.73899002 258.59842342 7.25 282.375 C7.07658081 283.53986938 7.07658081 283.53986938 6.8996582 284.72827148 C0.89050913 327.62273648 3.0475193 374.10958412 14 416 C14.60528338 418.3538798 15.20965557 420.70799439 15.8125 423.0625 C16.04582031 423.91972656 16.27914063 424.77695312 16.51953125 425.66015625 C17 428 17 428 17 433 C-67.81 433 -152.62 433 -240 433 C-252.83181271 401.50373244 -252.83181271 401.50373244 -258.78515625 386.546875 C-259.27929425 385.30631222 -259.27929425 385.30631222 -259.78341484 384.04068756 C-261.51166715 379.70175171 -263.23871646 375.36233968 -264.96459961 371.02246094 C-266.73327414 366.57566137 -268.50619323 362.13056605 -270.27997684 357.68580246 C-271.66258342 354.21911019 -273.04216998 350.75122198 -274.42092705 347.28299713 C-275.07404402 345.64158929 -275.72827435 344.00062397 -276.38368416 342.36013031 C-277.29292934 340.08346882 -278.19787364 337.8051421 -279.10180664 335.52636719 C-279.36720749 334.86459473 -279.63260834 334.20282227 -279.90605164 333.52099609 C-281.53718446 329.39259527 -282.84358864 325.27845269 -284 321 C-272.56380448 321.89695651 -262.16086562 326.17242524 -251.80078125 330.828125 C-249.19850853 332.12866177 -249.19850853 332.12866177 -247 332 C-246.731875 331.2471875 -246.46375 330.494375 -246.1875 329.71875 C-242.76487398 320.4416321 -238.58924422 311.74627175 -234 303 C-233.65404785 302.32936523 -233.3080957 301.65873047 -232.95166016 300.96777344 C-227.57859163 290.60879513 -221.40309888 280.82740283 -214.9375 271.125 C-214.56240295 270.56090424 -214.18730591 269.99680847 -213.80084229 269.4156189 C-208.45690967 261.4020565 -202.85556976 253.64549734 -197 246 C-196.22692505 244.98921387 -196.22692505 244.98921387 -195.43823242 243.95800781 C-194.1758518 242.31910343 -192.90428318 240.68823457 -191.625 239.0625 C-191.1722168 238.48677246 -190.71943359 237.91104492 -190.25292969 237.31787109 C-185.31889498 231.08316907 -180.18037118 225.03027583 -175 219 C-174.34 218.21496094 -173.68 217.42992187 -173 216.62109375 C-169.30955654 212.27988013 -165.41625561 208.60510662 -161 205 C-162.61089997 209.71438523 -165.19103238 213.51884788 -167.9375 217.625 C-174.01167371 226.87214475 -179.5766191 236.35967132 -185 246 C-185.49145508 246.86786133 -185.98291016 247.73572266 -186.48925781 248.62988281 C-199.65195776 271.95029333 -210.81844394 295.91088175 -217.46386719 321.90722656 C-217.95250613 323.81460955 -218.46335521 325.71626768 -218.9765625 327.6171875 C-222.86128993 343.33762654 -222.55571316 356.83155653 -214.2734375 370.94140625 C-203.71604992 387.60296237 -189.50518855 401.93568891 -174 414 C-173.47760742 414.40992188 -172.95521484 414.81984375 -172.41699219 415.2421875 C-167.64370112 419.01096547 -167.64370112 419.01096547 -162.76655579 422.64161682 C-161 424 -161 424 -159.27287292 425.75669861 C-150.54365774 433.5903164 -139.3474271 431.87506064 -128.3671875 431.68359375 C-126.16189145 431.67052245 -123.95657494 431.66056552 -121.75125122 431.65357971 C-115.97382539 431.62697517 -110.19765026 431.55831737 -104.42071533 431.48065186 C-98.51502395 431.40877876 -92.60912857 431.37701684 -86.703125 431.34179688 C-75.13487004 431.26693983 -63.56753941 431.14761761 -52 431 C-52.0590108 430.34748827 -52.1180216 429.69497654 -52.17882061 429.02269173 C-52.44861727 426.02461021 -52.71493161 423.02622878 -52.98120117 420.02783203 C-53.07407158 419.00160233 -53.16694199 417.97537262 -53.26262665 416.91804504 C-54.00152544 408.55372317 -54.34827218 400.27558843 -54.3125 391.875 C-54.31076279 390.85179657 -54.31076279 390.85179657 -54.30899048 389.80792236 C-54.24777335 371.22090401 -52.81952681 352.49409118 -48.73046875 334.33203125 C-47.93762606 330.71548143 -47.38061659 327.09588133 -46.8125 323.4375 C-40.80864541 287.65942774 -27.28526214 252.75067794 -14.49609375 218.984375 C-11.88807826 212.07501344 -9.38835097 205.12529963 -6.87890625 198.1796875 C-5.80131788 195.19766168 -4.70798149 192.2250589 -3.58984375 189.2578125 C-0.31624178 180.47908567 2.1337 171.53734719 4.52734375 162.48828125 C5.40477193 159.1757755 6.31808205 155.88351433 7.31640625 152.60546875 C8.68069454 148.10189019 9.88375733 143.57123837 11 139 C11.23138672 138.05592285 11.46277344 137.1118457 11.70117188 136.13916016 C15.5917757 119.46702656 16.46123711 103.30724491 16.4375 86.25 C16.43763092 85.27212524 16.43776184 84.29425049 16.43789673 83.28674316 C16.39921537 67.19732306 15.41799127 51.51592203 11.6875 35.8125 C11.4716626 34.88614746 11.2558252 33.95979492 11.03344727 33.00537109 C8.81154936 23.75564471 6.0354382 14.80935105 1.6875 6.3125 C0 3 0 3 0 0 Z " fill="#DEDFDE" transform="translate(626,239)"/>
<path d="M0 0 C0.69951694 -0.00350607 1.39903387 -0.00701215 2.11974829 -0.01062447 C4.47539174 -0.01996513 6.83078942 -0.01500834 9.18644333 -0.01015663 C10.88773862 -0.01389156 12.58903219 -0.01849245 14.29032302 -0.02388728 C18.97471028 -0.03615233 23.65902632 -0.03585269 28.34342599 -0.03349853 C33.39196521 -0.03309124 38.44048133 -0.04412112 43.48900986 -0.05361366 C53.38390888 -0.07024419 63.27878407 -0.07572415 73.17369589 -0.07683842 C81.2155843 -0.07778799 89.25746482 -0.08189372 97.29935074 -0.08823967 C120.08959607 -0.10585822 142.87982254 -0.11507766 165.67007473 -0.11357872 C167.51397339 -0.11345885 167.51397339 -0.11345885 169.39512253 -0.11333656 C171.24126764 -0.11321392 171.24126764 -0.11321392 173.12470862 -0.1130888 C193.07154963 -0.11227588 213.01831513 -0.13141343 232.96513429 -0.1596133 C253.4366096 -0.18832694 273.90804806 -0.20215441 294.37954402 -0.20042574 C305.87662362 -0.19976128 317.37362409 -0.20527804 328.87068558 -0.22678185 C338.65994109 -0.24497372 348.44908159 -0.24935743 358.23834667 -0.235763 C363.23375338 -0.22922309 368.22893933 -0.22915302 373.22432518 -0.2464695 C377.79773149 -0.2621602 382.37074126 -0.25937759 386.94413766 -0.24190123 C388.59825622 -0.23882248 390.25240408 -0.2424966 391.90648809 -0.25362138 C407.6681568 -0.3526041 407.6681568 -0.3526041 414.08018112 4.25726891 C416.55879759 8.26157275 416.42045814 12.23400728 416.45127487 16.81976891 C416.46030334 17.64807213 416.46933182 18.47637535 416.47863388 19.32977867 C416.49311689 21.07803301 416.50201827 22.82634131 416.50571823 24.57465172 C416.5176417 27.24842791 416.56686496 29.9199152 416.6172905 32.59320641 C416.62675223 34.293716 416.63398846 35.99423973 416.63877487 37.69476891 C416.65830719 38.49277916 416.67783951 39.29078941 416.69796371 40.1129818 C416.66815242 43.77984488 416.55700079 45.75236065 413.99220848 48.46824026 C410.3611988 50.69898178 408.13652876 50.75847365 403.88837814 50.76063347 C403.17161321 50.76644723 402.45484828 50.77226099 401.71636319 50.77825093 C399.3078358 50.79288153 396.90032265 50.7789522 394.49180222 50.76520348 C392.75037934 50.7698112 391.00896035 50.77616325 389.26754951 50.78411245 C384.47692972 50.80084662 379.68662769 50.79254087 374.89600658 50.78016758 C369.73164758 50.77113611 364.56734412 50.78507735 359.40299606 50.79608727 C349.28394577 50.81389744 339.16501398 50.81002138 329.045959 50.7984367 C320.82385629 50.78941248 312.60178686 50.788174 304.37968063 50.79253197 C302.62605856 50.79345137 302.62605856 50.79345137 300.83700979 50.79438934 C298.4622321 50.79566821 296.08745443 50.79696506 293.71267676 50.7982797 C271.43108272 50.80969282 249.14955444 50.79656031 226.86797118 50.77507824 C207.73880509 50.75720661 188.60973609 50.76031051 169.48057175 50.77875328 C147.28009123 50.80014706 125.07966839 50.80859412 102.879179 50.79630423 C100.51301321 50.79503 98.14684742 50.79377251 95.78068161 50.79253197 C94.03426756 50.79160631 94.03426756 50.79160631 92.25257242 50.79066196 C84.03792907 50.78720458 75.82332223 50.79304575 67.60868454 50.80245018 C57.60123308 50.81365496 47.59390716 50.81066215 37.58647013 50.7893272 C32.47802347 50.77879632 27.36978632 50.77472964 22.26134109 50.78792381 C17.58819724 50.79981136 12.91545779 50.79334544 8.24235082 50.7720136 C6.54861771 50.76753207 4.85485069 50.76984843 3.16113925 50.77951676 C0.86426383 50.79162605 -1.43121425 50.77926309 -3.7280159 50.76063347 C-5.00534277 50.75998406 -6.28266964 50.75933465 -7.59870338 50.75866556 C-11.53244573 50.16477918 -13.20120078 49.12936026 -15.91981888 46.25726891 C-16.42798085 43.2355269 -16.62248829 40.78514057 -16.58388138 37.76508141 C-16.58866501 36.94152153 -16.59344864 36.11796165 -16.59837723 35.26944542 C-16.6017749 33.52952729 -16.59258149 31.78954521 -16.57167435 30.04974937 C-16.54497128 27.3974067 -16.57138707 24.74932155 -16.60341263 22.09711266 C-16.60010717 20.40309295 -16.5936981 18.70907589 -16.58388138 17.01508141 C-16.59400253 16.22739372 -16.60412369 15.43970604 -16.61455154 14.62814903 C-16.53030516 10.63293272 -16.14289067 8.02234677 -13.62831497 4.83490562 C-9.10076155 0.52609825 -6.24476823 0.00704545 0 0 Z " fill="#FEFEFE" transform="translate(311.9198188781738,868.7427310943604)"/>
<path d="M0 0 C6.18470414 1.24278925 12.06338095 2.8766837 18 5 C19.14082031 5.38800781 20.28164063 5.77601563 21.45703125 6.17578125 C55.39133126 18.02228303 86.44971541 41.45843973 107 71 C107.63832764 71.8964624 107.63832764 71.8964624 108.28955078 72.81103516 C134.23685736 109.54212938 144.49818097 153.26854192 144.3125 197.6875 C144.30926727 199.09619858 144.30926727 199.09619858 144.30596924 200.53335571 C144.24394368 217.51957423 143.12844418 234.13808425 141 251 C140.76688219 252.86781264 140.53398646 254.735653 140.30126953 256.60351562 C140.04601536 258.64715002 139.79064077 260.69076939 139.53515625 262.734375 C139.40484009 263.77696976 139.27452393 264.81956451 139.14025879 265.89375305 C138.49212808 271.06461533 137.83542514 276.23404979 137.15771484 281.40112305 C134.48331996 301.95552859 132.6140965 322.38541138 132.75 343.125 C132.75310181 343.98530823 132.75620361 344.84561646 132.75939941 345.73199463 C132.81479898 358.91556825 133.23296783 371.92104524 135 385 C135.1853833 386.47654053 135.1853833 386.47654053 135.37451172 387.98291016 C138.58553195 413.18455381 145.09488523 436.97819981 154.17138672 460.67944336 C154.92007267 462.77616107 155.47778209 464.83875317 156 467 C150.4729199 470.64481666 144.9450753 474.28847175 139.41674805 477.93139648 C137.54418445 479.16551697 135.67178306 480.39988363 133.79956055 481.63452148 C124.37283687 487.8507493 114.94145946 494.05921902 105.46484375 500.19921875 C104.77910782 500.64401077 104.09337189 501.0888028 103.38685608 501.54707336 C93.40271642 508 93.40271642 508 91 508 C80.008792 467.71839196 76.60959312 424.46323357 82 383 C82.16974276 381.60682825 82.33902935 380.21360083 82.5078125 378.8203125 C83.95005359 367.44263278 85.90054353 356.17358113 88.1875 344.9375 C88.6304072 342.74483183 89.07310304 340.55212095 89.515625 338.359375 C89.75345703 337.18310547 89.99128906 336.00683594 90.23632812 334.79492188 C91.05552299 330.72408909 91.86479299 326.65137191 92.671875 322.578125 C93.25987782 319.61447614 93.8484624 316.65094336 94.4375 313.6875 C94.58591339 312.94069977 94.73432678 312.19389954 94.88723755 311.42446899 C96.64072358 302.61597582 98.45103243 293.82486169 100.37426758 285.05151367 C114.44548578 220.82727062 119.46639951 152.47553283 82.50683594 94.64355469 C66.88092951 71.11861584 47.17708757 52.78119557 22.96875 38.34765625 C22.28006836 37.93322266 21.59138672 37.51878906 20.88183594 37.09179688 C19.32925342 36.19102508 17.7243288 35.38112708 16.109375 34.59765625 C13.0710763 32.29642631 12.73304269 30.01849948 11.75 26.375 C9.43211824 18.43277371 5.78679217 11.50398399 1.79296875 4.2890625 C0 1 0 1 0 0 Z " fill="#FCFCFB" transform="translate(562,149)"/>
<path d="M0 0 C35.53155747 9.51738146 66.35988342 43.81254594 84.00439453 74.25341797 C117.53562969 133.07697273 111.82269631 198.38537296 101.55078125 262.52685547 C100.4106779 269.71617741 99.39605571 276.92296786 98.39892578 284.13330078 C98.10409356 286.25197885 97.80493534 288.37005595 97.50341797 290.48779297 C96.95228099 294.36573868 96.41282217 298.24518712 95.875 302.125 C95.70411865 303.31569092 95.5332373 304.50638184 95.35717773 305.7331543 C92.96009458 323.28190507 92.7607536 340.9386007 92.75 358.625 C92.74932526 359.63535309 92.74865051 360.64570618 92.74795532 361.68667603 C92.76416436 377.02481481 93.37015019 391.85976219 96 407 C96.17160645 408.06557129 96.34321289 409.13114258 96.52001953 410.22900391 C99.06130688 425.96954246 102.69317633 441.19792717 107.32324219 456.45239258 C108.07506059 459.28256032 108.55839344 462.10663388 109 465 C105.27182252 467.43901555 101.54228603 469.87594512 97.8125 472.3125 C96.22985352 473.34793945 96.22985352 473.34793945 94.61523438 474.40429688 C93.59365234 475.07138672 92.57207031 475.73847656 91.51953125 476.42578125 C90.58214111 477.03848877 89.64475098 477.65119629 88.67895508 478.2824707 C81.3206823 483 81.3206823 483 79 483 C68.008792 442.71839196 64.60959312 399.46323357 70 358 C70.16974276 356.60682825 70.33902935 355.21360083 70.5078125 353.8203125 C71.95005359 342.44263278 73.90054353 331.17358113 76.1875 319.9375 C76.6304072 317.74483183 77.07310304 315.55212095 77.515625 313.359375 C77.75345703 312.18310547 77.99128906 311.00683594 78.23632812 309.79492188 C79.05552299 305.72408909 79.86479299 301.65137191 80.671875 297.578125 C81.25987782 294.61447614 81.8484624 291.65094336 82.4375 288.6875 C82.58591339 287.94069977 82.73432678 287.19389954 82.88723755 286.42446899 C84.64072358 277.61597582 86.45103243 268.82486169 88.37426758 260.05151367 C102.44548578 195.82727062 107.46639951 127.47553283 70.50683594 69.64355469 C54.88092951 46.11861584 35.17708757 27.78119557 10.96875 13.34765625 C9.93754028 12.73071899 9.93754028 12.73071899 8.88549805 12.10131836 C7.29775845 11.17392054 5.67735919 10.30276683 4.05078125 9.4453125 C0.56742615 6.99037652 0.7305255 4.05109598 0 0 Z " fill="#DCDDDD" transform="translate(574,174)"/>
<path d="M0 0 C1.12880803 -0.00865438 2.25761606 -0.01730876 3.4206304 -0.02622539 C7.19957233 -0.04780029 10.97704012 -0.02652572 14.75596619 -0.00532532 C17.46646796 -0.00851145 20.17691337 -0.02065536 22.88739014 -0.03231812 C29.48264699 -0.05512378 36.07747957 -0.04568005 42.67272789 -0.02481725 C48.03295293 -0.0085233 53.3930623 -0.0043361 58.75330925 -0.00878334 C59.51662819 -0.00941402 60.27994712 -0.01004469 61.06639693 -0.01069448 C62.61712384 -0.01204055 64.16785071 -0.01342012 65.71857756 -0.01483283 C80.25363038 -0.0267648 94.78845076 -0.00271536 109.32345068 0.03418525 C121.79322564 0.06508373 134.26273314 0.06744569 146.73252869 0.04838562 C161.21761044 0.02627065 175.7025423 0.02013137 190.18763155 0.04070824 C191.73230038 0.04287116 193.27696923 0.04502026 194.82163811 0.04715538 C195.58162335 0.04822175 196.3416086 0.04928811 197.1246237 0.05038679 C202.47846602 0.05685444 207.83223115 0.05209251 213.18606758 0.04313087 C219.71050633 0.0325924 226.23463145 0.04010511 232.75901229 0.07058666 C236.08759383 0.08570962 239.4152686 0.09020058 242.743927 0.07839584 C246.3525073 0.06700238 249.95964977 0.08629813 253.56811523 0.11352539 C255.14559 0.09781816 255.14559 0.09781816 256.75493294 0.08179361 C261.36010829 0.14668798 264.67895939 0.20937236 268.35509396 3.17027569 C271.69118057 6.81582338 271.8616774 8.76640796 272.0486908 13.68486023 C271.60907133 16.4586497 270.63246826 17.71129593 268.7205658 19.75517273 C266.530406 20.25656939 266.530406 20.25656939 263.92446899 20.25853729 C262.43435791 20.27418378 262.43435791 20.27418378 260.91414356 20.29014635 C259.81989913 20.28122346 258.7256547 20.27230058 257.59825134 20.2631073 C255.85798817 20.27246724 255.85798817 20.27246724 254.08256817 20.28201628 C250.85688664 20.29524021 247.63180389 20.29044132 244.40613699 20.2780714 C240.92958426 20.26904334 237.45311421 20.28297942 233.97657776 20.29399109 C227.1639592 20.31180505 220.35151662 20.30792362 213.53889108 20.29634053 C208.00359922 20.28731774 202.46835679 20.28607718 196.93305969 20.29043579 C195.75266476 20.29135519 195.75266476 20.29135519 194.54842347 20.29229316 C192.94993725 20.29357202 191.35145104 20.29486888 189.75296485 20.29618353 C174.75358403 20.30759775 159.7543009 20.29446245 144.7549361 20.27298206 C131.87656842 20.2551103 118.99834494 20.25821417 106.11997986 20.2766571 C91.17535558 20.29804899 76.23081699 20.30649903 61.28617954 20.29420805 C59.69347701 20.29293381 58.10077446 20.29167633 56.5080719 20.29043579 C55.72437168 20.28981869 54.94067147 20.28920159 54.13322276 20.28856578 C48.60269506 20.28510782 43.07222157 20.2909508 37.54170227 20.300354 C30.80450208 20.31155673 24.06748837 20.30857054 17.33030963 20.28723103 C13.89091013 20.2766971 10.45182187 20.2726381 7.01242447 20.28582764 C3.28892827 20.29668785 -0.43368075 20.28313368 -4.15711975 20.2631073 C-5.7984864 20.27649163 -5.7984864 20.27649163 -7.47301197 20.29014635 C-8.46641936 20.27971536 -9.45982676 20.26928437 -10.4833374 20.25853729 C-11.34329661 20.25788788 -12.20325583 20.25723847 -13.08927441 20.25656939 C-15.2794342 19.75517273 -15.2794342 19.75517273 -17.04549885 17.85798979 C-18.41112531 15.53075067 -18.80081488 14.06485534 -18.9044342 11.38017273 C-18.95857483 10.65056335 -19.01271545 9.92095398 -19.0684967 9.16923523 C-16.20897778 0.42080603 -7.92008719 -0.10616112 0 0 Z " fill="#FCFCFC" transform="translate(385.27943420410156,685.2448272705078)"/>
<path d="M0 0 C52.47756632 -0.09152723 104.95512458 -0.16202435 157.43275499 -0.20426132 C163.62623132 -0.20926423 169.8197075 -0.21444151 176.01318359 -0.21972656 C177.24620901 -0.2207758 178.47923443 -0.22182505 179.74962425 -0.22290608 C199.72257764 -0.24031801 219.69548504 -0.27186006 239.66841114 -0.30861118 C260.15783174 -0.34599864 280.64722824 -0.36823121 301.13668156 -0.37635398 C313.78287281 -0.38184629 326.42893409 -0.39920217 339.07508534 -0.43166587 C347.7434423 -0.45278663 356.41173193 -0.45920556 365.08011276 -0.45400551 C370.0836014 -0.45143995 375.08686269 -0.45541187 380.09031105 -0.4768219 C384.67126413 -0.49628107 389.25183687 -0.49727408 393.83280742 -0.48359558 C395.48974322 -0.48190491 397.1467027 -0.48698449 398.80359185 -0.49953273 C414.59074888 -0.61213957 414.59074888 -0.61213957 421 4 C423.47842553 8.0044651 423.34027648 11.97665944 423.37109375 16.5625 C423.38012222 17.39080322 423.3891507 18.21910645 423.39845276 19.07250977 C423.41293577 20.8207641 423.42183715 22.5690724 423.42553711 24.31738281 C423.43746057 26.99115901 423.48668384 29.66264629 423.53710938 32.3359375 C423.54657111 34.03644709 423.55380734 35.73697082 423.55859375 37.4375 C423.57812607 38.23551025 423.59765839 39.03352051 423.61778259 39.85571289 C423.58797484 43.52214077 423.47631995 45.49525057 420.91290027 48.21166968 C417.27569167 50.44467796 415.04884633 50.49723981 410.79423046 50.49219131 C410.07596754 50.49680669 409.35770463 50.50142207 408.61767617 50.50617731 C406.20407069 50.51678894 403.79152658 50.49880235 401.37797546 50.48101807 C399.63299189 50.48276199 397.88800933 50.48626361 396.14303237 50.49137473 C391.34273124 50.50033371 386.542786 50.48429839 381.74253023 50.46426249 C376.56806398 50.44701518 371.39361837 50.45283226 366.21913147 50.45587158 C357.25226256 50.45797067 348.28550993 50.44540309 339.31867027 50.42292023 C326.35408766 50.39043481 313.38956137 50.37999675 300.42494247 50.37496826 C279.39158015 50.36621018 258.35827982 50.33958067 237.32495117 50.30175781 C216.89103506 50.26505101 196.45713578 50.23673273 176.02319336 50.21972656 C174.76399484 50.21867567 173.50479633 50.21762477 172.20744028 50.21654204 C165.89051549 50.21132195 159.57359058 50.2062671 153.25666559 50.20129442 C100.83773421 50.15981641 48.41887013 50.089354 -4 50 C-4 49.67 -4 49.34 -4 49 C-3.29055308 48.99978263 -2.58110615 48.99956526 -1.85016084 48.99934131 C40.16960458 48.98583422 82.18927568 48.94639612 124.2089815 48.87314438 C129.25097433 48.86437731 134.29296751 48.85582756 139.33496094 48.84741211 C140.33875826 48.84573305 141.34255558 48.84405398 142.376771 48.84232404 C158.6438545 48.81563251 174.91090276 48.80655742 191.1780059 48.80395857 C207.8615777 48.80090234 224.54504739 48.778994 241.22857308 48.73947543 C251.52857611 48.71567512 261.82837549 48.706693 272.12840226 48.71648689 C279.18536132 48.72179041 286.24213739 48.70883167 293.29904434 48.6813371 C297.37450847 48.66600336 301.44956326 48.65888927 305.52503967 48.67340279 C309.25352942 48.68650341 312.98122395 48.67676238 316.70962361 48.64856227 C318.70291268 48.63950989 320.69626619 48.65516053 322.6895082 48.67157966 C323.86789331 48.65814102 325.04627841 48.64470238 326.26037216 48.63085651 C327.27954153 48.62971735 328.29871089 48.62857819 329.34876418 48.62740451 C332.99120444 47.76543537 334.01314205 46.08805284 336 43 C337.19607326 39.41178021 337.18103121 36.11188695 337.203125 32.375 C337.20882507 31.63169434 337.21452515 30.88838867 337.22039795 30.12255859 C337.22983425 28.55242329 337.23637649 26.9822683 337.24023438 25.41210938 C337.24996451 23.00876577 337.28100917 20.60626886 337.3125 18.203125 C337.31902803 16.67708841 337.32427929 15.15104571 337.328125 13.625 C337.3466452 12.54677979 337.3466452 12.54677979 337.36553955 11.44677734 C337.39373423 7.48394025 337.39373423 7.48394025 335.47949219 4.1484375 C334.99125977 3.76945313 334.50302734 3.39046875 334 3 C334 2.34 334 1.68 334 1 C223.78 1 113.56 1 0 1 C0 0.67 0 0.34 0 0 Z " fill="#D5D5D5" transform="translate(305,869)"/>
<path d="M0 0 C0.99 0.495 0.99 0.495 2 1 C1.39547437 32.68916652 -1.8579133 62.35482446 -25 86 C-34.890924 94.69811609 -46.16859235 100.94393919 -59 104 C-59.83789062 104.20496094 -60.67578125 104.40992188 -61.5390625 104.62109375 C-78.67594308 108.28606084 -95.30608934 105.19695625 -111.62109375 99.671875 C-120.76901413 97.85286656 -129.48438328 101.47389376 -138.125 104.25 C-139.42867331 104.66225532 -140.73254836 105.07387319 -142.03662109 105.48486328 C-149.71817735 107.91360391 -157.38292579 110.39199845 -164.98828125 113.05078125 C-168 114 -168 114 -170.98046875 114.54296875 C-179.25856175 116.06157064 -182.98141139 120.74068905 -187.74853516 127.29003906 C-189.01378507 129.01883547 -190.31695827 130.71097047 -191.63671875 132.3984375 C-193.29584087 134.52282255 -194.9414337 136.65489646 -196.578125 138.796875 C-196.97256302 139.3029277 -197.36700104 139.80898041 -197.77339172 140.33036804 C-199.05495375 142.02283513 -199.05495375 142.02283513 -200.22697449 144.02668762 C-203.76481816 149.54666934 -203.76481816 149.54666934 -207.04525757 150.75064087 C-209.45022573 151.04057027 -211.73842889 151.08386225 -214.16015625 151.02734375 C-215.46139687 151.03526695 -215.46139687 151.03526695 -216.78892517 151.04335022 C-218.61531696 151.04440825 -220.44181632 151.025592 -222.26782227 150.98803711 C-225.05974673 150.93754979 -227.84280691 150.96725634 -230.63476562 151.00585938 C-232.41409287 150.99697951 -234.19340428 150.98346454 -235.97265625 150.96484375 C-236.80297867 150.97587631 -237.63330109 150.98690887 -238.48878479 150.99827576 C-244.12230526 150.8158534 -244.12230526 150.8158534 -246.6701355 148.44754028 C-250 143.95020769 -250 143.95020769 -250 141 C-247.69 140.67 -245.38 140.34 -243 140 C-243.33 140.99 -243.66 141.98 -244 143 C-238.94661589 142.29410953 -233.90451793 141.54793738 -228.875 140.6875 C-228.18535156 140.58244141 -227.49570312 140.47738281 -226.78515625 140.36914062 C-218.9933912 139.0059542 -215.49809572 134.68445029 -210.9375 128.625 C-193.53290317 106.06869034 -193.53290317 106.06869034 -185 101 C-184.43796875 100.66226563 -183.8759375 100.32453125 -183.296875 99.9765625 C-174.71769531 95.31396484 -164.8841382 92.03335494 -155.5 89.375 C-150.97034874 88.0873834 -145.38701125 86.38701125 -142 83 C-142.3609375 81.91460937 -142.721875 80.82921875 -143.09375 79.7109375 C-143.56295895 78.26577393 -144.03168336 76.82045298 -144.5 75.375 C-144.73847656 74.66214844 -144.97695313 73.94929688 -145.22265625 73.21484375 C-146.57381808 69.00693976 -147.28250044 65.47763202 -147 61 C-146.13375 61.763125 -145.2675 62.52625 -144.375 63.3125 C-125.31684704 79.56005666 -106.47926106 92.17388663 -80.75 92.1875 C-79.54730469 92.19974609 -78.34460938 92.21199219 -77.10546875 92.22460938 C-58.88775597 92.25460561 -42.68387073 84.91980643 -29.44140625 72.46484375 C-10.25169178 53.09090802 -1.62069631 26.88120432 0 0 Z " fill="#DBDCDC" transform="translate(580,265)"/>
<path d="M0 0 C2 2 2 2 2.22265625 4.37109375 C1.16028228 24.71166851 -9.53095943 43.15609197 -23 58 C-23.66 58 -24.32 58 -25 58 C-25.20109375 58.55171875 -25.4021875 59.1034375 -25.609375 59.671875 C-27.55365489 62.92690537 -30.28895081 64.96916483 -33.25 67.25 C-33.87334229 67.73235107 -34.49668457 68.21470215 -35.13891602 68.71166992 C-52.0427965 81.51648151 -70.75841084 89.1691691 -91.9609375 90.375 C-107.69399161 91.15362385 -107.69399161 91.15362385 -121 99 C-122.84303324 100.38046601 -124.70780269 101.7259996 -126.58154297 103.06445312 C-127.83720521 103.96313529 -129.08411051 104.87421228 -130.32080078 105.79882812 C-134.6671981 109 -134.6671981 109 -138 109 C-138.226875 109.5775 -138.45375 110.155 -138.6875 110.75 C-140.33038023 113.5663661 -142.39533227 115.08077114 -145 117 C-143.31482292 113.10894505 -140.75422828 109.97059396 -138.125 106.6875 C-137.39579346 105.76771362 -137.39579346 105.76771362 -136.65185547 104.8293457 C-134.13391448 101.657964 -131.59959607 98.49981589 -129.0625 95.34375 C-128.57894043 94.74175781 -128.09538086 94.13976562 -127.59716797 93.51953125 C-126.61291802 92.29468687 -125.62755941 91.07073259 -124.64111328 89.84765625 C-121.86480225 86.3891762 -119.15138924 82.89325072 -116.4921875 79.34375 C-115.90937012 78.56813721 -115.32655273 77.79252441 -114.72607422 76.9934082 C-113.59828116 75.48675962 -112.47719579 73.97506031 -111.36376953 72.45776367 C-110.85185059 71.77431885 -110.33993164 71.09087402 -109.8125 70.38671875 C-109.14154297 69.47732544 -109.14154297 69.47732544 -108.45703125 68.54956055 C-106.74184334 66.72544901 -105.34820825 65.86563783 -103 65 C-101.03833008 65.0168457 -101.03833008 65.0168457 -98.95703125 65.36328125 C-73.30060792 68.91457927 -48.65172424 64.04743919 -27.75 48.25 C-13.56379425 36.2674767 -3.24244198 18.32832994 0 0 Z " fill="#DBDBDB" transform="translate(585,317)"/>
<path d="M0 0 C7.47385843 -0.16784094 14.92274733 0.35981913 22.20703125 2.12109375 C22.86703125 2.78109375 23.52703125 3.44109375 24.20703125 4.12109375 C21.30610623 6.05504376 20.31028388 6.42241316 17.01953125 6.74609375 C15.76140625 6.86984375 14.50328125 6.99359375 13.20703125 7.12109375 C13.70203125 8.60609375 13.70203125 8.60609375 14.20703125 10.12109375 C14.9351357 16.8411397 14.49733944 22.68589995 10.20703125 28.12109375 C6.6553672 31.35059359 3.0588189 33.39187544 -1.79296875 33.62109375 C-9.00595642 33.09677048 -14.10105506 30.54611896 -18.79296875 25.12109375 C-22.24498514 26.59830797 -24.44258811 28.55903376 -27.04296875 31.24609375 C-27.749375 31.97054688 -28.45578125 32.695 -29.18359375 33.44140625 C-29.98023438 34.27285156 -29.98023438 34.27285156 -30.79296875 35.12109375 C-30.79296875 31.0524903 -28.99054704 28.15554253 -27.16796875 24.62109375 C-26.80405029 23.90856445 -26.44013184 23.19603516 -26.06518555 22.46191406 C-25.32679882 21.02177626 -24.58520343 19.58327888 -23.84033203 18.14648438 C-22.91534691 16.35774857 -22.00715307 14.56035128 -21.1015625 12.76171875 C-16.25949863 3.40629508 -16.25949863 3.40629508 -11.79296875 1.12109375 C-7.89242092 0.20236967 -3.98782218 0.17289858 0 0 Z " fill="#0C0B0B" transform="translate(462.79296875,233.87890625)"/>
<path d="M0 0 C6.33828487 2.39165418 11.14567033 6.40396995 16.32666016 10.65625 C17.88070707 11.90420363 19.49147196 13.08061365 21.10546875 14.25 C27.64694814 19.56437536 27.64694814 19.56437536 28.31835938 24.19628906 C28.47946462 29.62814847 27.73351421 34.53939418 27 40 C14.13 42.475 14.13 42.475 1 45 C-0.02673313 29.98402802 -0.10889535 15.04766267 0 0 Z " fill="#D7D7D7" transform="translate(464,129)"/>
<path d="M0 0 C3.85258891 3.36241577 5.81293347 7.03980348 8 11.5625 C8.52327881 12.63322754 8.52327881 12.63322754 9.05712891 13.72558594 C14.84830264 25.75195046 18.51862824 37.51566565 18 51 C12.81970092 50.29885571 7.69648064 49.41920353 2.5625 48.4375 C1.46518555 48.22963867 1.46518555 48.22963867 0.34570312 48.01757812 C-1.43646318 47.6797819 -3.21827002 47.34009012 -5 47 C-4.91959473 46.39341553 -4.83918945 45.78683105 -4.75634766 45.16186523 C-2.78026853 30.13266999 -1.18754696 15.11190814 0 0 Z " fill="#DFE0E0" transform="translate(516,133)"/>
<path d="M0 0 C0 3 0 3 -1.81665039 5.14135742 C-2.65188232 5.95451416 -3.48711426 6.7676709 -4.34765625 7.60546875 C-5.72147461 8.95801758 -5.72147461 8.95801758 -7.12304688 10.33789062 C-8.10242731 11.28821127 -9.08224788 12.23807852 -10.0625 13.1875 C-15.71603338 18.70964573 -21.31759854 24.18747706 -26.45092773 30.20141602 C-28.40819086 32.47393886 -30.46309153 34.6417555 -32.52709961 36.81689453 C-43.57122204 48.49990288 -50.82687244 60.3592536 -55 76 C-57.75582229 72.58721698 -59.80956292 68.88399159 -61.8125 65 C-62.14958984 64.38382812 -62.48667969 63.76765625 -62.83398438 63.1328125 C-63.76953125 61.3125 -63.76953125 61.3125 -65 58 C-63.8926695 54.9402612 -62.24881243 53.04008105 -59.875 50.86328125 C-59.25584717 50.29053467 -58.63669434 49.71778809 -57.9987793 49.12768555 C-57.33918213 48.52867432 -56.67958496 47.92966309 -56 47.3125 C-55.32300049 46.68964111 -54.64600098 46.06678223 -53.94848633 45.42504883 C-51.97170865 43.60992847 -49.98756677 41.80329249 -48 40 C-47.05511719 39.14148438 -46.11023438 38.28296875 -45.13671875 37.3984375 C-43.5282596 35.94646322 -41.91510787 34.49966714 -40.296875 33.05859375 C-38.77191546 31.69183579 -37.26120889 30.30899782 -35.765625 28.91015625 C-29.91210233 23.47895149 -23.71148677 18.63506441 -17.34765625 13.82641602 C-11.4401952 9.36081403 -5.68268655 4.74989135 0 0 Z " fill="#DEDFE0" transform="translate(408,259)"/>
<path d="M0 0 C3.51258217 1.17086072 4.48015648 2.55316886 6.19921875 5.765625 C7.76201969 10.12622078 7.6759159 14.45869007 7 19 C4.46838316 23.95774964 0.07697635 26.13270531 -5 28 C-8.31156419 28.83496704 -11.62626874 29.47458284 -15 30 C-13.60792279 24.80920362 -11.28634707 21.40886712 -8.0625 17.25 C-3.96679756 11.78177828 -1.22725543 6.82857507 0 0 Z " fill="#0C0C0D" transform="translate(328,328)"/>
<path d="M0 0 C0.59296875 0.30679688 1.1859375 0.61359375 1.796875 0.9296875 C4.45829652 2.2226476 7.18339192 3.10380652 10 4 C9.67128906 4.50144531 9.34257812 5.00289062 9.00390625 5.51953125 C4.82839398 12.16187732 1.49692922 19.09462982 -1.75170898 26.22192383 C-3.85186857 30.78073861 -6.08469506 34.91065824 -9 39 C-10.04676454 35.8243427 -9.96174507 34.15720186 -8.75 31.0625 C-7.39779529 27.32405169 -6.4125986 23.63415218 -5.5625 19.75 C-4.074001 13.04383693 -2.10699577 6.53489551 0 0 Z " fill="#D5D4D3" transform="translate(439,232)"/>
<path d="M0 0 C2.3125 1.5625 2.3125 1.5625 4 4 C4.56288002 7.94016013 4.60396028 10.05782196 2.4375 13.4375 C-0.90506283 15.58016848 -3.10495209 15.49573337 -7 15 C-8.9375 14 -8.9375 14 -10 12 C-10.39274738 8.90711442 -10.63577985 6.95310828 -10 4 C-7.02237714 0.59700244 -4.52746552 -0.92871088 0 0 Z " fill="#EFEEEE" transform="translate(463,242)"/>
<path d="M0 0 C0 3 0 3 -2.40625 5.69921875 C-3.4299968 6.70302243 -4.4616054 7.69885649 -5.5 8.6875 C-6.02464844 9.19861328 -6.54929687 9.70972656 -7.08984375 10.23632812 C-8.38660904 11.49772708 -9.69246117 12.74977212 -11 14 C-11.66 13.34 -12.32 12.68 -13 12 C-9.22660027 7.04741286 -5.09210286 3.56320845 0 0 Z " fill="#E7E8E8" transform="translate(408,259)"/>
<path d="M0 0 C0.66 0.33 1.32 0.66 2 1 C0.75625426 2.60902058 -0.49526899 4.21203107 -1.75 5.8125 C-2.44609375 6.70582031 -3.1421875 7.59914063 -3.859375 8.51953125 C-5.77825964 10.74305633 -7.58099964 12.3600921 -10 14 C-8.43632643 10.47761953 -6.30504111 7.72876006 -3.875 4.75 C-3.15054687 3.85796875 -2.42609375 2.9659375 -1.6796875 2.046875 C-0.84824219 1.03367187 -0.84824219 1.03367187 0 0 Z " fill="#D3D4D3" transform="translate(450,420)"/>
<path d="M0 0 C2.76223278 2.76223278 2.57856291 5.20706617 3 9 C2.34 9 1.68 9 1 9 C1 11.64 1 14.28 1 17 C0.67 17 0.34 17 0 17 C0 11.39 0 5.78 0 0 Z " fill="#3B3A3B" transform="translate(581,268)"/>
<path d="M0 0 C3.68006822 3.38168431 5.9785845 6.42521756 8 11 C4.35580428 10.01508224 3.21085868 9.34173648 1.1875 6.0625 C0 3 0 3 0 0 Z " fill="#CFCFCF" transform="translate(626,239)"/>
<path d="M0 0 C0.66 0.33 1.32 0.66 2 1 C2.36629408 5.27343092 1.40814077 7.48812804 -1 11 C-2.60080151 6.99799622 -1.29279692 3.95443764 0 0 Z " fill="#E1E1E1" transform="translate(431,260)"/>
<path d="M0 0 C0.66 0.33 1.32 0.66 2 1 C1.25 2.9375 1.25 2.9375 0 5 C-2.125 5.75 -2.125 5.75 -4 6 C-1.125 1.125 -1.125 1.125 0 0 Z " fill="#E0E2E1" transform="translate(452,420)"/>
<path d="M0 0 C2.31 0.33 4.62 0.66 7 1 C5.68 2.65 4.36 4.3 3 6 C2.01 4.02 1.02 2.04 0 0 Z " fill="#D9D3D2" transform="translate(562,149)"/>
</svg>
