<?xml version="1.0" encoding="UTF-8"?>
<!DOCTYPE svg PUBLIC "-//W3C//DTD SVG 1.1//EN" "http://www.w3.org/Graphics/SVG/1.1/DTD/svg11.dtd">
<svg xmlns="http://www.w3.org/2000/svg" version="1.1" width="113px" height="130px" style="shape-rendering:geometricPrecision; text-rendering:geometricPrecision; image-rendering:optimizeQuality; fill-rule:evenodd; clip-rule:evenodd" xmlns:xlink="http://www.w3.org/1999/xlink">
<g><path style="opacity:0.879" fill="#0a0a0a" d="M 49.5,17.5 C 51.2624,17.3573 52.9291,17.6906 54.5,18.5C 56.0205,21.0539 57.3539,23.7206 58.5,26.5C 80.4492,30.2818 94.2826,42.9485 100,64.5C 103.982,81.9403 105.482,99.607 104.5,117.5C 80.1667,117.5 55.8333,117.5 31.5,117.5C 30.6976,108.741 33.1976,101.074 39,94.5C 45.5242,89.316 50.5242,82.9827 54,75.5C 54.8365,73.1788 55.1699,70.8454 55,68.5C 49.076,74.4276 42.576,79.5942 35.5,84C 32.5597,88.7776 28.5597,92.2776 23.5,94.5C 19.1121,92.2687 14.4455,90.7687 9.5,90C 4.97935,85.3767 3.47935,79.8767 5,73.5C 10.7959,59.2349 18.1292,45.9016 27,33.5C 24.6271,16.4538 29.2937,14.1205 41,26.5C 43.9695,23.6952 46.8028,20.6952 49.5,17.5 Z"/></g>
<g><path style="opacity:1" fill="#fbfbfb" d="M 50.5,23.5 C 52.1537,25.5597 53.1537,28.0597 53.5,31C 73.3301,32.8252 86.8301,42.9918 94,61.5C 98.9412,78.1413 100.775,95.1413 99.5,112.5C 78.5,112.5 57.5,112.5 36.5,112.5C 36.5016,108.489 37.6683,104.822 40,101.5C 46.7921,95.7144 52.4588,89.0477 57,81.5C 58.4079,77.9431 59.4079,74.2765 60,70.5C 60.4931,64.0622 61.1598,57.7288 62,51.5C 61.2825,50.5494 60.4491,50.3828 59.5,51C 58.3458,55.1424 56.5124,58.9757 54,62.5C 47.7449,68.759 40.9115,74.259 33.5,79C 30.2164,82.4055 27.0498,85.9055 24,89.5C 24.1379,87.5104 24.6379,85.5104 25.5,83.5C 25.3918,82.5581 25.0585,81.7247 24.5,81C 19.5071,79.4914 17.5071,81.3248 18.5,86.5C 15.6354,86.9452 13.1354,86.2785 11,84.5C 9.4961,80.9613 9.16277,77.2946 10,73.5C 16.9065,59.3481 24.5732,45.6815 33,32.5C 32.204,29.9703 31.8707,27.3037 32,24.5C 34.1896,26.3884 36.0229,28.5551 37.5,31C 40.1667,31.6667 42.8333,31.6667 45.5,31C 46.8049,28.2132 48.4715,25.7132 50.5,23.5 Z"/></g>
<g><path style="opacity:1" fill="#161616" d="M 32.5,39.5 C 36.6772,38.8416 38.1772,40.5082 37,44.5C 35.7777,49.0837 32.9444,51.2504 28.5,51C 27.4238,49.2739 27.2571,47.4406 28,45.5C 29.332,43.34 30.832,41.34 32.5,39.5 Z"/></g>
<g><path style="opacity:1" fill="#0f0f0f" d="M 14.5,71.5 C 19.3276,71.3852 20.6609,73.5519 18.5,78C 12.7377,78.4178 11.4044,76.2511 14.5,71.5 Z"/></g>
</svg>
