<?xml version="1.0" encoding="UTF-8"?>
<svg version="1.1" xmlns="http://www.w3.org/2000/svg" width="1024" height="1024">
<path d="M0 0 C337.92 0 675.84 0 1024 0 C1024 337.92 1024 675.84 1024 1024 C686.08 1024 348.16 1024 0 1024 C0 686.08 0 348.16 0 0 Z " fill="#FDFDFD" transform="translate(0,0)"/>
<path d="M0 0 C1.07556152 0.40943848 1.07556152 0.40943848 2.17285156 0.82714844 C30.27623046 11.82412279 50.69415138 31.73146033 63.17919922 59.11474609 C65.14819171 63.63722081 66.76095268 68.22782765 68 73 C68.17515137 73.66781494 68.35030273 74.33562988 68.53076172 75.02368164 C70.19824656 82.1748265 70.37232103 89.29141878 70.37060547 96.60229492 C70.37495755 98.66735755 70.41133464 100.73023795 70.44921875 102.79492188 C70.67066379 128.96461809 58.30613255 153.04690922 41 172 C40.39414062 172.67675781 39.78828125 173.35351562 39.1640625 174.05078125 C34.07965987 179.44520843 27.98295246 183.66751719 22 188 C24.70571757 190.11608367 27.41254073 191.85185624 30.44921875 193.453125 C31.29806641 193.90816406 32.14691406 194.36320313 33.02148438 194.83203125 C34.77713044 195.76580345 36.5348986 196.69559837 38.29492188 197.62109375 C46.69508192 202.14084829 55.24705635 206.86239808 59 216 C59.25 219.9375 59.25 219.9375 59 223 C59.86625 223.0825 60.7325 223.165 61.625 223.25 C66.74623193 224.38805154 69.79613381 226.73277243 73.375 230.5 C75.97288499 236.09544459 76.237257 242.28822899 74.26953125 248.19140625 C71.30842718 253.78728863 66.92402528 257.09623346 61 259 C58.39163626 259.16464931 55.89680502 259.23392915 53.29296875 259.1953125 C52.56757401 259.1924826 51.84217926 259.18965271 51.09480286 259.18673706 C48.79219632 259.17559799 46.48998773 259.15050566 44.1875 259.125 C42.62044835 259.11496206 41.05339057 259.10583763 39.48632812 259.09765625 C35.65740022 259.0756793 31.82876744 259.04119339 28 259 C28.24044465 263.71031839 28.48908442 268.4201153 28.74462891 273.12963867 C28.83009779 274.72457775 28.91350474 276.31962895 28.99462891 277.91479492 C31.67201253 330.38820845 48.73296904 380.19390514 76.55126953 424.67333984 C77.88456675 426.81461428 79.17682077 428.97587234 80.46484375 431.14453125 C83.63829191 436.30660062 86.10335334 440.30694133 92.1875 442 C93.01636719 442.15597656 93.84523438 442.31195312 94.69921875 442.47265625 C98.47241142 443.3374797 100.32312586 445.25620401 103 448 C105.91847564 452.68360179 105.49590368 457.66128698 105 463 C103.36860164 467.72246894 101.23286012 470.3421576 97 473 C95.00845941 473.38062736 93.00819426 473.72023776 91 474 C92.31526485 490.64212663 100.76925727 500.62424051 112 512 C112.59893066 512.61262695 113.19786133 513.22525391 113.81494141 513.85644531 C121.22701533 521.55275997 121.22701533 521.55275997 129.2109375 528.6328125 C131.73419154 530.77439786 133.44622831 532.62969913 135.25 535.375 C135.72953125 536.08398438 136.2090625 536.79296875 136.703125 537.5234375 C139.65976905 543.16955897 140.41444827 548.88933516 140.4375 555.1875 C140.44136719 555.92347412 140.44523437 556.65944824 140.44921875 557.41772461 C140.30528525 564.31528765 138.27299712 569.93326605 135 576 C135.90492188 575.95488281 136.80984375 575.90976562 137.7421875 575.86328125 C142.5054744 576.06317938 145.32159087 578.11374294 149 581 C153.38025716 585.8295143 154.16408676 588.84026141 154.203125 595.203125 C154.20882507 595.91853455 154.21452515 596.63394409 154.22039795 597.37103271 C154.2298507 598.88747682 154.23638303 600.40394148 154.24023438 601.92041016 C154.24990467 604.22725973 154.28090897 606.5332047 154.3125 608.83984375 C154.31903389 610.31509889 154.32428284 611.79036039 154.328125 613.265625 C154.3404718 613.9502179 154.3528186 614.63481079 154.36553955 615.34014893 C154.34431808 619.96315442 153.40908051 623.06772161 151 627 C146.0779432 631.66300118 141.64496021 633.24769516 134.92541027 633.26006222 C133.69771677 633.26712781 132.47002327 633.2741934 131.20512694 633.2814731 C129.84583198 633.27922183 128.48653734 633.27677534 127.12724304 633.27415466 C125.68082156 633.2786075 124.23440252 633.2839217 122.78798705 633.29002339 C118.8127575 633.30420823 114.83760611 633.30586659 110.86235487 633.30542648 C106.575253 633.30707424 102.28818337 633.32013993 98.00109863 633.33161926 C88.62719004 633.35447071 79.25330408 633.36238989 69.8793714 633.36744571 C64.02665669 633.37070227 58.17394856 633.37722446 52.32123756 633.3844471 C36.11739024 633.40401247 19.91354904 633.42041729 3.70968914 633.42332363 C2.67274569 633.4235112 1.63580224 633.42369877 0.56743627 633.42389202 C-1.53470306 633.42425828 -3.63684238 633.42462197 -5.7389817 633.42498314 C-7.30424167 633.42525735 -7.30424167 633.42525735 -8.90112305 633.42553711 C-10.46829274 633.42580793 -10.46829274 633.42580793 -12.06712242 633.42608423 C-29.00052314 633.42962672 -45.93379676 633.45665409 -62.86715338 633.494035 C-80.2514679 633.53210444 -97.63571932 633.551481 -115.02007645 633.55178314 C-124.78118683 633.55236799 -134.54214556 633.56087746 -144.30321693 633.58978081 C-152.61392207 633.61427635 -160.92442022 633.62158989 -169.23515169 633.60653328 C-173.47521192 633.59935711 -177.71486329 633.60025204 -181.95487785 633.62294388 C-185.8381448 633.64352736 -189.72068837 633.64094008 -193.60394742 633.62006903 C-195.00703199 633.61657289 -196.41016868 633.62148963 -197.81318489 633.63577347 C-205.66092667 633.7105064 -212.04500817 633.58854771 -218 628 C-223.06444104 621.74975822 -222.61529202 614.23130957 -222.52148438 606.53637695 C-222.50000301 604.43779446 -222.52137052 602.34262015 -222.546875 600.24414062 C-222.56170716 593.16930336 -222.5169314 587.6833917 -218 582 C-214.03032429 578.40838865 -211.68845113 576.86159356 -206.375 576.9375 C-205.14910156 576.95103516 -205.14910156 576.95103516 -203.8984375 576.96484375 C-202.95871094 576.98224609 -202.95871094 576.98224609 -202 577 C-202.26554687 576.50371094 -202.53109375 576.00742187 -202.8046875 575.49609375 C-203.33449219 574.47708984 -203.33449219 574.47708984 -203.875 573.4375 C-204.22304688 572.77621094 -204.57109375 572.11492188 -204.9296875 571.43359375 C-208.95853935 562.27310213 -209.8713951 551.23645754 -206.5625 541.6875 C-202.52928352 533.50933361 -195.34224181 527.25922737 -188.8984375 520.94140625 C-188.36788254 520.42092209 -187.83732758 519.90043793 -187.29069519 519.36418152 C-185.10469162 517.22378334 -182.91716493 515.08529051 -180.71484375 512.96166992 C-173.67798291 506.16290618 -167.8665731 499.58801555 -163 491 C-162.38125 490.01 -161.7625 489.02 -161.125 488 C-159.41865225 483.44973934 -159.24900277 478.82550203 -159 474 C-159.886875 473.9175 -160.77375 473.835 -161.6875 473.75 C-166.58293292 472.64160009 -168.94669871 470.4891501 -171.8125 466.4375 C-173.92200408 460.33104082 -174.15858944 454.45086228 -171.375 448.5625 C-168.28160497 445.22488957 -165.55491625 442.28592925 -160.8359375 441.7578125 C-158.88896277 441.75093273 -156.94237316 441.86604323 -155 442 C-154.58814453 441.14462646 -154.58814453 441.14462646 -154.16796875 440.27197266 C-152.98877411 437.97816302 -151.69047761 435.82819044 -150.3125 433.6484375 C-133.74155448 407.26927003 -119.92439663 380.6123137 -110 351 C-109.58105469 349.77023437 -109.16210938 348.54046875 -108.73046875 347.2734375 C-104.53678842 334.34153082 -101.53166 320.89475477 -99.25 307.5 C-99.07682251 306.49803589 -99.07682251 306.49803589 -98.90014648 305.47583008 C-97.10916871 294.31310962 -96.81370077 282.96735581 -96.4375 271.6875 C-96.37272461 269.84381836 -96.37272461 269.84381836 -96.30664062 267.96289062 C-96.20201806 264.97533514 -96.09983673 261.98771857 -96 259 C-96.98806641 259.02618408 -97.97613281 259.05236816 -98.99414062 259.0793457 C-102.69149762 259.17046052 -106.3887573 259.22746858 -110.08691406 259.2746582 C-111.68148536 259.29966413 -113.27594365 259.33368099 -114.87011719 259.37719727 C-130.84895338 259.80216631 -130.84895338 259.80216631 -136.62719727 255.38793945 C-141.02155968 250.94512417 -143.12281026 246.49114875 -143.375 240.3125 C-143.3021162 234.76523315 -141.75608108 231.07534797 -138 227 C-134.42060837 224.17164143 -131.65789115 223 -127 223 C-127.103125 222.175 -127.20625 221.35 -127.3125 220.5 C-126.80032228 214.76360951 -124.13662034 210.97152704 -119.93359375 207.09326172 C-113.60242874 201.98374037 -107.00806861 197.89323974 -99.875 194 C-98.823125 193.41605469 -97.77125 192.83210937 -96.6875 192.23046875 C-94.12947496 190.81192759 -91.56711784 189.40199684 -89 188 C-89.65299072 187.55342041 -90.30598145 187.10684082 -90.97875977 186.64672852 C-115.82391697 169.48743385 -131.97790188 145.64900117 -137.62060547 115.79663086 C-139.7893926 99.80985058 -139.36581158 82.30777835 -134 67 C-133.76394043 66.30551758 -133.52788086 65.61103516 -133.28466797 64.89550781 C-123.65622544 37.32004572 -102.95734153 15.90883597 -76.8125 3.25 C-74.23657178 2.08801972 -71.63487113 1.02079656 -69 0 C-68.00299072 -0.38744385 -68.00299072 -0.38744385 -66.98583984 -0.78271484 C-46.38305655 -8.35733907 -20.43079507 -7.82108877 0 0 Z " fill="#070707" transform="translate(546,225)"/>
<path d="M0 0 C75.9 0 151.8 0 230 0 C230.66 4.29 231.32 8.58 232 13 C238.72219282 31.67275783 255.69577986 47.41480695 270.625 60 C274.67981515 63.43834432 277.29654381 66.88963142 279 72 C280.26099396 89.20356045 280.26099396 89.20356045 275.58203125 95.45703125 C275.05996094 95.96621094 274.53789063 96.47539063 274 97 C273.09265688 98.02181319 273.09265688 98.02181319 272.1669836 99.06426907 C267.23182071 102.08075058 262.42275757 101.55431509 256.74623108 101.5146637 C255.48845822 101.52160922 254.23068537 101.52855475 252.93479818 101.53571075 C249.44585851 101.55435669 245.95734274 101.54802668 242.46838534 101.53755772 C238.7048227 101.53057113 234.94134763 101.54655952 231.17781067 101.55955505 C223.80566436 101.5812096 216.43367233 101.58106444 209.06150467 101.57292951 C203.07005021 101.56663234 197.07864079 101.56776393 191.08718681 101.57420158 C190.23478534 101.57510324 189.38238386 101.57600489 188.50415204 101.57693387 C186.77255809 101.57878505 185.04096414 101.58064762 183.30937021 101.58252143 C167.06711371 101.59910504 150.82494403 101.59037602 134.58269273 101.57353585 C119.72044361 101.55883918 104.85839665 101.5734658 89.99617357 101.60230602 C74.73853679 101.63169322 59.48099333 101.64267423 44.22332948 101.63312382 C42.49776266 101.63210125 40.77219581 101.63110665 39.04662895 101.6301403 C38.1976022 101.62966391 37.34857545 101.62918752 36.47382062 101.6286967 C30.48981055 101.62653163 24.50588875 101.6363416 18.52189827 101.65091133 C11.22889172 101.66842036 3.93614293 101.66833805 -3.35685342 101.64555968 C-7.07820405 101.63440413 -10.79910032 101.63128402 -14.52043152 101.64986038 C-18.55374544 101.66973511 -22.58594887 101.65091047 -26.61924744 101.62818909 C-27.79677186 101.64002482 -28.97429629 101.65186054 -30.18750328 101.66405493 C-39.00999111 101.56274371 -39.00999111 101.56274371 -42.68248844 98.58354092 C-48.706196 91.86836623 -49.44997094 85.39692149 -49.53125 76.52734375 C-48.34215608 68.63210987 -44.01732293 63.45830613 -38.36328125 58.11328125 C-37.40496651 57.17768623 -37.40496651 57.17768623 -36.42729187 56.22319031 C-33.72547907 53.58590873 -31.00065417 50.97292665 -28.27661133 48.35864258 C-13.02339771 33.66673836 -3.32728315 21.62734047 0 0 Z " fill="#FDFDFD" transform="translate(397,700)"/>
<path d="M0 0 C1.66373657 0.00845947 1.66373657 0.00845947 3.36108398 0.01708984 C11.57826827 0.1386298 18.93939346 0.80828298 26.8125 3.3125 C27.43350586 3.50585938 28.05451172 3.69921875 28.69433594 3.8984375 C53.83624398 11.91218881 73.59973208 28.48146448 85.7746582 51.96777344 C96.23348879 72.91815498 98.5758987 98.73639721 91.8125 121.3125 C89.90236795 126.85019027 87.46605509 132.09718389 84.8125 137.3125 C84.28785156 138.36050781 83.76320313 139.40851563 83.22265625 140.48828125 C71.20036013 162.68102836 50.72477231 178.30390088 26.70703125 185.5703125 C1.35908429 192.06978608 -25.2570638 188.82290511 -47.8125 175.625 C-70.44831354 160.98809971 -84.33355064 141.2694247 -91.1875 115.3125 C-91.73470703 113.4871875 -91.73470703 113.4871875 -92.29296875 111.625 C-97.8127965 89.11857568 -91.50723726 64.72076624 -80.34375 45.06640625 C-66.55784672 23.34230866 -46.15149438 8.54578414 -21.1875 2.3125 C-20.54369385 2.13662354 -19.8998877 1.96074707 -19.23657227 1.77954102 C-12.81676373 0.15234059 -6.6017887 -0.03505463 0 0 Z " fill="#FDFDFC" transform="translate(511.1875,229.6875)"/>
<path d="M0 0 C34.65 0 69.3 0 105 0 C105.33 11.88 105.66 23.76 106 36 C112.39616114 87.16928913 129.69464881 134.49572508 158.453125 177.48046875 C160 180 160 180 160 182 C88.72 182 17.44 182 -56 182 C-54.56481354 178.41203386 -53.37987531 175.8084648 -51.34765625 172.65625 C-50.82413574 171.83358643 -50.30061523 171.01092285 -49.76123047 170.16333008 C-48.92035889 168.84498169 -48.92035889 168.84498169 -48.0625 167.5 C-28.34374185 135.99754815 -13.70614748 101.39520738 -6 65 C-5.7007792 63.67051474 -5.40131793 62.34108357 -5.1015625 61.01171875 C-0.91478308 41.05197331 -0.84390959 20.25383008 0 0 Z " fill="#FDFDFD" transform="translate(460,484)"/>
<path d="M0 0 C1.04987439 -0.00026969 2.09974878 -0.00053938 3.18143755 -0.00081724 C4.39505652 -0.01323928 5.60867548 -0.02566131 6.85907078 -0.03845978 C8.20765765 -0.02695826 9.55624057 -0.01498603 10.90481955 -0.00259393 C12.33602309 -0.0076375 13.76722032 -0.01486487 15.198403 -0.02409208 C19.13626996 -0.04306908 23.07351825 -0.03075042 27.01136988 -0.01336914 C31.25618575 -0.00002685 35.5009092 -0.01542097 39.74571615 -0.0271911 C48.06352821 -0.04559608 56.38110577 -0.03703618 64.69891059 -0.01910288 C71.45794325 -0.00509155 78.21691214 -0.00118091 84.97595793 -0.00454515 C86.41755509 -0.00526132 86.41755509 -0.00526132 87.88827543 -0.00599195 C89.84051966 -0.00701825 91.79276387 -0.00807361 93.74500806 -0.00915771 C111.01854547 -0.01773067 128.29196951 -0.00103097 145.56547934 0.02867132 C162.33440801 0.05750568 179.1031733 0.06459516 195.87211996 0.04917914 C214.12203472 0.03242466 232.37187185 0.02837543 250.62178862 0.0458895 C252.56725797 0.04773393 254.51272733 0.04956865 256.4581967 0.05139357 C257.41545945 0.05230566 258.3727222 0.05321775 259.35899292 0.05415748 C266.11087881 0.05976791 272.86272688 0.05645093 279.61461073 0.04984862 C287.84162118 0.04212343 296.06847068 0.04883842 304.29544865 0.07402366 C308.49455379 0.08653822 312.69340813 0.09264169 316.89252287 0.08148199 C320.73490697 0.07146306 324.57679024 0.07984853 328.41911323 0.10306317 C329.81072042 0.10823525 331.20237226 0.10663762 332.59396016 0.09766852 C334.48285162 0.08650496 336.37184517 0.1022798 338.2606917 0.11943728 C339.31072845 0.12062876 340.36076519 0.12182024 341.44262123 0.12304783 C345.03586626 0.75857911 346.72194388 2.068087 349.2839852 4.62559515 C349.91508871 7.67832953 349.91508871 7.67832953 349.91289145 11.21934515 C349.91482504 12.49680609 349.91675864 13.77426703 349.91875082 15.0904389 C349.90626303 15.75285589 349.89377524 16.41527289 349.88090903 17.09776312 C349.8465772 19.12017545 349.86025509 21.13821879 349.87968832 23.1607514 C349.80561333 32.94852682 349.80561333 32.94852682 347.62038618 35.78493077 C344.66305872 38.1147737 343.10558268 38.12665573 339.36812216 38.12895972 C338.1504031 38.1393907 336.93268404 38.14982169 335.67806441 38.16056877 C334.32485984 38.15192033 332.97165765 38.1428937 331.61845785 38.13352972 C330.18241944 38.13813728 328.74638573 38.14448922 327.31036192 38.1524387 C323.35924623 38.16917538 319.40851576 38.16086619 315.45739847 38.14849383 C311.19829356 38.13946329 306.93925603 38.15340311 302.6801644 38.16441351 C294.33464845 38.18222474 285.98927618 38.17834719 277.64375454 38.16676295 C270.86278832 38.15773912 264.08186244 38.15650007 257.30089194 38.16085821 C256.33676308 38.16147115 255.37263422 38.16208408 254.37928933 38.16271558 C252.42084238 38.16399445 250.46239544 38.1652913 248.50394851 38.16660595 C230.12813746 38.17801937 211.75240616 38.1648861 193.37660819 38.14340448 C177.60025121 38.12553281 161.82401194 38.12863671 146.04765707 38.14707953 C127.73879373 38.16847279 109.43000033 38.17692067 91.12112623 38.16463047 C89.16977699 38.16335624 87.21842773 38.16209876 85.26707846 38.16085821 C83.8268271 38.15993256 83.8268271 38.15993256 82.35747975 38.15898821 C75.58257797 38.15553067 68.80772046 38.16137234 62.03282553 38.17077643 C53.77944397 38.18198065 45.52621463 38.17898966 37.27285057 38.15765345 C33.05968762 38.14712171 28.84677869 38.14305714 24.63361746 38.15625006 C20.77957529 38.16813616 16.92602351 38.16167464 13.07202607 38.14033985 C11.67504963 38.13585762 10.27803207 38.13817628 8.88108188 38.147843 C6.98736555 38.1599459 5.09353377 38.14518104 3.19984823 38.12895972 C2.14639401 38.12831031 1.09293978 38.1276609 0.0075627 38.12699181 C-3.42307335 37.4954293 -4.60708614 36.35606182 -6.7160148 33.62559515 C-7.23359293 30.68052679 -7.23359293 30.68052679 -7.2472648 27.2857514 C-7.25242105 26.05791937 -7.2575773 24.83008734 -7.2628898 23.56504828 C-7.24742105 22.28565375 -7.2319523 21.00625921 -7.2160148 19.68809515 C-7.23148355 18.41256781 -7.2469523 17.13704046 -7.2628898 15.82286078 C-7.25773355 14.59373968 -7.2525773 13.36461859 -7.2472648 12.0982514 C-7.24275308 10.97684759 -7.23824136 9.85544379 -7.23359293 8.70005804 C-6.46790063 4.15177355 -4.66380084 1.0742398 0 0 Z " fill="#FDFDFD" transform="translate(340.7160148024559,810.3744048476219)"/>
<path d="M0 0 C75.9 0 151.8 0 230 0 C230.66 4.29 231.32 8.58 232 13 C238.72219282 31.67275783 255.69577986 47.41480695 270.625 60 C274.67981515 63.43834432 277.29654381 66.88963142 279 72 C280.26099396 89.20356045 280.26099396 89.20356045 275.58203125 95.45703125 C275.05996094 95.96621094 274.53789063 96.47539063 274 97 C273.09265688 98.02181319 273.09265688 98.02181319 272.1669836 99.06426907 C267.23182071 102.08075058 262.42275757 101.55431509 256.74623108 101.5146637 C255.48845822 101.52160922 254.23068537 101.52855475 252.93479818 101.53571075 C249.44585851 101.55435669 245.95734274 101.54802668 242.46838534 101.53755772 C238.7048227 101.53057113 234.94134763 101.54655952 231.17781067 101.55955505 C223.80566436 101.5812096 216.43367233 101.58106444 209.06150467 101.57292951 C203.07005021 101.56663234 197.07864079 101.56776393 191.08718681 101.57420158 C190.23478534 101.57510324 189.38238386 101.57600489 188.50415204 101.57693387 C186.77255809 101.57878505 185.04096414 101.58064762 183.30937021 101.58252143 C167.06711371 101.59910504 150.82494403 101.59037602 134.58269273 101.57353585 C119.72044361 101.55883918 104.85839665 101.5734658 89.99617357 101.60230602 C74.73853679 101.63169322 59.48099333 101.64267423 44.22332948 101.63312382 C42.49776266 101.63210125 40.77219581 101.63110665 39.04662895 101.6301403 C38.1976022 101.62966391 37.34857545 101.62918752 36.47382062 101.6286967 C30.48981055 101.62653163 24.50588875 101.6363416 18.52189827 101.65091133 C11.22889172 101.66842036 3.93614293 101.66833805 -3.35685342 101.64555968 C-7.07820405 101.63440413 -10.79910032 101.63128402 -14.52043152 101.64986038 C-18.55374544 101.66973511 -22.58594887 101.65091047 -26.61924744 101.62818909 C-27.79677186 101.64002482 -28.97429629 101.65186054 -30.18750328 101.66405493 C-39.01133792 101.56272824 -39.01133792 101.56272824 -42.65660954 98.65605068 C-45.87299954 95.01052298 -48 91.94306036 -48 87 C-47.44192608 86.99902319 -46.88385217 86.99804638 -46.30886692 86.99703997 C-13.23224381 86.93876689 19.84430393 86.86496932 52.92084432 86.77101372 C56.89246035 86.75974557 60.86407674 86.74860711 64.83569336 86.73754883 C65.6263701 86.73534514 66.41704684 86.73314146 67.23168349 86.730871 C80.03389994 86.69549942 92.83611634 86.6706345 105.63836355 86.64965298 C118.77483062 86.62788982 131.91123428 86.59483449 145.04764742 86.55129844 C153.15340307 86.5247906 161.25907971 86.50708885 169.36487656 86.50065396 C175.58060722 86.49477598 181.79619304 86.47318647 188.01186371 86.44572449 C190.56158895 86.4369218 193.11133767 86.43322627 195.6610775 86.43499184 C199.14019158 86.43664048 202.61875495 86.41997923 206.09779358 86.39872742 C207.10850499 86.40357499 208.1192164 86.40842257 209.16055542 86.41341704 C215.94358149 86.34496302 220.89808086 85.51506957 226.3125 81.125 C229.71645321 76.8385404 230.51808834 72.78213614 230.375 67.3984375 C229.29761127 60.50763878 224.86947222 55.56097385 219.95703125 50.9375 C208.13294504 39.23141865 199.08225083 25.65800661 197 9 C131.99 9 66.98 9 0 9 C0 6.03 0 3.06 0 0 Z " fill="#E0E1E2" transform="translate(397,700)"/>
<path d="M0 0 C22.58069976 11.13748247 39.15485246 30.56880247 47.375 54.3125 C55.06991595 78.36810172 52.3425942 104.70718448 41 127 C40.47535156 128.04800781 39.95070313 129.09601563 39.41015625 130.17578125 C27.38786013 152.36852836 6.91227231 167.99140088 -17.10546875 175.2578125 C-42.45341571 181.75728608 -69.0695638 178.51040511 -91.625 165.3125 C-103.39827127 157.69959944 -118.31784459 146.77104534 -123 133 C-119.47214663 134.29798379 -116.25999781 135.92271313 -112.98779297 137.76733398 C-92.71483632 149.14197716 -68.5465521 153.08558108 -45.6875 147.5 C-20.76173055 139.25935426 -0.90015857 122.91929755 11.31933594 99.64477539 C14.32969976 93.64169259 16.4250805 87.53177138 18 81 C18.22429687 80.10796875 18.44859375 79.2159375 18.6796875 78.296875 C23.47255607 55.31736814 19.6025681 30.9918869 6.85351562 11.22216797 C5.14153114 8.74647564 3.34005965 6.36103668 1.46875 4.00390625 C0 2 0 2 0 0 Z " fill="#E2E2E3" transform="translate(555,240)"/>
<path d="M0 0 C34.65 0 69.3 0 105 0 C105.33 11.88 105.66 23.76 106 36 C112.39616114 87.16928913 129.69464881 134.49572508 158.453125 177.48046875 C160 180 160 180 160 182 C147.79 182 135.58 182 123 182 C99.01201972 129.83196521 85.29211567 78.72401839 84 21 C83.02848999 20.95045166 83.02848999 20.95045166 82.03735352 20.89990234 C71.06308522 20.20189235 60.21313167 18.61908406 49.32836914 17.09863281 C45.97009304 16.62955256 42.61111532 16.16581274 39.25195312 15.703125 C26.15391701 13.89268325 13.07104042 11.99590226 0 10 C0 6.7 0 3.4 0 0 Z " fill="#DEDFE0" transform="translate(460,484)"/>
<path d="M0 0 C1.02148353 -0.0055344 2.04296705 -0.01106879 3.09540462 -0.0167709 C6.52877342 -0.03041756 9.96142033 -0.01538589 13.39477539 -0.00050354 C15.85190134 -0.00428524 18.30902517 -0.00978404 20.7661438 -0.01687622 C26.75349786 -0.02941342 32.74056747 -0.02324584 38.72789407 -0.00820064 C45.69849406 0.00864942 52.66904141 0.00545047 59.63965547 0.00170528 C72.07597505 -0.004175 84.51219342 0.01000479 96.94848633 0.03465271 C109.01948846 0.058574 121.09035537 0.0656572 133.16137695 0.05516052 C146.30194582 0.04375428 159.44245211 0.0418176 172.58302021 0.05625862 C173.98390515 0.05778448 175.3847901 0.05930483 176.78567505 0.06081963 C177.47495982 0.06157744 178.16424458 0.06233525 178.87441677 0.06311603 C183.73471787 0.06786114 188.59499106 0.06600582 193.45529175 0.06175423 C199.99536069 0.05631652 206.53526921 0.06705726 213.07531357 0.08870888 C215.47956585 0.09428645 217.88383615 0.09473321 220.28808975 0.08975601 C223.56222462 0.0838267 226.83578067 0.09626354 230.10986328 0.11352539 C231.06822051 0.10751535 232.02657774 0.1015053 233.0139761 0.09531313 C239.41999174 0.15700837 239.41999174 0.15700837 242.64329529 1.9043417 C244.3879862 3.87796165 244.59453872 4.88713795 244.55493164 7.50120544 C244.57040039 8.52214294 244.57040039 8.52214294 244.58618164 9.56370544 C244.05493164 11.50120544 244.05493164 11.50120544 242.64329529 13.09806919 C238.59569877 15.29224674 234.64332641 14.91731573 230.10986328 14.8888855 C229.08837976 14.89427104 228.06689623 14.89965657 227.01445866 14.90520531 C223.5812136 14.91954765 220.1483507 14.91236559 216.71508789 14.90525818 C214.25796192 14.91095841 211.8008386 14.91792132 209.34371948 14.92605591 C203.35642138 14.9421707 197.36927422 14.94408045 191.38196921 14.938843 C186.51652699 14.93480362 181.65111579 14.93624209 176.78567505 14.94159126 C176.09353159 14.94233968 175.40138813 14.94308811 174.68827063 14.94385921 C173.28224968 14.94539066 171.87622874 14.94692901 170.47020781 14.94847418 C157.28204958 14.96220522 144.09395066 14.95675708 130.90579379 14.94528896 C118.8356865 14.93535378 106.76573244 14.94830104 94.69564879 14.97222316 C82.30603091 14.99659386 69.91648445 15.00622717 57.52684307 14.99957043 C50.56937389 14.99607395 43.61202262 14.99833849 36.65457153 15.01582146 C30.11448518 15.03205165 23.57464465 15.02739351 17.03454971 15.00851631 C14.63029157 15.00481598 12.22601193 15.0079806 9.82177353 15.0184021 C6.54750584 15.03151449 3.27422437 15.02015063 0 15.00241089 C-1.43753584 15.0168184 -1.43753584 15.0168184 -2.90411282 15.03151697 C-9.30069331 14.95988102 -9.30069331 14.95988102 -12.53538513 12.6573801 C-14.47156499 9.69590488 -14.52345328 7.97151499 -13.94506836 4.50120544 C-10.47160732 -0.81161131 -5.74236928 -0.05755212 0 0 Z " fill="#FDFEFE" transform="translate(396.945068359375,675.4987945556641)"/>
<path d="M0 0 C21.43151575 8.0291861 47.01423025 5.91304045 68.125 -1.9375 C68.785 -2.2675 69.445 -2.5975 70.125 -2.9375 C78.0746212 -2.76278305 83.6569684 -0.07749611 90.5625 3.6875 C91.53509766 4.19667969 92.50769531 4.70585937 93.50976562 5.23046875 C110.15084197 14.10126295 110.15084197 14.10126295 114.125 20.0625 C114.125 21.7125 114.125 23.3625 114.125 25.0625 C59.345 25.0625 4.565 25.0625 -51.875 25.0625 C-50.35769932 17.47599659 -45.46119924 14.37157188 -39.28515625 10.1796875 C-34.73088839 7.29231316 -30.03883367 4.65571692 -25.3125 2.0625 C-24.42626953 1.55702637 -23.54003906 1.05155273 -22.62695312 0.53076172 C-14.36845704 -3.88204642 -8.6247059 -3.23731879 0 0 Z " fill="#FBFCFB" transform="translate(480.875,422.9375)"/>
<path d="M0 0 C0.77647038 -0.00623996 1.55294077 -0.01247993 2.35294056 -0.01890898 C4.95720005 -0.03487582 7.56052833 -0.02222074 10.16479492 -0.00964355 C12.0307978 -0.01506305 13.8967964 -0.02218473 15.76278687 -0.03088379 C20.83301124 -0.04914063 25.90291055 -0.04203985 30.97314072 -0.02936745 C36.27507158 -0.01925202 41.57697431 -0.02862907 46.87890625 -0.03491211 C55.78317267 -0.04219276 64.68730645 -0.03258983 73.59155273 -0.0135498 C83.89131582 0.0082197 94.19076221 0.00116863 104.49051762 -0.02085543 C113.32798254 -0.0389975 122.16535203 -0.04157358 131.00282955 -0.03110075 C136.28356557 -0.02485927 141.56415265 -0.02404819 146.84487915 -0.0372467 C151.80914791 -0.04878721 156.7730077 -0.04081239 161.73723221 -0.01766968 C163.56096339 -0.01237296 165.3847289 -0.01391278 167.2084465 -0.02272034 C169.69460741 -0.03362167 172.17945082 -0.0199789 174.66552734 0 C175.75287784 -0.01338433 175.75287784 -0.01338433 176.86219501 -0.02703905 C180.2885177 0.02651656 182.03889178 0.2786447 184.77656555 2.41468048 C186.45477609 4.67205442 186.90069339 5.72792044 186.89526367 8.50793457 C186.91717773 9.16793457 186.9390918 9.82793457 186.96166992 10.50793457 C185.95898835 13.69658653 184.09924081 14.71470131 181.33276367 16.50793457 C178.62622491 16.89521331 176.32904901 17.05379457 173.62792969 17.02259827 C172.47525148 17.03301656 172.47525148 17.03301656 171.29928684 17.04364532 C168.72811804 17.06192032 166.1578714 17.05165006 163.58666992 17.04138184 C161.74184478 17.04844003 159.89702544 17.05718462 158.05221558 17.06748962 C153.04397641 17.09000327 148.03605296 17.08703945 143.02778244 17.07816815 C138.84765886 17.07306085 134.66759475 17.08034865 130.4874773 17.08764023 C120.62758507 17.10464514 110.76784758 17.10106695 100.90795898 17.08435059 C90.73254468 17.06742252 80.55755914 17.08327196 70.38219166 17.11557347 C61.64744547 17.14225228 52.91283289 17.14955016 44.17805004 17.14105839 C38.96041027 17.13612494 33.74302861 17.13836762 28.52542114 17.1588459 C23.62016583 17.17717654 18.71552847 17.17127638 13.81030655 17.1466465 C12.0095666 17.14163056 10.20877977 17.14514863 8.40807724 17.15779495 C5.95053707 17.1736897 3.49504082 17.15881089 1.03759766 17.13612366 C-0.03268755 17.15387725 -0.03268755 17.15387725 -1.12459469 17.1719895 C-4.94121253 17.10034589 -6.57639923 16.5793553 -9.6136322 14.191329 C-11.66723633 11.50793457 -11.66723633 11.50793457 -12.22973633 7.94543457 C-11.03938518 0.67106646 -6.60690732 -0.08132523 0 0 Z " fill="#FCFDFD" transform="translate(424.667236328125,457.4920654296875)"/>
<path d="M0 0 C44.12061834 -0.0915063 88.24122666 -0.16201369 132.36192114 -0.20426132 C137.56785969 -0.20926429 142.77379806 -0.21444157 147.97973633 -0.21972656 C149.0161681 -0.2207758 150.05259988 -0.22182505 151.12043867 -0.22290608 C167.91389234 -0.240323 184.70729137 -0.27186777 201.5007126 -0.30861118 C218.72551235 -0.34598481 235.95028344 -0.36822827 253.17512208 -0.37635398 C263.80832725 -0.38184918 274.441378 -0.39922057 285.07453565 -0.43166587 C292.36084457 -0.4527696 299.64707338 -0.45920946 306.93341067 -0.45400551 C311.14061468 -0.45143726 315.34754841 -0.45544198 319.55470467 -0.4768219 C323.40460683 -0.49624394 327.25405618 -0.49729866 331.10397891 -0.48359558 C332.49841498 -0.48190124 333.89287895 -0.48701257 335.28725984 -0.49953273 C337.17995152 -0.51554222 339.07281428 -0.50456028 340.96553326 -0.49219131 C342.01773829 -0.4937102 343.06994333 -0.49522908 344.15403336 -0.49679399 C347.75371385 0.13156883 349.43549705 1.43817253 352 4 C352.63110352 7.05273438 352.63110352 7.05273438 352.62890625 10.59375 C352.63083984 11.87121094 352.63277344 13.14867187 352.63476562 14.46484375 C352.62227783 15.12726074 352.60979004 15.78967773 352.59692383 16.47216797 C352.562592 18.49458029 352.57626989 20.51262363 352.59570312 22.53515625 C352.52155635 32.33241616 352.52155635 32.33241616 350.31059265 35.16241455 C347.46513747 37.42536948 346.09608343 37.48712003 342.49707031 37.45410156 C341.39623108 37.45379944 340.29539185 37.45349731 339.16119385 37.45318604 C337.97878113 37.43254089 336.79636841 37.41189575 335.578125 37.390625 C334.36300232 37.38496521 333.14787964 37.37930542 331.89593506 37.37347412 C328.01355657 37.35107734 324.13209972 37.30087187 320.25 37.25 C317.61850291 37.2299394 314.98699136 37.21168787 312.35546875 37.1953125 C305.90333119 37.15120153 299.45173144 37.08425519 293 37 C293.64976807 36.13197754 294.29953613 35.26395508 294.96899414 34.36962891 C297.10975686 30.81790309 297.50370424 29.15390839 297.49609375 25.0859375 C297.49673828 23.99539063 297.49738281 22.90484375 297.49804688 21.78125 C297.47806641 20.6571875 297.45808594 19.533125 297.4375 18.375 C297.44813477 16.67730469 297.44813477 16.67730469 297.45898438 14.9453125 C297.61870911 7.82135829 297.61870911 7.82135829 294 2 C291.68809084 1.39945002 291.68809084 1.39945002 289.03934956 1.49219131 C288.00925811 1.48074373 286.97916667 1.46929614 285.91786033 1.45750165 C284.78266005 1.46526207 283.64745978 1.47302248 282.4778595 1.48101807 C280.67316799 1.46976619 280.67316799 1.46976619 278.83201808 1.458287 C275.48643693 1.44145996 272.14172013 1.44259586 268.79616416 1.45119452 C265.19081716 1.45612665 261.58557804 1.43807038 257.98027039 1.42277527 C251.73189159 1.39942802 245.48362895 1.39071627 239.23520851 1.39188385 C230.20101858 1.39355092 221.16698382 1.37324055 212.13283523 1.34752855 C197.47634108 1.30641337 182.81987477 1.28312598 168.16333008 1.27099609 C153.92404502 1.25917348 139.68481242 1.23898813 125.44555664 1.20751953 C124.56816811 1.20558343 123.69077958 1.20364733 122.78680352 1.20165256 C118.38529816 1.1918882 113.98379319 1.18195905 109.58228838 1.17194796 C73.05488335 1.08908072 36.52748059 1.03512348 0 1 C0 0.67 0 0.34 0 0 Z " fill="#E2E3E4" transform="translate(338,811)"/>
<path d="M0 0 C22.22650718 -0.09338293 44.45298208 -0.16394957 66.67964554 -0.20724869 C76.99955039 -0.22788633 87.31933346 -0.2560299 97.63916016 -0.30175781 C106.63244448 -0.34158877 115.62564061 -0.36742406 124.61901069 -0.37635398 C129.38231047 -0.38157507 134.14535794 -0.39387145 138.90857697 -0.42292023 C143.39011963 -0.45003027 147.87130556 -0.45845397 152.35292244 -0.45243073 C153.99929555 -0.45353295 155.64568035 -0.46151319 157.29198265 -0.4768219 C159.53748266 -0.49668167 161.7816303 -0.49195506 164.02716064 -0.48101807 C165.28448627 -0.48470524 166.5418119 -0.48839241 167.83723831 -0.49219131 C171.57054851 0.08878918 172.73696841 1.03618822 175 4 C175.56640625 6 175.56640625 6 175.5625 8 C175.58441406 8.66 175.60632813 9.32 175.62890625 10 C174.62604579 13.18922085 172.76745942 14.20717746 170 16 C167.29037269 16.38313874 164.99188466 16.53756281 162.28843689 16.50120544 C161.51927918 16.50673984 160.75012148 16.51227424 159.95765597 16.51797634 C157.38411955 16.53157378 154.81155448 16.51661918 152.23803711 16.50170898 C150.39159229 16.50549247 148.5451503 16.51099275 146.69871521 16.51808167 C141.68638528 16.53204872 136.67439812 16.52085811 131.6620872 16.50437045 C126.41889214 16.49052678 121.17571711 16.49697917 115.93251038 16.50050354 C107.12837189 16.50320596 98.32436972 16.48972646 89.52026367 16.46655273 C79.33696717 16.43993457 69.15389847 16.43819842 58.97057909 16.4499411 C49.17870091 16.46071402 39.38690526 16.45453616 29.59503365 16.44038582 C25.42564509 16.43462263 21.25631686 16.4347113 17.08692741 16.43945122 C12.17933082 16.44421778 7.27198422 16.43413262 2.3644352 16.41249657 C0.56166807 16.40692446 -1.24112306 16.40646728 -3.04389191 16.41144943 C-5.50134704 16.41739001 -7.95803463 16.4049213 -10.41542053 16.38768005 C-11.13185685 16.3936901 -11.84829316 16.39970014 -12.58643967 16.40589231 C-15.68879805 16.36620552 -17.74966618 16.14158022 -20.47403622 14.60077 C-22 13 -22 13 -22 11 C-18.56233157 9.85411052 -15.94630573 9.88566581 -12.31945801 9.89993286 C-11.29585828 9.90182627 -11.29585828 9.90182627 -10.25157976 9.90375793 C-7.95999707 9.90914488 -5.66850773 9.92167058 -3.37695312 9.93408203 C-1.73608032 9.93927411 -0.09520593 9.94398247 1.54566956 9.94824219 C5.08153219 9.95818964 8.61736843 9.97104154 12.1532135 9.98596573 C17.74108878 10.00899741 23.3289604 10.02232275 28.91687012 10.03366089 C44.8074193 10.06712302 60.69791588 10.10879167 76.58837891 10.17138672 C85.3626594 10.20586852 94.13690102 10.22970404 102.91124201 10.24159515 C107.55649953 10.24837805 112.20159222 10.26088239 116.8467865 10.28662491 C121.21340409 10.31082297 125.57983347 10.32127028 129.94651604 10.32102966 C131.55138222 10.3234579 133.15624992 10.33106504 134.76106453 10.34415817 C136.94743655 10.36125598 139.13304525 10.35998653 141.31945801 10.35403442 C143.1567384 10.36013072 143.1567384 10.36013072 145.03113556 10.36635017 C147.93673787 10.21769983 147.93673787 10.21769983 149.85503387 8.85287285 C151.47324554 6.4956558 151.47324554 6.4956558 152 1 C101.84 1 51.68 1 0 1 C0 0.67 0 0.34 0 0 Z " fill="#E3E3E4" transform="translate(436,458)"/>
<path d="M0 0 C0.97259766 0.50917969 1.94519531 1.01835937 2.94726562 1.54296875 C19.58834197 10.41376295 19.58834197 10.41376295 23.5625 16.375 C23.5625 18.025 23.5625 19.675 23.5625 21.375 C-31.2175 21.375 -85.9975 21.375 -142.4375 21.375 C-141.54179689 16.89648447 -141.18749027 15.60324944 -138.4375 12.375 C-137.7775 12.705 -137.1175 13.035 -136.4375 13.375 C-137.0975 14.035 -137.7575 14.695 -138.4375 15.375 C-93.8875 15.375 -49.3375 15.375 -3.4375 15.375 C-7.75673034 6.73653932 -18.85919687 2.57536829 -27.69140625 -0.37890625 C-29.26279831 -0.83286396 -30.84863131 -1.23660988 -32.4375 -1.625 C-31.12672893 -2.335001 -29.7840266 -2.98539986 -28.4375 -3.625 C-27.86644531 -3.90085937 -27.29539062 -4.17671875 -26.70703125 -4.4609375 C-16.72396582 -8.80486617 -9.04076212 -4.92915479 0 0 Z " fill="#DBDCDB" transform="translate(571.4375,426.625)"/>
<path d="M0 0 C31.78042359 -0.06840646 63.56082627 -0.12151282 95.34130625 -0.15319599 C99.09146992 -0.1569482 102.84163343 -0.16083116 106.59179688 -0.16479492 C107.71170355 -0.16597532 107.71170355 -0.16597532 108.85423461 -0.16717956 C120.95042602 -0.18024106 133.04657474 -0.20389898 145.14274082 -0.23145839 C157.55029362 -0.25949193 169.95782405 -0.27617191 182.36540723 -0.28226548 C190.02438885 -0.2863862 197.68324985 -0.299411 205.34219435 -0.3237494 C211.21054394 -0.34145016 217.07883129 -0.34337081 222.9472084 -0.33932304 C225.35792154 -0.34015082 227.76863909 -0.3461504 230.1793251 -0.35761642 C233.46239219 -0.37247052 236.74493678 -0.36897929 240.02801514 -0.36076355 C240.98910084 -0.36950207 241.95018655 -0.3782406 242.94039607 -0.38724393 C249.36503117 -0.34357676 249.36503117 -0.34357676 252.59004593 1.40145397 C254.33200505 3.37641322 254.53959707 4.38659339 254.5 7 C254.51546875 8.0209375 254.51546875 8.0209375 254.53125 9.0625 C254 11 254 11 252.59004593 12.59854603 C248.53273117 14.7939279 244.56963812 14.40205756 240.02801514 14.36076355 C239.00370935 14.36332682 237.97940356 14.3658901 236.9240582 14.36853105 C233.48144009 14.37348431 230.0392576 14.35695022 226.59667969 14.34057617 C224.13306692 14.33973024 221.66945339 14.34020439 219.20584106 14.34190369 C213.89653643 14.34258751 208.58736817 14.33406183 203.27809906 14.31719017 C195.60180426 14.29281251 187.92556295 14.28499617 180.24923363 14.2812262 C167.79503169 14.27465977 155.34088869 14.25469343 142.88671875 14.22631836 C130.78841446 14.19878273 118.69012617 14.17754673 106.59179688 14.16479492 C105.47324987 14.16361267 105.47324987 14.16361267 104.33210596 14.16240653 C100.59117079 14.15849142 96.8502355 14.1547003 93.10930014 14.15097082 C62.0728239 14.11986896 31.0364209 14.06680501 0 14 C0 13.67 0 13.34 0 13 C1.10197692 12.99576806 2.20395384 12.99153612 3.339324 12.98717594 C30.11110559 12.88413688 56.88285943 12.77540867 83.65459347 12.66066074 C96.60101847 12.60530301 109.54744623 12.5518169 122.49389648 12.50268555 C133.77356807 12.45987487 145.05321915 12.41360488 156.3328591 12.36312145 C162.30934704 12.33649533 168.28583086 12.31164172 174.26234245 12.29092598 C179.88058075 12.27139755 185.49877993 12.24726538 191.11698341 12.21950912 C193.1854672 12.21011851 195.25395959 12.20245053 197.32245636 12.19658089 C200.13350693 12.18835371 202.94446168 12.17408689 205.75547791 12.15821838 C206.585228 12.15724028 207.41497809 12.15626217 208.26987213 12.15525442 C211.93591936 12.47527575 211.93591936 12.47527575 215 11 C215.33 7.7 215.66 4.4 216 1 C144.72 1 73.44 1 0 1 C0 0.67 0 0.34 0 0 Z " fill="#C9CACB" transform="translate(387,676)"/>
<path d="M0 0 C2.4375 0.75 2.4375 0.75 5 2 C5.8125 4.125 5.8125 4.125 6 6 C5.01 6 4.02 6 3 6 C0 2.66666667 0 2.66666667 0 0 Z " fill="#D9D8D7" transform="translate(432,373)"/>
</svg>
