<?xml version="1.0" encoding="UTF-8"?>
<!DOCTYPE svg PUBLIC "-//W3C//DTD SVG 1.1//EN" "http://www.w3.org/Graphics/SVG/1.1/DTD/svg11.dtd">
<svg xmlns="http://www.w3.org/2000/svg" version="1.1" width="129px" height="148px" style="shape-rendering:geometricPrecision; text-rendering:geometricPrecision; image-rendering:optimizeQuality; fill-rule:evenodd; clip-rule:evenodd" xmlns:xlink="http://www.w3.org/1999/xlink">
<g><path style="opacity:0.857" fill="#050505" d="M 56.5,23.5 C 70.7783,23.2319 76.4449,30.0652 73.5,44C 83.7349,53.3791 85.0682,63.8791 77.5,75.5C 91.6605,86.6071 98.3272,101.274 97.5,119.5C 72.8333,119.5 48.1667,119.5 23.5,119.5C 22.4904,101.49 28.8237,86.8236 42.5,75.5C 36.3204,64.302 37.4871,53.9687 46,44.5C 43.738,34.441 47.238,27.441 56.5,23.5 Z"/></g>
<g><path style="opacity:1" fill="#fcfcfc" d="M 91.5,108.5 C 91.5,110.167 91.5,111.833 91.5,113.5C 70.8333,113.5 50.1667,113.5 29.5,113.5C 29.5,111.5 29.5,109.5 29.5,107.5C 31.3209,92.8551 38.9875,82.6885 52.5,77C 43.551,70.7075 41.3843,62.5408 46,52.5C 48.3756,49.9552 50.8756,47.6218 53.5,45.5C 49.8138,40.9244 49.6471,36.2578 53,31.5C 58.9069,27.105 64.2402,27.7716 69,33.5C 69.9542,37.59 69.4542,41.4233 67.5,45C 71.7694,48.2769 74.936,52.4436 77,57.5C 78.398,65.8685 75.5647,72.3685 68.5,77C 82.1373,83.0966 89.804,93.5966 91.5,108.5 Z"/></g>
<g><path style="opacity:1" fill="#c2c2c2" d="M 29.5,107.5 C 29.5,109.5 29.5,111.5 29.5,113.5C 50.1667,113.5 70.8333,113.5 91.5,113.5C 91.5,111.833 91.5,110.167 91.5,108.5C 92.4614,110.265 92.7947,112.265 92.5,114.5C 71.1667,114.5 49.8333,114.5 28.5,114.5C 28.1984,111.941 28.5318,109.607 29.5,107.5 Z"/></g>
</svg>
