<?xml version="1.0" encoding="UTF-8"?>
<!DOCTYPE svg PUBLIC "-//W3C//DTD SVG 1.1//EN" "http://www.w3.org/Graphics/SVG/1.1/DTD/svg11.dtd">
<svg xmlns="http://www.w3.org/2000/svg" version="1.1" width="131px" height="130px" style="shape-rendering:geometricPrecision; text-rendering:geometricPrecision; image-rendering:optimizeQuality; fill-rule:evenodd; clip-rule:evenodd" xmlns:xlink="http://www.w3.org/1999/xlink">
<g><path style="opacity:0.892" fill="#060606" d="M 58.5,13.5 C 68.8562,12.2502 72.6895,16.5835 70,26.5C 68.786,28.0488 67.286,29.2155 65.5,30C 67.7653,40.1561 70.0986,50.3228 72.5,60.5C 76.4504,52.1576 80.117,43.6576 83.5,35C 82.7297,33.2252 81.563,31.7252 80,30.5C 78.1717,19.9919 82.3384,16.1586 92.5,19C 98.0132,24.7631 97.5132,29.9298 91,34.5C 90.3333,44.1667 90.3333,53.8333 91,63.5C 95.3333,56.5 99.6667,49.5 104,42.5C 104.003,39.9676 103.503,37.4676 102.5,35C 105.751,25.531 111.251,24.031 119,30.5C 121.656,38.3534 118.823,42.6868 110.5,43.5C 108.885,55.1901 107.052,66.8568 105,78.5C 101.629,83.7062 98.4622,89.0395 95.5,94.5C 98.3303,99.2998 100.33,104.466 101.5,110C 100.649,115.72 97.3153,118.054 91.5,117C 69.7912,119.195 48.1245,118.861 26.5,116C 23.208,113.588 22.0413,110.421 23,106.5C 24.9149,102.335 27.0815,98.3351 29.5,94.5C 26.9622,89.1233 23.7955,84.1233 20,79.5C 18.0565,67.5063 16.2231,55.5063 14.5,43.5C 6.17732,42.6868 3.34399,38.3534 6,30.5C 13.7486,24.031 19.2486,25.531 22.5,35C 21.4968,37.4676 20.9968,39.9676 21,42.5C 25.3333,49.5 29.6667,56.5 34,63.5C 34.8323,53.1506 34.6656,42.8172 33.5,32.5C 27.7095,28.3794 27.0428,23.5461 31.5,18C 41.5884,14.4271 46.0884,17.9271 45,28.5C 44.028,30.3049 42.8613,31.9716 41.5,33.5C 44.9737,42.59 48.6404,51.59 52.5,60.5C 54.9014,50.3228 57.2347,40.1561 59.5,30C 52.0003,24.8636 51.6669,19.3636 58.5,13.5 Z"/></g>
<g><path style="opacity:1" fill="#e4e4e4" d="M 59.5,18.5 C 61.604,18.2011 63.604,18.5344 65.5,19.5C 66.8774,23.9595 65.2107,25.7928 60.5,25C 58.1656,23.1575 57.8323,20.9909 59.5,18.5 Z"/></g>
<g><path style="opacity:1" fill="#ececec" d="M 34.5,21.5 C 40.1581,20.6794 41.8248,22.846 39.5,28C 34.2616,28.5941 32.5949,26.4274 34.5,21.5 Z"/></g>
<g><path style="opacity:1" fill="#f2f2f2" d="M 85.5,22.5 C 90.2137,22.2008 91.8804,24.2008 90.5,28.5C 84.7403,30.2126 83.0736,28.2126 85.5,22.5 Z"/></g>
<g><path style="opacity:1" fill="#ececec" d="M 11.5,31.5 C 17.0159,31.4734 18.3492,33.64 15.5,38C 9.73774,38.4178 8.4044,36.2511 11.5,31.5 Z"/></g>
<g><path style="opacity:1" fill="#ececec" d="M 109.5,31.5 C 115.016,31.4734 116.349,33.64 113.5,38C 107.738,38.4178 106.404,36.2511 109.5,31.5 Z"/></g>
<g><path style="opacity:1" fill="#f4f4f4" d="M 61.5,40.5 C 62.6491,40.7911 63.3158,41.6244 63.5,43C 65.4911,52.1212 67.1578,61.2879 68.5,70.5C 64.5,70.5 60.5,70.5 56.5,70.5C 58.4252,60.5411 60.0919,50.5411 61.5,40.5 Z"/></g>
<g><path style="opacity:1" fill="#f5f5f5" d="M 39.5,43.5 C 43.9329,52.4532 47.5996,61.7865 50.5,71.5C 46.8333,71.5 43.1667,71.5 39.5,71.5C 39.5,62.1667 39.5,52.8333 39.5,43.5 Z"/></g>
<g><path style="opacity:1" fill="#f4f4f4" d="M 84.5,44.5 C 85.4933,53.3178 85.8266,62.3178 85.5,71.5C 81.8333,71.5 78.1667,71.5 74.5,71.5C 77.5485,62.4015 80.8818,53.4015 84.5,44.5 Z"/></g>
<g><path style="opacity:1" fill="#f0f0f0" d="M 20.5,52.5 C 25.1657,58.5179 29.499,64.8512 33.5,71.5C 30.2937,72.8079 26.9604,73.4746 23.5,73.5C 23.4741,66.3464 22.4741,59.3464 20.5,52.5 Z"/></g>
<g><path style="opacity:1" fill="#efefef" d="M 103.5,52.5 C 104.043,52.56 104.376,52.8933 104.5,53.5C 102.417,59.997 101.417,66.6637 101.5,73.5C 98.0396,73.4746 94.7063,72.8079 91.5,71.5C 95.5265,65.1492 99.5265,58.8158 103.5,52.5 Z"/></g>
<g><path style="opacity:1" fill="#f1f1f1" d="M 41.5,75.5 C 58.5172,75.3964 75.5172,75.8964 92.5,77C 94.8947,77.6813 97.228,78.5147 99.5,79.5C 97.7534,82.2512 95.42,84.2512 92.5,85.5C 72.5,84.1667 52.5,84.1667 32.5,85.5C 28.7113,84.0483 26.378,81.3817 25.5,77.5C 31.0207,77.2181 36.354,76.5514 41.5,75.5 Z"/></g>
<g><path style="opacity:1" fill="#f6f6f6" d="M 38.5,88.5 C 55.8502,88.2883 73.1835,88.6216 90.5,89.5C 90.5,91.5 90.5,93.5 90.5,95.5C 71.8286,94.2366 53.1619,94.2366 34.5,95.5C 34.5,93.5 34.5,91.5 34.5,89.5C 36.099,89.7678 37.4324,89.4345 38.5,88.5 Z"/></g>
<g><path style="opacity:1" fill="#f7f7f7" d="M 45.5,98.5 C 61.2269,98.2074 76.8936,99.0408 92.5,101C 94.1431,104.384 95.4765,107.884 96.5,111.5C 77.5394,113.305 58.5394,113.805 39.5,113C 35.7808,112.612 32.1141,111.945 28.5,111C 28.0426,110.586 27.7093,110.086 27.5,109.5C 28.6581,106.358 30.3248,103.525 32.5,101C 36.9649,100.126 41.2983,99.2926 45.5,98.5 Z"/></g>
</svg>
