<?xml version="1.0" encoding="UTF-8"?>
<svg version="1.1" xmlns="http://www.w3.org/2000/svg" width="1024" height="1024">
<path d="M0 0 C337.92 0 675.84 0 1024 0 C1024 337.92 1024 675.84 1024 1024 C686.08 1024 348.16 1024 0 1024 C0 686.08 0 348.16 0 0 Z " fill="#FDFEFE" transform="translate(0,0)"/>
<path d="M0 0 C4.72162341 3.30183455 7.54455692 7.38362723 10.3125 12.375 C10.87517578 13.26638672 10.87517578 13.26638672 11.44921875 14.17578125 C12.70942038 17.38615916 12.69389101 20.536685 12.6875 23.9375 C12.68878906 24.64406738 12.69007813 25.35063477 12.69140625 26.07861328 C12.58055166 31.63016052 11.41302093 36.22033035 9.1875 41.3359375 C8.18105193 43.31150864 8.18105193 43.31150864 8.3125 45.375 C9.52873047 45.81199219 9.52873047 45.81199219 10.76953125 46.2578125 C36.53112045 55.79469884 55.12016122 72.90199907 66.875 97.5625 C69.3125 102.91971545 69.3125 102.91971545 69.3125 106.375 C80.1895367 101.39222341 89.83008569 94.96088063 99.5703125 88.0703125 C102.3125 86.375 102.3125 86.375 105.3125 86.375 C106.18088824 89.10035688 107.03242619 91.82916373 107.875 94.5625 C108.12185547 95.33142578 108.36871094 96.10035156 108.62304688 96.89257812 C110.92113574 104.43419368 110.92113574 104.43419368 109.3125 108.375 C107.6328125 110.3046875 107.6328125 110.3046875 105.4375 112.25 C87.19508329 129.79636266 78.0468591 153.85511858 70.31378174 177.44186401 C68.77387044 182.09549076 67.10037682 186.68434795 65.34765625 191.26171875 C64.98034142 192.22828148 64.98034142 192.22828148 64.60560608 193.21437073 C63.60772276 195.83956008 62.60887984 198.4640023 61.58666992 201.07983398 C60.8263206 203.03126307 60.08545275 204.98917177 59.34765625 206.94921875 C58.9081665 208.08963623 58.46867676 209.23005371 58.01586914 210.4050293 C57.056712 213.28369084 57.056712 213.28369084 58.08544922 215.6550293 C58.98127382 216.91071659 59.93118388 218.12831191 60.91015625 219.3203125 C63.42622209 223.00680451 62.93429792 227.09000129 62.3125 231.375 C60.31592873 235.23044798 58.91542362 236.97305092 55.3125 239.375 C54.3225 239.375 53.3325 239.375 52.3125 239.375 C52.9725 242.675 53.6325 245.975 54.3125 249.375 C55.4675 249.4575 56.6225 249.54 57.8125 249.625 C65.71312114 250.67005571 70.8582692 254.15256538 75.8359375 260.30078125 C79.80124384 265.87109254 80.66849268 270.61113917 80.3125 277.375 C82.045 277.4678125 82.045 277.4678125 83.8125 277.5625 C89.83347027 278.36033175 94.28463713 280.86766413 98.11328125 285.6015625 C103.23278881 293.10365712 104.2492461 299.30224568 103.3125 308.375 C100.45856932 316.4986367 94.60318917 322.03161071 87.3125 326.375 C83.57171611 327.68575964 79.85193889 327.48825174 75.921875 327.47265625 C75.21726135 327.4712413 74.51264771 327.46982635 73.78668213 327.46836853 C71.54524416 327.46278933 69.30390757 327.45024073 67.0625 327.4375 C65.53906395 327.43248231 64.01562632 327.42791987 62.4921875 327.42382812 C58.76559228 327.41282674 55.03905604 327.39557646 51.3125 327.375 C51.99131067 386.50760178 57.44526603 448.38653309 74.8125 505.25 C75.05258789 506.03914795 75.29267578 506.8282959 75.54003906 507.64135742 C84.38633082 536.18620053 94.58800914 563.78181794 108.3125 590.375 C109.00085938 592.03789063 109.00085938 592.03789063 109.703125 593.734375 C111.05900164 596.57406794 111.05900164 596.57406794 113.80078125 597.29296875 C114.73277344 597.38191406 115.66476562 597.47085938 116.625 597.5625 C122.36989841 598.33556021 126.40288432 599.35626342 130.5 603.6875 C134.16446255 609.12101343 136.54974792 613.69386124 135.3125 620.375 C133.26832168 626.32583023 130.57696202 631.22033698 125.16015625 634.61328125 C122.18194302 635.84108586 119.46544877 635.69672947 116.3125 635.375 C117.58194442 660.76388847 141.11907163 679.02154908 158.3125 695.375 C159.82227705 696.6987087 161.34037 698.01307079 162.87109375 699.3125 C165.73541711 701.7682191 167.81919522 704.11666924 169.6875 707.4375 C170.14898438 708.23285156 170.61046875 709.02820313 171.0859375 709.84765625 C174.08740229 716.03220313 174.69888143 721.34672499 174.6875 728.125 C174.68733887 729.01445313 174.68717773 729.90390625 174.68701172 730.8203125 C174.57301524 737.36731047 173.5922762 742.62940665 170.3125 748.375 C169.64213735 749.70647893 168.97439201 751.03929 168.3125 752.375 C170.045 752.25125 170.045 752.25125 171.8125 752.125 C177.54385358 752.1553782 181.9328782 754.10593585 186.078125 758.05859375 C191.12088264 763.75005565 192.62971619 767.9065677 192.68359375 775.578125 C192.69262222 776.37474548 192.7016507 777.17136597 192.71095276 777.99212646 C192.72543999 779.67651626 192.73433821 781.36096213 192.73803711 783.04541016 C192.74989739 785.60287292 192.79906212 788.15789251 192.84960938 790.71484375 C193.00078998 805.94402527 193.00078998 805.94402527 187.3125 812.375 C182.24238192 817.07413383 178.60629682 818.62444081 171.69944191 818.62947559 C170.69991893 818.63428531 170.69991893 818.63428531 169.68020356 818.63919219 C167.43740123 818.647523 165.1948638 818.64155725 162.95205688 818.63569641 C161.33183248 818.6387157 159.7116095 818.64260405 158.09138906 818.64728898 C153.6311672 818.65760654 149.17102538 818.65537762 144.71079683 818.65110838 C139.90360927 818.64864795 135.09644131 818.65764683 130.28926086 818.66514587 C120.86827777 818.67791409 111.44732316 818.67968391 102.02633287 818.67734561 C94.37058317 818.67556461 86.71484214 818.67730741 79.05909348 818.68157005 C77.97065081 818.68216524 76.88220813 818.68276043 75.76078235 818.68337366 C73.54980187 818.68458537 71.3388214 818.68579951 69.12784092 818.68701603 C48.37945241 818.69789982 27.63108014 818.69572515 6.88269071 818.68963119 C-12.10844354 818.68446167 -31.0995265 818.6957169 -50.0906506 818.71472941 C-69.57900493 818.7340905 -89.06733498 818.74236682 -108.55569899 818.73860615 C-119.50161083 818.73669143 -130.44747901 818.73920798 -141.39338303 818.75332069 C-150.71203604 818.76521348 -160.03061853 818.76666308 -169.34927247 818.75453053 C-174.10541527 818.74862695 -178.86142893 818.74758311 -183.61756325 818.75953293 C-187.9699953 818.77034151 -192.32218963 818.76734859 -196.67461033 818.75327124 C-198.25063003 818.75061039 -199.82666806 818.75303414 -201.40266983 818.76100711 C-203.5429879 818.77108484 -205.68247509 818.76271634 -207.82275963 818.74973011 C-209.60685079 818.74981263 -209.60685079 818.74981263 -211.42698419 818.74989682 C-217.62025084 818.03778986 -221.73836249 815.07127163 -225.6875 810.375 C-228.3236642 805.22300436 -229.15463314 800.93742242 -229.15625 795.1328125 C-229.16767029 793.98110062 -229.16767029 793.98110062 -229.17932129 792.80612183 C-229.1900664 791.19093048 -229.19299828 789.57566998 -229.18847656 787.96044922 C-229.18750508 785.51279687 -229.22916654 783.06829398 -229.2734375 780.62109375 C-229.39685953 764.87971308 -229.39685953 764.87971308 -223.6875 758.375 C-218.42777512 753.63867352 -212.67164373 751.63367199 -205.6875 751.375 C-206.03683594 750.65054688 -206.38617188 749.92609375 -206.74609375 749.1796875 C-207.42865234 747.72949219 -207.42865234 747.72949219 -208.125 746.25 C-208.57746094 745.29867187 -209.02992188 744.34734375 -209.49609375 743.3671875 C-213.30685919 733.79654382 -212.94378827 722.413712 -208.9921875 712.984375 C-205.06900263 705.13800525 -199.85717465 699.3529495 -193.37255859 693.54150391 C-187.88631304 688.6188188 -182.61297754 683.49789999 -177.375 678.3125 C-176.5394458 677.49797363 -175.7038916 676.68344727 -174.84301758 675.84423828 C-162.84643794 663.91800932 -155.63721712 653.20413722 -153.6875 636.375 C-154.61304688 636.24609375 -155.53859375 636.1171875 -156.4921875 635.984375 C-162.5251225 634.83383972 -166.24470118 631.29328402 -169.6875 626.375 C-172.51799263 621.59279584 -172.42060364 616.78350949 -171.6875 611.375 C-169.30328882 605.43417627 -165.29519049 601.49019259 -159.80908203 598.27368164 C-157.42801666 597.26508536 -155.86769669 597.30122411 -153.3046875 597.37109375 C-150.29060014 597.07461604 -149.09139639 596.81198528 -147.01269531 594.56298828 C-145.42465309 591.91750563 -144.10097568 589.2413858 -142.8125 586.4375 C-142.31057129 585.40842529 -141.80864258 584.37935059 -141.29150391 583.3190918 C-139.70863087 580.02454185 -138.18940692 576.70717382 -136.6875 573.375 C-136.20990234 572.32376953 -135.73230469 571.27253906 -135.24023438 570.18945312 C-117.16830083 529.97127737 -105.68080529 487.96584595 -98.23730469 444.57958984 C-97.88285063 442.51362005 -97.52200315 440.448732 -97.15332031 438.38525391 C-91.46578084 406.38884282 -89.13974084 373.39257168 -88.125 340.9375 C-88.06022461 338.96426758 -88.06022461 338.96426758 -87.99414062 336.95117188 C-87.88967545 333.75918036 -87.78748528 330.56713443 -87.6875 327.375 C-88.57945068 327.39071045 -89.47140137 327.4064209 -90.39038086 327.42260742 C-93.73956259 327.47411992 -97.08831566 327.51153447 -100.43774414 327.53979492 C-101.87986955 327.55476508 -103.32195036 327.57514868 -104.76391602 327.60131836 C-123.35334593 327.92993566 -123.35334593 327.92993566 -131 322.0625 C-136.87935893 316.18314107 -139.96280524 310.38701206 -140.0625 302.0625 C-139.90784808 293.99330863 -137.76947318 289.38246475 -132.3125 283.5625 C-128.33132669 279.84447461 -124.8783815 277.49671564 -119.3125 277.1875 C-118.44625 277.249375 -117.58 277.31125 -116.6875 277.375 C-116.73390625 276.818125 -116.7803125 276.26125 -116.828125 275.6875 C-117.20549269 267.70886881 -114.87288495 262.52542772 -109.5625 256.625 C-104.99318398 252.32157091 -99.20214717 249.49737629 -92.8828125 249.27734375 C-91.79613281 249.32568359 -91.79613281 249.32568359 -90.6875 249.375 C-90.3575 246.405 -90.0275 243.435 -89.6875 240.375 C-90.615625 239.7975 -91.54375 239.22 -92.5 238.625 C-96.96491815 235.47329307 -98.69688846 233.43098834 -99.625 228.0625 C-100.07422462 223.03783943 -98.5372038 220.43366905 -95.6875 216.375 C-95.0275 216.375 -94.3675 216.375 -93.6875 216.375 C-110.53653279 157.96591573 -110.53653279 157.96591573 -145.015625 109.25 C-146.6875 107.375 -146.6875 107.375 -146.6875 103.375 C-145.75654211 97.5050655 -143.71307462 91.94297489 -141.6875 86.375 C-138.536351 87.00258363 -136.29083611 88.07914383 -133.59765625 89.81640625 C-132.8188208 90.31430664 -132.03998535 90.81220703 -131.23754883 91.32519531 C-130.00621216 92.12328613 -130.00621216 92.12328613 -128.75 92.9375 C-127.047266 94.02795454 -125.34413895 95.11779556 -123.640625 96.20703125 C-122.80337891 96.74408691 -121.96613281 97.28114258 -121.10351562 97.83447266 C-117.75782869 99.96778759 -114.38421505 102.05351458 -111 104.125 C-109.96488281 104.75921875 -108.92976563 105.3934375 -107.86328125 106.046875 C-107.14527344 106.48515625 -106.42726563 106.9234375 -105.6875 107.375 C-105.59339844 106.37726563 -105.49929688 105.37953125 -105.40234375 104.3515625 C-104.78209003 100.07105933 -103.20977097 96.57664616 -101.25 92.75 C-100.89583008 92.05559814 -100.54166016 91.36119629 -100.17675781 90.64575195 C-88.86234249 69.20184381 -69.52521841 53.31990886 -46.6875 45.375 C-45.6975 45.375 -44.7075 45.375 -43.6875 45.375 C-44.03683594 44.69953125 -44.38617188 44.0240625 -44.74609375 43.328125 C-45.20113281 42.43609375 -45.65617188 41.5440625 -46.125 40.625 C-46.57746094 39.74328125 -47.02992188 38.8615625 -47.49609375 37.953125 C-50.62985091 31.17188 -50.85871867 23.01754147 -49.0390625 15.8046875 C-44.96283105 5.80572659 -37.44394873 -0.47199059 -27.875 -4.9375 C-17.6452085 -7.14392562 -8.86886587 -5.33020319 0 0 Z " fill="#080808" transform="translate(530.6875,106.625)"/>
<path d="M0 0 C37.62 0 75.24 0 114 0 C114.99 16.335 114.99 16.335 116 33 C117.9542717 60.84623826 120.20028501 88.48922631 125 116 C125.19302704 117.11477722 125.19302704 117.11477722 125.38995361 118.2520752 C130.04010924 145.02476062 135.43027996 171.66666625 144.14160156 197.45605469 C144.75967585 199.28777654 145.37007957 201.12209311 145.97558594 202.95800781 C152.7160986 223.3805676 160.88636308 242.91547712 170.30859375 262.23999023 C173 267.79468572 173 267.79468572 173 270 C96.44 270 19.88 270 -59 270 C-57.59798806 265.79396417 -56.28158125 262.34023481 -54.3125 258.45703125 C-42.49575167 234.78033552 -33.67019535 210.32298391 -26 185 C-25.6999707 184.01950684 -25.39994141 183.03901367 -25.09082031 182.02880859 C-7.2012298 123.0048652 -2.72303754 61.2683446 0 0 Z " fill="#FDFDFD" transform="translate(455,434)"/>
<path d="M0 0 C81.18 0 162.36 0 246 0 C246.66 3.96 247.32 7.92 248 12 C254.79388465 33.93243198 274.27968854 51.99655999 291.296875 66.53515625 C298.69109718 72.89486569 304.25975491 79.40338643 305.23828125 89.4453125 C305.46768053 97.72783397 303.67318746 104.07375592 299 110.9375 C294.26658303 115.81883625 294.26658303 115.81883625 290.33873343 116.38065016 C289.31478736 116.38330551 288.29084129 116.38596086 287.23586655 116.38869667 C286.05196484 116.39898671 284.86806314 116.40927675 283.64828563 116.4198786 C282.34636248 116.41591492 281.04443933 116.41195123 279.70306396 116.40786743 C278.3069997 116.41418704 276.91094079 116.42180149 275.51488996 116.43060148 C271.67419162 116.45092769 267.83367976 116.45242775 263.99293637 116.45081019 C259.85235644 116.452253 255.71184781 116.47083287 251.57130432 116.48706055 C242.51550527 116.51919949 233.45976311 116.52899613 224.40391445 116.53470278 C218.75003488 116.53845204 213.09617055 116.54725818 207.44229889 116.55720139 C191.79008203 116.58414386 176.13787991 116.60665093 160.48563766 116.60907936 C158.98283681 116.60931272 158.98283681 116.60931272 157.44967635 116.6095508 C155.41861963 116.60984185 153.38756292 116.61012722 151.3565062 116.61040695 C150.3482781 116.61054981 149.34005 116.61069266 148.30126953 116.61083984 C146.78708265 116.61104935 146.78708265 116.61104935 145.24230614 116.61126308 C128.88430237 116.61439855 112.52656337 116.65098851 96.16864702 116.7024761 C79.37648184 116.75490942 62.58444743 116.78119244 45.79219842 116.78063047 C36.36300468 116.78088321 26.93411516 116.79214326 17.50499725 116.83180618 C9.47600642 116.86540741 1.44743825 116.87489617 -6.58160099 116.85304923 C-10.67801434 116.84260674 -14.77359976 116.8434464 -18.86992455 116.87481308 C-22.62210491 116.90326354 -26.37281513 116.89924622 -30.12497374 116.8696541 C-32.1211366 116.86224368 -34.11733624 116.88923895 -36.11331201 116.91755545 C-43.32972631 116.82216438 -47.43761686 116.00238552 -52.57358432 110.76492345 C-57.43596007 104.74864004 -58.6571 97.19933749 -58.3125 89.62890625 C-57.30010773 81.11215631 -53.9683349 76.01776211 -48 70 C-47.42894531 69.40316406 -46.85789062 68.80632812 -46.26953125 68.19140625 C-43.32236107 65.16330691 -40.26061918 62.32337633 -37.0625 59.5625 C-30.13401362 53.57029556 -23.89429867 47.00351023 -18 40 C-17.33871094 39.22785156 -16.67742187 38.45570313 -15.99609375 37.66015625 C-6.28073062 25.99065936 -1.517108 15.17107999 0 0 Z " fill="#FEFEFD" transform="translate(389,743)"/>
<path d="M0 0 C0.97153764 -0.00352835 0.97153764 -0.00352835 1.9627023 -0.00712797 C4.16003344 -0.01385069 6.3573059 -0.01335877 8.55464649 -0.01294994 C10.13515766 -0.01624655 11.71566798 -0.01997168 13.29617721 -0.02409142 C17.66053979 -0.0341429 22.02488861 -0.03783326 26.38926113 -0.04048073 C31.08811302 -0.04437455 35.78695393 -0.05395357 40.48579884 -0.0626936 C51.844796 -0.08248531 63.20379409 -0.09252814 74.56280419 -0.10142139 C79.90712955 -0.1058003 85.2514539 -0.11116817 90.59577847 -0.11641026 C108.35386639 -0.13342607 126.11195369 -0.1479209 143.87004852 -0.155159 C148.48169614 -0.15706901 153.09334375 -0.15898933 157.70499134 -0.16094494 C158.85124805 -0.16142868 159.99750476 -0.16191242 161.17849652 -0.16241082 C179.75274088 -0.17071348 198.32692089 -0.19605283 216.90113714 -0.22852562 C235.95546817 -0.2615671 255.00976647 -0.27960516 274.06412631 -0.28280324 C284.76865552 -0.28497115 295.47309093 -0.29376077 306.17759228 -0.31926441 C315.29320827 -0.34093178 324.40870767 -0.34904145 333.52434649 -0.33929763 C338.17722513 -0.33474125 342.82986304 -0.3367165 347.48270893 -0.35605907 C351.74094405 -0.37360862 355.99876137 -0.37276024 360.25700042 -0.35716178 C361.79879487 -0.35477315 363.34061763 -0.35917395 364.88236865 -0.37099043 C366.97678135 -0.38605038 369.06970233 -0.37648026 371.16407776 -0.36076355 C372.32775822 -0.36174036 373.49143868 -0.36271717 374.69038218 -0.36372358 C378.61553604 0.24586818 380.80668369 1.6848392 383.89664173 4.13422108 C386.1406641 8.62226582 385.20652622 14.6931673 385.24673939 19.68231678 C385.26328361 21.18670609 385.29055424 22.69101728 385.32877064 24.19501209 C385.38370381 26.36917149 385.40543543 28.5414913 385.42007923 30.71625233 C385.43989857 32.01796375 385.4597179 33.31967518 385.48013783 34.66083241 C384.7334725 39.10552176 383.37170576 40.33238017 379.89664173 43.13422108 C376.79238456 43.75981623 376.79238456 43.75981623 373.23303604 43.76063347 C372.2435463 43.77108488 372.2435463 43.77108488 371.23406687 43.78174743 C369.01955567 43.79901814 366.8067881 43.78061487 364.59230518 43.76241016 C362.99041005 43.76745442 361.38852055 43.77468231 359.78664404 43.78390831 C355.38166353 43.80287479 350.97723654 43.79057229 346.5722698 43.77318537 C341.82305877 43.75983787 337.07393014 43.77523899 332.32472706 43.78700733 C323.02012555 43.80540744 313.71573373 43.79685598 304.41113871 43.77891911 C296.8512077 43.76490673 289.2913337 43.76099737 281.73139095 43.76436138 C280.11887922 43.76507754 280.11887922 43.76507754 278.4737915 43.76580818 C276.29010608 43.76683448 274.10642067 43.76788984 271.92273528 43.76897394 C252.60434371 43.7775457 233.28605355 43.76085011 213.96768665 43.73114491 C195.21015635 43.70230236 176.45277211 43.69522525 157.69522572 43.71063709 C137.28160483 43.72738659 116.86805332 43.73144656 96.45443064 43.71392673 C94.27897935 43.71208229 92.10352805 43.71024757 89.92807674 43.70842266 C88.32242125 43.70705453 88.32242125 43.70705453 86.68432827 43.70565875 C79.13045821 43.70004587 71.57662195 43.70336749 64.02275372 43.70996761 C54.82151222 43.71768776 45.62041468 43.71099574 36.41920226 43.68579257 C31.72200698 43.67326731 27.02503615 43.66718755 22.32783222 43.67833424 C18.03158941 43.68833717 13.73579529 43.68000193 9.43960733 43.65675306 C7.88183001 43.65157172 6.32401284 43.65319503 4.76625263 43.66214771 C2.6550939 43.67327557 0.54547023 43.65998632 -1.56559372 43.64037895 C-2.74001638 43.63918747 -3.91443904 43.63799599 -5.12445027 43.6367684 C-8.74675072 43.02567957 -9.93002601 42.05181018 -12.10335827 39.13422108 C-12.51398766 36.51389817 -12.6887088 34.31891915 -12.66976452 31.70062733 C-12.6759631 30.985676 -12.68216167 30.27072468 -12.68854809 29.53410816 C-12.69563606 28.02541938 -12.6924899 26.51665222 -12.67977428 25.00800037 C-12.66591897 22.70680277 -12.69996916 20.40968392 -12.73812389 18.10883045 C-12.73907531 16.63942842 -12.73721504 15.17002133 -12.73226452 13.70062733 C-12.74552273 13.01714725 -12.75878094 12.33366718 -12.77244091 11.62947559 C-12.69685309 7.7249958 -12.19488936 6.24177575 -9.62655163 3.22382069 C-8.79389782 2.53425282 -7.96124401 1.84468494 -7.10335827 1.13422108 C-5.28459041 -0.68454678 -2.44493991 0.00376048 0 0 Z " fill="#FEFEFE" transform="translate(326.1033582687378,869.8657789230347)"/>
<path d="M0 0 C4.68594255 2.1939273 9.02402672 5.01442057 13.42382812 7.72265625 C21.87707421 12.86073762 29.12951584 14.16421095 39 13 C45.01940728 10.67767384 49.76292512 6.8020182 54 2 C54.57105469 2.51949219 55.14210938 3.03898438 55.73046875 3.57421875 C64.60299302 11.20543597 74.16961101 16.00968105 86.09765625 15.4140625 C95.44332471 14.0807639 103.50737062 9.61256001 111 4 C111.33 3.34 111.66 2.68 112 2 C116.13817057 3.9121202 119.61097699 6.55307209 123.26953125 9.24609375 C129.56792997 13.29184629 134.8543405 14.55759026 142.1875 14.5 C143.02249023 14.49500488 143.85748047 14.49000977 144.71777344 14.48486328 C153.80431813 14.23041195 161.17634759 11.76055301 168 5.625 C168.99 4.75875 169.98 3.8925 171 3 C174.3009264 3.2609428 176.02078464 4.65341649 178.375 6.875 C184.54796504 12.69689594 190.22445569 13.55609393 198.4765625 13.33984375 C207.57146427 12.4626193 214.13180575 7.82629785 221.43359375 2.609375 C224 1 224 1 227 1 C226.45472656 1.55945313 225.90945313 2.11890625 225.34765625 2.6953125 C208.6523189 20.44659426 198.24377041 43.7967351 191.51953125 67.0078125 C189.96884502 72.10235491 187.9777727 77.05556825 186 82 C183.03 90.58 180.06 99.16 177 108 C135.09 108 93.18 108 50 108 C39.17289123 77.68409544 39.17289123 77.68409544 35.97241211 68.14135742 C28.38123844 45.54684962 19.53406257 24.32314509 4.28515625 5.79296875 C2 3 2 3 0 0 Z " fill="#FDFDFD" transform="translate(399,212)"/>
<path d="M0 0 C81.18 0 162.36 0 246 0 C246.66 3.96 247.32 7.92 248 12 C254.79388465 33.93243198 274.27968854 51.99655999 291.296875 66.53515625 C298.69109718 72.89486569 304.25975491 79.40338643 305.23828125 89.4453125 C305.46768053 97.72783397 303.67318746 104.07375592 299 110.9375 C294.26658303 115.81883625 294.26658303 115.81883625 290.33873343 116.38065016 C289.31478736 116.38330551 288.29084129 116.38596086 287.23586655 116.38869667 C286.05196484 116.39898671 284.86806314 116.40927675 283.64828563 116.4198786 C282.34636248 116.41591492 281.04443933 116.41195123 279.70306396 116.40786743 C278.3069997 116.41418704 276.91094079 116.42180149 275.51488996 116.43060148 C271.67419162 116.45092769 267.83367976 116.45242775 263.99293637 116.45081019 C259.85235644 116.452253 255.71184781 116.47083287 251.57130432 116.48706055 C242.51550527 116.51919949 233.45976311 116.52899613 224.40391445 116.53470278 C218.75003488 116.53845204 213.09617055 116.54725818 207.44229889 116.55720139 C191.79008203 116.58414386 176.13787991 116.60665093 160.48563766 116.60907936 C158.98283681 116.60931272 158.98283681 116.60931272 157.44967635 116.6095508 C155.41861963 116.60984185 153.38756292 116.61012722 151.3565062 116.61040695 C150.3482781 116.61054981 149.34005 116.61069266 148.30126953 116.61083984 C146.78708265 116.61104935 146.78708265 116.61104935 145.24230614 116.61126308 C128.88430237 116.61439855 112.52656337 116.65098851 96.16864702 116.7024761 C79.37648184 116.75490942 62.58444743 116.78119244 45.79219842 116.78063047 C36.36300468 116.78088321 26.93411516 116.79214326 17.50499725 116.83180618 C9.47600642 116.86540741 1.44743825 116.87489617 -6.58160099 116.85304923 C-10.67801434 116.84260674 -14.77359976 116.8434464 -18.86992455 116.87481308 C-22.62210491 116.90326354 -26.37281513 116.89924622 -30.12497374 116.8696541 C-32.1211366 116.86224368 -34.11733624 116.88923895 -36.11331201 116.91755545 C-41.83983675 116.84185867 -46.07005176 116.62630081 -50.67530441 113.00862694 C-54.34927871 109.22796854 -55.89229396 105.08852462 -57 100 C-56.39651391 99.99978263 -55.79302782 99.99956526 -55.17125428 99.99934131 C-19.38888631 99.98581996 16.39336135 99.94631196 52.17565828 99.87314438 C56.47387598 99.86437782 60.77209409 99.85582798 65.0703125 99.84741211 C65.92599584 99.84573305 66.78167917 99.84405398 67.6632923 99.84232404 C81.5110757 99.81566783 95.35881771 99.80655995 109.20662414 99.80395857 C123.42002623 99.8008971 137.6333088 99.77892797 151.84665692 99.73947543 C160.61425057 99.71573274 169.38160551 99.70666716 178.14922686 99.71648689 C184.16481478 99.72181031 190.18018917 99.70873686 196.19571631 99.6813371 C199.66436632 99.66607686 203.1325383 99.6587937 206.60120201 99.67340279 C210.36855813 99.68502579 214.13457292 99.66590083 217.90182495 99.63923645 C218.9893987 99.64990971 220.07697244 99.66058297 221.19750297 99.67157966 C228.42726818 99.57629336 233.96054583 98.08184902 240 94 C244.49328001 88.86482285 244.65440076 83.94874409 244.46875 77.234375 C243.87185663 73.11581072 242.47058749 70.24618624 240.19140625 66.8046875 C239 65 239 65 238 62 C237.34 62 236.68 62 236 62 C233.4171597 59.5712496 231.24565213 56.7377932 229 54 C228.20722656 53.04351563 227.41445313 52.08703125 226.59765625 51.1015625 C217.97186839 40.45248304 207 25.22791525 207 11 C104.04 11.495 104.04 11.495 -1 12 C-0.67 8.04 -0.34 4.08 0 0 Z " fill="#DEDEDF" transform="translate(389,743)"/>
<path d="M0 0 C37.62 0 75.24 0 114 0 C114.99 16.335 114.99 16.335 116 33 C117.9542717 60.84623826 120.20028501 88.48922631 125 116 C125.12868469 116.74318481 125.25736938 117.48636963 125.38995361 118.2520752 C130.04010924 145.02476062 135.43027996 171.66666625 144.14160156 197.45605469 C144.75967585 199.28777654 145.37007957 201.12209311 145.97558594 202.95800781 C152.7160986 223.3805676 160.88636308 242.91547712 170.30859375 262.23999023 C173 267.79468572 173 267.79468572 173 270 C159.47 270 145.94 270 132 270 C128.9550281 263.30106181 126.18820504 257.14708671 124.0625 250.2109375 C123.69137085 249.02958725 123.69137085 249.02958725 123.31274414 247.82437134 C122.53523374 245.34325075 121.76758881 242.85920534 121 240.375 C120.48759265 238.73808908 119.97457478 237.10136915 119.4609375 235.46484375 C118.19604925 231.42379646 116.94823569 227.37778912 115.71142578 223.32806396 C115.24833704 221.81265611 114.7832699 220.29785096 114.31591797 218.78375244 C110.99430407 207.99981152 108.29373051 197.17212448 106 186.125 C105.82980347 185.31118866 105.65960693 184.49737732 105.48425293 183.65890503 C98.08284004 148.04983738 93.22533546 111.17968374 92.17578125 74.80859375 C92.01997007 71.43268492 91.56960293 68.32268374 91 65 C90.73806631 62.14941625 90.58256326 59.29616964 90.4375 56.4375 C90.3950415 55.62627686 90.35258301 54.81505371 90.30883789 53.97924805 C89.8520289 44.32191998 89.91344587 34.66521146 90 25 C89.27039063 24.96261719 88.54078125 24.92523438 87.7890625 24.88671875 C81.514277 24.49163966 75.37494091 23.79170241 69.1875 22.6875 C60.68188766 21.1816006 52.1350184 20.1023486 43.5625 19.0625 C28.99978429 17.29337131 14.50062218 15.22721975 0 13 C0 8.71 0 4.42 0 0 Z " fill="#DEDFE0" transform="translate(455,434)"/>
<path d="M0 0 C0.81826948 -0.00297112 1.63653896 -0.00594224 2.47960448 -0.0090034 C5.23712526 -0.0177144 7.99460276 -0.01920068 10.75213623 -0.02069092 C12.72296746 -0.02531744 14.69379779 -0.03034187 16.66462708 -0.03573608 C22.03044252 -0.0488791 27.39624544 -0.05530887 32.76207447 -0.05974674 C36.11266309 -0.06267472 39.46324826 -0.06677903 42.81383514 -0.07125092 C53.2918001 -0.08493156 63.76975722 -0.09459514 74.24773049 -0.09845281 C86.3524482 -0.10293352 98.45705298 -0.1204797 110.56173635 -0.1494534 C119.91126464 -0.17105717 129.26076114 -0.18115641 138.61031413 -0.18249393 C144.19741955 -0.18354299 149.78441891 -0.18947231 155.37149811 -0.20731354 C160.62784822 -0.22377137 165.88401228 -0.22596081 171.14037895 -0.21717453 C173.06970912 -0.2164029 174.99904919 -0.22076342 176.92835426 -0.23063278 C179.56256596 -0.24331767 182.19611531 -0.23749433 184.83032227 -0.22705078 C185.59356158 -0.23510719 186.3568009 -0.24316359 187.14316869 -0.25146413 C193.09681893 -0.19627355 197.01815318 1.32909433 201.54412842 5.14044189 C204.03737527 9.74335916 204.16178618 14.031174 203.16912842 19.14044189 C201.1715954 22.62394459 198.78016068 25.33492576 195.16912842 27.14044189 C192.52513051 27.24700124 189.90696335 27.29265425 187.2623291 27.29434204 C186.43589252 27.29872429 185.60945593 27.30310655 184.75797582 27.3076216 C181.97282392 27.32103733 179.18770368 27.32719467 176.40252686 27.33331299 C174.41199092 27.34121176 172.42145643 27.34948057 170.43092346 27.35809326 C163.88013074 27.38433905 157.32933155 27.39962329 150.77850342 27.41387939 C148.52568813 27.41923799 146.27287288 27.4246155 144.02005768 27.43001175 C134.65071034 27.45164408 125.28136475 27.47038174 115.91199875 27.48163414 C102.47281285 27.49787898 89.03391583 27.53106589 75.59483886 27.58803499 C66.15189536 27.62670297 56.70902923 27.64626311 47.26600862 27.6515547 C41.62292478 27.65521241 35.98014888 27.66727842 30.33715057 27.69965744 C25.0281845 27.72968264 19.71971358 27.7360696 14.41068077 27.72427368 C12.46198623 27.72405248 10.51326908 27.73239562 8.5646534 27.74992752 C5.90379133 27.77256461 3.24473298 27.76435013 0.5838623 27.7484436 C-0.18715891 27.76232569 -0.95818013 27.77620778 -1.75256562 27.79051054 C-7.5682699 27.7048604 -9.89731313 26.11962236 -13.83087158 22.14044189 C-16.6785563 17.87719296 -16.7255218 13.08376342 -15.83087158 8.14044189 C-11.72879042 1.14425439 -7.77873934 -0.00872892 0 0 Z " fill="#FEFEFE" transform="translate(418.83087158203125,394.85955810546875)"/>
<path d="M0 0 C11.44180248 9.97852387 18.50664752 20.83921648 24.859375 34.45703125 C21.859375 34.45703125 21.859375 34.45703125 19.66796875 32.4453125 C18.88550781 31.56230469 18.10304688 30.67929688 17.296875 29.76953125 C16.51183594 28.89941406 15.72679687 28.02929688 14.91796875 27.1328125 C12.97034032 24.60126511 11.86310192 22.46821201 10.859375 19.45703125 C9.71309165 20.45651537 8.56738647 21.45666256 7.421875 22.45703125 C6.6896875 23.09253906 5.9575 23.72804687 5.203125 24.3828125 C3.6585935 25.74972288 2.13674553 27.14276591 0.640625 28.5625 C-5.97851672 34.77377207 -11.7237244 38.52922861 -20.953125 39.08203125 C-32.16347926 38.62620998 -39.85900165 32.42852718 -47.375 24.62890625 C-49.140625 22.45703125 -49.140625 22.45703125 -49.140625 20.45703125 C-53.09302528 22.59762326 -55.79497198 25.03316399 -58.828125 28.33203125 C-65.42884486 34.99116456 -71.12577489 38.63584836 -80.640625 39.08203125 C-91.97866192 38.56364504 -99.44787802 32.34739008 -107.140625 24.45703125 C-108.16883644 23.14533044 -109.18009273 21.81907219 -110.140625 20.45703125 C-114.77626636 22.00224504 -116.34986236 25.84252521 -119.0078125 29.79296875 C-121.18484141 32.51226128 -123.06484826 33.88163341 -126.140625 35.45703125 C-122.75753473 23.31770733 -115.74265688 14.46131642 -107.140625 5.45703125 C-106.58890625 4.83054688 -106.0371875 4.2040625 -105.46875 3.55859375 C-79.05813559 -25.33618736 -28.79231658 -24.02035581 0 0 Z " fill="#FCFCFC" transform="translate(563.140625,177.54296875)"/>
<path d="M0 0 C0.83511504 -0.00064941 1.67023008 -0.00129882 2.53065163 -0.00196791 C3.97803692 -0.01761439 3.97803692 -0.01761439 5.45466232 -0.03357697 C7.04831441 -0.02019264 7.04831441 -0.02019264 8.67416149 -0.00653791 C9.80096296 -0.01277788 10.92776442 -0.01901784 12.08871138 -0.02544689 C15.88445853 -0.04146906 19.6795717 -0.02873603 23.47532421 -0.01618147 C26.18846745 -0.01939704 28.90158332 -0.02857348 31.61471325 -0.0374217 C38.23115073 -0.05523529 44.84740701 -0.05135424 51.46385168 -0.03977114 C56.84038249 -0.03074744 62.21686242 -0.0295082 67.59339863 -0.03386641 C68.35783697 -0.03447934 69.12227531 -0.03509227 69.90987845 -0.03572378 C71.46270294 -0.03700265 73.01552741 -0.0382995 74.56835187 -0.03961414 C89.13951419 -0.05102845 103.71057595 -0.03789334 118.28172178 -0.01641268 C130.78966569 0.00145552 143.29746111 -0.00164182 155.80540234 -0.02008772 C170.32190928 -0.04148563 184.838328 -0.04992596 199.3548485 -0.03763866 C200.90235226 -0.03636444 202.44985603 -0.03510696 203.99735981 -0.03386641 C204.75880643 -0.0332493 205.52025306 -0.0326322 206.30477382 -0.0319964 C211.67553337 -0.02853998 217.04623706 -0.03437818 222.41698796 -0.04378462 C228.96129115 -0.05499418 235.5054024 -0.05198686 242.04968356 -0.03066164 C245.39004669 -0.02013616 248.72982392 -0.01820063 252.07022625 -0.02925825 C255.68828343 -0.04013349 259.30543043 -0.02654584 262.92342907 -0.00653791 C263.98363308 -0.0154608 265.04383708 -0.02438369 266.13616848 -0.03357697 C273.19088841 0.04248022 273.19088841 0.04248022 276.51471573 2.31439257 C278.51045455 5.55332228 278.39396993 7.77961685 277.8622871 11.50139666 C276.51471573 13.68840075 276.51471573 13.68840075 273.8622871 15.50139666 C270.221658 16.11078998 266.60713606 16.04033403 262.92342907 16.00933123 C261.23088689 16.01869117 261.23088689 16.01869117 259.50415194 16.0282402 C255.70917622 16.04424223 251.91483637 16.03153718 248.11985546 16.01897478 C245.40494223 16.0221915 242.69005631 16.03136823 239.97515637 16.04021502 C233.35852305 16.05801714 226.74207105 16.05415297 220.12543058 16.04256445 C214.74939183 16.03353779 209.37340396 16.03230279 203.99735981 16.03665972 C203.23276824 16.03727265 202.46817666 16.03788558 201.68041565 16.03851709 C200.12726696 16.03979596 198.57411829 16.04109281 197.02096964 16.04240745 C182.45174075 16.05381801 167.88261248 16.04069172 153.3134001 16.01920599 C140.80514995 16.00133097 128.29704825 16.00444148 115.78880078 16.02288103 C101.27083126 16.04427321 86.75294994 16.05272311 72.23496687 16.04043198 C70.68777747 16.03915775 69.14058806 16.03790027 67.59339863 16.03665972 C66.83210628 16.03604262 66.07081394 16.03542551 65.28645213 16.03478971 C59.91471024 16.03133211 54.54302418 16.03717389 49.17129093 16.04657793 C42.62808128 16.05778082 36.08506364 16.05479399 29.54187607 16.03345495 C26.20162972 16.02292154 22.86197002 16.02100347 19.52168423 16.03205156 C15.90551926 16.04291295 12.29026759 16.02935637 8.67416149 16.00933123 C7.61172677 16.01825411 6.54929204 16.027177 5.45466232 16.03637028 C4.48973879 16.02593929 3.52481526 16.0155083 2.53065163 16.00476122 C1.27797907 16.00378711 1.27797907 16.00378711 0 16.00279331 C-2.1377129 15.50139666 -2.1377129 15.50139666 -3.90604818 13.68868637 C-5.70588084 10.49239812 -5.52374485 8.10436158 -5.1377129 4.50139666 C-3.67754222 1.9083076 -2.94799966 0.69144794 0 0 Z " fill="#FEFEFE" transform="translate(376.1377128958702,715.4986033439636)"/>
<path d="M0 0 C48.81717987 -0.09151143 97.63435108 -0.1620163 146.45159981 -0.20426132 C152.21203674 -0.20926428 157.97247349 -0.21444155 163.73291016 -0.21972656 C164.87973237 -0.2207758 166.02655458 -0.22182505 167.20812897 -0.22290608 C185.78889885 -0.24032177 204.36961934 -0.27186588 222.9503599 -0.30861118 C242.00917493 -0.3459882 261.06796406 -0.36822899 280.12681425 -0.37635398 C291.89165385 -0.38184847 303.65635385 -0.39921607 315.42115049 -0.43166587 C323.4835131 -0.45277376 331.54580331 -0.4592085 339.60819156 -0.45400551 C344.26309319 -0.45143793 348.91775051 -0.45543464 353.57260895 -0.4768219 C357.83272661 -0.49625294 362.09243512 -0.49729256 366.35257141 -0.48359558 C367.89507187 -0.48190214 369.43759761 -0.48700567 370.98004813 -0.49953273 C373.07541438 -0.51556309 375.16929959 -0.50695007 377.26464272 -0.49219131 C379.01097651 -0.49446964 379.01097651 -0.49446964 380.79258978 -0.49679399 C384.71914418 0.11138784 386.90935003 1.54970346 390 4 C392.24402237 8.48804474 391.30988449 14.55894622 391.35009766 19.5480957 C391.36664188 21.05248501 391.39391251 22.5567962 391.43212891 24.06079102 C391.48706208 26.23495041 391.5087937 28.40727022 391.5234375 30.58203125 C391.54325684 31.88374268 391.56307617 33.1854541 391.58349609 34.52661133 C390.83739711 38.96792943 389.46995095 40.19885552 386 43 C382.93107605 43.60127258 382.93107605 43.60127258 379.46557617 43.56762695 C378.16460495 43.5672493 376.86363373 43.56687164 375.52323914 43.56648254 C374.11313917 43.54095295 372.70304908 43.51487303 371.29296875 43.48828125 C369.84281129 43.47894903 368.392638 43.47183485 366.94245911 43.46684265 C363.136241 43.44780435 359.33098568 43.39873306 355.52514648 43.34332275 C351.63733951 43.29206055 347.74937607 43.26931387 343.86132812 43.24414062 C336.24044776 43.19060936 328.62035908 43.10533738 321 43 C321.53046181 42.25087593 321.53046181 42.25087593 322.07164001 41.48661804 C325.10169757 36.97995955 326.63257966 33.83882259 326.62890625 28.26953125 C326.63083984 27.05458984 326.63277344 25.83964844 326.63476562 24.58789062 C326.61091797 23.34201172 326.58707031 22.09613281 326.5625 20.8125 C326.57345703 19.55501953 326.58441406 18.29753906 326.59570312 17.00195312 C326.65188733 10.48879339 326.65188733 10.48879339 324.760746 4.35176563 C320.19374224 0.46132353 315.09813207 1.31085965 309.2946167 1.36076355 C307.31713436 1.34823004 307.31713436 1.34823004 305.29970288 1.33544332 C301.63723056 1.3129005 297.97538696 1.32151592 294.31289482 1.3351289 C290.36467873 1.34437688 286.41659393 1.32485826 282.46841431 1.30880737 C275.62689221 1.2849433 268.7855503 1.27936465 261.94399261 1.28615379 C252.05225216 1.2959434 242.16071186 1.27823639 232.26900378 1.25378648 C216.22099812 1.21486785 200.1730496 1.19823223 184.125 1.19555664 C168.53447539 1.19290973 152.94401756 1.17980137 137.35351562 1.15258789 C136.39275394 1.15091451 135.43199226 1.14924113 134.44211659 1.14751705 C129.62232787 1.13905767 124.80253954 1.13039224 119.98275137 1.12162435 C79.98851166 1.04913575 39.99430075 1.01278785 0 1 C0 0.67 0 0.34 0 0 Z " fill="#D9DADA" transform="translate(320,870)"/>
<path d="M0 0 C0.99 0.495 0.99 0.495 2 1 C1.45472656 1.55945313 0.90945313 2.11890625 0.34765625 2.6953125 C-16.3476811 20.44659426 -26.75622959 43.7967351 -33.48046875 67.0078125 C-35.03115498 72.10235491 -37.0222273 77.05556825 -39 82 C-41.97 90.58 -44.94 99.16 -48 108 C-89.91 108 -131.82 108 -175 108 C-175 107.67 -175 107.34 -175 107 C-142 107 -109 107 -75 107 C-74.67 105.02 -74.34 103.04 -74 101 C-73.30009677 98.70801296 -72.5540215 96.42984222 -71.7734375 94.1640625 C-71.3192578 92.83130296 -70.86583426 91.49828554 -70.41308594 90.16503906 C-70.06231995 89.13618591 -70.06231995 89.13618591 -69.70446777 88.08654785 C-68.55438405 84.68013977 -67.45261848 81.25844722 -66.3515625 77.8359375 C-66.13034225 77.14996994 -65.90912201 76.46400238 -65.68119812 75.75724792 C-64.99527658 73.62999984 -64.31010245 71.50251201 -63.625 69.375 C-60.19669709 58.73368858 -56.75712404 48.09834961 -53.10595703 37.53076172 C-52.36897225 35.36302127 -51.67312471 33.1883437 -51 31 C-50.75693115 30.24541504 -50.5138623 29.49083008 -50.26342773 28.71337891 C-48.8940551 23.83288723 -48.82209611 20.82228823 -51.16601562 16.28125 C-51.50310547 15.6934375 -51.84019531 15.105625 -52.1875 14.5 C-52.50525391 13.88125 -52.82300781 13.2625 -53.15039062 12.625 C-55.16471901 8.80846513 -55.16471901 8.80846513 -59 7 C-56.75 4.9375 -56.75 4.9375 -54 3 C-50.69992914 3.33526616 -48.99219633 4.64116685 -46.625 6.875 C-40.45203496 12.69689594 -34.77554431 13.55609393 -26.5234375 13.33984375 C-16.94495556 12.41597687 -6.78756911 6.78756911 0 0 Z " fill="#DADBDC" transform="translate(624,212)"/>
<path d="M0 0 C1.30943573 -0.00990463 2.61887146 -0.01980927 3.96798706 -0.03001404 C5.41738985 -0.02577596 6.86679174 -0.02121809 8.31619263 -0.01637268 C9.84397888 -0.02207552 11.37176087 -0.02903945 12.89953613 -0.03717041 C17.04839148 -0.05512838 21.19703562 -0.05392831 25.34591818 -0.04822803 C28.81011643 -0.04513942 32.27427392 -0.05122509 35.73846638 -0.05726677 C43.91219601 -0.07131957 52.08582114 -0.06974496 60.259552 -0.05836487 C68.68930868 -0.04688758 77.11874707 -0.06095094 85.54846179 -0.08776134 C92.78766491 -0.10992255 100.02676815 -0.11655464 107.26600277 -0.11068493 C111.5888494 -0.10731457 115.91149207 -0.10973536 120.23431015 -0.12693596 C124.30066852 -0.14240939 128.36655587 -0.13844545 132.43289566 -0.11963081 C133.92360596 -0.11594574 135.41435118 -0.11905111 136.9050293 -0.1295166 C138.94332351 -0.1427318 140.98173947 -0.12876765 143.02001953 -0.11352539 C144.15969114 -0.11331611 145.29936275 -0.11310682 146.47356987 -0.1128912 C151.13076249 0.62404988 154.1714695 2.97100694 157.51199341 6.20018005 C158.63699341 8.38768005 158.63699341 8.38768005 158.63699341 15.38768005 C101.54699341 15.38768005 44.45699341 15.38768005 -14.36300659 15.38768005 C-14.36300659 9.16320791 -14.0442531 7.98923819 -10.36300659 3.38768005 C-7.00389636 0.204695 -4.56206616 0.00973323 0 0 Z " fill="#FDFDFD" transform="translate(440.3630065917969,367.61231994628906)"/>
<path d="M0 0 C26.10350102 -0.07005844 52.20698797 -0.12297269 78.31056404 -0.15543652 C90.43070746 -0.17091019 102.55079249 -0.19200933 114.67089844 -0.22631836 C125.23388103 -0.25620532 135.79682134 -0.27557136 146.35984504 -0.28226548 C151.95369633 -0.28617891 157.54742663 -0.29538655 163.14123917 -0.31719017 C168.40575913 -0.33754412 173.6701082 -0.34383596 178.93466377 -0.33932304 C180.86722174 -0.34014873 182.79978539 -0.34612082 184.73230934 -0.35761642 C187.37099481 -0.37254341 190.00903518 -0.36895285 192.6477356 -0.36076355 C193.41233915 -0.36950207 194.17694271 -0.3782406 194.96471608 -0.38724393 C200.92453602 -0.33725315 204.84450928 1.18484992 209.375 5 C211.86824685 9.60291726 211.99265776 13.8907321 211 19 C209.00246699 22.48350269 206.61103226 25.19448387 203 27 C200.3560021 27.10655934 197.73783493 27.15221235 195.09320068 27.15390015 C194.2667641 27.1582824 193.44032752 27.16266465 192.5888474 27.1671797 C189.8036955 27.18059543 187.01857526 27.18675278 184.23339844 27.19287109 C182.24286251 27.20076987 180.25232801 27.20903868 178.26179504 27.21765137 C171.71100233 27.24389715 165.16020313 27.2591814 158.609375 27.2734375 C156.35655971 27.2787961 154.10374446 27.2841736 151.85092926 27.28956985 C142.48158192 27.31120219 133.11223633 27.32993984 123.74287033 27.34119225 C110.30368443 27.35743708 96.86478742 27.390624 83.42571044 27.44759309 C73.98276694 27.48626108 64.53990081 27.50582121 55.0968802 27.51111281 C49.45379637 27.51477052 43.81102046 27.52683653 38.16802216 27.55921555 C32.85905609 27.58924074 27.55058516 27.5956277 22.24155235 27.58383179 C20.29285781 27.58361059 18.34414067 27.59195372 16.39552498 27.60948563 C13.73466291 27.63212271 11.07560457 27.62390823 8.41473389 27.60800171 C7.64371267 27.6218838 6.87269145 27.63576588 6.07830596 27.65006864 C0.28819112 27.56479537 -2.05759921 25.92315274 -6 22 C-5.67 21.34 -5.34 20.68 -5 20 C-4.0647861 19.99576806 -3.1295722 19.99153612 -2.16601849 19.98717594 C20.5673914 19.88408005 43.30076895 19.77534425 66.03412342 19.66066074 C77.02770225 19.60533237 88.02128432 19.55185099 99.01489258 19.50268555 C108.59452751 19.459839 118.17413859 19.4135598 127.75373667 19.36312145 C132.82820079 19.33652433 137.90266018 19.31167131 142.97715187 19.29092598 C147.7500013 19.27135965 152.52280534 19.24721583 157.29561424 19.21950912 C159.05042065 19.21013868 160.80523703 19.20246337 162.56005859 19.19658089 C164.95002662 19.18831962 167.33988448 19.17404285 169.72981262 19.15821838 C170.77893372 19.15675122 170.77893372 19.15675122 171.84924918 19.15525442 C174.84717663 19.12960874 177.12997755 18.95667415 180 18 C181.48121681 14.49894209 181.32700672 10.72787655 181 7 C179.52279845 4.19166019 179.52279845 4.19166019 177 2 C173.65100519 1.24529567 173.65100519 1.24529567 169.79937744 1.36076355 C169.07317097 1.35240787 168.34696451 1.3440522 167.59875178 1.33544332 C165.16463079 1.31349056 162.73201528 1.32712609 160.29785156 1.34057617 C158.5534297 1.33212462 156.80901727 1.32148127 155.06462097 1.30880737 C150.3272745 1.28061296 145.59038006 1.28314111 140.85297489 1.29110122 C135.90278984 1.29422193 130.95274986 1.26920472 126.00262451 1.24714661 C116.62812533 1.20966166 107.25377123 1.19755598 97.87920451 1.1945222 C87.2069352 1.1898362 76.53481165 1.1569276 65.86260653 1.12162435 C43.90842094 1.04963428 21.95429447 1.0131642 0 1 C0 0.67 0 0.34 0 0 Z " fill="#E1E1E1" transform="translate(411,395)"/>
<path d="M0 0 C1.76469887 -0.00639748 1.76469887 -0.00639748 3.56504822 -0.01292419 C4.86741425 -0.01247101 6.16978027 -0.01201782 7.51161194 -0.0115509 C8.88780814 -0.01454085 10.26400351 -0.01794299 11.64019775 -0.02172852 C15.38809164 -0.03058954 19.13596272 -0.03290751 22.88386607 -0.0335443 C26.00778781 -0.03449167 29.13170419 -0.03816798 32.25562388 -0.0417164 C39.62318254 -0.04986895 46.99072897 -0.0522999 54.35829163 -0.05158997 C61.96943315 -0.05098896 69.58050385 -0.06154345 77.19162744 -0.07733363 C83.71646902 -0.09039 90.2412874 -0.09577467 96.76614195 -0.09513456 C100.66743268 -0.09487901 104.56866051 -0.09776142 108.46993828 -0.10831261 C112.13804467 -0.11796169 115.80602763 -0.11809488 119.47413826 -0.11079597 C121.46808084 -0.10924407 123.46202331 -0.11761909 125.45594788 -0.12623596 C126.63523361 -0.12204147 127.81451935 -0.11784698 129.02954102 -0.11352539 C130.05880675 -0.11407016 131.08807249 -0.11461493 132.1485281 -0.1151762 C134.57826233 0.13371277 134.57826233 0.13371277 136.57826233 2.13371277 C136.82826233 4.63371277 136.82826233 4.63371277 136.57826233 7.13371277 C134.57826233 9.13371277 134.57826233 9.13371277 132.1485281 9.38260174 C130.60462949 9.38178459 130.60462949 9.38178459 129.02954102 9.38095093 C127.85025528 9.38514542 126.67096954 9.3893399 125.45594788 9.3936615 C124.15560608 9.38804199 122.85526428 9.38242249 121.51551819 9.37663269 C120.13755198 9.37770517 118.75958621 9.37964335 117.38162231 9.38238525 C113.6338149 9.38724175 109.88612615 9.37956829 106.13833308 9.36943221 C102.22301153 9.36066626 98.30769386 9.36240886 94.3923645 9.36279297 C87.81751004 9.36185576 81.24270167 9.3531636 74.66786194 9.33952332 C67.0561294 9.32379067 59.44444734 9.3185254 51.83269972 9.31925887 C44.52204048 9.31986829 37.21139776 9.31477113 29.90074348 9.30646706 C26.7839247 9.30292797 23.66711176 9.30110292 20.55029106 9.30057335 C16.88383689 9.299572 13.21742543 9.29349257 9.55098534 9.28340721 C7.55567741 9.27907218 5.56036073 9.27965542 3.56504822 9.28034973 C2.38858231 9.27608475 1.21211639 9.27181976 0 9.26742554 C-1.54333307 9.26491177 -1.54333307 9.26491177 -3.11784458 9.26234722 C-5.42173767 9.13371277 -5.42173767 9.13371277 -6.42173767 8.13371277 C-6.54673767 4.63371277 -6.54673767 4.63371277 -6.42173767 1.13371277 C-4.69107622 -0.59694868 -2.35811634 0.00384088 0 0 Z " fill="#FAFBFB" transform="translate(447.42173767089844,328.8662872314453)"/>
<path d="M0 0 C4.98338981 2.87974575 8.38452439 7.0686104 10.625 12.375 C11.61175215 19.121631 10.57558232 24.79053487 6.625 30.375 C4.49834147 32.93045647 3.37207255 34.24241037 0.04711914 34.83251953 C-3.07571037 34.75170889 -6.19234219 34.65517659 -9.3125 34.5 C-10.39724609 34.48453125 -11.48199219 34.4690625 -12.59960938 34.453125 C-20.27300209 34.13241774 -20.27300209 34.13241774 -23.17236328 32.13964844 C-27.88670522 26.74935942 -28.90418912 21.06985395 -28.74609375 14.16015625 C-28.03148513 8.79683051 -25.54865957 5.39129055 -21.6484375 1.7734375 C-15.15285458 -3.01137461 -7.29832217 -3.26358935 0 0 Z " fill="#FBFBFC" transform="translate(521.375,114.625)"/>
<path d="M0 0 C38.61 0 77.22 0 117 0 C117.495 4.455 117.495 4.455 118 9 C78.73 9 39.46 9 -1 9 C-0.67 6.03 -0.34 3.06 0 0 Z " fill="#E0E0DF" transform="translate(454,347)"/>
<path d="M0 0 C2.87602455 -0.10852923 5.74790832 -0.1875515 8.625 -0.25 C9.43324219 -0.28351563 10.24148438 -0.31703125 11.07421875 -0.3515625 C17.57444552 -0.45725724 21.12993725 1.22560601 25.875 5.8125 C27 8 27 8 27 15 C-30.09 15 -87.18 15 -146 15 C-146 13.02 -146 11.04 -146 9 C-145.67 9.66 -145.34 10.32 -145 11 C-95.5 10.67 -46 10.34 5 10 C5.55363653 4.99567471 5.55363653 4.99567471 2.5 2.1875 C1.675 1.465625 0.85 0.74375 0 0 Z " fill="#DFE0E0" transform="translate(572,368)"/>
<path d="M0 0 C13.69640234 2.7335855 25.68659683 9.7142669 36 19 C36.68320312 19.59039062 37.36640625 20.18078125 38.0703125 20.7890625 C46.83187609 28.86344463 53.28723717 39.73189463 57 51 C53.46608031 49.51828928 51.40069674 47.54451438 48.875 44.6875 C48.19179688 43.92824219 47.50859375 43.16898438 46.8046875 42.38671875 C44.99108285 39.98820697 43.97222647 37.83148432 43 35 C39.07982773 38.36299043 35.21226796 41.7170414 31.625 45.4375 C29 48 29 48 27 48 C26.87625 47.175 26.7525 46.35 26.625 45.5 C23.53792378 28.21237316 15.13582147 13.44754639 1.46875 2.27734375 C0.9840625 1.85582031 0.499375 1.43429688 0 1 C0 0.67 0 0.34 0 0 Z " fill="#DCDCDC" transform="translate(531,162)"/>
<path d="M0 0 C6.19298642 -0.09888089 12.38551332 -0.17147486 18.57910156 -0.21972656 C20.68595382 -0.23984126 22.79275025 -0.26713667 24.89941406 -0.30175781 C27.92787447 -0.35028168 30.95559678 -0.37297016 33.984375 -0.390625 C35.39707672 -0.42159271 35.39707672 -0.42159271 36.83831787 -0.45318604 C43.34556671 -0.45541857 43.34556671 -0.45541857 46.59472656 1.80566406 C48.6658161 5.03967254 48.53627065 7.24610547 48 11 C46.60839844 13.19433594 46.60839844 13.19433594 44 15 C40.58601311 15.55839291 37.21671823 15.46455897 33.765625 15.390625 C32.77246277 15.38496521 31.77930054 15.37930542 30.75604248 15.37347412 C27.58686941 15.35110026 24.4188308 15.30090106 21.25 15.25 C19.10027676 15.22993635 16.95053577 15.21168534 14.80078125 15.1953125 C9.53346771 15.15123239 4.26681491 15.08431033 -1 15 C-0.51144531 14.06414063 -0.02289062 13.12828125 0.48046875 12.1640625 C2.01085215 8.97740298 2.45391761 7.44977387 2 4 C1.36089938 2.65323624 0.69761353 1.31740563 0 0 Z " fill="#DDDEDF" transform="translate(606,716)"/>
<path d="M0 0 C1.79133978 -0.05391993 3.58313899 -0.09275571 5.375 -0.125 C6.37273437 -0.14820313 7.37046875 -0.17140625 8.3984375 -0.1953125 C11 0 11 0 13 2 C13.25 4.5 13.25 4.5 13 7 C11 9 11 9 8.56747246 9.24609566 C7.5369079 9.24425207 6.50634335 9.24240849 5.44454956 9.24050903 C4.26381866 9.24325836 3.08308777 9.24600769 1.86657715 9.24884033 C0.56466431 9.24164978 -0.73724854 9.23445923 -2.07861328 9.22705078 C-3.45820101 9.22648687 -4.83778933 9.22680284 -6.21737671 9.22793579 C-9.969257 9.22851108 -13.72101015 9.21672847 -17.47286081 9.20278788 C-21.39131436 9.1903097 -25.30977062 9.18911232 -29.22824097 9.18673706 C-36.65138931 9.1805137 -44.07447894 9.16409135 -51.49760139 9.14403808 C-59.94729737 9.12170566 -68.39699612 9.11069235 -76.84671426 9.10064721 C-94.23117683 9.07972584 -111.61558221 9.04453329 -129 9 C-129 8.01 -129 7.02 -129 6 C-86.76 5.67 -44.52 5.34 -1 5 C-0.67 3.35 -0.34 1.7 0 0 Z " fill="#DFDFDF" transform="translate(571,329)"/>
<path d="M0 0 C1.68457901 0.01496718 3.36911231 0.03565043 5.05357361 0.06056213 C5.97055527 0.07016968 6.88753693 0.07977722 7.83230591 0.0896759 C10.87871175 0.12279143 13.92497974 0.16307562 16.97129822 0.2033844 C19.07736721 0.22767326 21.18344138 0.25151742 23.28952026 0.27493286 C28.84461845 0.33789661 34.39962556 0.40692821 39.95463562 0.47718811 C45.6183506 0.54776085 51.28213037 0.61264389 56.94590759 0.67799377 C68.06772358 0.80716443 79.18945172 0.94274007 90.31114197 1.08229065 C90.80614197 3.55729065 90.80614197 3.55729065 91.31114197 6.08229065 C59.63114197 6.08229065 27.95114197 6.08229065 -4.68885803 6.08229065 C-4.68885803 0.10459854 -4.68885803 0.10459854 0 0 Z " fill="#FCFDFD" transform="translate(457.68885803222656,349.91770935058594)"/>
<path d="M0 0 C5.30636418 2.8005811 8.65046153 6.48413072 11 12 C11.98675215 18.746631 10.95058232 24.41553487 7 30 C4.87334147 32.55545647 3.74707255 33.86741037 0.42211914 34.45751953 C-2.70071037 34.37670889 -5.81734219 34.28017659 -8.9375 34.125 C-10.02224609 34.10953125 -11.10699219 34.0940625 -12.22460938 34.078125 C-20.00336357 33.75301419 -20.00336357 33.75301419 -22.86767578 31.58886719 C-24.25390625 29.9296875 -24.25390625 29.9296875 -26 27 C-25.34 26.67 -24.68 26.34 -24 26 C-22.66442015 26.66215457 -21.33139114 27.32946301 -20 28 C-14.38638479 28.78590613 -9.75543593 28.24234268 -5 25 C-0.65983296 20.46255264 1.78445571 16.90984795 2.25 10.625 C1.9821683 6.74144038 1.20305969 3.68437032 0 0 Z " fill="#DCDDDE" transform="translate(521,115)"/>
<path d="M0 0 C1.79133978 -0.05391993 3.58313899 -0.09275571 5.375 -0.125 C6.37273438 -0.14820313 7.37046875 -0.17140625 8.3984375 -0.1953125 C11 0 11 0 13 2 C13.25 4.5 13.25 4.5 13 7 C11 9 11 9 7.3046875 9.1953125 C5.82799892 9.182009 4.35137642 9.15814835 2.875 9.125 C2.12089844 9.11597656 1.36679687 9.10695313 0.58984375 9.09765625 C-1.27357254 9.0740687 -3.13682593 9.03819719 -5 9 C-4.67 8.01 -4.34 7.02 -4 6 C-3.01 5.67 -2.02 5.34 -1 5 C-0.67 3.35 -0.34 1.7 0 0 Z " fill="#E7E6E6" transform="translate(571,329)"/>
<path d="M0 0 C1.93359375 0.08984375 1.93359375 0.08984375 4 1 C8.23196245 6.30806048 10.86939025 12.60817075 13 19 C5.98497157 16.04960773 0.82935786 8.89655978 -2 2 C-1.34 1.34 -0.68 0.68 0 0 Z " fill="#D3D2D4" transform="translate(575,194)"/>
<path d="M0 0 C0.33 0.99 0.66 1.98 1 3 C3.01508358 3.73323796 3.01508358 3.73323796 5 4 C3.44794383 6.11260462 1.88424036 8.21461677 0.3125 10.3125 C-0.12255859 10.90740234 -0.55761719 11.50230469 -1.00585938 12.11523438 C-3.65980846 15.63417427 -5.97131732 17.9892881 -10 20 C-7.88238204 12.4014885 -4.43347991 6.49838836 0 0 Z " fill="#E5E3E3" transform="translate(447,193)"/>
<path d="M0 0 C1.65 0 3.3 0 5 0 C5 0.33 5 0.66 5 1 C7.64 1.33 10.28 1.66 13 2 C12.67 2.66 12.34 3.32 12 4 C8.37 4 4.74 4 1 4 C0.67 2.68 0.34 1.36 0 0 Z " fill="#DAD9D8" transform="translate(454,347)"/>
<path d="M0 0 C3.0916909 2.52956528 3.90931332 5.22454612 5 9 C2.11562221 7.70700306 0.12780579 6.34058637 -2 4 C-1.34 2.68 -0.68 1.36 0 0 Z " fill="#CECCCE" transform="translate(583,204)"/>
<path d="M0 0 C0.66 0.33 1.32 0.66 2 1 C-0.64 3.97 -3.28 6.94 -6 10 C-6.66 9.67 -7.32 9.34 -8 9 C-7.61479436 6.46089803 -7.29902057 5.27248877 -5.37109375 3.515625 C-4.73300781 3.09796875 -4.09492187 2.6803125 -3.4375 2.25 C-2.79683594 1.82203125 -2.15617188 1.3940625 -1.49609375 0.953125 C-1.00238281 0.63859375 -0.50867188 0.3240625 0 0 Z " fill="#D3D3D7" transform="translate(624,212)"/>
<path d="M0 0 C0.99 0.99 1.98 1.98 3 3 C2.21625 3.45375 1.4325 3.9075 0.625 4.375 C-2.03698031 5.88428742 -2.03698031 5.88428742 -4 8 C-4.99 7.67 -5.98 7.34 -7 7 C-6.21625 6.401875 -5.4325 5.80375 -4.625 5.1875 C-1.85425677 3.08914751 -1.85425677 3.08914751 0 0 Z " fill="#E6E7DF" transform="translate(452,214)"/>
</svg>
