<?xml version="1.0" encoding="UTF-8"?>
<svg version="1.1" xmlns="http://www.w3.org/2000/svg" width="1024" height="1024">
<path d="M0 0 C337.92 0 675.84 0 1024 0 C1024 337.92 1024 675.84 1024 1024 C686.08 1024 348.16 1024 0 1024 C0 686.08 0 348.16 0 0 Z " fill="#FDFDFD" transform="translate(0,0)"/>
<path d="M0 0 C22.11 0 44.22 0 67 0 C67 17.82 67 35.64 67 54 C76.57 54 86.14 54 96 54 C96 36.18 96 18.36 96 0 C124.05 0 152.1 0 181 0 C181 17.82 181 35.64 181 54 C190.57 54 200.14 54 210 54 C210 36.18 210 18.36 210 0 C231.78 0 253.56 0 276 0 C276 38.94 276 77.88 276 118 C269.73 121.3 263.46 124.6 257 128 C250.90044437 131.29367863 250.90044437 131.29367863 244.80859375 134.6015625 C242 136 242 136 240 136 C240 140.62 240 145.24 240 150 C241.98 150.33 243.96 150.66 246 151 C252.29764212 154.44017105 256.72165796 159.16497388 259 166 C259.85162171 174.67437546 259.33387086 181.87528843 254 189 C248.43118426 194.60376647 242.23573025 197.07972475 234.37890625 197.1953125 C232.77331993 197.18220567 231.16778755 197.15863213 229.5625 197.125 C228.73556641 197.11597656 227.90863281 197.10695313 227.05664062 197.09765625 C225.03763292 197.07431512 223.01877644 197.03845288 221 197 C221.49279928 251.11021005 225.80276036 305.41326526 238.34423828 358.18164062 C238.9502289 360.78609176 239.49964265 363.39437831 240.02734375 366.015625 C245.28037952 391.23982134 254.45844554 416.98748164 266 440 C266.31614258 440.63550781 266.63228516 441.27101563 266.95800781 441.92578125 C268.28572664 444.58963106 269.62518661 447.24493699 271.00390625 449.8828125 C272 452 272 452 272 454 C272.58007812 453.96519531 273.16015625 453.93039062 273.7578125 453.89453125 C278.98395671 453.71342724 282.55799559 453.93995251 287 457 C291.42860253 461.49097722 294.14227883 464.69243145 294.3125 471.125 C294.24813332 476.58186375 293.3407807 480.62811414 290 485 C286.13510466 488.27675909 283.02667941 489.52126863 278 490 C278.05202549 504.67118852 284.47321888 514.32470431 294 525 C294.43554199 525.49580566 294.87108398 525.99161133 295.31982422 526.50244141 C301.92857129 534.00560538 308.95197722 540.94391814 316.39282227 547.62402344 C322.09113202 552.81615088 327.29354835 558.49255356 330.3125 565.6875 C330.61800781 566.39261719 330.92351562 567.09773437 331.23828125 567.82421875 C335.67367122 580.49351214 332.48250878 592.26264027 327.0234375 603.875 C326.68570312 604.57625 326.34796875 605.2775 326 606 C327.06927734 605.91298828 327.06927734 605.91298828 328.16015625 605.82421875 C333.91454165 605.5531508 337.81500275 605.69067984 342.46484375 609.22265625 C347.34449444 614.87212461 348.60733603 619.48510864 348.53125 626.75 C348.53699036 627.97541504 348.53699036 627.97541504 348.54284668 629.22558594 C348.54555431 630.943372 348.53827398 632.66120011 348.52148438 634.37890625 C348.5000563 636.99313151 348.52132325 639.60460918 348.546875 642.21875 C348.54423152 643.89583934 348.53910611 645.57292698 348.53125 647.25 C348.54339539 648.40967285 348.54339539 648.40967285 348.55578613 649.59277344 C348.45092555 655.72761987 347.03116688 660.05831595 342.56712633 664.39057392 C335.79359996 669.38189098 328.15502974 668.69364277 320.12730408 668.62818909 C318.50020919 668.63323724 316.87311987 668.64046815 315.24604326 668.64968723 C310.78522467 668.66859812 306.32495506 668.65638243 301.8641504 668.6389643 C297.04949525 668.62558722 292.23492024 668.64102857 287.42027283 668.65278625 C277.992754 668.67116421 268.56544245 668.66264964 259.13793009 668.64469803 C251.47655218 668.63067258 243.81523054 668.62677912 236.15384102 668.6301403 C235.06345367 668.63061775 233.97306632 668.63109519 232.84963693 668.6315871 C230.63455131 668.63261343 228.4194657 668.63366879 226.2043801 668.63475286 C206.6182269 668.64332014 187.03217377 668.62664355 167.44604492 668.59692383 C148.43851518 668.56808243 129.4311296 668.56100474 110.42358398 668.57641602 C89.72644747 668.59317422 69.02937941 668.59721656 48.33224112 668.57970566 C46.12560849 668.57786126 43.91897586 668.57602653 41.71234322 668.57420158 C40.08377138 668.57283345 40.08377138 668.57283345 38.4222991 668.57143768 C30.76911497 668.56583022 23.11596423 668.56914137 15.46278191 668.57574654 C6.13763319 668.58347519 -3.18737358 668.57674385 -12.51249368 668.5515715 C-17.27083847 668.5390661 -22.02896215 668.53294261 -26.78731537 668.54411316 C-31.14280615 668.55414498 -35.49785572 668.54571858 -39.85329276 668.52253198 C-41.42920338 668.51736757 -43.00515346 668.51894376 -44.58104695 668.52792663 C-53.49908215 668.57453377 -59.73541423 668.46940633 -66.75537109 662.50976562 C-71.4823046 655.87873204 -70.75056078 647.82555129 -70.65185547 640.02783203 C-70.62505639 637.50530791 -70.65166479 634.98723169 -70.68359375 632.46484375 C-70.7153703 617.51365382 -70.7153703 617.51365382 -65 611 C-60.60927622 607.01771564 -58.24393024 605.86925663 -52.375 605.9375 C-50.87066406 605.95103516 -50.87066406 605.95103516 -49.3359375 605.96484375 C-48.17964844 605.98224609 -48.17964844 605.98224609 -47 606 C-47.33773438 605.43152344 -47.67546875 604.86304688 -48.0234375 604.27734375 C-48.46945312 603.50519531 -48.91546875 602.73304688 -49.375 601.9375 C-49.81585938 601.18339844 -50.25671875 600.42929687 -50.7109375 599.65234375 C-55.42024742 589.96258183 -55.80263219 577.22538023 -52.4375 567 C-48.42789648 558.07919849 -41.70484399 551.43696875 -34.5625 544.9375 C-10.57051936 523.79456803 -10.57051936 523.79456803 0.625 495.125 C0.69976562 494.15820312 0.77453125 493.19140625 0.8515625 492.1953125 C0.92503906 491.10863281 0.92503906 491.10863281 1 490 C-0.1446875 490.04640625 -0.1446875 490.04640625 -1.3125 490.09375 C-5.26543955 489.95585676 -6.97978959 488.51684201 -10 486 C-13.92330068 481.72750502 -15.36185612 477.78916529 -15.625 472 C-15.28841853 464.59520764 -12.62942453 460.4459763 -7.3125 455.5 C-2.80377649 453.45831388 1.12932052 453.65346944 6 454 C6.2371875 453.20851563 6.474375 452.41703125 6.71875 451.6015625 C8.01488337 447.95816322 9.56819469 444.56181354 11.22387695 441.07250977 C17.39527899 428.02720249 22.29483795 414.64160702 26.96923828 400.99853516 C27.80444389 398.56888209 28.65718184 396.14771935 29.52734375 393.73046875 C37.55480949 370.87912059 41.64987146 346.76355931 46 323 C46.32145996 321.25686523 46.32145996 321.25686523 46.64941406 319.47851562 C49.69199582 302.70570453 51.30620673 285.85682353 52.6796875 268.8828125 C52.96282352 265.45065152 53.2717669 262.02243492 53.59375 258.59375 C55.44111545 238.10943618 55.64145832 217.55347449 56 197 C55.43603516 197.02094727 54.87207031 197.04189453 54.29101562 197.06347656 C51.69419751 197.14748501 49.09766638 197.19892229 46.5 197.25 C45.613125 197.28351563 44.72625 197.31703125 43.8125 197.3515625 C36.18883987 197.46367515 31.50786161 195.3119997 25.25 191.1875 C19.77432333 185.86392546 17.87936044 179.79656684 17.625 172.3125 C17.70091981 166.07948388 19.03822234 161.83050481 23 157 C27.62467041 152.49878075 30.460323 151.08994617 37 150 C37 145.38 37 140.76 37 136 C35.35 135.67 33.7 135.34 32 135 C29.89818758 134.04283822 27.82702073 133.01703834 25.78125 131.9453125 C25.20088989 131.64309784 24.62052979 131.34088318 24.02258301 131.0295105 C22.17859247 130.06718995 20.33939369 129.09607251 18.5 128.125 C17.26460638 127.4799256 16.02893173 126.83538908 14.79296875 126.19140625 C11.51861675 124.47899258 8.24786421 122.76237793 5 121 C4.12551712 120.7022316 3.25103424 120.4044632 2.35005188 120.09767151 C0 118 0 118 -0.44961739 115.84440231 C-0.62001179 112.82774142 -0.6173345 109.84860869 -0.56762695 106.82739258 C-0.56835709 105.67603317 -0.56908722 104.52467377 -0.56983948 103.33842468 C-0.56634913 99.52331843 -0.52741653 95.70942488 -0.48828125 91.89453125 C-0.47895835 89.25323656 -0.47183978 86.61193324 -0.46684265 83.97062683 C-0.45129689 77.72314025 -0.41025921 71.47609071 -0.3600952 65.22879666 C-0.29874409 57.41889104 -0.27136055 49.60891454 -0.24414062 41.79882812 C-0.1954297 27.86554489 -0.09527347 13.93321543 0 0 Z " fill="#080708" transform="translate(374,204)"/>
<path d="M0 0 C47.19 0 94.38 0 143 0 C143.33 12.87 143.66 25.74 144 39 C144.48146151 47.02002093 144.9619234 55.00391379 145.61962891 63.00537109 C145.8806557 66.19409038 146.12283789 69.38388708 146.36328125 72.57421875 C147.33076519 85.02766208 148.72537197 97.35044059 150.64208984 109.69317627 C150.97361439 111.82993791 151.29479447 113.96790763 151.61132812 116.10693359 C154.18189177 133.30258125 157.3600033 150.26003063 161.35058594 167.18945312 C161.89685775 169.55361895 162.40500589 171.918204 162.8828125 174.296875 C168.33509276 200.23490732 178.14448108 227.02201568 190.31640625 250.52734375 C192 254 192 254 192 257 C112.47 257 32.94 257 -49 257 C-47.64173704 253.60434261 -46.25475261 250.25917635 -44.78515625 246.9140625 C-20.54034904 191.13433509 -8.01008018 132.53913902 -3 72 C-2.90090332 70.88753906 -2.80180664 69.77507812 -2.69970703 68.62890625 C-0.66284162 45.73907307 -0.52374177 23.04463776 0 0 Z " fill="#FCFCFC" transform="translate(441,401)"/>
<path d="M0 0 C84.15 0 168.3 0 255 0 C255.33 4.62 255.66 9.24 256 14 C257.03848709 17.06123218 257.91015218 19.32887748 259.4375 22.0625 C259.73076172 22.65353516 260.02402344 23.24457031 260.32617188 23.85351562 C268.09931727 38.64258151 280.65766868 49.91323759 292.57568359 61.2878418 C294.71758525 63.33860379 296.83996198 65.40810147 298.9609375 67.48046875 C299.60888275 68.08803513 300.256828 68.6956015 300.92440796 69.32157898 C306.31195571 74.61932089 309.34521021 80.59404161 310.4609375 88.1015625 C310.12751466 97.89206966 308.83801398 104.62214281 302 112 C298.73245207 114.98120161 296.56613946 115.37645127 292.18342781 115.38311005 C290.98784252 115.39216669 289.79225724 115.40122333 288.56044209 115.41055441 C287.24548186 115.40522648 285.93052162 115.39989856 284.57571411 115.39440918 C283.16585137 115.39929681 281.75599264 115.40548602 280.34614074 115.41286707 C276.46736359 115.42930624 272.58878916 115.42694063 268.70998931 115.4214921 C264.52855783 115.41882677 260.347181 115.43334435 256.16577148 115.44558716 C247.97201675 115.46666464 239.77833273 115.47118068 231.58455409 115.46939927 C224.92565258 115.46809278 218.26677317 115.47189003 211.60787582 115.47932434 C209.69138301 115.48142349 207.77489019 115.48352109 205.85839736 115.48561716 C204.90456747 115.48666069 203.95073757 115.48770422 202.96800373 115.48877937 C184.91930002 115.50769119 166.87063693 115.50662869 148.82192741 115.49981004 C132.30419623 115.49423422 115.78662014 115.51505997 99.2689252 115.54817051 C82.31631018 115.5818896 65.36376949 115.59707804 48.4111203 115.59245348 C38.89039785 115.59020694 29.36981875 115.59547884 19.84912491 115.62034607 C11.74364127 115.64133624 3.63837955 115.644974 -4.46711312 115.62604648 C-8.60362717 115.61687433 -12.73972721 115.61579037 -16.87620926 115.63640213 C-20.66259013 115.65506087 -24.44821645 115.65066701 -28.23456813 115.62785631 C-30.25404839 115.62166743 -32.27355766 115.6401036 -34.29295528 115.65939283 C-44.08705115 115.5631049 -44.08705115 115.5631049 -47.7657795 112.60813141 C-49.82499699 110.20429087 -51.16902604 108.30672619 -52.3125 105.375 C-52.61800781 104.61960937 -52.92351562 103.86421875 -53.23828125 103.0859375 C-55.77362276 96.1430023 -56.25023449 87.97769751 -54.0625 80.8125 C-49.08949367 70.29839606 -37.81198097 61.73480512 -29.51391602 53.68530273 C-19.94481952 44.38567296 -10.65130725 34.58878946 -4.9375 22.375 C-4.11572266 20.65410156 -4.11572266 20.65410156 -3.27734375 18.8984375 C-0.21684762 11.95382549 -0.70342506 9.14452583 0 0 Z " fill="#FDFDFD" transform="translate(386,694)"/>
<path d="M0 0 C14.52 0 29.04 0 44 0 C44 17.82 44 35.64 44 54 C61.16 54 78.32 54 96 54 C96 36.18 96 18.36 96 0 C116.79 0 137.58 0 159 0 C159 17.82 159 35.64 159 54 C175.83 54 192.66 54 210 54 C210 36.18 210 18.36 210 0 C224.52 0 239.04 0 254 0 C254 32.34 254 64.68 254 98 C170.18 98 86.36 98 0 98 C0 65.66 0 33.32 0 0 Z " fill="#FDFDFD" transform="translate(385,215)"/>
<path d="M0 0 C1.59293669 -0.00619638 3.18586499 -0.01501243 4.77877426 -0.02622539 C9.1591034 -0.04937367 13.53863418 -0.03499796 17.91894722 -0.01451623 C22.64160756 0.00109028 27.36414574 -0.0177978 32.08679199 -0.03231812 C41.33962203 -0.05517023 50.59215042 -0.04565043 59.84497452 -0.02481725 C67.36342815 -0.00854774 74.88179934 -0.00433013 82.40026855 -0.00878334 C83.46943693 -0.00941402 84.5386053 -0.01004469 85.64017272 -0.01069448 C87.81201842 -0.0120405 89.98386409 -0.01342007 92.15570974 -0.01483283 C112.53168158 -0.02677613 132.90748786 -0.00268679 153.28342199 0.03418525 C170.77526968 0.06507913 188.26692671 0.06745001 205.75878906 0.04838562 C226.06072952 0.02628408 246.36256304 0.02011973 266.66450882 0.04070824 C268.82846322 0.04287123 270.99241764 0.04502033 273.15637207 0.04715538 C274.22114013 0.04822175 275.2859082 0.04928811 276.38294196 0.05038679 C283.89427105 0.05686222 291.4055452 0.05208389 298.91687012 0.04313087 C308.06797474 0.03260586 317.2188556 0.04006206 326.36991882 0.07058666 C331.040952 0.0857372 335.71163167 0.09285064 340.38267517 0.07839584 C344.65624148 0.06540921 348.92910646 0.07539655 353.20259142 0.10395458 C354.75096201 0.11024976 356.29939433 0.1080656 357.84773588 0.09668414 C359.94891723 0.08249899 362.04770433 0.09893814 364.14874268 0.12317371 C365.31671009 0.12452755 366.48467751 0.12588138 367.68803787 0.12727624 C371.74103119 0.95078034 373.24114714 2.55270862 375.77832031 5.75517273 C376.26702924 8.50366419 376.46006186 10.62049694 376.40722656 13.35673523 C376.40963852 14.07501495 376.41205048 14.79329468 376.41453552 15.53334045 C376.41355988 17.04451547 376.40023349 18.55572747 376.37524414 20.06669617 C376.34081171 22.38075113 376.35462415 24.69100962 376.37402344 27.00517273 C376.36712767 28.47654314 376.35745771 29.94790373 376.34472656 31.41923523 C376.34968643 32.10990082 376.3546463 32.80056641 376.35975647 33.51216125 C376.24270847 38.27439574 376.24270847 38.27439574 374.15376472 40.43706089 C371.02906861 42.17092548 368.80794033 42.13236241 365.23776245 42.13548946 C364.57925647 42.14014938 363.92075049 42.1448093 363.24228978 42.14961043 C361.02607172 42.16160294 358.81046193 42.1521491 356.59423828 42.14285278 C354.99321048 42.14702385 353.39218564 42.15250011 351.79116631 42.15917259 C347.38405693 42.17367568 342.97713378 42.16936738 338.570014 42.16200578 C333.82011578 42.15728844 329.0702587 42.16977117 324.32037354 42.18002319 C315.01234633 42.1972443 305.70438653 42.19804441 296.39634752 42.19281029 C288.8335403 42.18877379 281.27075304 42.19020595 273.70794678 42.19555855 C272.63280347 42.19630697 271.55766016 42.19705539 270.44993675 42.19782649 C268.2660098 42.19935792 266.08208286 42.20089627 263.89815593 42.20244146 C243.40495788 42.21617829 222.91179798 42.21072033 202.4186008 42.19925625 C183.65565966 42.18932087 164.89281709 42.20226773 146.12989116 42.22619044 C126.87884367 42.25055122 107.62784215 42.26019687 88.37677956 42.25353771 C77.56282307 42.25003899 66.74894243 42.25232061 55.93499756 42.26978874 C46.73008575 42.28447293 37.52530321 42.28519581 28.32039404 42.26771783 C23.62117136 42.25917447 18.92217998 42.25713922 14.22296906 42.27236938 C9.92485147 42.28612755 5.62716525 42.2815688 1.32907319 42.26213015 C-0.22941323 42.25834239 -1.78793349 42.26137121 -3.34639001 42.2717418 C-5.45849398 42.28480197 -7.5690846 42.27342966 -9.68112183 42.25574398 C-10.85608656 42.25563664 -12.03105129 42.25552931 -13.24162102 42.25541872 C-16.86194601 41.64769476 -18.04319168 40.6637485 -20.22167969 37.75517273 C-20.75512695 34.55058289 -20.75512695 34.55058289 -20.78808594 30.79423523 C-20.79428452 30.12604767 -20.80048309 29.45786011 -20.80686951 28.76942444 C-20.81395584 27.35908968 -20.81081412 25.94867107 -20.7980957 24.53837585 C-20.7842618 22.39290711 -20.81826316 20.25183341 -20.85644531 18.10673523 C-20.85739699 16.73173417 -20.85553508 15.35672771 -20.85058594 13.98173523 C-20.85131104 12.73988464 -20.85203613 11.49803406 -20.8527832 10.21855164 C-20.23876216 6.84891818 -19.53392742 4.59989646 -17.24272823 2.0194782 C-12.36359091 -1.03275923 -5.59749212 -0.05502042 0 0 Z " fill="#FEFEFE" transform="translate(335.2216796875,819.2448272705078)"/>
<path d="M0 0 C84.15 0 168.3 0 255 0 C255.33 4.62 255.66 9.24 256 14 C257.03848709 17.06123218 257.91015218 19.32887748 259.4375 22.0625 C259.73076172 22.65353516 260.02402344 23.24457031 260.32617188 23.85351562 C268.09931727 38.64258151 280.65766868 49.91323759 292.57568359 61.2878418 C294.71758525 63.33860379 296.83996198 65.40810147 298.9609375 67.48046875 C299.60888275 68.08803513 300.256828 68.6956015 300.92440796 69.32157898 C306.31195571 74.61932089 309.34521021 80.59404161 310.4609375 88.1015625 C310.12751466 97.89206966 308.83801398 104.62214281 302 112 C298.73245207 114.98120161 296.56613946 115.37645127 292.18342781 115.38311005 C290.98784252 115.39216669 289.79225724 115.40122333 288.56044209 115.41055441 C287.24548186 115.40522648 285.93052162 115.39989856 284.57571411 115.39440918 C283.16585137 115.39929681 281.75599264 115.40548602 280.34614074 115.41286707 C276.46736359 115.42930624 272.58878916 115.42694063 268.70998931 115.4214921 C264.52855783 115.41882677 260.347181 115.43334435 256.16577148 115.44558716 C247.97201675 115.46666464 239.77833273 115.47118068 231.58455409 115.46939927 C224.92565258 115.46809278 218.26677317 115.47189003 211.60787582 115.47932434 C209.69138301 115.48142349 207.77489019 115.48352109 205.85839736 115.48561716 C204.90456747 115.48666069 203.95073757 115.48770422 202.96800373 115.48877937 C184.91930002 115.50769119 166.87063693 115.50662869 148.82192741 115.49981004 C132.30419623 115.49423422 115.78662014 115.51505997 99.2689252 115.54817051 C82.31631018 115.5818896 65.36376949 115.59707804 48.4111203 115.59245348 C38.89039785 115.59020694 29.36981875 115.59547884 19.84912491 115.62034607 C11.74364127 115.64133624 3.63837955 115.644974 -4.46711312 115.62604648 C-8.60362717 115.61687433 -12.73972721 115.61579037 -16.87620926 115.63640213 C-20.66259013 115.65506087 -24.44821645 115.65066701 -28.23456813 115.62785631 C-30.25404839 115.62166743 -32.27355766 115.6401036 -34.29295528 115.65939283 C-44.08711946 115.56310423 -44.08711946 115.56310423 -47.76358223 112.61252594 C-49.84965582 110.17562822 -51.20857396 108.22089709 -52.375 105.25 C-52.69210937 104.47140625 -53.00921875 103.6928125 -53.3359375 102.890625 C-54 101 -54 101 -54 100 C-53.07515756 99.99910437 -53.07515756 99.99910437 -52.13163143 99.99819064 C-15.58109402 99.96228895 20.96935658 99.90563808 57.51981723 99.82207905 C61.90945139 99.81206171 66.29908592 99.80221756 70.6887207 99.79248047 C71.56261004 99.7905391 72.43649937 99.78859772 73.3368702 99.78659752 C87.48277947 99.75558484 101.62867252 99.73859891 115.77460938 99.72680578 C130.2919684 99.71439043 144.80924236 99.68688034 159.32654768 99.64538693 C168.28297223 99.62026253 177.23925569 99.60688195 186.19571597 99.60857043 C192.33928932 99.60860021 198.48271906 99.59395464 204.62623643 99.56783572 C208.16963245 99.5532024 211.71273397 99.54497578 215.25615501 99.55419731 C219.10239197 99.5640373 222.94811366 99.54294131 226.79429626 99.51898193 C228.46504468 99.53062256 228.46504468 99.53062256 230.16954559 99.54249835 C238.3834258 99.45195987 244.55344715 97.85990556 250.9375 92.5625 C255.22795678 87.23193249 255.36576776 82.7389451 254.66015625 76.12890625 C252.97160828 68.12578834 247.91213554 62.60232538 242.140625 57.1171875 C231.64232076 46.7338282 224.24516567 34.71208104 219 21 C218.43732422 19.74316406 218.43732422 19.74316406 217.86328125 18.4609375 C217 16 217 16 217 11 C145.39 11 73.78 11 0 11 C0 7.37 0 3.74 0 0 Z " fill="#DEDFDF" transform="translate(386,694)"/>
<path d="M0 0 C47.19 0 94.38 0 143 0 C143.33 12.87 143.66 25.74 144 39 C144.48146151 47.02002093 144.9619234 55.00391379 145.61962891 63.00537109 C145.8806557 66.19409038 146.12283789 69.38388708 146.36328125 72.57421875 C147.33076519 85.02766208 148.72537197 97.35044059 150.64208984 109.69317627 C150.97361439 111.82993791 151.29479447 113.96790763 151.61132812 116.10693359 C154.18189177 133.30258125 157.3600033 150.26003063 161.35058594 167.18945312 C161.89685775 169.55361895 162.40500589 171.918204 162.8828125 174.296875 C168.33509276 200.23490732 178.14448108 227.02201568 190.31640625 250.52734375 C192 254 192 254 192 257 C112.47 257 32.94 257 -49 257 C-48.67 256.34 -48.34 255.68 -48 255 C17.67 255.33 83.34 255.66 151 256 C146.00547278 241.70879885 146.00547278 241.70879885 140.87890625 227.46484375 C137.64634524 218.30324049 135.23945284 208.99470456 132.9375 199.5625 C132.72278046 198.69314819 132.50806091 197.82379639 132.28683472 196.92810059 C125.19446103 168.18502876 120.4624362 139.31582378 117.4375 109.875 C117.32983307 108.83462585 117.22216614 107.79425171 117.11123657 106.72235107 C114.31025958 79.48114032 112.52908153 52.40745506 113 25 C111.77410156 25.03351563 110.54820312 25.06703125 109.28515625 25.1015625 C103.25360458 25.09453681 97.39868967 24.22888682 91.4375 23.375 C88.77760397 23.00706979 86.11752783 22.64086833 83.45703125 22.27734375 C82.73296082 22.17803055 82.00889038 22.07871735 81.26287842 21.97639465 C70.72845675 20.54086928 60.17550165 19.2483658 49.625 17.9375 C47.63598345 17.6899645 45.64696973 17.44240631 43.65795898 17.19482422 C39.77106072 16.71122979 35.88408502 16.22826299 31.99707031 15.74560547 C21.99727332 14.50327452 11.99870531 13.25108096 2 12 C1.67 16.95 1.34 21.9 1 27 C0.67 27 0.34 27 0 27 C0 18.09 0 9.18 0 0 Z " fill="#DDDEDE" transform="translate(441,401)"/>
<path d="M0 0 C1.23987816 -0.00891337 1.23987816 -0.00891337 2.50480437 -0.0180068 C5.28455459 -0.03539991 8.06413273 -0.03839883 10.84393311 -0.04138184 C12.83299631 -0.0506369 14.82205596 -0.06068605 16.81111145 -0.07147217 C22.22238688 -0.09773789 27.63361267 -0.11061363 33.0449419 -0.11949348 C36.42486301 -0.12535245 39.80477049 -0.13356161 43.18468475 -0.14250183 C53.75715455 -0.16985717 64.32959329 -0.18918748 74.90209603 -0.19690561 C87.11108022 -0.20586702 99.31961656 -0.24096098 111.52846456 -0.2989068 C120.96211137 -0.3421282 130.39563215 -0.36231352 139.82937694 -0.36498785 C145.46525573 -0.36708495 151.1007137 -0.37892038 156.73648834 -0.41462708 C162.03898569 -0.44756784 167.34074548 -0.45191058 172.64330864 -0.43434906 C174.58836021 -0.43280711 176.53345124 -0.44151012 178.47840309 -0.46126556 C181.13695216 -0.48668318 183.79288455 -0.47497104 186.45141602 -0.45410156 C187.21884227 -0.47021437 187.98626853 -0.48632718 188.77695012 -0.50292826 C194.09820111 -0.405416 196.7881091 1.17109677 200.65059066 4.79891062 C203.61619486 8.10565704 203.36819431 11.47169025 203.33123779 15.73400879 C202.75583311 19.90249608 201.06602066 21.47511527 197.97967529 24.28088379 C194.23271285 26.84161494 190.28013454 26.56597843 185.90829468 26.54830933 C184.67832718 26.555106 184.67832718 26.555106 183.42351186 26.56203997 C180.67215641 26.57471402 177.92099814 26.57306167 175.1696167 26.57141113 C173.19848882 26.57739449 171.22736328 26.58419959 169.25624084 26.59176636 C163.89879519 26.60945279 158.54141339 26.61412284 153.18394136 26.61539793 C148.71319381 26.61729594 144.24246116 26.62465233 139.77171934 26.63174212 C129.22481938 26.6480336 118.67795357 26.65291037 108.13104248 26.65148926 C97.24740225 26.6502875 86.36396023 26.67139448 75.48037016 26.70297658 C66.13928691 26.72911779 56.79826847 26.73985746 47.45714891 26.73857844 C41.87675346 26.73806819 36.29653413 26.74378635 30.71617508 26.76493454 C25.46795182 26.78428064 20.22007333 26.78446617 14.971838 26.76990128 C13.0457312 26.7678076 11.11960303 26.77254724 9.19353294 26.78462219 C6.56362313 26.80004168 3.934907 26.79078872 1.30502319 26.77536011 C0.16221057 26.7907908 0.16221057 26.7907908 -1.00368917 26.80653322 C-6.14977806 26.73983533 -9.04461853 25.50482324 -13.02032471 22.28088379 C-16.1608198 18.61697285 -16.59449424 15.18557972 -16.44610596 10.49963379 C-15.71197973 6.6740953 -13.81383063 4.9444592 -11.02032471 2.28088379 C-7.27154154 -0.21830499 -4.34121598 -0.00969045 0 0 Z " fill="#FDFEFD" transform="translate(419.02032470703125,363.7191162109375)"/>
<path d="M0 0 C0.85084592 -0.00064941 1.70169185 -0.00129882 2.57832098 -0.00196791 C4.05275679 -0.01761439 4.05275679 -0.01761439 5.55697918 -0.03357697 C6.63955077 -0.02465408 7.72212235 -0.01573119 8.83749914 -0.00653791 C9.98542393 -0.01277788 11.13334872 -0.01901784 12.31605911 -0.02544689 C15.50753813 -0.03867036 18.6984119 -0.03387229 21.88987613 -0.02150202 C25.32961905 -0.01247365 28.76927841 -0.02641018 32.20900488 -0.0374217 C38.94943364 -0.05523534 45.68968453 -0.05135438 52.43012035 -0.03977114 C57.90677391 -0.03074823 63.38337752 -0.02950785 68.86003637 -0.03386641 C69.63864024 -0.03447934 70.41724411 -0.03509227 71.21944204 -0.03572378 C72.80101726 -0.03700264 74.38259246 -0.03829949 75.96416765 -0.03961414 C90.80474351 -0.05102827 105.64522063 -0.03789322 120.4857803 -0.01641268 C133.22770316 0.00145908 145.96948028 -0.00164479 158.71140051 -0.02008772 C173.4978119 -0.04147978 188.2841367 -0.04992955 203.07056141 -0.03763866 C204.64641299 -0.03636443 206.22226459 -0.03510695 207.79811621 -0.03386641 C208.96122804 -0.03294075 208.96122804 -0.03294075 210.14783707 -0.0319964 C215.619755 -0.02853849 221.09161814 -0.03438131 226.56352758 -0.04378462 C233.2293628 -0.05498753 239.89500954 -0.05200077 246.56082308 -0.03066164 C249.9637689 -0.02012796 253.36640016 -0.01606828 256.76934385 -0.02925825 C260.45343185 -0.04011892 264.13662325 -0.0265638 267.82065344 -0.00653791 C268.90322503 -0.0154608 269.98579661 -0.02438369 271.1011734 -0.03357697 C272.08413061 -0.02314598 273.06708781 -0.01271499 274.0798316 -0.00196791 C274.93067752 -0.0013185 275.78152345 -0.00066909 276.65815258 0 C278.82907629 0.50139666 278.82907629 0.50139666 280.59856033 2.34535694 C282.28447285 5.29931647 282.31748109 7.15233516 281.82907629 10.50139666 C280.49490213 12.65715075 280.49490213 12.65715075 277.82907629 14.50139666 C274.13879596 15.11495071 270.47169578 15.04029712 266.73836279 15.00933123 C265.02131929 15.01869117 265.02131929 15.01869117 263.26958805 15.0282402 C260.09176844 15.04144846 256.91455838 15.03667643 253.73675382 15.02429533 C250.30998025 15.01525734 246.88329005 15.02920823 243.45653296 15.04021502 C236.7436466 15.05801775 230.03093896 15.05415269 223.31804555 15.04256445 C217.86382241 15.03353802 212.40964943 15.03230269 206.95542097 15.03665972 C205.79188144 15.03757912 205.79188144 15.03757912 204.60483607 15.03851709 C203.02913938 15.03979596 201.45344271 15.04109281 199.87774605 15.04240745 C185.09677723 15.05381819 170.31590759 15.04069144 155.53495503 15.01920599 C142.84477848 15.00133101 130.15474826 15.00444141 117.46457434 15.02288103 C102.73565433 15.04427298 88.00682125 15.05272323 73.27788788 15.04043198 C71.70823055 15.03915775 70.1385732 15.03790026 68.56891584 15.03665972 C67.79656706 15.03604262 67.02421827 15.03542551 66.22846497 15.03478971 C60.77857674 15.03133203 55.32874353 15.03717405 49.87886381 15.04657793 C43.2405009 15.05778057 36.60232724 15.05479452 29.96398609 15.03345495 C26.57520975 15.02292144 23.18674928 15.01886135 19.79797506 15.03205156 C16.12926597 15.04291233 12.4614572 15.02935706 8.79280615 15.00933123 C7.17580837 15.02271556 7.17580837 15.02271556 5.52614397 15.03637028 C4.54728686 15.02593929 3.56842975 15.0155083 2.5599103 15.00476122 C1.28901117 15.00378711 1.28901117 15.00378711 -0.0075627 15.00279331 C-2.17092371 14.50139666 -2.17092371 14.50139666 -3.94316334 12.65743637 C-5.61035864 9.72971581 -5.58599215 7.82194419 -5.17092371 4.50139666 C-3.69420305 1.90573125 -2.96343533 0.68443518 0 0 Z " fill="#FDFEFE" transform="translate(375.1709237098694,668.4986033439636)"/>
<path d="M0 0 C10.89 0 21.78 0 33 0 C33 32.34 33 64.68 33 98 C21.12 98 9.24 98 -3 98 C-2 93 -2 93 -1 91 C-0.87722788 88.13263346 -0.81424558 85.28799705 -0.79467773 82.41943359 C-0.78477814 81.53156662 -0.77487854 80.64369965 -0.76467896 79.72892761 C-0.73301612 76.78545831 -0.70828763 73.84197285 -0.68359375 70.8984375 C-0.66302835 68.86104913 -0.64203199 66.82366506 -0.62062073 64.7862854 C-0.56535727 59.4170683 -0.51596686 54.04781243 -0.46777344 48.67852783 C-0.41758959 43.20231667 -0.36188728 37.72616201 -0.30664062 32.25 C-0.19900677 21.50004641 -0.0980832 10.75004498 0 0 Z " fill="#E2E2E2" transform="translate(606,215)"/>
<path d="M0 0 C49.08897871 -0.11437519 98.177944 -0.20251318 147.26702968 -0.25532665 C153.058798 -0.26158039 158.85056606 -0.26805198 164.64233398 -0.2746582 C166.37193261 -0.27662553 166.37193261 -0.27662553 168.13647262 -0.2786326 C186.821397 -0.30040559 205.50624467 -0.33983754 224.19112351 -0.38576398 C243.35502316 -0.43247595 262.51888258 -0.46028426 281.68283683 -0.47044247 C293.51373833 -0.47731255 305.34442305 -0.49903244 317.17525784 -0.53958233 C325.2815403 -0.56595577 333.38771025 -0.57401326 341.49403252 -0.56750689 C346.17519172 -0.56429557 350.85597141 -0.56931342 355.5370636 -0.59602737 C359.82002307 -0.6202915 364.10234646 -0.62163249 368.38533471 -0.60449447 C369.93724312 -0.6023752 371.48919062 -0.60877606 373.04102167 -0.62441591 C375.14694951 -0.64441128 377.25056531 -0.63371776 379.3564558 -0.61523914 C380.52713358 -0.61713775 381.69781136 -0.61903635 382.90396422 -0.62099248 C386.96510528 0.19357758 388.46051078 1.79204307 391 5 C391.48870893 7.74849146 391.68174155 9.86532421 391.62890625 12.6015625 C391.63131821 13.31984222 391.63373016 14.03812195 391.63621521 14.77816772 C391.63523957 16.28934274 391.62191317 17.80055474 391.59692383 19.31152344 C391.56249139 21.62557841 391.57630384 23.93583689 391.59570312 26.25 C391.58880736 27.72137042 391.57913739 29.192731 391.56640625 30.6640625 C391.57136612 31.35472809 391.57632599 32.04539368 391.58143616 32.75698853 C391.46414176 37.52924818 391.46414176 37.52924818 389.33927917 39.68437195 C386.38106739 41.34809232 384.42478127 41.36192089 381.03808594 41.34057617 C379.83714294 41.34034958 378.63619995 41.34012299 377.39886475 41.33988953 C375.46119232 41.31666374 375.46119232 41.31666374 373.484375 41.29296875 C372.14488195 41.28737052 370.80538274 41.28310149 369.46588135 41.28010559 C365.94762079 41.26867454 362.42973429 41.23922294 358.91162109 41.20599365 C355.31873636 41.17525489 351.72579094 41.16159216 348.1328125 41.14648438 C341.08838904 41.11435113 334.044219 41.06317621 327 41 C327.81202881 39.98252686 328.62405762 38.96505371 329.46069336 37.91674805 C332.01171815 34.33217317 332.63181915 31.79491555 332.62890625 27.33203125 C332.63083984 26.10935547 332.63277344 24.88667969 332.63476562 23.62695312 C332.61091797 22.36818359 332.58707031 21.10941406 332.5625 19.8125 C332.57345703 18.54212891 332.58441406 17.27175781 332.59570312 15.96289062 C332.8831322 9.48804418 332.8831322 9.48804418 330.3175776 3.84965491 C327.44573926 1.5576454 326.02697143 1.4977511 322.38531113 1.49219131 C321.23479318 1.48074373 320.08427524 1.46929614 318.89889312 1.45750165 C317.63431344 1.46526207 316.36973377 1.47302248 315.0668335 1.48101807 C313.71043831 1.47514404 312.35404977 1.46751763 310.99767327 1.458287 C307.26687809 1.43798215 303.53646218 1.44259208 299.80563688 1.45119452 C295.78381248 1.45612953 291.76208456 1.43806675 287.74029541 1.42277527 C280.77111369 1.39943519 273.80203611 1.39071596 266.83281708 1.39188385 C256.7564809 1.39355136 246.68028376 1.37323598 236.60398462 1.34752855 C220.25650434 1.30641979 203.90904901 1.2831276 187.56152344 1.27099609 C171.6799886 1.25917235 155.79850078 1.23898478 139.91699219 1.20751953 C138.4489667 1.20461538 138.4489667 1.20461538 136.95128414 1.20165256 C132.04159102 1.19188816 127.13189826 1.18195902 122.22220564 1.17194796 C81.48149314 1.08908922 40.74077982 1.0351266 0 1 C0 0.67 0 0.34 0 0 Z " fill="#DCDDDD" transform="translate(320,820)"/>
<path d="M0 0 C26.34693764 -0.14014698 52.69381944 -0.24595991 79.04105473 -0.31087303 C91.27448548 -0.34181415 103.50768467 -0.38399997 115.7409668 -0.45263672 C126.40320964 -0.5124304 137.06528479 -0.55114728 147.72769064 -0.56453097 C153.37371068 -0.57235469 159.01925095 -0.59074816 164.66511726 -0.63438034 C169.9798412 -0.67512044 175.29388795 -0.68766601 180.6087532 -0.67864609 C182.55865726 -0.68029608 184.50858407 -0.69222253 186.45835304 -0.71523285 C189.12358218 -0.74514255 191.78626377 -0.73789199 194.45155334 -0.7215271 C195.22102596 -0.73900415 195.99049857 -0.7564812 196.78328854 -0.77448785 C202.11326196 -0.68618338 204.80356886 0.88248671 208.67162508 4.51755369 C211.6357823 7.82550829 211.38852139 11.19053282 211.3515625 15.453125 C210.77615781 19.62161229 209.08634537 21.19423148 206 24 C202.25303756 26.56073115 198.30045925 26.28509464 193.92861938 26.26742554 C192.69865189 26.27422221 192.69865189 26.27422221 191.44383657 26.28115618 C188.69248112 26.29383023 185.94132285 26.29217788 183.18994141 26.29052734 C181.21881352 26.2965107 179.24768799 26.3033158 177.27656555 26.31088257 C171.91911989 26.328569 166.5617381 26.33323905 161.20426607 26.33451414 C156.73351851 26.33641216 152.26278587 26.34376854 147.79204404 26.35085833 C137.24514409 26.36714981 126.69827828 26.37202658 116.15136719 26.37060547 C105.26772696 26.36940371 94.38428493 26.39051069 83.50069487 26.4220928 C74.15961162 26.448234 64.81859318 26.45897367 55.47747362 26.45769465 C49.89707817 26.4571844 44.31685884 26.46290256 38.73649979 26.48405075 C33.48827653 26.50339685 28.24039803 26.50358238 22.9921627 26.48901749 C21.06605591 26.48692381 19.13992774 26.49166345 17.21385765 26.5037384 C14.58394784 26.5191579 11.95523171 26.50990493 9.3253479 26.49447632 C8.56347282 26.50476344 7.80159774 26.51505057 7.01663554 26.52564943 C1.91372176 26.45951113 -1.14345397 25.35408462 -5 22 C-5 21.01 -5 20.02 -5 19 C-3.60490975 18.99503478 -3.60490975 18.99503478 -2.18163586 18.98996925 C20.42662135 18.90905145 43.03481017 18.81675949 65.64297199 18.71247292 C76.57601325 18.66230574 87.50904686 18.61586334 98.44213867 18.578125 C107.96905679 18.54523105 117.49591622 18.50541431 127.02276963 18.45720994 C132.06929321 18.43191908 137.11577772 18.41014548 142.16234779 18.39665604 C146.90897286 18.38385911 151.65546413 18.36183048 156.40201569 18.33261681 C158.14714045 18.32352244 159.89228676 18.31784649 161.63743401 18.31578636 C164.01436811 18.3124769 166.39091984 18.29703561 168.76777649 18.2784729 C169.46329961 18.28040763 170.15882272 18.28234237 170.8754223 18.28433573 C174.48143355 18.24203877 175.90578565 18.06280957 179 16 C180.39430899 11.81707302 180.91671048 7.87102207 178.926898 3.80978012 C176.04911497 1.10691027 173.81957266 1.49205824 169.91963196 1.48101807 C169.19427992 1.47351681 168.46892787 1.46601556 167.72159547 1.458287 C165.28456772 1.4379438 162.84846451 1.44612498 160.41137695 1.45410156 C158.66710486 1.44537011 156.92284078 1.43488583 155.17858887 1.42277527 C150.43711884 1.39484212 145.69590921 1.39151219 140.95436883 1.39249516 C136.00151712 1.38937232 131.04878379 1.36376729 126.09599304 1.34051514 C116.71440481 1.29990325 107.33288617 1.27960225 97.95122355 1.26654124 C87.27172991 1.25068874 76.59235501 1.21228054 65.91293013 1.17194796 C43.94199255 1.08947802 21.97106047 1.03543027 0 1 C0 0.67 0 0.34 0 0 Z " fill="#DBDCDC" transform="translate(411,364)"/>
<path d="M0 0 C59.4 0 118.8 0 180 0 C180 3.3 180 6.6 180 10 C120.6 10 61.2 10 0 10 C0 6.7 0 3.4 0 0 Z " fill="#FDFDFD" transform="translate(422,343)"/>
<path d="M0 0 C71.94 0 143.88 0 218 0 C215.96394778 4.07210444 211.0280178 5.80347357 206.94597316 7.40601134 C200.33890307 9.42275277 193.0492205 8.83625684 186.21899414 8.79223633 C184.34670083 8.80202108 182.47441931 8.81433428 180.60215759 8.82896423 C175.5482144 8.86041705 170.49499011 8.85414775 165.44099736 8.83888459 C161.20906092 8.82969436 156.9772536 8.83946032 152.74532503 8.84922332 C142.75595736 8.87208237 132.76693527 8.86461312 122.77758789 8.8371582 C112.49921562 8.80935756 102.22171472 8.82871872 91.9434157 8.87203389 C83.0920199 8.90789117 74.24089171 8.91633413 65.3894338 8.90264148 C60.11455038 8.89462524 54.84015454 8.89625938 49.56532478 8.92350197 C44.6031059 8.94776909 39.64209263 8.93748971 34.67995644 8.90151405 C32.86806493 8.89391108 31.05607717 8.89799802 29.24425125 8.91518784 C17.62028945 9.0163014 9.72494445 7.69460022 0 1 C0 0.67 0 0.34 0 0 Z " fill="#DDDDDD" transform="translate(403,324)"/>
<path d="M0 0 C5.92646399 -0.0987934 11.85244995 -0.17143282 17.77954102 -0.21972656 C19.79622749 -0.23985609 21.81285551 -0.26716237 23.8293457 -0.30175781 C26.72622082 -0.35021722 29.62232515 -0.37295499 32.51953125 -0.390625 C33.42274612 -0.41127014 34.325961 -0.43191528 35.25654602 -0.45318604 C41.48797913 -0.45542558 41.48797913 -0.45542558 44.06518555 1.83691406 C45.34987762 4.80958886 45.46745811 6.79457293 45 10 C43.58496094 12.16308594 43.58496094 12.16308594 41 14 C37.73162766 14.55815895 34.5102678 14.46484437 31.203125 14.390625 C30.25435486 14.38496521 29.30558472 14.37930542 28.32806396 14.37347412 C25.30152664 14.35110609 22.27617871 14.30090858 19.25 14.25 C17.1966317 14.22993557 15.14324481 14.2116847 13.08984375 14.1953125 C8.05943844 14.15123981 3.02992079 14.08220891 -2 14 C-1.26523437 12.85917969 -1.26523437 12.85917969 -0.515625 11.6953125 C1.28102463 8.5002397 1.3141994 6.61329308 1 3 C0.67 2.01 0.34 1.02 0 0 Z " fill="#DEDFE1" transform="translate(612,669)"/>
<path d="M0 0 C8.91 0 17.82 0 27 0 C27 3.3 27 6.6 27 10 C18.09 10 9.18 10 0 10 C0 6.7 0 3.4 0 0 Z " fill="#E3E2E2" transform="translate(575,343)"/>
<path d="M0 0 C1.43352212 0.00015908 2.86704998 0.00585132 4.30053711 0.01586914 C5.43041298 0.01799156 5.43041298 0.01799156 6.58311462 0.02015686 C8.99807646 0.02577163 11.41294687 0.03832656 13.82788086 0.05102539 C15.46134307 0.05603849 17.09480672 0.06060173 18.72827148 0.06469727 C22.74067671 0.07574585 26.75301326 0.09302033 30.76538086 0.11352539 C25.24874188 4.56927226 20.75597244 6.49802015 13.61694336 6.40649414 C12.63085587 6.40012688 12.63085587 6.40012688 11.62484741 6.39363098 C9.54625695 6.37697516 7.46867312 6.33935159 5.39038086 6.30102539 C3.97242621 6.28596144 2.55445622 6.27227604 1.13647461 6.26000977 C-2.32087804 6.22711577 -5.77765017 6.17542704 -9.23461914 6.11352539 C-3.23461914 0.11352539 -3.23461914 0.11352539 0 0 Z " fill="#E3E1E1" transform="translate(588.234619140625,324.886474609375)"/>
<path d="M0 0 C11.22 0 22.44 0 34 0 C30.43688534 2.672336 28.15414253 3.77263971 24 5 C24 4.01 24 3.02 24 2 C16.08 1.67 8.16 1.34 0 1 C0 0.67 0 0.34 0 0 Z " fill="#EAE6E6" transform="translate(585,325)"/>
</svg>
