<?xml version="1.0" encoding="UTF-8"?>
<!DOCTYPE svg PUBLIC "-//W3C//DTD SVG 1.1//EN" "http://www.w3.org/Graphics/SVG/1.1/DTD/svg11.dtd">
<svg xmlns="http://www.w3.org/2000/svg" version="1.1" width="113px" height="137px" style="shape-rendering:geometricPrecision; text-rendering:geometricPrecision; image-rendering:optimizeQuality; fill-rule:evenodd; clip-rule:evenodd" xmlns:xlink="http://www.w3.org/1999/xlink">
<g><path style="opacity:0.92" fill="#0e0e0e" d="M 20.5,23.5 C 25.8333,23.5 31.1667,23.5 36.5,23.5C 36.5,25.5 36.5,27.5 36.5,29.5C 39.8333,29.5 43.1667,29.5 46.5,29.5C 46.2606,27.5328 46.5939,25.6995 47.5,24C 53.5,23.3333 59.5,23.3333 65.5,24C 66.4061,25.6995 66.7394,27.5328 66.5,29.5C 69.8333,29.5 73.1667,29.5 76.5,29.5C 76.5,27.5 76.5,25.5 76.5,23.5C 82.0934,23.1934 87.5934,23.5268 93,24.5C 93.6667,30.5 93.6667,36.5 93,42.5C 90.3333,45.1667 87.6667,47.8333 85,50.5C 84.3333,62.5 84.3333,74.5 85,86.5C 85.7355,89.32 87.4022,91.32 90,92.5C 90.4986,96.1516 90.6653,99.8183 90.5,103.5C 93.4475,103.223 96.2809,103.556 99,104.5C 99.7961,108.755 99.6295,112.921 98.5,117C 70.5,117.667 42.5,117.667 14.5,117C 13.3705,112.921 13.2039,108.755 14,104.5C 16.7191,103.556 19.5525,103.223 22.5,103.5C 22.3347,99.8183 22.5014,96.1516 23,92.5C 25.5978,91.32 27.2645,89.32 28,86.5C 28.6667,74.5 28.6667,62.5 28,50.5C 25.3333,47.8333 22.6667,45.1667 20,42.5C 19.2098,36.0853 19.3765,29.752 20.5,23.5 Z"/></g>
<g><path style="opacity:1" fill="#fafafa" d="M 24.5,28.5 C 27.1667,28.5 29.8333,28.5 32.5,28.5C 32.2606,30.4672 32.5939,32.3005 33.5,34C 39.1667,34.6667 44.8333,34.6667 50.5,34C 51.4061,32.3005 51.7394,30.4672 51.5,28.5C 54.8333,28.5 58.1667,28.5 61.5,28.5C 61.2606,30.4672 61.5939,32.3005 62.5,34C 68.1667,34.6667 73.8333,34.6667 79.5,34C 80.4061,32.3005 80.7394,30.4672 80.5,28.5C 83.1667,28.5 85.8333,28.5 88.5,28.5C 88.5,31.8333 88.5,35.1667 88.5,38.5C 67.1667,38.5 45.8333,38.5 24.5,38.5C 24.5,35.1667 24.5,31.8333 24.5,28.5 Z"/></g>
<g><path style="opacity:1" fill="#fdfdfd" d="M 28.5,44.5 C 46.9955,43.3378 65.6621,43.1712 84.5,44C 83.5,45 82.5,46 81.5,47C 64.8333,47.6667 48.1667,47.6667 31.5,47C 30.6266,45.955 29.6266,45.1217 28.5,44.5 Z"/></g>
<g><path style="opacity:1" fill="#fbfbfb" d="M 33.5,49.5 C 48.8333,49.5 64.1667,49.5 79.5,49.5C 79.5,61.1667 79.5,72.8333 79.5,84.5C 64.1667,84.5 48.8333,84.5 33.5,84.5C 33.5,72.8333 33.5,61.1667 33.5,49.5 Z"/></g>
<g><path style="opacity:1" fill="#ededed" d="M 80.5,89.5 C 72.8624,90.8311 64.8624,91.4978 56.5,91.5C 48.1376,91.4978 40.1376,90.8311 32.5,89.5C 32.8039,88.8501 33.1373,88.1835 33.5,87.5C 48.8333,86.1667 64.1667,86.1667 79.5,87.5C 79.8627,88.1835 80.1961,88.8501 80.5,89.5 Z"/></g>
<g><path style="opacity:1" fill="#999999" d="M 32.5,89.5 C 40.1376,90.8311 48.1376,91.4978 56.5,91.5C 64.8624,91.4978 72.8624,90.8311 80.5,89.5C 81.2674,90.172 81.9341,91.0053 82.5,92C 65.1667,92.6667 47.8333,92.6667 30.5,92C 31.0659,91.0053 31.7326,90.172 32.5,89.5 Z"/></g>
<g><path style="opacity:1" fill="#fafafa" d="M 27.5,96.5 C 46.8333,96.5 66.1667,96.5 85.5,96.5C 85.5,98.8333 85.5,101.167 85.5,103.5C 66.1667,103.5 46.8333,103.5 27.5,103.5C 27.5,101.167 27.5,98.8333 27.5,96.5 Z"/></g>
<g><path style="opacity:1" fill="#fdfdfd" d="M 18.5,108.5 C 43.8333,108.5 69.1667,108.5 94.5,108.5C 94.5,109.833 94.5,111.167 94.5,112.5C 69.1667,112.5 43.8333,112.5 18.5,112.5C 18.5,111.167 18.5,109.833 18.5,108.5 Z"/></g>
</svg>
